<?xml version="1.0" standalone="no"?>
<!DOCTYPE svg PUBLIC "-//W3C//DTD SVG 1.1//EN" "http://www.w3.org/Graphics/SVG/1.1/DTD/svg11.dtd" >
<svg xmlns="http://www.w3.org/2000/svg">
<metadata></metadata>
<defs>
<font id="iowan_old_styleitalic" horiz-adv-x="1118" >
<font-face units-per-em="2048" ascent="1638" descent="-410" />
<missing-glyph horiz-adv-x="449" />
<glyph horiz-adv-x="2048" />
<glyph horiz-adv-x="2048" />
<glyph unicode="&#xd;" horiz-adv-x="682" />
<glyph unicode=" "  horiz-adv-x="449" />
<glyph unicode="&#x09;" horiz-adv-x="449" />
<glyph unicode="&#xa0;" horiz-adv-x="449" />
<glyph unicode="!" horiz-adv-x="674" d="M76 94q0 28 17.5 50t58.5 44l73 39l58 -59q27 -29 37 -48.5t10 -39.5q0 -28 -16.5 -49.5t-53.5 -40.5l-84 -43l-55 61q-26 28 -35.5 47t-9.5 39zM201 358q46 215 88 457t82 518l200 49q-34 -185 -135 -524.5t-135 -466.5z" />
<glyph unicode="&#x22;" horiz-adv-x="678" d="M90 1362q0 48 22 74t62 26q41 0 63.5 -26t22.5 -74q0 -9 -3 -34q-1 -5 -1 -7l-66 -457h-32l-64 457q-2 17 -3 26t-1 15zM418 1360q0 49 22.5 75.5t63.5 26.5q40 0 62 -26t22 -74q0 -14 -0.5 -23t-1.5 -18l-68 -457h-31l-65 457q0 2 -1 6q-3 22 -3 33z" />
<glyph unicode="#" d="M68 473l34 100l201 -4l82 256l-199 -4l33 107l197 -4l135 436h108l-145 -436l248 -2l135 438h104l-139 -440l201 2l-31 -105l-203 4l-79 -254l204 2l-30 -104l-207 6l-146 -471h-102l152 471l-250 4l-140 -475h-108l151 473h-206zM406 569l245 -4l82 258l-248 2z" />
<glyph unicode="$" d="M127 229q0 18 9.5 34.5t27.5 31.5l55 45q39 -66 92 -105t123 -53l72 451q-141 74 -197.5 142t-56.5 157q0 119 101.5 218t258.5 128l35 250h88l-45 -248q110 -10 171 -42.5t61 -80.5q0 -17 -8 -35.5t-19 -27.5l-49 -43q-42 53 -85.5 85t-86.5 40l-68 -408 q158 -88 213 -155t55 -158q0 -126 -107.5 -231.5t-268.5 -131.5l-35 -248h-88l42 244q-127 3 -208.5 44t-81.5 97zM391 993q0 -56 31 -96.5t115 -89.5l59 372q-89 -7 -147 -60t-58 -126zM510 180q99 18 158 79t59 144q0 58 -34 101.5t-118 89.5z" />
<glyph unicode="%" horiz-adv-x="1591" d="M131 889q0 201 121.5 354.5t271.5 153.5q45 0 170.5 -45t227.5 -45q77 0 160.5 25.5t179.5 78.5l75 -49l-1011 -1382l-70 47l954 1304q-81 -49 -160.5 -72.5t-160.5 -23.5q-44 0 -84.5 7t-79.5 22q15 -29 23 -64t8 -76q0 -203 -119 -360.5t-281 -157.5 q-108 0 -166.5 73.5t-58.5 209.5zM272 905q0 -104 33 -159.5t94 -55.5q86 0 149.5 128.5t63.5 309.5q0 93 -32 140t-95 47q-82 0 -147.5 -124t-65.5 -286zM852 283q0 201 121.5 354.5t271.5 153.5q106 0 167 -75.5t61 -207.5q0 -199 -117 -353.5t-271 -154.5 q-113 0 -173 72.5t-60 210.5zM993 297q0 -104 33 -159.5t94 -55.5q84 0 148.5 125t64.5 299q0 102 -31 151.5t-96 49.5q-82 0 -147.5 -124t-65.5 -286z" />
<glyph unicode="&#x26;" horiz-adv-x="1522" d="M55 410q0 174 113.5 282.5t333.5 145.5q-82 24 -128 86t-46 149q0 138 117 235t284 97q112 0 191 -52t79 -120q0 -23 -13 -40t-40 -28l-51 -22q-31 91 -81.5 134.5t-125.5 43.5q-88 0 -147.5 -62t-59.5 -155q0 -86 51.5 -147.5t143.5 -86.5l-14 -69q-198 -14 -309 -111.5 t-111 -255.5q0 -156 103.5 -256t266.5 -100q172 0 287 105t115 257q0 35 -7.5 67t-21.5 60q-13 1 -36 2q-61 2 -81 2q-121 0 -181 -29t-60 -87q0 -25 15 -49.5t46 -51.5l-29 -35q-8 -9 -21.5 -14.5t-27.5 -5.5q-35 0 -58.5 31t-23.5 80q0 107 86 183.5t237 102.5 q41 8 87.5 11.5t136.5 3.5h41q88 0 136 5.5t83 18.5q49 18 75 51t26 78q0 61 -38.5 95t-105.5 34q-18 0 -55 -3q-7 -1 -10 -1q-1 3 -1 8q-3 24 -3 31q0 47 26.5 70.5t79.5 23.5q86 0 143.5 -59.5t57.5 -149.5q0 -146 -106 -246t-265 -100q-17 0 -25 0.5t-15 1.5 q11 -30 16.5 -56t5.5 -52q0 -71 -30 -143t-87 -140q-87 -103 -211 -163t-250 -60q-222 0 -365 129t-143 326z" />
<glyph unicode="'" horiz-adv-x="348" d="M90 1360q0 50 21.5 76t62.5 26t63.5 -26t22.5 -74q0 -9 -3 -34q-1 -5 -1 -7l-66 -457h-32l-66 457q-1 8 -1.5 16t-0.5 23z" />
<glyph unicode="(" horiz-adv-x="813" d="M215 455q0 350 182.5 641.5t511.5 466.5l35 -66q-265 -178 -409 -449.5t-144 -590.5q0 -217 63.5 -411t194.5 -380l-59 -53q-190 196 -282.5 403.5t-92.5 438.5z" />
<glyph unicode=")" horiz-adv-x="813" d="M-166 -322q265 179 409 450.5t144 590.5q0 217 -63.5 411t-194.5 379l59 54q191 -197 283 -404t92 -438q0 -350 -182.5 -642t-511.5 -466z" />
<glyph unicode="*" horiz-adv-x="948" d="M203 868l16 93q115 28 180.5 52t65.5 38q0 16 -44 34.5t-171 55.5l18 90l86 45q68 -86 104 -123t52 -37q11 1 14.5 13t3.5 69q0 34 -2.5 74t-7.5 87l86 44l70 -45q-39 -80 -63.5 -145t-24.5 -85q0 -5 2 -8.5t6 -3.5q16 0 67.5 38.5t145.5 121.5l70 -45l-13 -90 q-121 -30 -184.5 -53t-63.5 -37q0 -17 52 -38.5t163 -51.5l-18 -93l-84 -43q-66 82 -104 121t-52 39q-13 0 -17.5 -17t-4.5 -77q0 -22 10 -114q3 -24 4 -35l-86 -44l-69 43q38 85 62 150.5t24 83.5q0 5 -2.5 7.5t-8.5 2.5q-12 0 -67 -41.5t-144 -118.5z" />
<glyph unicode="+" horiz-adv-x="1706" d="M254 553v117h541v551h118v-551h539v-117h-539v-553h-118v553h-541z" />
<glyph unicode="," horiz-adv-x="559" d="M-29 -215q89 57 129.5 103t40.5 89q0 37 -32.5 79t-32.5 67q0 23 16 44t47 38l80 43l47 -49q34 -36 46 -61.5t12 -55.5q0 -82 -85 -182t-221 -168z" />
<glyph unicode="-" horiz-adv-x="629" d="M25 410q11 29 22 62.5t27 88.5q15 -1 43 -2q124 -6 172 -6q61 0 211 6q29 2 43 2q-16 -39 -28 -77.5t-21 -77.5q-77 3 -139.5 5.5t-92.5 2.5q-88 0 -138.5 -1t-98.5 -3z" />
<glyph unicode="." horiz-adv-x="559" d="M78 119q0 28 16.5 49.5t52.5 40.5l84 43l56 -62q26 -27 35.5 -46t9.5 -40q0 -28 -17.5 -50t-58.5 -44l-74 -39l-57 60q-25 25 -36 45.5t-11 42.5z" />
<glyph unicode="/" horiz-adv-x="735" d="M-129 -150q136 256 402 767.5t401 764.5l92 -47q-162 -291 -528 -1001q-176 -342 -271 -524z" />
<glyph unicode="0" d="M66 440q0 189 52 367t148 317q94 136 205.5 208.5t226.5 72.5q167 0 262 -129t95 -356q0 -186 -52.5 -364.5t-148.5 -319.5q-94 -137 -204.5 -209t-225.5 -72q-171 0 -264.5 127t-93.5 358zM254 463q0 -190 57 -293.5t162 -103.5q76 0 141 52.5t117 155.5 q62 125 97.5 290t35.5 331q0 195 -57 296t-168 101q-153 0 -269 -244.5t-116 -584.5z" />
<glyph unicode="1" d="M172 0l16 72h41q61 0 93 10.5t44 34.5q35 62 96 415l7 35l32 184q6 30 42 255q25 150 40 245q-72 0 -133 -4t-116 -12l-9 72q115 15 230 39.5t229 58.5q-31 -151 -59 -303.5t-54 -308.5l-38 -230q-33 -200 -45.5 -288.5t-12.5 -116.5q0 -52 33 -71t121 -19h18l-15 -68 q-85 7 -155.5 10.5t-120.5 3.5q-54 0 -126 -3.5t-158 -10.5z" />
<glyph unicode="2" d="M-6 86q384 305 572 538t188 404q0 115 -65 189.5t-163 74.5q-86 0 -144 -46.5t-95 -145.5l-62 26q-24 11 -35.5 27t-11.5 41q0 79 110 145t255 66q173 0 286 -106t113 -269q0 -105 -50.5 -202.5t-168.5 -215.5q-49 -49 -177.5 -167t-279.5 -250l-35 -33h439 q108 0 141.5 29.5t58.5 115.5l68 -14q-23 -66 -40.5 -139t-31.5 -154q-153 8 -265.5 11t-211.5 3q-144 0 -224.5 -3t-137.5 -11z" />
<glyph unicode="3" d="M29 100q0 19 9 36.5t30 35.5l55 49q65 -77 133 -115t141 -38q135 0 224.5 95t89.5 236q0 134 -77 207.5t-218 73.5q-14 0 -59 -2q-23 -2 -35 -2l16 81q169 2 282 90.5t113 217.5q0 104 -60 169.5t-155 65.5q-75 0 -128 -45t-85 -137l-51 25q-23 10 -33 25t-10 38 q0 73 106.5 135t247.5 62q161 0 259 -81t98 -212q0 -119 -89.5 -216t-248.5 -151q141 -7 223 -88.5t82 -214.5q0 -191 -167.5 -337t-385.5 -146q-132 0 -219.5 42.5t-87.5 100.5z" />
<glyph unicode="4" d="M16 516q22 22 62 61t49 50l520 590q39 44 66.5 81.5t48.5 73.5l166 31l-154 -860q69 0 132.5 1t115.5 3l-47 -129q-54 3 -109 4.5t-110 1.5l-31 -197q-4 -26 -6 -46t-2 -31q0 -47 23 -63.5t89 -16.5h35l-10 -70q-82 6 -140.5 9t-86.5 3q-53 0 -120.5 -3t-148.5 -9l19 70 q8 0 22 -1t21 -1q68 0 95.5 23t49.5 134l39 199h-358q-14 0 -63.5 -1.5t-129.5 -4.5zM170 543h457l118 661z" />
<glyph unicode="5" d="M88 92q0 17 8.5 33.5t26.5 34.5l57 55q67 -76 128.5 -110.5t129.5 -34.5q132 0 221 115t89 284q0 116 -58 183t-158 67q-49 0 -110.5 -17.5t-151.5 -58.5l-59 55l170 664q129 -11 198 -15t121 -4q74 0 152 4.5t164 12.5l-64 -168q-81 -8 -183 -12t-237 -4h-92l-116 -414 q85 41 156.5 60.5t135.5 19.5q138 0 226 -93t88 -239q0 -92 -37.5 -184t-106.5 -168q-83 -93 -198.5 -147t-229.5 -54q-111 0 -190.5 41t-79.5 94z" />
<glyph unicode="6" d="M109 408q0 200 62 398.5t169 338.5q92 120 213.5 186t251.5 66q113 0 195.5 -47t82.5 -105q0 -16 -10.5 -33.5t-32.5 -35.5l-43 -39q-64 80 -124.5 115.5t-131.5 35.5q-160 0 -269 -159t-161 -467q94 93 183 137.5t184 44.5q123 0 203 -94t80 -242q0 -224 -143.5 -385.5 t-348.5 -161.5q-163 0 -261.5 122t-98.5 325zM289 410q0 -166 59 -256.5t166 -90.5q126 0 202.5 103.5t76.5 271.5q0 132 -53.5 202.5t-151.5 70.5q-71 0 -147 -42.5t-146 -121.5q-3 -37 -4.5 -71t-1.5 -66z" />
<glyph unicode="7" d="M152 -16l766 1200q-97 2 -183.5 3t-159.5 1q-176 0 -227.5 -31.5t-68.5 -120.5l-72 13q19 74 34.5 153t27.5 160l42 -3q204 -11 324 -11q115 0 230 3t229 9l26 -68q-228 -330 -418 -649t-362 -659h-188z" />
<glyph unicode="8" d="M72 289q0 122 89.5 218.5t295.5 194.5q-112 96 -160.5 175.5t-48.5 164.5q0 144 129.5 252.5t296.5 108.5q152 0 252 -85.5t100 -215.5q0 -104 -76.5 -192.5t-255.5 -186.5q132 -112 182 -190.5t50 -163.5q0 -157 -145.5 -284.5t-329.5 -127.5q-165 0 -272 94.5 t-107 237.5zM242 309q0 -104 72.5 -177t179.5 -73q111 0 188.5 72t77.5 174q0 75 -54 152.5t-192 191.5q-137 -77 -204.5 -161.5t-67.5 -178.5zM410 1087q0 -60 47 -127.5t174 -179.5q120 68 174.5 141.5t54.5 165.5q0 99 -60 159.5t-159 60.5q-97 0 -164 -63.5t-67 -156.5z " />
<glyph unicode="9" d="M33 117q0 28 43 68l2 1l53 50q66 -88 124.5 -125t127.5 -37q156 0 264 160.5t160 467.5q-90 -91 -180 -137.5t-178 -46.5q-131 0 -212 92t-81 242q0 226 144 387.5t349 161.5q164 0 261.5 -121.5t97.5 -325.5q0 -203 -62 -401.5t-168 -335.5q-92 -120 -213 -186t-252 -66 q-114 0 -197 47t-83 105zM326 915q0 -125 53 -194.5t149 -69.5q71 0 148.5 43t146.5 121q3 40 4.5 75t1.5 62q0 165 -59.5 255.5t-167.5 90.5q-127 0 -201.5 -103.5t-74.5 -279.5z" />
<glyph unicode=":" horiz-adv-x="569" d="M72 119q0 28 16.5 49.5t52.5 40.5l82 43l58 -62q25 -27 35 -46t10 -40q0 -28 -17.5 -50t-58.5 -44l-76 -39l-55 60q-26 25 -36.5 45.5t-10.5 42.5zM184 788q0 29 14.5 49.5t47.5 39.5l86 47l63 -68l3 -3q38 -42 38 -81q0 -26 -17.5 -47t-53.5 -39l-80 -39l-62 62 q-20 20 -29.5 39t-9.5 40z" />
<glyph unicode=";" horiz-adv-x="569" d="M-45 -215q90 58 131 103.5t41 88.5q0 37 -34 79t-34 67q0 23 16.5 44t47.5 38l82 43l45 -49q35 -38 47 -63t12 -54q0 -82 -85.5 -182t-221.5 -168zM166 788q0 29 14 49.5t47 39.5l86 47l63 -67l3 -3q39 -43 39 -82q0 -26 -17.5 -47t-54.5 -39l-80 -39l-61 62 q-20 20 -29.5 39t-9.5 40z" />
<glyph unicode="&#x3c;" horiz-adv-x="1706" d="M264 559v103l1178 483v-127l-1000 -408l1000 -405v-129z" />
<glyph unicode="=" horiz-adv-x="1706" d="M254 360v117h1198v-117h-1198zM254 743v117h1198v-117h-1198z" />
<glyph unicode="&#x3e;" horiz-adv-x="1706" d="M264 76v129l1000 405l-1000 408v127l1178 -483v-103z" />
<glyph unicode="?" horiz-adv-x="840" d="M74 94q0 28 17.5 50t58.5 44l73 39l58 -59q26 -28 35.5 -46.5t9.5 -39.5q0 -29 -17 -51.5t-53 -40.5l-82 -43l-55 63q-27 30 -36 47.5t-9 36.5zM152 1255q0 60 76 104t186 44q159 0 274 -116.5t115 -272.5q0 -111 -66 -195.5t-243 -189.5q-19 -11 -52 -30 q-147 -83 -149 -207l-92 -34q21 103 32.5 178t16.5 140q220 107 319 202t99 199q0 87 -58.5 149t-138.5 62q-61 0 -111 -27t-133 -114l-47 45q-14 13 -21 29t-7 34z" />
<glyph unicode="@" horiz-adv-x="2048" d="M213 340q0 177 73.5 355.5t200.5 312.5q135 142 308.5 219.5t357.5 77.5q273 0 450 -163.5t177 -412.5q0 -145 -66.5 -280.5t-191.5 -247.5q-76 -68 -143.5 -101.5t-127.5 -33.5q-66 0 -101.5 47t-35.5 135q0 11 1.5 32.5t4.5 54.5q-174 -163 -243 -210t-115 -47 q-64 0 -96.5 55t-32.5 162t32 213.5t91 198.5q78 120 180.5 184.5t214.5 64.5q27 0 55 -5t58 -15l127 53q-69 -285 -103.5 -464.5t-34.5 -254.5q0 -45 20 -68.5t58 -23.5q109 0 210 171.5t101 383.5q0 225 -139.5 357.5t-376.5 132.5q-152 0 -292.5 -70t-251.5 -201 q-108 -126 -167 -279t-59 -308q0 -279 173 -450t456 -171q206 0 409.5 122.5t356.5 340.5l37 -60q-165 -242 -383 -373.5t-453 -131.5q-327 0 -533 195t-206 503zM791 350q0 -78 13 -107.5t44 -29.5t100 53.5t189 169.5q17 74 36 167.5t46 230.5q-36 22 -63 31t-54 9 q-59 0 -115 -42.5t-100 -122.5q-41 -75 -68.5 -178t-27.5 -181z" />
<glyph unicode="A" horiz-adv-x="1444" d="M-94 0l10 65l22.5 -3t12.5 -1q89 0 214 215q37 63 58 99l221 358q83 135 178.5 300t198.5 351h146q3 -60 15.5 -150t47.5 -298l74 -431q7 -39 19 -108q41 -243 55 -281q11 -30 32 -40t82 -10l-12 -66q-75 6 -131.5 9t-93.5 3q-44 0 -105 -3t-137 -9l12 66h15 q74 0 102.5 21.5t28.5 76.5q0 9 -3 34q-1 7 -1 11l-45 323q-65 1 -125 2t-119 1q-64 0 -123 -0.5t-123 -2.5l-160 -282q-27 -50 -36 -75t-9 -44q0 -31 27 -48t76 -17h22l-13 -66q-24 2 -67 5q-110 7 -147 7q-39 0 -94 -3t-125 -9zM481 616h135q126 0 184 0.5t105 2.5 l-86 575z" />
<glyph unicode="B" horiz-adv-x="1233" d="M-25 0l13 66h39q62 0 88.5 35.5t54.5 197.5l141 829q4 27 6 48t2 34q0 44 -25 63t-83 19h-18l12 74q60 -7 113.5 -10.5t95.5 -3.5q58 0 161 7t148 7q176 0 279.5 -84t103.5 -225q0 -124 -82.5 -212.5t-235.5 -127.5q146 -20 226 -98t80 -201q0 -184 -158 -305t-406 -121 q-68 0 -180.5 10t-154.5 10q-47 0 -102 -3t-118 -9zM319 115q55 -15 107 -22t102 -7q177 0 273 82.5t96 232.5q0 138 -88 198t-293 60h-16q-49 -2 -92 -2q-25 -131 -47 -266t-42 -276zM422 750h94q211 0 308.5 67t97.5 213q0 119 -69 180.5t-202 61.5q-25 0 -60 -2t-77 -6 q-22 -117 -63 -352q-19 -108 -29 -162z" />
<glyph unicode="C" horiz-adv-x="1337" d="M88 561q0 162 63 319t175 275q115 120 267.5 184t324.5 64q93 0 186.5 -26t191.5 -79q-23 -73 -38.5 -145t-22.5 -143l-68 10q2 17 3 33t1 32q0 92 -88.5 145.5t-238.5 53.5q-262 0 -409.5 -185t-147.5 -511q0 -238 116 -377t314 -139q144 0 244 69.5t143 200.5l63 -14 q-15 -50 -27 -106.5t-24 -135.5q-122 -64 -230.5 -96.5t-201.5 -32.5q-270 0 -433 165.5t-163 438.5z" />
<glyph unicode="D" horiz-adv-x="1495" d="M-25 0l13 66h39q62 0 88.5 34t54.5 199l141 827q4 27 6 48t2 34q0 44 -24.5 63t-81.5 19h-20l14 68q62 -6 113 -9t94 -3q26 0 130.5 6t184.5 6q330 0 500 -142.5t170 -418.5q0 -151 -57.5 -303.5t-153.5 -260.5q-108 -119 -255 -179t-329 -60q-55 0 -189 9t-212 9 q-19 0 -75.5 -3t-152.5 -9zM328 115q76 -14 140 -20.5t120 -6.5q296 0 454 176.5t158 505.5q0 247 -127.5 370.5t-384.5 123.5q-30 0 -71 -2.5t-101 -8.5q-81 -438 -122.5 -690.5t-65.5 -447.5z" />
<glyph unicode="E" horiz-adv-x="1190" d="M-24 0l12 66h39q62 0 88.5 35.5t54.5 197.5l141 829q4 27 6 48t2 34q0 44 -25 63t-83 19h-18l12 70q134 -5 247 -7.5t216 -2.5q63 0 417 8l68 2q-16 -64 -27.5 -134.5t-17.5 -146.5l-76 -3q1 8 1.5 16.5t0.5 25.5q0 83 -53.5 112.5t-280.5 29.5h-53q-26 0 -57 -1t-80 -4 q-22 -122 -43.5 -246.5t-42.5 -250.5q7 0 22 -1q117 -5 205 -5h31q152 0 192.5 27t53.5 102l65 -15q-25 -88 -40 -174.5t-19 -171.5l-70 -4q1 5 1 12q3 31 3 43q0 57 -40 76t-220 19h-26q-42 0 -83.5 -1t-88.5 -3q-29 -157 -51.5 -292t-38.5 -257q66 -8 135.5 -11.5 t185.5 -3.5q186 0 248 42t96 173l70 -12q-27 -92 -42.5 -165t-23.5 -138q-160 6 -297 9t-254 3q-88 0 -188 -2.5t-274 -9.5z" />
<glyph unicode="F" horiz-adv-x="1081" d="M-27 0l13 65q7 -1 14 -1.5t20 -0.5q102 0 135 180q3 16 5 26l160 887q2 15 4 29t2 23q0 46 -22.5 65t-76.5 19h-26l10 70q13 -1 40 -2q225 -8 365 -8q115 0 240 2.5t266 6.5q-20 -75 -32 -148.5t-15 -143.5l-74 -2q0 14 1.5 31.5t1.5 23.5q0 78 -54.5 105.5t-255.5 27.5 q-40 0 -145 -3q-20 0 -31 -1q-9 -48 -26 -144q-48 -259 -70 -388q72 -2 141.5 -3t163.5 -1q78 0 109 26t47 99l71 -15q-29 -87 -44.5 -174t-19.5 -178l-73 -2q0 7 1 27t1 32q0 58 -37.5 77.5t-203.5 19.5h-23h-152l-63 -383q-5 -29 -7.5 -53t-2.5 -35q0 -49 35.5 -69.5 t119.5 -20.5h17l-13 -66q-91 6 -154 9t-99 3q-66 0 -131 -3t-132 -9z" />
<glyph unicode="G" horiz-adv-x="1421" d="M94 549q0 166 57.5 320.5t163.5 273.5q114 127 272 193.5t347 66.5q102 0 201.5 -24.5t201.5 -73.5q-21 -76 -36.5 -146.5t-24.5 -136.5l-71 8q2 24 3.5 41t1.5 23q0 94 -92 145t-264 51q-267 0 -414 -184.5t-147 -517.5q0 -251 117.5 -388t332.5 -137q63 0 123 12.5 t117 37.5q22 119 35.5 212.5t13.5 125.5q0 41 -28 58t-103 17h-20l14 72q74 -3 129.5 -4.5t95.5 -1.5q54 0 109.5 1.5t113.5 4.5l-10 -71q-5 0 -10.5 0.5t-15.5 0.5q-88 0 -128 -306q-13 -100 -22 -161q-152 -55 -265.5 -79.5t-213.5 -24.5q-275 0 -429.5 156.5 t-154.5 435.5z" />
<glyph unicode="H" horiz-adv-x="1532" d="M-24 0l12 66h39q62 0 88.5 35.5t54.5 197.5l141 829q4 27 6 48t2 34q0 44 -25 63t-83 19h-18l12 68q76 -6 131.5 -9t93.5 -3q50 0 110.5 3t133.5 9l-10 -68h-21q-75 0 -105 -26.5t-42 -108.5l-70 -401q83 -4 164.5 -6t161.5 -2q91 0 187 2t198 6l59 373q7 47 8.5 61.5 t1.5 21.5q0 42 -25.5 61t-82.5 19h-21l13 68q72 -6 127 -9t94 -3q52 0 115 3t135 9l-13 -68h-20q-55 0 -80.5 -13t-40.5 -46q-10 -20 -32.5 -136t-69.5 -388l-13 -79q-9 -54 -26 -152q-47 -271 -47 -322q0 -53 21.5 -71.5t82.5 -18.5h18h11l-13 -66q-106 8 -157 11t-84 3 q-57 0 -237 -14h-3l10 65q6 0 14 -1t23 -1q108 0 147 208l3 14l65 368q-108 4 -214 6.5t-206 2.5q-78 0 -149.5 -2.5t-140.5 -6.5l-68 -387q-5 -36 -7.5 -59t-2.5 -39q0 -56 21.5 -79t74.5 -23h25h14l-13 -66q-67 7 -128.5 10.5t-114.5 3.5q-34 0 -94.5 -3.5t-140.5 -10.5z " />
<glyph unicode="I" horiz-adv-x="674" d="M-23 0l15 65q7 -1 13.5 -1.5t19.5 -0.5q63 0 92.5 34.5t52.5 164.5l150 859q3 21 5.5 41.5t2.5 29.5q0 60 -26.5 80t-104.5 20l16 70q101 -9 152.5 -11.5t89.5 -2.5q47 0 106.5 3.5t128.5 9.5l-14 -69q-6 0 -15.5 1t-13.5 1q-67 0 -97.5 -36.5t-55.5 -178.5l-142 -811 q-6 -35 -9 -59.5t-3 -38.5q0 -60 23 -82t81 -22q5 0 13 1t12 1q6 0 9.5 -1t4.5 -2l-14 -65q-82 6 -142.5 9t-101.5 3t-102.5 -3t-145.5 -9z" />
<glyph unicode="J" horiz-adv-x="674" d="M-274 -320q196 7 292.5 121.5t153.5 452.5l147 866q4 24 6.5 43.5t2.5 28.5q0 60 -26.5 80t-104.5 20l16 70q101 -9 152.5 -11.5t89.5 -2.5q47 0 106.5 3.5t128.5 9.5l-14 -69h-23q-60 0 -87.5 -19.5t-45.5 -78.5q-23 -77 -117 -650q-27 -165 -43 -257 q-63 -389 -194.5 -526.5t-407.5 -151.5z" />
<glyph unicode="K" horiz-adv-x="1356" d="M-33 0l15 76q8 -1 17.5 -1.5t27.5 -0.5q58 0 83 27t46 141l153 868q6 34 9.5 60t3.5 40q0 48 -22.5 66t-82.5 18q-10 0 -15.5 -0.5t-8.5 -0.5l10 71q105 -6 158.5 -8t84.5 -2q51 0 106.5 2.5t112.5 7.5l-12 -72h-22q-65 0 -92 -27t-47 -143l-78 -424l540 461 q43 36 60.5 56.5t17.5 33.5q0 23 -14 33t-45 10h-29l13 72q76 -6 125 -8t87 -2q49 0 101 2.5t106 7.5l-10 -72q-10 -2 -31 -2q-76 0 -183 -90q-23 -20 -36 -31l-514 -417l418 -547l4 -6q100 -133 199 -133q15 0 23 0.5t13 0.5l-14 -67q-83 6 -118 8t-56 2q-37 0 -78 -2.5 t-83 -7.5q-1 41 -134.5 226t-363.5 460l-76 -446l-1 -5q-9 -64 -9 -81q0 -49 24.5 -67.5t89.5 -18.5h15l-13 -68q-88 6 -145 9t-88 3q-49 0 -109 -3t-133 -9z" />
<glyph unicode="L" horiz-adv-x="1063" d="M-37 0l10 65q8 0 18.5 -1t26.5 -1q105 0 139 192l3 18l149 830q9 48 12 68t3 33q0 52 -28 70t-112 18l15 70l42 -3q142 -9 199 -9t114 3t118 9l-13 -70h-10q-64 0 -95 -22.5t-48 -83.5q-23 -86 -75.5 -385t-108.5 -682q70 -7 137 -11t131 -4q158 0 220 44t93 169l74 -10 q-25 -81 -42.5 -156.5t-29.5 -150.5q-222 8 -343 11t-208 3q-77 0 -168.5 -3t-222.5 -11z" />
<glyph unicode="M" horiz-adv-x="1759" d="M-47 0l8 66q5 0 15 -1.5t14 -1.5q106 0 154 208l1 7l187 833q9 44 12.5 62.5t3.5 24.5q0 56 -27 75t-112 19l14 68q12 0 36 -1q99 -3 138 -3q42 0 90 1.5t100 4.5q0 -1 -0.5 -3.5t-0.5 -10.5q0 -65 63 -347.5t174 -715.5l137 243q427 764 435 832q56 -3 102.5 -4.5 t83.5 -1.5q33 0 77.5 1.5t100.5 3.5l-12 -67h-21q-108 0 -130 -169l-3 -24l-104 -814q-6 -48 -9 -77t-3 -44q0 -54 25 -76t85 -22h17l-13 -66q-47 5 -98 7.5t-137 2.5q-49 0 -112.5 -2.5t-132.5 -7.5l15 65q7 0 16 -1t25 -1q119 0 147 212q2 16 3 25l123 904l-582 -1036 q-24 -42 -43.5 -80.5t-36.5 -81.5h-78q-6 50 -16.5 102.5t-30.5 135.5l-217 909l-182 -879q-9 -44 -12.5 -71.5t-3.5 -42.5q0 -55 26.5 -74.5t100.5 -19.5h14l-11 -66q-62 5 -117.5 7.5t-98.5 2.5q-48 0 -97.5 -2.5t-101.5 -7.5z" />
<glyph unicode="N" horiz-adv-x="1460" d="M-66 0l13 74q4 -1 9 -1q26 -3 38 -3q63 0 91 33t48 151l154 840q6 30 9 57t3 45q0 54 -30 75t-111 21l15 70q59 -5 90 -6.5t59 -1.5q44 0 154 7q12 0 19 1q2 -33 26 -90.5t69 -132.5l512 -873l137 846q3 18 4.5 36.5t1.5 41.5q0 50 -28 73t-89 23h-24l12 75 q63 -2 117.5 -3.5t101.5 -1.5q63 0 106 1.5t86 4.5l-9 -76q-6 0 -15.5 1t-13.5 1q-106 0 -143 -196v-2q-86 -446 -133.5 -732.5t-47.5 -355.5v-12h-123q-24 54 -52.5 108.5t-63.5 114.5l-539 915l-133 -819q-1 -8 -4 -25q-14 -95 -14 -122q0 -50 23 -70t79 -20 q15 0 23.5 0.5t15.5 0.5l-12 -73q-89 6 -137 8t-81 2q-30 0 -77.5 -2t-135.5 -8z" />
<glyph unicode="O" horiz-adv-x="1497" d="M88 506q0 162 53.5 321t149.5 281q109 140 267 217.5t335 77.5q239 0 378.5 -147t139.5 -398q0 -159 -53.5 -318t-149.5 -282q-112 -143 -268 -220t-334 -77q-240 0 -379 146t-139 399zM287 537q0 -225 99.5 -344t287.5 -119q244 0 391 204.5t147 542.5q0 232 -99 352.5 t-288 120.5q-244 0 -391 -206.5t-147 -550.5z" />
<glyph unicode="P" horiz-adv-x="1176" d="M-29 0l11 66h26q68 0 94.5 22.5t44.5 128.5l168 925q5 24 8 45t3 27q0 46 -30.5 65t-102.5 19l12 66q75 -5 127.5 -7.5t93.5 -2.5q55 0 161.5 5t157.5 5q189 0 301.5 -96t112.5 -256q0 -204 -169.5 -333.5t-444.5 -129.5q-42 0 -80 2t-74 6l-55 -311q-1 -6 -2 -15 q-6 -41 -6 -59q0 -59 29 -82.5t102 -23.5q3 0 10.5 1t11.5 1q6 0 9 -0.5t5 -1.5l-10 -66q-88 6 -155 9t-111 3q-36 0 -98.5 -3t-149.5 -9zM408 641q10 -1 28 -2q83 -6 117 -6q190 0 299 96t109 262q0 130 -83.5 203.5t-232.5 73.5q-18 0 -50 -1.5t-81 -5.5 q-35 -188 -88 -505q-12 -78 -18 -115z" />
<glyph unicode="Q" horiz-adv-x="1497" d="M88 506q0 162 53.5 321t149.5 281q110 141 267.5 218t334.5 77q239 0 378.5 -147t139.5 -398q0 -299 -154.5 -532.5t-408.5 -315.5l108 -110q92 -93 180.5 -140t174.5 -47q34 0 75 6.5t95 20.5l18 -64q-112 -38 -189.5 -53.5t-146.5 -15.5q-113 0 -216 61.5t-214 196.5 l-88 106h-5q-44 -4 -67 -4q-224 0 -354.5 145t-130.5 394zM287 537q0 -224 99.5 -343.5t287.5 -119.5q243 0 389.5 205t146.5 542q0 231 -98.5 352t-286.5 121q-245 0 -391.5 -206t-146.5 -551z" />
<glyph unicode="R" horiz-adv-x="1331" d="M-25 0l13 66h39q62 0 88.5 35.5t54.5 197.5l145 864q3 15 5 28t2 21q0 41 -27.5 60.5t-83.5 19.5h-27l13 74q63 -6 115 -9t94 -3q65 0 173.5 6t151.5 6q184 0 287.5 -84.5t103.5 -232.5q0 -141 -90 -247.5t-264 -172.5l152 -289q6 -13 19 -39q127 -248 271 -248 q5 0 15.5 1t15.5 1l-12 -67q-46 -8 -77 -11.5t-54 -3.5q-91 0 -155 33.5t-105 102.5q-29 47 -107.5 215t-126.5 266q-32 -3 -64.5 -4.5t-66.5 -1.5q-13 0 -38.5 1t-39.5 1l-57 -377q-3 -21 -4.5 -36.5t-1.5 -25.5q0 -49 21.5 -65t90.5 -16h23l-13 -66q-33 1 -93 4 q-117 4 -150 4q-51 0 -180 -6q-35 -1 -56 -2zM410 664q13 -2 27 -2h42q212 0 333.5 89t121.5 242q0 137 -75 208t-218 71q-22 0 -54.5 -2t-72.5 -6q-42 -234 -66.5 -375t-37.5 -225z" />
<glyph unicode="S" horiz-adv-x="1139" d="M74 57q18 69 29 141.5t16 149.5l73 -6q-1 -13 -1.5 -24.5t-0.5 -24.5q0 -102 83 -163.5t216 -61.5q130 0 219 83t89 201q0 134 -228 253q-43 22 -65 34q-163 89 -227 167t-64 181q0 163 146.5 289.5t338.5 126.5q85 0 164.5 -20.5t167.5 -65.5q-19 -64 -32 -132t-19 -141 l-70 9q3 24 4.5 41t1.5 26q0 77 -74.5 124.5t-189.5 47.5q-117 0 -192.5 -67.5t-75.5 -169.5q0 -76 43 -129.5t199 -137.5q213 -112 275.5 -191.5t62.5 -195.5q0 -174 -163 -308t-382 -134q-84 0 -167.5 24t-176.5 74z" />
<glyph unicode="T" horiz-adv-x="1165" d="M98 1065q22 75 36 149t20 150q41 -8 82 -12t83 -4q16 0 31.5 0.5t47.5 3.5h589h70q48 0 88.5 3t79.5 9q-15 -89 -22.5 -161t-10.5 -138l-75 -2q0 16 0.5 30.5t0.5 28.5q0 66 -36 95.5t-121 33.5h-197l-162 -983q-5 -30 -7.5 -55.5t-2.5 -44.5q0 -55 24 -77.5t82 -22.5 q16 0 25.5 0.5t17.5 0.5l-10 -69q-72 5 -137.5 7.5t-122.5 2.5q-39 0 -96 -2t-158 -8l14 69q7 0 16 -0.5t25 -0.5q69 0 98.5 31.5t47.5 140.5l168 1011h-201q-103 0 -145.5 -39.5t-69.5 -154.5z" />
<glyph unicode="U" horiz-adv-x="1456" d="M162 358q0 79 43 292q20 98 31 153q30 162 48.5 276.5t18.5 139.5q0 38 -28 55.5t-87 17.5h-10l12 68q74 -6 128 -9t92 -3q50 0 110 3t133 9l-14 -68q-5 1 -12 1.5t-19 0.5q-107 0 -144 -228q-8 -50 -13 -78l-74 -418q-11 -60 -17 -111t-6 -92q0 -135 92.5 -213 t249.5 -78q93 0 171 29.5t128 82.5q47 49 77.5 144.5t62.5 322.5l43 291q12 82 19 150.5t7 93.5q0 54 -25.5 78t-84.5 24h-25l12 68q67 -6 119 -9t86 -3q43 0 97 3t120 9l-12 -68h-29q-46 0 -71 -9.5t-33 -31.5q-18 -38 -44 -178t-65 -405q-2 -15 -6 -42q-49 -350 -143 -470 q-73 -95 -194 -147t-267 -52q-224 0 -350.5 107t-126.5 294z" />
<glyph unicode="V" horiz-adv-x="1337" d="M121 1292l11 66q46 -2 122.5 -5t95.5 -3q63 0 121.5 2t116.5 6l-6 -66h-29q-61 0 -90 -21.5t-29 -66.5q0 -8 2.5 -28t5.5 -43l129 -953l555 996q10 17 14.5 30t4.5 23q0 33 -22.5 48t-71.5 15q-5 0 -17 -1t-18 -1l14 67q63 -2 118 -3.5t103 -1.5q37 0 88 1.5t117 3.5 l-12 -64q-5 0 -11.5 0.5t-17.5 0.5q-94 0 -216 -221q-44 -79 -71 -125l-204 -349q-367 -624 -367 -642h-14h-112q-2 39 -4.5 75t-6.5 66l-156 1018v4q-25 172 -125 172h-18z" />
<glyph unicode="W" horiz-adv-x="1929" d="M106 1284l11 76q71 -9 132.5 -14t108.5 -5q44 0 100.5 2.5t119.5 6.5l-11 -66h-49q-48 0 -75 -21t-27 -57q0 -23 0.5 -34.5t1.5 -21.5l119 -921l438 840l-19 109q-9 58 -33.5 82t-76.5 24h-15h-6l15 76q62 -5 118.5 -7.5t100.5 -2.5q34 0 86.5 2t140.5 7l-12 -75h-35 q-66 0 -90.5 -19.5t-24.5 -72.5q0 -9 1 -20t3 -31l138 -916l434 897q22 47 28.5 67t6.5 36q0 31 -23 45t-76 14h-26h-15l17 76q84 -6 132 -8t79 -2t78.5 2t136.5 8l-15 -74q-3 0 -8 1t-8 1q-100 0 -182 -167q-7 -14 -10 -21l-435 -858q-6 -14 -21 -43q-70 -135 -108 -232 h-112q-6 79 -25 193v2l-113 741l-413 -778q-25 -45 -43.5 -82.5t-34.5 -75.5h-112q-4 73 -20 192q-4 29 -5 41l-119 924q-13 104 -37.5 132t-87.5 28h-23z" />
<glyph unicode="X" horiz-adv-x="1346" d="M-69 0l12 66q4 0 12 -1.5t12 -1.5q89 0 209 137l4 5l410 473l-199 463q-40 95 -69 121t-78 26q-13 0 -19.5 -0.5t-11.5 -1.5l14 70q62 -4 117 -6t98 -2q35 0 89.5 2t143.5 8l-11 -72h-21q-42 0 -64 -10.5t-22 -30.5q0 -33 25 -90q5 -12 8 -19l129 -307l237 293 q32 41 51 73t19 46q0 25 -17 37t-53 12l-10 -1q-11 -1 -22 -1l10 72q11 -1 33 -2q111 -6 153 -6q65 0 202 7q12 1 17 1l-10 -72q-10 0 -24 -1t-17 -1q-40 0 -73 -20t-103 -103l-354 -418l244 -543q2 -5 7 -16q55 -123 156 -123h19l-13 -63q-116 6 -163 8t-74 2 q-36 0 -90.5 -2t-144.5 -8l12 63h20q56 0 74 13.5t18 50.5q0 13 -4 30t-12 36l-178 399l-310 -383q-27 -34 -39 -56.5t-12 -39.5q0 -27 15 -38.5t49 -11.5h49l-10 -63q-49 1 -123 3.5t-98 2.5q-37 0 -92 -1.5t-127 -4.5z" />
<glyph unicode="Y" horiz-adv-x="1180" d="M104 1292l13 70q77 -6 135 -9t98 -3q39 0 97 3t133 9l-13 -70h-32q-55 0 -77 -15t-22 -50q0 -10 4 -26.5t10 -34.5l173 -494l333 475q19 26 30 52.5t11 41.5q0 26 -20 39.5t-59 13.5q-11 0 -16 -0.5t-9 -0.5l12 69q90 -6 128 -8t61 -2q30 0 76 2t124 8l-12 -70h-16 q-71 0 -138 -86l-6 -8l-469 -625l-57 -362q-2 -12 -3 -24.5t-1 -26.5q0 -48 27.5 -69t89.5 -21h30l-10 -70q-86 6 -146 9t-98 3q-47 0 -113 -3t-149 -9l13 70h40q68 0 96 27.5t44 121.5l59 352l-213 590q-30 84 -54.5 107.5t-72.5 23.5h-31z" />
<glyph unicode="Z" horiz-adv-x="1266" d="M-16 57q64 49 264 300l18 24l699 879q-26 0 -88.5 1t-100.5 1h-49q-275 0 -352 -46t-109 -174l-78 19q24 73 44.5 150t37.5 159q42 -8 84.5 -12t100.5 -4h18q61 2 115 2q338 0 451.5 3t172.5 11l29 -61q-69 -62 -256 -303q-78 -102 -123 -158l-587 -737q79 -3 147.5 -5 t124.5 -2h61q278 0 355 49.5t104 184.5l78 -19q-28 -83 -48 -164.5t-32 -162.5q-149 8 -277.5 12t-246.5 4q-114 0 -245.5 -4t-283.5 -12z" />
<glyph unicode="[" horiz-adv-x="766" d="M115 -360l320 1902q51 -5 113 -7.5t189 -2.5h178l-12 -82q-23 0 -55 1t-41 1q-59 0 -116.5 -6t-117.5 -19l-282 -1679q60 -11 119.5 -16.5t117.5 -5.5q19 0 40.5 0.5t43.5 1.5l-10 -80h-162q-134 0 -201 -2t-124 -6z" />
<glyph unicode="\" horiz-adv-x="735" d="M147 1362l101 20q32 -144 149.5 -673t198.5 -879l-102 -20q-99 476 -183 851t-164 701z" />
<glyph unicode="]" horiz-adv-x="766" d="M-186 -352l14 82q23 0 54 -1t40 -1q59 0 116.5 6t117.5 18l282 1680q-60 11 -119.5 16.5t-117.5 5.5q-19 0 -40.5 -0.5t-43.5 -1.5l12 80h160q134 0 201 2t124 6l-319 -1902q-54 5 -115.5 7.5t-185.5 2.5h-180z" />
<glyph unicode="^" horiz-adv-x="2048" d="M412 897l522 565h178l520 -565h-92l-518 436l-520 -436h-90z" />
<glyph unicode="_" horiz-adv-x="1024" d="M0 -365h1024v-118h-1024v118z" />
<glyph unicode="`" horiz-adv-x="1024" d="M416 1438l157 73l144 -409l-76 -25z" />
<glyph unicode="a" horiz-adv-x="969" d="M25 242q0 118 30.5 227.5t89.5 206.5q85 136 195.5 208t234.5 72q27 0 59 -5.5t68 -16.5l140 59q-59 -282 -94 -506t-35 -294q0 -32 10.5 -48t32.5 -16q16 0 43 20t90 80l33 -61l-64 -62q-71 -71 -113.5 -98.5t-76.5 -27.5q-51 0 -81 43.5t-30 119.5q0 29 2 60t6 63 q-188 -182 -262.5 -234t-124.5 -52q-76 0 -114.5 66t-38.5 196zM193 279q0 -75 16.5 -112.5t50.5 -37.5q35 0 112 61t201 187q18 91 36.5 198.5t39.5 243.5q-46 26 -74.5 35.5t-56.5 9.5q-129 0 -227 -174t-98 -411z" />
<glyph unicode="b" horiz-adv-x="973" d="M72 125l190 1165q6 36 9 59t3 35q0 33 -16 47.5t-51 14.5q-19 0 -29 -1t-20 -3l-6 55q70 10 148.5 25.5t172.5 38.5q-24 -114 -43 -213t-31 -170l-75 -439l108 99q96 86 147.5 113.5t102.5 27.5q98 0 151.5 -81.5t53.5 -229.5q0 -280 -169 -488.5t-388 -208.5 q-84 0 -147.5 37.5t-110.5 116.5zM250 154q32 -37 69.5 -55.5t79.5 -18.5q135 0 224.5 157t89.5 402q0 97 -25.5 147t-75.5 50q-38 0 -108 -47t-191 -154l-45 -291q-10 -61 -14 -106t-4 -84z" />
<glyph unicode="c" horiz-adv-x="739" d="M27 319q0 274 140.5 462t346.5 188q75 0 128.5 -32t53.5 -73q0 -16 -8.5 -32t-30.5 -37l-53 -52q-66 67 -105.5 89t-80.5 22q-92 0 -160 -136.5t-68 -336.5q0 -134 35 -202t103 -68q38 0 104 43.5t139 119.5l41 -71q-116 -123 -198 -177.5t-150 -54.5q-108 0 -172.5 94 t-64.5 254z" />
<glyph unicode="d" horiz-adv-x="997" d="M27 279q0 284 143.5 488t341.5 204q40 0 81.5 -10.5t86.5 -30.5l57 362q3 21 4.5 42.5t1.5 43.5q0 40 -16 55t-59 15q-13 0 -26.5 -0.5t-29.5 -1.5l-4 59q83 8 167.5 22t170.5 34q-93 -480 -153 -866.5t-60 -469.5q0 -51 9.5 -71.5t31.5 -20.5q12 0 28.5 10t41.5 33 l61 55l33 -57l-115 -113q-60 -58 -87 -74t-52 -16q-53 0 -77.5 50t-24.5 155q0 23 1 41.5t3 38.5l-170 -154q-75 -68 -119.5 -94t-83.5 -26q-90 0 -138 76.5t-48 220.5zM190 322q0 -95 22.5 -144t66.5 -49q30 0 111.5 61t193.5 168l75 453q-55 32 -98 46.5t-80 14.5 q-123 0 -207 -157.5t-84 -392.5z" />
<glyph unicode="e" horiz-adv-x="778" d="M23 301q0 105 34.5 225.5t89.5 210.5q69 110 158 170t184 60q97 0 162.5 -61.5t65.5 -149.5q0 -71 -39.5 -117.5t-181.5 -118.5l-306 -158v-10q0 -119 37.5 -181t108.5 -62q42 0 105.5 37.5t162.5 121.5l35 -63q-143 -132 -227.5 -183t-153.5 -51q-105 0 -170 91t-65 239 zM195 451l10 5q356 182 356 281q0 53 -38 92t-89 39q-79 0 -142 -109t-97 -308z" />
<glyph unicode="f" horiz-adv-x="645" d="M-258 -449q0 16 6.5 30.5t19.5 28.5l35 42q39 -30 67 -42.5t54 -12.5q74 0 123 111.5t76 342.5l92 787h-61q-8 0 -31.5 -2t-58.5 -4l16 75q42 2 77.5 13.5t69.5 35.5q64 274 209 434t326 160q69 0 113.5 -30t44.5 -76q0 -19 -10 -38.5t-27 -35.5l-49 -43 q-48 47 -87.5 68.5t-78.5 21.5q-111 0 -176 -117t-97 -376q19 -1 40.5 -1.5t60.5 -0.5q31 0 56 0.5t50 0.5l-18 -92q-10 1 -29 1q-121 4 -172 4q-16 -103 -43 -290q-99 -684 -199 -863q-56 -101 -130.5 -159.5t-145.5 -58.5q-53 0 -88 25t-35 61z" />
<glyph unicode="g" horiz-adv-x="940" d="M-121 -274q0 75 78 141.5t268 150.5q-82 37 -118.5 67.5t-36.5 61.5q0 30 42 61t183 93q-6 -1 -12.5 -1.5t-20.5 -0.5q-89 0 -139.5 59.5t-50.5 165.5q0 183 121.5 313t291.5 130q55 0 148 -16.5t131 -16.5q30 0 69.5 5.5t90.5 16.5l-43 -112q-2 0 -6 -1q-39 -3 -60 -3 q-26 0 -120 14h-3q40 -36 58 -79t18 -105q0 -117 -61.5 -208t-171.5 -136q-27 -11 -74 -31q-217 -88 -217 -115q0 -26 113 -70q39 -15 61 -24q237 -97 303.5 -153.5t66.5 -133.5q0 -127 -159.5 -230.5t-372.5 -103.5q-166 0 -271.5 74t-105.5 187zM43 -248q0 -72 89 -124 t220 -52q118 0 196.5 52.5t78.5 129.5q0 76 -244 186q-55 25 -86 40q-146 -75 -200 -125.5t-54 -106.5zM238 516q0 -83 35.5 -127.5t101.5 -44.5q102 0 167.5 104t65.5 265q0 84 -38 131t-107 47q-96 0 -160.5 -107.5t-64.5 -267.5z" />
<glyph unicode="h" horiz-adv-x="1022" d="M29 -31q43 190 107 544l11 62l46 250q38 214 63 369t25 176q0 35 -15.5 51.5t-48.5 16.5q-17 0 -27.5 -0.5t-21.5 -1.5l-6 59q87 12 171 27.5t163 36.5q-47 -213 -65 -298.5t-26 -126.5l-88 -456l168 160q84 80 127.5 105.5t83.5 25.5q67 0 108.5 -57t41.5 -152 q0 -97 -49 -299.5t-49 -288.5q0 -26 10 -39.5t28 -13.5q10 0 23 7.5t27 20.5l75 74l35 -53l-108 -111q-40 -40 -78.5 -63t-67.5 -23q-49 0 -80.5 43.5t-31.5 114.5q0 85 51 299.5t51 312.5q0 37 -16 59.5t-41 22.5q-37 0 -189 -140q-85 -79 -139 -126l-62 -349 q-2 -15 -7 -44q-18 -97 -21 -149z" />
<glyph unicode="i" horiz-adv-x="563" d="M33 821l133 97q38 28 66 40.5t53 12.5q47 0 74.5 -38.5t27.5 -105.5q0 -73 -52 -286l-18 -72q-28 -113 -42.5 -187t-14.5 -102q0 -25 11 -41t28 -16q16 0 42 20t91 84l35 -59q-123 -127 -171 -162t-85 -35q-53 0 -85 44.5t-32 119.5q0 94 59.5 314t59.5 317q0 25 -12 40 t-31 15q-16 0 -42 -13t-65 -40zM283 1389q0 23 12 40.5t41 34.5l88 52l57 -64q24 -25 33.5 -44.5t9.5 -39.5q0 -21 -14.5 -40t-42.5 -36l-88 -49l-64 76q-20 25 -26 39.5t-6 30.5z" />
<glyph unicode="j" horiz-adv-x="580" d="M-307 -442q0 22 7.5 37.5t27.5 33.5l43 39q41 -49 77 -70.5t76 -21.5q74 0 117 81.5t88 346.5l41 229q34 201 57 357.5t23 177.5q0 24 -11 38.5t-28 14.5q-19 0 -92 -43q-20 -12 -31 -18l-31 57l115 76q59 38 97.5 56t64.5 18q39 0 59.5 -28t20.5 -81q0 -24 -3 -55 t-10 -68l-88 -590q-22 -153 -47 -251.5t-57 -159.5q-65 -125 -165.5 -197t-209.5 -72q-59 0 -100 27t-41 66zM281 1389q0 23 12 40.5t41 34.5l88 52l57 -64q24 -25 33.5 -44.5t9.5 -39.5q0 -21 -14.5 -40t-42.5 -36l-88 -49l-64 76q-20 25 -26 39.5t-6 30.5z" />
<glyph unicode="k" horiz-adv-x="1006" d="M43 -29q38 163 97 506q12 68 18 103l43 243q35 207 59.5 367t24.5 178q0 35 -15 50.5t-49 15.5q-11 0 -23 -0.5t-26 -1.5l-6 59q82 11 165.5 27.5t168.5 40.5q-23 -103 -44.5 -207.5t-43.5 -216.5l-76 -394l23 24q207 204 321 204q73 0 120.5 -55.5t47.5 -143.5 q0 -108 -84 -191t-248 -137q105 -170 176 -254t109 -84q15 0 35.5 13.5t76.5 62.5l33 -55q-92 -94 -135.5 -123t-81.5 -29q-68 0 -140 81t-218 343q-22 -5 -45.5 -9t-48.5 -7l-17 -92q-9 -62 -18.5 -130t-18.5 -143zM289 449q186 23 295.5 100.5t109.5 183.5q0 51 -24 78 t-70 27q-59 0 -222 -144q-38 -33 -59 -51z" />
<glyph unicode="l" horiz-adv-x="551" d="M80 139q0 67 45 297q25 127 39 201l41 225q39 219 60.5 355t21.5 165q0 32 -15 47t-47 15q-6 0 -24 -1t-29 -1l-6 55q65 9 143 24.5t183 39.5q-109 -545 -178.5 -937t-69.5 -444q0 -28 10.5 -44.5t28.5 -16.5q11 0 29 11t44 34l68 55l31 -55l-93 -88q-63 -60 -99 -82.5 t-64 -22.5q-58 0 -88.5 43t-30.5 125z" />
<glyph unicode="m" horiz-adv-x="1501" d="M14 819q25 18 69 52q128 98 173 98q42 0 67 -35.5t25 -95.5q0 -47 -13 -163q-2 -17 -3 -26q32 35 89 98q201 222 273 222q59 0 96 -50.5t37 -132.5q0 -29 -2 -63.5t-8 -83.5q16 18 46 53q233 277 325 277q60 0 97.5 -50t37.5 -131q0 -116 -48 -322.5t-48 -281.5 q0 -30 10 -48.5t25 -18.5q13 0 47.5 28.5t81.5 79.5l34 -61q-123 -128 -166.5 -160.5t-74.5 -32.5q-57 0 -88 42.5t-31 119.5q0 113 50 324t50 286q0 36 -13 56t-36 20t-81 -52.5t-232 -238.5q-35 -188 -52.5 -305t-25.5 -205l-176 -47q59 308 92 510t33 258 q0 37 -13.5 58.5t-33.5 21.5q-28 0 -261 -230l-47 -46q-37 -195 -56 -313t-27 -207l-179 -52q32 148 71 367q5 29 7 42l19 103q16 93 25 167t9 100q0 30 -12 49.5t-31 19.5q-11 0 -32 -10.5t-70 -42.5z" />
<glyph unicode="n" horiz-adv-x="1036" d="M14 821q11 9 32 26q154 124 206 124q50 0 74 -37.5t24 -116.5q0 -28 -3 -63t-9 -74l162 158q85 81 128.5 107t82.5 26q66 0 107.5 -58t41.5 -153q0 -97 -49 -299.5t-49 -288.5q0 -26 10 -39.5t29 -13.5q9 0 22.5 7.5t26.5 20.5l76 74l35 -53l-109 -111q-39 -40 -77.5 -63 t-67.5 -23q-50 0 -81.5 43.5t-31.5 114.5q0 85 51 299.5t51 312.5q0 37 -15.5 59.5t-41.5 22.5q-39 0 -239 -185q-53 -49 -83 -77l-63 -352l-6 -30q-21 -107 -25 -164l-178 -44q66 287 104.5 499t38.5 278q0 40 -9 57.5t-29 17.5q-12 0 -39.5 -14t-69.5 -41z" />
<glyph unicode="o" horiz-adv-x="930" d="M33 328q0 121 39 236t112 208q72 93 163.5 144t182.5 51q149 0 226.5 -92.5t77.5 -270.5q0 -102 -40 -217.5t-108 -208.5q-73 -100 -165.5 -153.5t-194.5 -53.5q-134 0 -213.5 97t-79.5 260zM203 319q0 -123 42.5 -188t123.5 -65q122 0 207.5 156.5t85.5 383.5 q0 135 -43 199.5t-132 64.5q-116 0 -200 -159t-84 -392z" />
<glyph unicode="p" horiz-adv-x="993" d="M-143 -518l12 69h31q57 0 78.5 22t33.5 89l168 991q3 15 8 45q18 107 35 174l-170 -118l-18 67q78 57 153.5 120t147.5 132l74 -26q-18 -59 -32.5 -121t-27.5 -131l-16 -101l18 20q226 244 328 244q92 0 149.5 -91t57.5 -242q0 -114 -44 -236.5t-118 -216.5 q-76 -96 -164.5 -146.5t-181.5 -50.5q-35 0 -71 9.5t-79 29.5l-49 -320q-3 -18 -4.5 -33t-1.5 -26q0 -49 23.5 -66.5t89.5 -17.5h32l-14 -69q-59 4 -117 6t-116 2q-35 0 -142 -5q-47 -2 -73 -3zM246 125q47 -27 90 -40t82 -13q123 0 210 165.5t87 401.5q0 90 -23 135t-69 45 q-58 0 -255 -183q-34 -31 -53 -48z" />
<glyph unicode="q" horiz-adv-x="938" d="M25 285q0 275 153 479.5t354 204.5q40 0 81 -11t89 -34l138 80q-31 -134 -79 -431l-5 -32l-70 -432q-41 -252 -55.5 -349t-14.5 -122q0 -47 22 -65.5t77 -18.5h20l-17 -68q-64 3 -114.5 4.5t-83.5 1.5q-50 0 -112 -3t-138 -9l15 71h12q141 0 170 168q1 8 2 13l86 518 q-131 -141 -217 -204.5t-143 -63.5q-80 0 -125 80.5t-45 222.5zM193 309q0 -87 20.5 -135.5t56.5 -48.5q33 0 103 56t196 184l74 454q-49 26 -88.5 38.5t-73.5 12.5q-72 0 -123.5 -43t-89.5 -135q-34 -82 -54.5 -187t-20.5 -196z" />
<glyph unicode="r" horiz-adv-x="756" d="M12 819l15 11q180 135 233 135q49 0 70.5 -31.5t21.5 -104.5q0 -64 -4 -119.5t-12 -95.5q137 226 195 288.5t108 62.5q34 0 57 -25t23 -61q0 -22 -11.5 -53.5t-48.5 -104.5q-18 25 -37 37t-38 12q-37 0 -87.5 -51.5t-158.5 -206.5q-34 -138 -57 -262.5t-35 -235.5 l-174 -41q63 260 98 459.5t35 300.5q0 43 -12.5 64.5t-36.5 21.5q-18 0 -101 -52l-8 -5z" />
<glyph unicode="s" horiz-adv-x="727" d="M-6 90q0 19 6 33t27 35l53 49q66 -73 110 -102t86 -29q63 0 107.5 42.5t44.5 100.5q0 66 -137 188q-36 32 -55 50q-80 72 -110 120t-30 97q0 107 108.5 200t237.5 93q86 0 143.5 -32t57.5 -75q0 -17 -7 -31.5t-21 -27.5l-56 -53l-7 6q-114 104 -173 104 q-56 0 -92.5 -33.5t-36.5 -85.5q0 -80 139 -196q17 -14 25 -21q103 -88 135.5 -138t32.5 -108q0 -111 -109.5 -207t-249.5 -96q-99 0 -164 34t-65 83z" />
<glyph unicode="t" horiz-adv-x="692" d="M78 834l12 67q46 2 84.5 16t77.5 44q9 36 20.5 75.5t26.5 83.5l164 76q-19 -67 -53 -210q-10 -42 -15 -62q59 0 120.5 1.5t129.5 4.5l-24 -100q-27 1 -60 1h-106h-80q-47 -206 -69.5 -360t-22.5 -258q0 -44 14.5 -69t40.5 -25q20 0 63 32t117 103l35 -64 q-144 -148 -198 -188.5t-91 -40.5q-69 0 -110 65t-41 177q0 73 23 209.5t87 423.5q-16 0 -41.5 -1t-34.5 -1h-69z" />
<glyph unicode="u" horiz-adv-x="1030" d="M31 817q93 69 163 107.5t99 38.5q41 0 64.5 -35t23.5 -97q0 -78 -61.5 -302t-61.5 -336q0 -35 12 -51.5t37 -16.5q28 0 95.5 55.5t226.5 212.5q38 180 61.5 304.5t36.5 222.5l180 43l-22 -99q-57 -243 -62 -271l-24 -128q-18 -91 -28.5 -174t-10.5 -117q0 -23 9 -36 t24 -13q14 0 52 27t87 73l31 -57l-138 -129q-37 -36 -66.5 -51t-60.5 -15q-45 0 -72.5 43.5t-27.5 116.5q0 21 3.5 50.5t14.5 92.5q-185 -189 -262 -246t-131 -57q-57 0 -95 53t-38 136q0 70 60 315q15 58 22 88q21 83 31 133.5t10 75.5q0 20 -10 32.5t-25 12.5 q-10 0 -39 -14t-80 -43z" />
<glyph unicode="v" horiz-adv-x="938" d="M18 811q85 93 132.5 128.5t85.5 35.5q136 0 157 -751q1 -51 2 -79q141 243 221 412.5t80 222.5q0 25 -9 45.5t-30 40.5l60 64q23 25 42 35t42 10q31 0 50 -25.5t19 -66.5q0 -86 -245 -503l-58 -99l-170 -291l-137 -30q2 47 3 79t1 61q0 176 -13.5 353t-33.5 297 q-7 42 -20.5 64t-32.5 22q-26 0 -102 -74l-7 -6z" />
<glyph unicode="w" horiz-adv-x="1446" d="M4 811q83 94 131.5 129t89.5 35q147 0 156 -777v-30q31 66 88 185q237 494 244 585l147 29v-64q0 -31 7 -111.5t20 -199.5l22 -194q2 -13 5 -39q16 -130 18 -209q146 274 209 420.5t63 205.5q0 21 -8.5 41t-26.5 41l58 68q20 24 40 36.5t40 12.5q31 0 49 -26t18 -70 q0 -71 -213 -456q-59 -107 -92 -167l-141 -258l-127 -29v27q0 42 -4 96t-13 129l-34 295q-1 5 -10 71.5t-13 123.5l-346 -709l-133 -31v95q0 362 -27 566t-74 204q-25 0 -101 -74l-7 -6z" />
<glyph unicode="x" horiz-adv-x="1061" d="M-37 61q0 20 9 37.5t28 34.5l47 41q36 -40 53.5 -51.5t34.5 -11.5q42 0 199 226q58 84 92 132q-18 49 -48 132q-85 237 -126 237q-22 0 -107 -63q-11 -8 -18 -13l-33 57q20 17 55 47q126 111 183 111q85 0 165 -239q24 -74 40 -117l14 21q217 335 326 335q46 0 76 -26.5 t30 -67.5q0 -18 -9 -35t-26 -31l-43 -37q-22 27 -44 41.5t-40 14.5q-47 0 -201 -222q-32 -47 -51 -73q20 -55 51 -148q97 -282 142 -282q27 0 102 74q20 19 31 30l35 -57q-95 -114 -144.5 -152.5t-93.5 -38.5q-90 0 -187 278q-30 86 -48 136q-20 -29 -55 -82 q-220 -332 -318 -332q-51 0 -86 28.5t-35 65.5z" />
<glyph unicode="y" horiz-adv-x="905" d="M-170 -436q0 17 7.5 32.5t29.5 36.5l53 50q29 -38 63 -58t68 -20q92 0 165 147.5t73 362.5q0 263 -43 469.5t-86 206.5q-18 0 -39 -20.5t-66 -84.5l-47 47q66 113 121 173.5t92 60.5q90 0 148.5 -201.5t58.5 -521.5q0 -46 -2 -92t-6 -91l27 60q233 521 233 633 q0 29 -9 52.5t-30 45.5l64 68q23 25 42 36t39 11q32 0 50 -21t18 -57q0 -64 -101.5 -307.5t-258.5 -536.5q-172 -319 -292.5 -450.5t-236.5 -131.5q-62 0 -98.5 27.5t-36.5 73.5z" />
<glyph unicode="z" horiz-adv-x="924" d="M-53 14q291 322 430 481.5t245 290.5q-33 4 -97 11q-181 20 -232 20q-71 0 -105.5 -31t-50.5 -110l-63 12l20 90q27 112 68 152.5t123 40.5q55 0 196.5 -28t218.5 -28q46 0 74.5 16t65.5 62l61 -51q-281 -313 -426.5 -481t-243.5 -289q115 -18 208 -28.5t143 -10.5 q86 0 126.5 37t65.5 141l66 -10q-23 -179 -78.5 -251.5t-165.5 -72.5q-69 0 -210 31t-204 31q-54 0 -92.5 -19t-77.5 -63z" />
<glyph unicode="{" horiz-adv-x="766" d="M76 475l10 74h12q120 0 179.5 61t91.5 226l41 211q53 291 148.5 387t285.5 96q16 0 38.5 -1t28.5 -1l-10 -76q-9 1 -19.5 1.5t-29.5 0.5q-214 0 -282 -362q-11 -57 -17 -86l-14 -70q-46 -227 -112.5 -309t-197.5 -113l-2 -12q97 -25 142 -84t45 -162q0 -22 -4 -58.5 t-11 -81.5l-8 -57q-7 -47 -20 -127q-23 -139 -23 -186q0 -100 46 -144t149 -44h35l-15 -80h-43q-157 0 -239 71t-82 207q0 28 3.5 67.5t10.5 90.5l33 216q2 12 5 35q17 124 17 161q0 72 -49.5 110.5t-142.5 38.5z" />
<glyph unicode="|" horiz-adv-x="1024" d="M449 -483v2048h126v-2048h-126z" />
<glyph unicode="}" horiz-adv-x="766" d="M-205 -520l12 75q10 0 20.5 -0.5t29.5 -0.5q213 0 279 357q11 58 18 89l14 72q45 225 112 307t197 115l2 12q-94 23 -139 82.5t-45 163.5q0 30 3 64.5t9 72.5l8 57q7 48 21 132q22 139 22 184q0 100 -45 144t-147 44h-37l14 78q18 0 37 1q5 1 6 1q157 0 239.5 -71.5 t82.5 -207.5q0 -28 -3.5 -69t-10.5 -90l-33 -213q-14 -89 -18.5 -132.5t-4.5 -76.5q0 -60 52.5 -100t136.5 -40h6l-12 -71h-35q-106 0 -163 -65t-85 -222l-39 -213q-55 -292 -151 -387.5t-285 -95.5q-16 0 -38.5 2t-29.5 2z" />
<glyph unicode="~" horiz-adv-x="1706" d="M178 461v133q105 73 202 109t185 36q56 0 116.5 -12.5t174.5 -52.5q12 -4 35 -13q164 -59 254 -59q85 0 176 36.5t209 119.5v-131q-101 -72 -197.5 -108t-189.5 -36q-43 0 -90.5 9t-100.5 26q-30 10 -87 31q-202 72 -302 72q-83 0 -173.5 -37.5t-211.5 -122.5z" />
<glyph unicode="&#xa0;" />
<glyph unicode="&#xa1;" horiz-adv-x="674" d="M84 -20q36 186 137 523.5t135 467.5l99 30q-47 -215 -89 -456.5t-81 -517.5zM328 1280q0 28 16.5 49.5t52.5 40.5l82 43l58 -61q25 -28 35 -47t10 -39q0 -28 -17 -49t-59 -43l-76 -41l-57 59q-24 24 -34.5 45t-10.5 43z" />
<glyph unicode="&#xa2;" d="M166 623q0 180 105.5 314.5t271.5 164.5l45 309h80l-56 -305q87 -4 140 -35.5t53 -77.5q0 -14 -7.5 -27t-23.5 -28l-49 -47q-24 53 -54.5 82t-74.5 41l-96 -590q42 4 95 39t114 100l32 -69q-75 -86 -137.5 -129.5t-118.5 -51.5l-51 -356h-80l60 350q-116 8 -182 91.5 t-66 224.5zM319 668q0 -89 29 -147.5t86 -86.5l96 584q-88 -11 -149.5 -111t-61.5 -239z" />
<glyph unicode="&#xa3;" d="M-8 23q183 96 260.5 218t77.5 314q0 9 -1 28t-1 29h-64q-36 0 -71 -0.5t-72 -1.5l14 80q52 -1 100 -1.5t95 -0.5q10 329 149 524t359 195q82 0 134 -33t52 -84q0 -15 -9.5 -33t-25.5 -32l-39 -37q-52 55 -100 81.5t-96 26.5q-101 0 -155.5 -116.5t-104.5 -493.5 q63 0 133.5 1t172.5 3l-16 -80q-52 1 -114.5 1.5t-186.5 0.5q-10 -122 -52.5 -224t-123.5 -198l256 -36q67 -10 93 -12.5t42 -2.5q91 0 132.5 45t58.5 162l80 -10q-36 -205 -95.5 -290t-164.5 -85q-57 0 -206.5 41t-234.5 41q-51 0 -97 -16t-134 -74z" />
<glyph unicode="&#xa4;" horiz-adv-x="1241" d="M86 424l207 205q-44 58 -66 122t-22 134q0 69 22 133.5t66 122.5l-207 205l72 73l207 -207q60 46 122.5 68.5t133.5 22.5t135.5 -22.5t124.5 -68.5l204 207l72 -73l-205 -205q43 -57 64.5 -121t21.5 -135t-21.5 -135.5t-64.5 -120.5l205 -205l-72 -74l-204 207 q-57 -44 -121.5 -66t-138.5 -22t-136.5 21.5t-119.5 66.5l-207 -207zM309 887q0 -131 91.5 -223.5t222.5 -92.5q129 0 221 93t92 223q0 129 -91.5 221t-221.5 92t-222 -92t-92 -221z" />
<glyph unicode="&#xa5;" horiz-adv-x="1100" d="M80 494l12 73q66 -3 132 -4.5t130 -1.5h88l-57 197h-129q-5 0 -48 -1t-81 -1l12 73h24q143 -4 204 -4l-82 289q-3 10 -8 29q-42 151 -111 151q-9 0 -15 -0.5t-10 -0.5l13 69q59 -3 111 -4.5t97 -1.5q40 0 89 1.5t106 4.5l-12 -70h-29q-45 0 -62.5 -11.5t-17.5 -41.5 q0 -16 8 -51.5t25 -97.5l109 -412l235 418l8 14q62 107 62 143q0 23 -14 32t-48 9q-3 0 -13.5 -1t-16.5 -1l14 70q69 -3 115 -4.5t71 -1.5q32 0 76 1.5t98 4.5l-14 -70h-21q-68 0 -134 -104l-3 -5l-224 -358q33 -1 65 -1.5t67 -0.5q24 0 50.5 0.5t56.5 1.5l-15 -73 q-68 3 -135.5 4.5t-134.5 1.5l-121 -195q27 0 80 -1t80 -1q35 0 139 3q39 1 60 1l-15 -71q-63 2 -136 3t-220 1l-33 -226q-9 -56 -11.5 -77.5t-2.5 -34.5q0 -48 26 -68t88 -20h31l-11 -72q-70 5 -133 7.5t-110 2.5q-59 0 -121 -2.5t-128 -7.5l8 72q8 -1 17 -1.5t26 -0.5 q69 0 96.5 26.5t50.5 149.5l45 252h-88q-76 0 -242 -4h-18z" />
<glyph unicode="&#xa6;" horiz-adv-x="1024" d="M449 -350v758h126v-758h-126zM449 674v758h126v-758h-126z" />
<glyph unicode="&#xa7;" horiz-adv-x="1042" d="M25 -104q0 16 9 31.5t27 29.5l72 55q39 -76 87.5 -111.5t113.5 -35.5q72 0 131 61.5t59 141.5q0 58 -29 132t-116 224l-4 7q-154 270 -154 417q0 120 54 229t157 197q71 59 157.5 94t160.5 35q87 0 141.5 -31t54.5 -80q0 -20 -10.5 -38t-30.5 -31l-53 -35 q-31 57 -68.5 84.5t-83.5 27.5q-72 0 -125 -65t-53 -158q0 -120 146 -363l18 -30q79 -132 104 -207t25 -151q0 -119 -59.5 -235.5t-165.5 -203.5q-77 -63 -161 -96t-169 -33q-94 0 -164.5 43t-70.5 95zM324 905q0 -78 27.5 -157.5t123.5 -239.5q86 -143 110.5 -215 t24.5 -143q0 -87 -30.5 -156t-90.5 -119q105 63 166.5 170t61.5 223q0 62 -27.5 138t-85.5 176q-13 22 -39 64q-141 235 -141 368q0 81 33 153t96 127q-107 -61 -168 -164.5t-61 -224.5z" />
<glyph unicode="&#xa8;" horiz-adv-x="1024" d="M319 1247q0 35 43.5 69t83.5 34q36 0 70.5 -42t34.5 -81q0 -34 -43.5 -67.5t-81.5 -33.5q-39 0 -73 42t-34 79zM694 1247q0 35 43 69t84 34q36 0 71.5 -42.5t35.5 -80.5q0 -33 -44.5 -67t-82.5 -34q-39 0 -73 42t-34 79z" />
<glyph unicode="&#xa9;" horiz-adv-x="1683" d="M139 678q0 140 53 268.5t152 229.5q98 99 228 152.5t272 53.5q137 0 266.5 -53.5t226.5 -150.5q98 -97 152.5 -228.5t54.5 -271.5t-53 -268t-154 -230q-98 -100 -225 -152.5t-270 -52.5t-269 52.5t-227 152.5t-154 227t-53 271zM225 678q0 -125 47 -238.5t136 -201.5 q88 -89 198.5 -135t235.5 -46q126 0 236.5 46t197.5 135q88 90 135 203t47 237t-47.5 240.5t-132.5 201.5q-86 87 -200.5 135t-233.5 48q-123 0 -237.5 -48.5t-200.5 -136.5q-88 -89 -134.5 -202.5t-46.5 -237.5zM426 664q0 186 116 312t285 126q74 0 148 -34t82 -34 q27 0 42 14.5t21 47.5h35l2 -314h-41q-34 137 -104 206t-176 69q-123 0 -185.5 -94.5t-62.5 -278.5q0 -189 67 -285t199 -96q86 0 156 43t127 131l34 -24q-58 -105 -143 -157t-199 -52q-167 0 -285 123t-118 297z" />
<glyph unicode="&#xaa;" horiz-adv-x="727" d="M18 848q0 82 23 158.5t68 144.5q63 96 146.5 146.5t176.5 50.5q19 0 43 -4.5t51 -12.5l105 43q-44 -199 -70 -355.5t-26 -205.5q0 -23 7.5 -34t24.5 -11q12 0 30.5 12t70.5 58l24 -43l-49 -43q-51 -48 -83.5 -68t-57.5 -20q-39 0 -61.5 30t-22.5 84q0 18 1.5 39.5 t4.5 46.5q-137 -124 -194.5 -162t-96.5 -38q-56 0 -85.5 46.5t-29.5 137.5zM145 872q0 -52 12.5 -78t37.5 -26q27 0 83.5 42t151.5 132q14 64 28 139t29 170q-31 17 -54 24t-44 7q-97 0 -170.5 -121.5t-73.5 -288.5z" />
<glyph unicode="&#xab;" horiz-adv-x="807" d="M45 487q59 62 128 135t206 220l63 -41l-32 -49q-106 -164 -174 -271q18 -61 39.5 -132.5t64.5 -213.5l-70 -31q-45 78 -122.5 209.5t-102.5 173.5zM383 479q66 83 195 250q56 73 84 109l69 -35l-87 -165l-87 -165q10 -76 26 -198.5t19 -149.5l-74 -21q-24 66 -54 143.5 t-91 231.5z" />
<glyph unicode="&#xac;" horiz-adv-x="1706" d="M254 741v117h1198v-502h-115v385h-1083z" />
<glyph unicode="&#xad;" horiz-adv-x="629" d="M25 410q11 29 22 62.5t27 88.5q15 -1 43 -2q124 -6 172 -6q61 0 211 6q29 2 43 2q-16 -39 -28 -77.5t-21 -77.5q-77 3 -139.5 5.5t-92.5 2.5q-88 0 -138.5 -1t-98.5 -3z" />
<glyph unicode="&#xae;" horiz-adv-x="1683" d="M139 678q0 140 53 268.5t152 229.5q98 99 228 152.5t272 53.5q138 0 268.5 -54t228.5 -152q97 -97 150 -228t53 -272q0 -137 -55.5 -267.5t-157.5 -232.5q-99 -99 -224.5 -150t-270.5 -51q-137 0 -263 52.5t-227 152.5t-154 227t-53 271zM225 678q0 -127 46.5 -239 t136.5 -201q88 -89 198.5 -135t235.5 -46q126 0 236.5 46t197.5 135q88 90 135 203t47 237t-47.5 241.5t-132.5 200.5q-86 87 -200.5 135t-233.5 48q-122 0 -236 -48t-202 -137t-134.5 -202.5t-46.5 -237.5zM469 291v40q72 3 99.5 24.5t27.5 76.5v516q0 55 -26 76t-101 25 v43h393q147 0 232.5 -54.5t85.5 -146.5q0 -76 -69.5 -124t-217.5 -75q93 -29 142 -77.5t71 -133.5q6 -22 11 -63q13 -88 59 -88q32 0 49.5 34t17.5 99h43v-12q0 -88 -40.5 -133.5t-119.5 -45.5q-46 0 -78.5 17t-48.5 49q-18 40 -21 113.5t-9 95.5q-20 68 -70.5 100.5 t-136.5 32.5h-33v-248q0 -54 26.5 -75.5t98.5 -25.5v-40h-385zM729 719q16 -1 32 -1.5t34 -0.5q112 0 173.5 45.5t61.5 128.5q0 73 -53 117.5t-143 44.5q-52 0 -78.5 -18.5t-26.5 -53.5v-262z" />
<glyph unicode="&#xaf;" horiz-adv-x="1024" d="M0 1446v119h1024v-119h-1024z" />
<glyph unicode="&#xb0;" horiz-adv-x="674" d="M55 1171q0 119 82.5 201t200.5 82q117 0 200 -83t83 -200q0 -116 -83.5 -199t-201.5 -83t-199.5 82t-81.5 200zM135 1171q0 -84 59.5 -143t143.5 -59t142.5 59t58.5 143t-58.5 142.5t-142.5 58.5t-143.5 -58.5t-59.5 -142.5z" />
<glyph unicode="&#xb1;" horiz-adv-x="1706" d="M254 41v117h1198v-117h-1198zM254 719v117h541v344h118v-344h539v-117h-539v-344h-118v344h-541z" />
<glyph unicode="&#xb2;" horiz-adv-x="737" d="M-4 596q255 185 378.5 324t123.5 241q0 70 -43 115t-107 45q-58 0 -96.5 -28t-63.5 -89l-38 17q-18 6 -25.5 15.5t-7.5 25.5q0 47 73 87t168 40q115 0 190 -64t75 -162q0 -63 -33.5 -121.5t-111.5 -129.5q-3 -2 -16 -13q-129 -112 -286 -237l-22 -21h288q70 0 93 18 t40 70l43 -8q-16 -45 -27.5 -89t-19.5 -87h-17q-199 8 -298 8q-114 0 -160 -2t-77 -6z" />
<glyph unicode="&#xb3;" horiz-adv-x="737" d="M18 604q1 12 7.5 22.5t20.5 21.5l36 30q42 -46 86.5 -69t93.5 -23q90 0 148.5 56.5t58.5 141.5q0 81 -51 124.5t-144 43.5q-20 0 -34 -0.5t-27 -1.5l10 49q111 2 185.5 55t74.5 130q0 62 -39.5 101.5t-101.5 39.5q-50 0 -85 -27t-56 -81l-33 14q-16 6 -22.5 14.5 t-6.5 22.5q0 44 70 81t164 37q105 0 170 -49t65 -127q0 -71 -59 -129.5t-163 -89.5q92 -5 146 -54t54 -128q0 -115 -110 -203t-255 -88q-86 0 -144.5 25.5t-58.5 60.5z" />
<glyph unicode="&#xb4;" horiz-adv-x="1024" d="M455 1112l262 397l153 -79l-350 -353z" />
<glyph unicode="&#xb5;" horiz-adv-x="1120" d="M-80 -330q0 40 64.5 273.5t105.5 427.5l109 514h147l-104 -492q-6 -30 -9.5 -58.5t-3.5 -53.5q0 -83 42 -129t118 -46q98 0 163.5 68.5t94.5 200.5l111 510h149l-114 -531q-13 -59 -17 -87.5t-4 -49.5q0 -48 26 -78t66 -30q35 0 65.5 18t51.5 51t41 93.5t39 60.5 q12 0 19 -10t7 -27q0 -25 -11 -66.5t-29 -83.5q-38 -82 -95 -122.5t-135 -40.5q-68 0 -108.5 51t-40.5 139v23q-46 -110 -116 -164t-165 -54q-96 0 -152.5 54.5t-70.5 161.5q-27 -136 -52 -339q-34 -272 -112 -272q-37 0 -58.5 23.5t-21.5 64.5z" />
<glyph unicode="&#xb6;" horiz-adv-x="1024" d="M76 1130q0 157 107.5 253t285.5 96h479v-78h-125v-1401h-94v1401h-182v-1401h-96v782q-173 8 -274 102.5t-101 245.5z" />
<glyph unicode="&#xb7;" horiz-adv-x="559" d="M160 694q0 53 38 91t91 38q54 0 92.5 -37.5t38.5 -91.5q0 -53 -39 -92t-92 -39q-52 0 -90.5 39.5t-38.5 91.5z" />
<glyph unicode="&#xb8;" horiz-adv-x="1024" d="M166 -465q96 28 144 66t48 86q0 38 -27 63t-93 45l256 260h106l-192 -198q52 -27 78 -61.5t26 -78.5q0 -80 -84 -146t-233 -101z" />
<glyph unicode="&#xb9;" horiz-adv-x="739" d="M113 545l10 43h29q39 0 60 6t30 20q23 38 65 258l2 12l21 112q4 19 18 94.5t37 205.5q-38 0 -78 -2.5t-88 -6.5l-4 42q83 11 158 25.5t143 34.5q-21 -100 -39.5 -192.5t-34.5 -176.5l-24 -137l-1 -3q-38 -215 -38 -241q0 -30 22 -41.5t80 -11.5h13l-11 -41q-53 4 -100 6 t-82 2q-38 0 -86.5 -2t-101.5 -6z" />
<glyph unicode="&#xba;" horiz-adv-x="698" d="M25 907q0 86 29.5 166.5t84.5 145.5q52 63 121 99t137 36q112 0 170 -64.5t58 -187.5q0 -73 -30 -154t-81 -145q-55 -71 -124.5 -108.5t-145.5 -37.5q-100 0 -159.5 68t-59.5 182zM152 901q0 -86 32 -132t92 -46q92 0 156 110t64 269q0 94 -32 140t-97 46 q-88 0 -151.5 -112t-63.5 -275z" />
<glyph unicode="&#xbb;" horiz-adv-x="807" d="M6 143q42 82 85.5 164t88.5 166q-9 69 -19.5 147.5t-25.5 200.5l74 21q33 -87 69 -181t76 -196q-49 -63 -106.5 -136.5t-171.5 -219.5zM295 143q68 107 175 271l32 49l-64.5 213t-40.5 133l70 33q51 -89 107 -185t118 -200q-84 -87 -167 -175t-167 -178z" />
<glyph unicode="&#xbc;" horiz-adv-x="1751" d="M109 598l10 41h26q41 0 60 6t26 19q22 35 63 236l3 15l20 105q1 3 4 19q22 126 48 259q-47 0 -85 -2t-73 -6l-6 39q71 9 143.5 23t147.5 32q-24 -100 -41.5 -184.5t-30.5 -157.5l-25 -129q-3 -19 -10 -55q-27 -151 -27 -172q0 -29 21.5 -40t77.5 -11h10l-8 -37 q-52 4 -96.5 6t-77.5 2q-36 0 -82 -2t-98 -6zM362 27q159 224 475 687.5t480 696.5l69 -47q-231 -314 -758 -1095l-196 -289zM1057 289q16 15 40.5 36t28.5 25l328 332q25 25 42.5 45.5t29.5 40.5l104 18l-96 -483q44 0 84 1t72 3l-29 -73q-54 2 -84 3t-55 1l-19 -112 q-2 -11 -3 -21t-1 -21q0 -26 15 -35.5t55 -9.5h22l-6 -39q-52 3 -88.5 4.5t-54.5 1.5q-34 0 -76 -1.5t-94 -4.5l12 39q5 0 14 -1t13 -1q70 0 91 86l1 4l24 111h-225q-5 0 -46 -1.5t-77 -2.5zM1153 303h289l74 371z" />
<glyph unicode="&#xbd;" horiz-adv-x="1751" d="M109 598l10 41h26q41 0 60 6t26 19q22 35 63 236l3 15l20 105q1 3 4 19q22 126 48 259q-47 0 -85 -2t-73 -6l-6 39q71 9 143.5 23t147.5 32q-24 -100 -41.5 -184.5t-30.5 -157.5l-25 -129q-3 -19 -10 -55q-27 -151 -27 -172q0 -29 21.5 -40t77.5 -11h10l-8 -37 q-52 4 -96.5 6t-77.5 2q-36 0 -82 -2t-98 -6zM362 27q159 224 475 687.5t480 696.5l69 -47q-231 -314 -758 -1095l-196 -289zM1042 49q242 169 361 299.5t119 226.5q0 65 -41 106.5t-103 41.5q-55 0 -91.5 -25.5t-59.5 -81.5l-39 15q-15 6 -22 15t-7 22q0 45 69 81.5 t161 36.5q109 0 180 -59t71 -149q0 -59 -31 -113t-108 -123q-1 -1 -17 -14q-126 -107 -270 -219l-22 -19h276q69 0 90 16.5t37 65.5l43 -8q-11 -28 -21.5 -62t-25.5 -102h-11q-193 8 -288 8q-79 0 -133.5 -2t-95.5 -6z" />
<glyph unicode="&#xbe;" horiz-adv-x="1751" d="M18 653q1 13 7 22.5t19 19.5l34 26q40 -43 83 -64.5t89 -21.5q85 0 142 53.5t57 132.5q0 75 -49 116.5t-138 41.5q-4 0 -24 -1t-35 -1l10 45q108 2 179 51t71 121q0 58 -38.5 95.5t-98.5 37.5q-46 0 -80 -26t-53 -76l-33 12q-15 6 -21 14.5t-6 22.5q0 40 67 75t156 35 q101 0 163.5 -45.5t62.5 -117.5q0 -67 -57 -122t-156 -85q88 -5 139 -50.5t51 -119.5q0 -108 -105 -189.5t-243 -81.5q-83 0 -138 24t-55 56zM362 27q159 224 475 687.5t480 696.5l69 -47q-231 -314 -758 -1095l-196 -289zM1057 289q16 15 40.5 36t28.5 25l328 332 q25 25 42.5 45.5t29.5 40.5l104 18l-96 -483q44 0 84 1t72 3l-29 -73q-54 2 -84 3t-55 1l-19 -112q-2 -11 -3 -21t-1 -21q0 -26 15 -35.5t55 -9.5h22l-6 -39q-52 3 -88.5 4.5t-54.5 1.5q-34 0 -76 -1.5t-94 -4.5l12 39q5 0 14 -1t13 -1q70 0 91 86l1 4l24 111h-225 q-5 0 -46 -1.5t-77 -2.5zM1153 303h289l74 371z" />
<glyph unicode="&#xbf;" horiz-adv-x="840" d="M39 346q0 109 66 193.5t243 189.5q17 10 48 28q151 86 153 211l90 33q-18 -85 -30.5 -164.5t-18.5 -152.5q-219 -106 -318.5 -202.5t-99.5 -200.5q0 -88 60.5 -149.5t146.5 -61.5q55 0 105.5 28.5t129.5 112.5l45 -43q15 -13 23 -29.5t8 -34.5q0 -58 -77 -102.5 t-187 -44.5q-159 0 -273 116.5t-114 272.5zM514 1278q0 29 17 51t53 41l82 41l57 -61q26 -28 35.5 -47t9.5 -39q0 -28 -17 -49t-59 -44l-76 -38l-55 57q-25 25 -36 45.5t-11 42.5z" />
<glyph unicode="&#xc0;" horiz-adv-x="1444" d="M-94 0l10 65l22.5 -3t12.5 -1q89 0 214 215q37 63 58 99l221 358q83 135 178.5 300t198.5 351h146q3 -60 15.5 -150t47.5 -298l74 -431q7 -39 19 -108q41 -243 55 -281q11 -30 32 -40t82 -10l-12 -66q-75 6 -131.5 9t-93.5 3q-44 0 -105 -3t-137 -9l12 66h15 q74 0 102.5 21.5t28.5 76.5q0 9 -3 34q-1 7 -1 11l-45 323q-65 1 -125 2t-119 1q-64 0 -123 -0.5t-123 -2.5l-160 -282q-27 -50 -36 -75t-9 -44q0 -31 27 -48t76 -17h22l-13 -66q-24 2 -67 5q-110 7 -147 7q-39 0 -94 -3t-125 -9zM481 616h135q126 0 184 0.5t105 2.5 l-86 575zM729 1897l157 73l144 -409l-76 -25z" />
<glyph unicode="&#xc1;" horiz-adv-x="1444" d="M-94 0l10 65l22.5 -3t12.5 -1q89 0 214 215q37 63 58 99l221 358q83 135 178.5 300t198.5 351h146q3 -60 15.5 -150t47.5 -298l74 -431q7 -39 19 -108q41 -243 55 -281q11 -30 32 -40t82 -10l-12 -66q-75 6 -131.5 9t-93.5 3q-44 0 -105 -3t-137 -9l12 66h15 q74 0 102.5 21.5t28.5 76.5q0 9 -3 34q-1 7 -1 11l-45 323q-65 1 -125 2t-119 1q-64 0 -123 -0.5t-123 -2.5l-160 -282q-27 -50 -36 -75t-9 -44q0 -31 27 -48t76 -17h22l-13 -66q-24 2 -67 5q-110 7 -147 7q-39 0 -94 -3t-125 -9zM481 616h135q126 0 184 0.5t105 2.5 l-86 575zM768 1571l262 397l153 -79l-350 -353z" />
<glyph unicode="&#xc2;" horiz-adv-x="1444" d="M-94 0l10 65l22.5 -3t12.5 -1q89 0 214 215q37 63 58 99l221 358q83 135 178.5 300t198.5 351h146q3 -60 15.5 -150t47.5 -298l74 -431q7 -39 19 -108q41 -243 55 -281q11 -30 32 -40t82 -10l-12 -66q-75 6 -131.5 9t-93.5 3q-44 0 -105 -3t-137 -9l12 66h15 q74 0 102.5 21.5t28.5 76.5q0 9 -3 34q-1 7 -1 11l-45 323q-65 1 -125 2t-119 1q-64 0 -123 -0.5t-123 -2.5l-160 -282q-27 -50 -36 -75t-9 -44q0 -31 27 -48t76 -17h22l-13 -66q-24 2 -67 5q-110 7 -147 7q-39 0 -94 -3t-125 -9zM481 616h135q126 0 184 0.5t105 2.5 l-86 575zM571 1579l338 293h92l225 -291l-63 -39l-234 168l-292 -174z" />
<glyph unicode="&#xc3;" horiz-adv-x="1444" d="M-94 0l10 65l22.5 -3t12.5 -1q89 0 214 215q37 63 58 99l221 358q83 135 178.5 300t198.5 351h146q3 -60 15.5 -150t47.5 -298l74 -431q7 -39 19 -108q41 -243 55 -281q11 -30 32 -40t82 -10l-12 -66q-75 6 -131.5 9t-93.5 3q-44 0 -105 -3t-137 -9l12 66h15 q74 0 102.5 21.5t28.5 76.5q0 9 -3 34q-1 7 -1 11l-45 323q-65 1 -125 2t-119 1q-64 0 -123 -0.5t-123 -2.5l-160 -282q-27 -50 -36 -75t-9 -44q0 -31 27 -48t76 -17h22l-13 -66q-24 2 -67 5q-110 7 -147 7q-39 0 -94 -3t-125 -9zM481 616h135q126 0 184 0.5t105 2.5 l-86 575zM581 1598q56 69 113 120t119 89q53 -13 141 -39.5t119 -26.5q43 0 85.5 26.5t82.5 77.5l51 -38q-48 -71 -103.5 -123t-123.5 -90q-49 11 -138 38t-122 27q-37 0 -74 -21t-99 -81z" />
<glyph unicode="&#xc4;" horiz-adv-x="1444" d="M-94 0l10 65l22.5 -3t12.5 -1q89 0 214 215q37 63 58 99l221 358q83 135 178.5 300t198.5 351h146q3 -60 15.5 -150t47.5 -298l74 -431q7 -39 19 -108q41 -243 55 -281q11 -30 32 -40t82 -10l-12 -66q-75 6 -131.5 9t-93.5 3q-44 0 -105 -3t-137 -9l12 66h15 q74 0 102.5 21.5t28.5 76.5q0 9 -3 34q-1 7 -1 11l-45 323q-65 1 -125 2t-119 1q-64 0 -123 -0.5t-123 -2.5l-160 -282q-27 -50 -36 -75t-9 -44q0 -31 27 -48t76 -17h22l-13 -66q-24 2 -67 5q-110 7 -147 7q-39 0 -94 -3t-125 -9zM481 616h135q126 0 184 0.5t105 2.5 l-86 575zM632 1706q0 35 43.5 69t83.5 34q36 0 70.5 -42t34.5 -81q0 -34 -43.5 -67.5t-81.5 -33.5q-39 0 -73 42t-34 79zM1007 1706q0 35 43 69t84 34q36 0 71.5 -42.5t35.5 -80.5q0 -33 -44.5 -67t-82.5 -34q-39 0 -73 42t-34 79z" />
<glyph unicode="&#xc5;" horiz-adv-x="1444" d="M-94 0l10 65q6 -1 12.5 -1.5t18.5 -0.5q45 0 78 23t73 84l13 20q324 515 710 1194h146q40 -309 86 -597.5t94 -536.5q2 -10 5 -27q30 -157 114 -157h26l-12 -66q-75 6 -131.5 9t-93.5 3q-44 0 -105 -3t-137 -9l12 66h15q74 0 102.5 21.5t28.5 76.5q0 9 -3 34q-1 7 -1 11 l-45 323q-65 1 -125 2t-119 1q-64 0 -123 -0.5t-123 -2.5l-160 -282q-27 -50 -36 -75t-9 -44q0 -31 27 -48t76 -17h22l-13 -66q-24 2 -67 5q-110 7 -147 7q-39 0 -94 -3t-125 -9zM481 616h135q126 0 184 0.5t105 2.5l-86 575zM690 1733q0 96 69.5 165.5t166.5 69.5t166 -69 t69 -166q0 -98 -69 -167t-166 -69t-166.5 69.5t-69.5 166.5zM795 1733q0 -55 38.5 -94.5t92.5 -39.5t92.5 39.5t38.5 94.5q0 54 -38.5 92.5t-92.5 38.5q-56 0 -93.5 -38t-37.5 -93z" />
<glyph unicode="&#xc6;" horiz-adv-x="1978" d="M-100 0l12 72h20q99 0 237 163q13 15 20 24l745 874l10 12q72 86 72 110q0 23 -21.5 32t-83.5 9h-32l12 66q14 0 57 -2q243 -8 457 -8q133 0 400 7q91 2 136 3q-16 -64 -27 -134.5t-18 -146.5l-73 -3q1 7 1.5 15.5t0.5 24.5q0 84 -55.5 114t-278.5 30h-51q-8 0 -46 -2 t-61 -3q-24 -139 -45 -262t-41 -237q39 -2 76 -3t86 -1h61q151 0 193.5 26.5t54.5 102.5l64 -15q-26 -88 -40.5 -174.5t-19.5 -171.5l-67 -3q1 11 1.5 23t0.5 31q0 57 -42 76t-231 19q-39 0 -135 -4h-18q-23 -126 -44.5 -261.5t-43.5 -287.5q71 -7 143 -11t144 -4 q188 0 249 42t95 173l69 -12q-24 -83 -39.5 -158t-23.5 -145q-148 6 -275 9t-233 3q-172 0 -280.5 -3t-190.5 -9l12 66h41q63 0 90 35.5t55 197.5l39 233q-72 2 -154.5 3.5t-92.5 1.5q-22 0 -101.5 -1t-136.5 -1q-62 -80 -161 -201q-150 -185 -150 -211q0 -28 23 -39.5 t79 -11.5h16l-14 -72q-73 6 -129.5 9t-95.5 3t-94 -3t-127 -9zM631 625q31 -1 83 -2q103 -2 134 -2q38 0 106.5 1t100.5 1l119 653z" />
<glyph unicode="&#xc7;" horiz-adv-x="1337" d="M88 561q0 162 63 319t175 275q115 120 267.5 184t324.5 64q93 0 186.5 -26t191.5 -79q-23 -73 -38.5 -145t-22.5 -143l-68 10q2 17 3 33t1 32q0 92 -88.5 145.5t-238.5 53.5q-262 0 -409.5 -185t-147.5 -511q0 -238 116 -377t314 -139q144 0 244 69.5t143 200.5l63 -14 q-15 -50 -27 -106.5t-24 -135.5q-122 -64 -230.5 -96.5t-201.5 -32.5q-270 0 -433 165.5t-163 438.5zM428 -465q96 28 144 66t48 86q0 38 -27 63t-93 45l256 260h106l-192 -198q52 -27 78 -61.5t26 -78.5q0 -80 -84 -146t-233 -101z" />
<glyph unicode="&#xc8;" horiz-adv-x="1190" d="M-23 0l12 66h39q62 0 88.5 35.5t54.5 197.5l141 829q4 27 6 48t2 34q0 44 -25 63t-83 19h-18l12 70q134 -5 247 -7.5t216 -2.5q63 0 417 8l68 2q-16 -64 -27.5 -134.5t-17.5 -146.5l-76 -3q1 8 1.5 16.5t0.5 25.5q0 83 -53.5 112.5t-280.5 29.5h-53q-26 0 -57 -1t-80 -4 q-22 -122 -43.5 -246.5t-42.5 -250.5q7 0 22 -1q117 -5 205 -5h31q152 0 192.5 27t53.5 102l65 -15q-25 -88 -40 -174.5t-19 -171.5l-70 -4q1 5 1 12q3 31 3 43q0 57 -40 76t-220 19h-26q-42 0 -83.5 -1t-88.5 -3q-29 -157 -51.5 -292t-38.5 -257q66 -8 135.5 -11.5 t185.5 -3.5q186 0 248 42t96 173l70 -12q-27 -92 -42.5 -165t-23.5 -138q-160 6 -297 9t-254 3q-88 0 -188 -2.5t-274 -9.5zM555 1897l157 73l144 -409l-76 -25z" />
<glyph unicode="&#xc9;" horiz-adv-x="1190" d="M-23 0l12 66h39q62 0 88.5 35.5t54.5 197.5l141 829q4 27 6 48t2 34q0 44 -25 63t-83 19h-18l12 70q134 -5 247 -7.5t216 -2.5q63 0 417 8l68 2q-16 -64 -27.5 -134.5t-17.5 -146.5l-76 -3q1 8 1.5 16.5t0.5 25.5q0 83 -53.5 112.5t-280.5 29.5h-53q-26 0 -57 -1t-80 -4 q-22 -122 -43.5 -246.5t-42.5 -250.5q7 0 22 -1q117 -5 205 -5h31q152 0 192.5 27t53.5 102l65 -15q-25 -88 -40 -174.5t-19 -171.5l-70 -4q1 5 1 12q3 31 3 43q0 57 -40 76t-220 19h-26q-42 0 -83.5 -1t-88.5 -3q-29 -157 -51.5 -292t-38.5 -257q66 -8 135.5 -11.5 t185.5 -3.5q186 0 248 42t96 173l70 -12q-27 -92 -42.5 -165t-23.5 -138q-160 6 -297 9t-254 3q-88 0 -188 -2.5t-274 -9.5zM594 1571l262 397l153 -79l-350 -353z" />
<glyph unicode="&#xca;" horiz-adv-x="1190" d="M-23 0l12 66h39q62 0 88.5 35.5t54.5 197.5l141 829q4 27 6 48t2 34q0 44 -25 63t-83 19h-18l12 70q134 -5 247 -7.5t216 -2.5q63 0 417 8l68 2q-16 -64 -27.5 -134.5t-17.5 -146.5l-76 -3q1 8 1.5 16.5t0.5 25.5q0 83 -53.5 112.5t-280.5 29.5h-53q-26 0 -57 -1t-80 -4 q-22 -122 -43.5 -246.5t-42.5 -250.5q7 0 22 -1q117 -5 205 -5h31q152 0 192.5 27t53.5 102l65 -15q-25 -88 -40 -174.5t-19 -171.5l-70 -4q1 5 1 12q3 31 3 43q0 57 -40 76t-220 19h-26q-42 0 -83.5 -1t-88.5 -3q-29 -157 -51.5 -292t-38.5 -257q66 -8 135.5 -11.5 t185.5 -3.5q186 0 248 42t96 173l70 -12q-27 -92 -42.5 -165t-23.5 -138q-160 6 -297 9t-254 3q-88 0 -188 -2.5t-274 -9.5zM397 1579l338 293h92l225 -291l-63 -39l-234 168l-292 -174z" />
<glyph unicode="&#xcb;" horiz-adv-x="1190" d="M-23 0l12 66h39q62 0 88.5 35.5t54.5 197.5l141 829q4 27 6 48t2 34q0 44 -25 63t-83 19h-18l12 70q134 -5 247 -7.5t216 -2.5q63 0 417 8l68 2q-16 -64 -27.5 -134.5t-17.5 -146.5l-76 -3q1 8 1.5 16.5t0.5 25.5q0 83 -53.5 112.5t-280.5 29.5h-53q-26 0 -57 -1t-80 -4 q-22 -122 -43.5 -246.5t-42.5 -250.5q7 0 22 -1q117 -5 205 -5h31q152 0 192.5 27t53.5 102l65 -15q-25 -88 -40 -174.5t-19 -171.5l-70 -4q1 5 1 12q3 31 3 43q0 57 -40 76t-220 19h-26q-42 0 -83.5 -1t-88.5 -3q-29 -157 -51.5 -292t-38.5 -257q66 -8 135.5 -11.5 t185.5 -3.5q186 0 248 42t96 173l70 -12q-27 -92 -42.5 -165t-23.5 -138q-160 6 -297 9t-254 3q-88 0 -188 -2.5t-274 -9.5zM458 1706q0 35 43.5 69t83.5 34q36 0 70.5 -42t34.5 -81q0 -34 -43.5 -67.5t-81.5 -33.5q-39 0 -73 42t-34 79zM833 1706q0 35 43 69t84 34 q36 0 71.5 -42.5t35.5 -80.5q0 -33 -44.5 -67t-82.5 -34q-39 0 -73 42t-34 79z" />
<glyph unicode="&#xcc;" horiz-adv-x="674" d="M-23 0l15 65q7 -1 13.5 -1.5t19.5 -0.5q63 0 92.5 34.5t52.5 164.5l150 859q3 21 5.5 41.5t2.5 29.5q0 60 -26.5 80t-104.5 20l16 70q101 -9 152.5 -11.5t89.5 -2.5q47 0 106.5 3.5t128.5 9.5l-14 -69q-6 0 -15.5 1t-13.5 1q-67 0 -97.5 -36.5t-55.5 -178.5l-142 -811 q-6 -35 -9 -59.5t-3 -38.5q0 -60 23 -82t81 -22q5 0 13 1t12 1q6 0 9.5 -1t4.5 -2l-14 -65q-82 6 -142.5 9t-101.5 3t-102.5 -3t-145.5 -9zM322 1897l157 73l144 -409l-76 -25z" />
<glyph unicode="&#xcd;" horiz-adv-x="674" d="M-23 0l15 65q7 -1 13.5 -1.5t19.5 -0.5q63 0 92.5 34.5t52.5 164.5l150 859q3 21 5.5 41.5t2.5 29.5q0 60 -26.5 80t-104.5 20l16 70q101 -9 152.5 -11.5t89.5 -2.5q47 0 106.5 3.5t128.5 9.5l-14 -69q-6 0 -15.5 1t-13.5 1q-67 0 -97.5 -36.5t-55.5 -178.5l-142 -811 q-6 -35 -9 -59.5t-3 -38.5q0 -60 23 -82t81 -22q5 0 13 1t12 1q6 0 9.5 -1t4.5 -2l-14 -65q-82 6 -142.5 9t-101.5 3t-102.5 -3t-145.5 -9zM361 1571l262 397l153 -79l-350 -353z" />
<glyph unicode="&#xce;" horiz-adv-x="674" d="M-23 0l15 65q7 -1 13.5 -1.5t19.5 -0.5q63 0 92.5 34.5t52.5 164.5l150 859q3 21 5.5 41.5t2.5 29.5q0 60 -26.5 80t-104.5 20l16 70q101 -9 152.5 -11.5t89.5 -2.5q47 0 106.5 3.5t128.5 9.5l-14 -69q-6 0 -15.5 1t-13.5 1q-67 0 -97.5 -36.5t-55.5 -178.5l-142 -811 q-6 -35 -9 -59.5t-3 -38.5q0 -60 23 -82t81 -22q5 0 13 1t12 1q6 0 9.5 -1t4.5 -2l-14 -65q-82 6 -142.5 9t-101.5 3t-102.5 -3t-145.5 -9zM164 1579l338 293h92l225 -291l-63 -39l-234 168l-292 -174z" />
<glyph unicode="&#xcf;" horiz-adv-x="674" d="M-23 0l15 65q7 -1 13.5 -1.5t19.5 -0.5q63 0 92.5 34.5t52.5 164.5l150 859q3 21 5.5 41.5t2.5 29.5q0 60 -26.5 80t-104.5 20l16 70q101 -9 152.5 -11.5t89.5 -2.5q47 0 106.5 3.5t128.5 9.5l-14 -69q-6 0 -15.5 1t-13.5 1q-67 0 -97.5 -36.5t-55.5 -178.5l-142 -811 q-6 -35 -9 -59.5t-3 -38.5q0 -60 23 -82t81 -22q5 0 13 1t12 1q6 0 9.5 -1t4.5 -2l-14 -65q-82 6 -142.5 9t-101.5 3t-102.5 -3t-145.5 -9zM225 1706q0 35 43.5 69t83.5 34q36 0 70.5 -42t34.5 -81q0 -34 -43.5 -67.5t-81.5 -33.5q-39 0 -73 42t-34 79zM600 1706q0 35 43 69 t84 34q36 0 71.5 -42.5t35.5 -80.5q0 -33 -44.5 -67t-82.5 -34q-39 0 -73 42t-34 79z" />
<glyph unicode="&#xd0;" horiz-adv-x="1495" d="M-16 0l12 66h39q63 0 90 35.5t55 197.5l62 358h-224l17 93h71h150l66 376q4 27 6 48t2 34q0 44 -25 63t-82 19h-20l14 68q62 -6 113 -9t94 -3q26 0 130 6t183 6q331 0 501.5 -143t170.5 -418q0 -151 -57.5 -303.5t-153.5 -260.5q-108 -119 -255 -179t-329 -60 q-55 0 -189.5 9t-213.5 9q-18 0 -75 -3t-152 -9zM338 115q77 -14 140.5 -20.5t119.5 -6.5q296 0 454 176.5t158 505.5q0 247 -127.5 370.5t-384.5 123.5q-30 0 -70.5 -2.5t-101.5 -8.5q-29 -157 -51 -276t-41 -227h109q107 0 161.5 0.5t100.5 0.5l-19 -94h-260h-108 q-27 -159 -75 -507z" />
<glyph unicode="&#xd1;" horiz-adv-x="1460" d="M-66 0l13 74q4 -1 9 -1q26 -3 38 -3q63 0 91 33t48 151l154 840q6 30 9 57t3 45q0 54 -30 75t-111 21l15 70q59 -5 90 -6.5t59 -1.5q44 0 154 7q12 0 19 1q2 -33 26 -90.5t69 -132.5l512 -873l137 846q3 18 4.5 36.5t1.5 41.5q0 50 -28 73t-89 23h-24l12 75 q63 -2 117.5 -3.5t101.5 -1.5q63 0 106 1.5t86 4.5l-9 -76q-6 0 -15.5 1t-13.5 1q-106 0 -143 -196v-2q-86 -446 -133.5 -732.5t-47.5 -355.5v-12h-123q-24 54 -52.5 108.5t-63.5 114.5l-539 915l-133 -819q-1 -8 -4 -25q-14 -95 -14 -122q0 -50 23 -70t79 -20 q15 0 23.5 0.5t15.5 0.5l-12 -73q-89 6 -137 8t-81 2q-30 0 -77.5 -2t-135.5 -8zM555 1598q56 69 113 120t119 89q53 -13 141 -39.5t119 -26.5q43 0 85.5 26.5t82.5 77.5l51 -38q-48 -71 -103.5 -123t-123.5 -90q-49 11 -138 38t-122 27q-37 0 -74 -21t-99 -81z" />
<glyph unicode="&#xd2;" horiz-adv-x="1497" d="M88 506q0 162 53.5 321t149.5 281q109 140 267 217.5t335 77.5q239 0 378.5 -147t139.5 -398q0 -159 -53.5 -318t-149.5 -282q-112 -143 -268 -220t-334 -77q-240 0 -379 146t-139 399zM287 537q0 -225 99.5 -344t287.5 -119q244 0 391 204.5t147 542.5q0 232 -99 352.5 t-288 120.5q-244 0 -391 -206.5t-147 -550.5zM719 1897l157 73l144 -409l-76 -25z" />
<glyph unicode="&#xd3;" horiz-adv-x="1497" d="M88 506q0 162 53.5 321t149.5 281q109 140 267 217.5t335 77.5q239 0 378.5 -147t139.5 -398q0 -159 -53.5 -318t-149.5 -282q-112 -143 -268 -220t-334 -77q-240 0 -379 146t-139 399zM287 537q0 -225 99.5 -344t287.5 -119q244 0 391 204.5t147 542.5q0 232 -99 352.5 t-288 120.5q-244 0 -391 -206.5t-147 -550.5zM758 1571l262 397l153 -79l-350 -353z" />
<glyph unicode="&#xd4;" horiz-adv-x="1497" d="M88 506q0 162 53.5 321t149.5 281q109 140 267 217.5t335 77.5q239 0 378.5 -147t139.5 -398q0 -159 -53.5 -318t-149.5 -282q-112 -143 -268 -220t-334 -77q-240 0 -379 146t-139 399zM287 537q0 -225 99.5 -344t287.5 -119q244 0 391 204.5t147 542.5q0 232 -99 352.5 t-288 120.5q-244 0 -391 -206.5t-147 -550.5zM561 1579l338 293h92l225 -291l-63 -39l-234 168l-292 -174z" />
<glyph unicode="&#xd5;" horiz-adv-x="1497" d="M88 506q0 162 53.5 321t149.5 281q109 140 267 217.5t335 77.5q239 0 378.5 -147t139.5 -398q0 -159 -53.5 -318t-149.5 -282q-112 -143 -268 -220t-334 -77q-240 0 -379 146t-139 399zM287 537q0 -225 99.5 -344t287.5 -119q244 0 391 204.5t147 542.5q0 232 -99 352.5 t-288 120.5q-244 0 -391 -206.5t-147 -550.5zM571 1598q56 69 113 120t119 89q53 -13 141 -39.5t119 -26.5q43 0 85.5 26.5t82.5 77.5l51 -38q-48 -71 -103.5 -123t-123.5 -90q-49 11 -138 38t-122 27q-37 0 -74 -21t-99 -81z" />
<glyph unicode="&#xd6;" horiz-adv-x="1497" d="M88 506q0 162 53.5 321t149.5 281q109 140 267 217.5t335 77.5q239 0 378.5 -147t139.5 -398q0 -159 -53.5 -318t-149.5 -282q-112 -143 -268 -220t-334 -77q-240 0 -379 146t-139 399zM287 537q0 -225 99.5 -344t287.5 -119q244 0 391 204.5t147 542.5q0 232 -99 352.5 t-288 120.5q-244 0 -391 -206.5t-147 -550.5zM622 1706q0 35 43.5 69t83.5 34q36 0 70.5 -42t34.5 -81q0 -34 -43.5 -67.5t-81.5 -33.5q-39 0 -73 42t-34 79zM997 1706q0 35 43 69t84 34q36 0 71.5 -42.5t35.5 -80.5q0 -33 -44.5 -67t-82.5 -34q-39 0 -73 42t-34 79z" />
<glyph unicode="&#xd7;" horiz-adv-x="1706" d="M301 135l475 475l-475 477l80 82l477 -477l475 477l82 -82l-475 -477l475 -475l-82 -82l-475 475l-477 -475z" />
<glyph unicode="&#xd8;" horiz-adv-x="1497" d="M80 -143l172 225q-86 90 -125 190t-39 230q0 164 53.5 322.5t149.5 281.5q111 141 268 219t334 78q84 0 155 -19t140 -59l153 207l68 -51l-158 -205q78 -69 119 -176.5t41 -245.5q0 -158 -53.5 -315.5t-149.5 -280.5q-110 -143 -266.5 -220t-335.5 -77q-87 0 -157 18.5 t-134 57.5l-168 -230zM281 532q0 -95 18.5 -168.5t58.5 -142.5q101 128 696 922l44 59q-47 50 -115.5 75.5t-155.5 25.5q-249 0 -397.5 -210t-148.5 -561zM410 164q47 -48 114 -72t152 -24q122 0 211 43t160 137q81 106 126.5 258.5t45.5 318.5q0 106 -17 179.5t-53 132.5 q-200 -258 -384.5 -501t-354.5 -472z" />
<glyph unicode="&#xd9;" horiz-adv-x="1456" d="M162 358q0 79 43 292q20 98 31 153q30 162 48.5 276.5t18.5 139.5q0 38 -28 55.5t-87 17.5h-10l12 68q74 -6 128 -9t92 -3q50 0 110 3t133 9l-14 -68q-5 1 -12 1.5t-19 0.5q-107 0 -144 -228q-8 -50 -13 -78l-74 -418q-11 -60 -17 -111t-6 -92q0 -135 92.5 -213 t249.5 -78q93 0 171 29.5t128 82.5q47 49 77.5 144.5t62.5 322.5l43 291q12 82 19 150.5t7 93.5q0 54 -25.5 78t-84.5 24h-25l12 68q67 -6 119 -9t86 -3q43 0 97 3t120 9l-12 -68h-29q-46 0 -71 -9.5t-33 -31.5q-18 -38 -44 -178t-65 -405q-2 -15 -6 -42q-49 -350 -143 -470 q-73 -95 -194 -147t-267 -52q-224 0 -350.5 107t-126.5 294zM715 1897l157 73l144 -409l-76 -25z" />
<glyph unicode="&#xda;" horiz-adv-x="1456" d="M162 358q0 79 43 292q20 98 31 153q30 162 48.5 276.5t18.5 139.5q0 38 -28 55.5t-87 17.5h-10l12 68q74 -6 128 -9t92 -3q50 0 110 3t133 9l-14 -68q-5 1 -12 1.5t-19 0.5q-107 0 -144 -228q-8 -50 -13 -78l-74 -418q-11 -60 -17 -111t-6 -92q0 -135 92.5 -213 t249.5 -78q93 0 171 29.5t128 82.5q47 49 77.5 144.5t62.5 322.5l43 291q12 82 19 150.5t7 93.5q0 54 -25.5 78t-84.5 24h-25l12 68q67 -6 119 -9t86 -3q43 0 97 3t120 9l-12 -68h-29q-46 0 -71 -9.5t-33 -31.5q-18 -38 -44 -178t-65 -405q-2 -15 -6 -42q-49 -350 -143 -470 q-73 -95 -194 -147t-267 -52q-224 0 -350.5 107t-126.5 294zM754 1571l262 397l153 -79l-350 -353z" />
<glyph unicode="&#xdb;" horiz-adv-x="1456" d="M162 358q0 79 43 292q20 98 31 153q30 162 48.5 276.5t18.5 139.5q0 38 -28 55.5t-87 17.5h-10l12 68q74 -6 128 -9t92 -3q50 0 110 3t133 9l-14 -68q-5 1 -12 1.5t-19 0.5q-107 0 -144 -228q-8 -50 -13 -78l-74 -418q-11 -60 -17 -111t-6 -92q0 -135 92.5 -213 t249.5 -78q93 0 171 29.5t128 82.5q47 49 77.5 144.5t62.5 322.5l43 291q12 82 19 150.5t7 93.5q0 54 -25.5 78t-84.5 24h-25l12 68q67 -6 119 -9t86 -3q43 0 97 3t120 9l-12 -68h-29q-46 0 -71 -9.5t-33 -31.5q-18 -38 -44 -178t-65 -405q-2 -15 -6 -42q-49 -350 -143 -470 q-73 -95 -194 -147t-267 -52q-224 0 -350.5 107t-126.5 294zM557 1579l338 293h92l225 -291l-63 -39l-234 168l-292 -174z" />
<glyph unicode="&#xdc;" horiz-adv-x="1456" d="M162 358q0 79 43 292q20 98 31 153q30 162 48.5 276.5t18.5 139.5q0 38 -28 55.5t-87 17.5h-10l12 68q74 -6 128 -9t92 -3q50 0 110 3t133 9l-14 -68q-5 1 -12 1.5t-19 0.5q-107 0 -144 -228q-8 -50 -13 -78l-74 -418q-11 -60 -17 -111t-6 -92q0 -135 92.5 -213 t249.5 -78q93 0 171 29.5t128 82.5q47 49 77.5 144.5t62.5 322.5l43 291q12 82 19 150.5t7 93.5q0 54 -25.5 78t-84.5 24h-25l12 68q67 -6 119 -9t86 -3q43 0 97 3t120 9l-12 -68h-29q-46 0 -71 -9.5t-33 -31.5q-18 -38 -44 -178t-65 -405q-2 -15 -6 -42q-49 -350 -143 -470 q-73 -95 -194 -147t-267 -52q-224 0 -350.5 107t-126.5 294zM618 1706q0 35 43.5 69t83.5 34q36 0 70.5 -42t34.5 -81q0 -34 -43.5 -67.5t-81.5 -33.5q-39 0 -73 42t-34 79zM993 1706q0 35 43 69t84 34q36 0 71.5 -42.5t35.5 -80.5q0 -33 -44.5 -67t-82.5 -34q-39 0 -73 42 t-34 79z" />
<glyph unicode="&#xdd;" horiz-adv-x="1180" d="M104 1292l13 70q77 -6 135 -9t98 -3q39 0 97 3t133 9l-13 -70h-32q-55 0 -77 -15t-22 -50q0 -10 4 -26.5t10 -34.5l173 -494l333 475q19 26 30 52.5t11 41.5q0 26 -20 39.5t-59 13.5q-11 0 -16 -0.5t-9 -0.5l12 69q90 -6 128 -8t61 -2q30 0 76 2t124 8l-12 -70h-16 q-71 0 -138 -86l-6 -8l-469 -625l-57 -362q-2 -12 -3 -24.5t-1 -26.5q0 -48 27.5 -69t89.5 -21h30l-10 -70q-86 6 -146 9t-98 3q-47 0 -113 -3t-149 -9l13 70h40q68 0 96 27.5t44 121.5l59 352l-213 590q-30 84 -54.5 107.5t-72.5 23.5h-31zM613 1571l262 397l153 -79 l-350 -353z" />
<glyph unicode="&#xde;" horiz-adv-x="1176" d="M-29 0l11 66h26q68 0 94.5 22.5t44.5 128.5l168 925q5 24 8 45t3 27q0 46 -30.5 65t-102.5 19l12 66q16 -1 47 -4q144 -12 201 -12q31 0 80.5 2t142.5 8l-14 -66q-6 0 -14.5 1t-12.5 1q-66 0 -96.5 -33.5t-46.5 -130.5l-6 -34q64 3 117 4.5t97 1.5q189 0 301.5 -96 t112.5 -256q0 -204 -169.5 -333.5t-444.5 -129.5q-42 0 -80 2t-74 6l-10 -49q-4 -19 -6 -37.5t-2 -36.5q0 -59 27.5 -81.5t101.5 -22.5q6 0 18.5 1t20.5 1l-11 -70q-88 6 -155 9t-111 3q-36 0 -98.5 -3t-149.5 -9zM362 379q11 -1 29 -2q83 -6 117 -6q190 0 298.5 96 t108.5 262q0 130 -83 203.5t-232 73.5q-16 0 -71 -4q-37 -3 -60 -5q-29 -153 -55.5 -306.5t-51.5 -311.5z" />
<glyph unicode="&#xdf;" horiz-adv-x="1094" d="M-297 -446q0 15 6 28.5t27 36.5l31 35q36 -31 64 -45.5t54 -14.5q54 0 96 63.5t66 180.5q30 146 68.5 510t60.5 535q38 295 198 481t369 186q127 0 203 -69t76 -183q0 -120 -208 -305l-7 -6q-7 -6 -22 -19q-132 -117 -132 -184q0 -33 23.5 -72.5t99.5 -125.5 q20 -23 58 -64q143 -157 143 -252q0 -112 -114.5 -205.5t-266.5 -93.5q-90 0 -150.5 36.5t-60.5 84.5q0 18 9 34t28 32l49 43q59 -69 107.5 -99t99.5 -30q59 0 103 42.5t44 100.5q0 63 -107 188q-39 46 -61 72q-77 95 -110 159t-33 116q0 76 125 185q17 15 26 23 q118 105 160.5 170.5t42.5 131.5q0 82 -52 135t-130 53q-86 0 -160.5 -60t-109.5 -157q-45 -125 -96 -531q-30 -229 -50 -360q-48 -310 -87.5 -450.5t-94.5 -229.5q-57 -91 -125.5 -143t-132.5 -52q-59 0 -93 24t-34 65z" />
<glyph unicode="&#xe0;" horiz-adv-x="969" d="M25 242q0 118 30.5 227.5t89.5 206.5q85 136 195.5 208t234.5 72q27 0 59 -5.5t68 -16.5l140 59q-59 -282 -94 -506t-35 -294q0 -32 10.5 -48t32.5 -16q16 0 43 20t90 80l33 -61l-64 -62q-71 -71 -113.5 -98.5t-76.5 -27.5q-51 0 -81 43.5t-30 119.5q0 29 2 60t6 63 q-188 -182 -262.5 -234t-124.5 -52q-76 0 -114.5 66t-38.5 196zM193 279q0 -75 16.5 -112.5t50.5 -37.5q35 0 112 61t201 187q18 91 36.5 198.5t39.5 243.5q-46 26 -74.5 35.5t-56.5 9.5q-129 0 -227 -174t-98 -411zM391 1438l157 73l144 -409l-76 -25z" />
<glyph unicode="&#xe1;" horiz-adv-x="969" d="M25 242q0 118 30.5 227.5t89.5 206.5q85 136 195.5 208t234.5 72q27 0 59 -5.5t68 -16.5l140 59q-59 -282 -94 -506t-35 -294q0 -32 10.5 -48t32.5 -16q16 0 43 20t90 80l33 -61l-64 -62q-71 -71 -113.5 -98.5t-76.5 -27.5q-51 0 -81 43.5t-30 119.5q0 29 2 60t6 63 q-188 -182 -262.5 -234t-124.5 -52q-76 0 -114.5 66t-38.5 196zM193 279q0 -75 16.5 -112.5t50.5 -37.5q35 0 112 61t201 187q18 91 36.5 198.5t39.5 243.5q-46 26 -74.5 35.5t-56.5 9.5q-129 0 -227 -174t-98 -411zM430 1112l262 397l153 -79l-350 -353z" />
<glyph unicode="&#xe2;" horiz-adv-x="969" d="M25 242q0 118 30.5 227.5t89.5 206.5q85 136 195.5 208t234.5 72q27 0 59 -5.5t68 -16.5l140 59q-59 -282 -94 -506t-35 -294q0 -32 10.5 -48t32.5 -16q16 0 43 20t90 80l33 -61l-64 -62q-71 -71 -113.5 -98.5t-76.5 -27.5q-51 0 -81 43.5t-30 119.5q0 29 2 60t6 63 q-188 -182 -262.5 -234t-124.5 -52q-76 0 -114.5 66t-38.5 196zM193 279q0 -75 16.5 -112.5t50.5 -37.5q35 0 112 61t201 187q18 91 36.5 198.5t39.5 243.5q-46 26 -74.5 35.5t-56.5 9.5q-129 0 -227 -174t-98 -411zM233 1120l338 293h92l225 -291l-63 -39l-234 168 l-292 -174z" />
<glyph unicode="&#xe3;" horiz-adv-x="969" d="M25 242q0 118 30.5 227.5t89.5 206.5q85 136 195.5 208t234.5 72q27 0 59 -5.5t68 -16.5l140 59q-59 -282 -94 -506t-35 -294q0 -32 10.5 -48t32.5 -16q16 0 43 20t90 80l33 -61l-64 -62q-71 -71 -113.5 -98.5t-76.5 -27.5q-51 0 -81 43.5t-30 119.5q0 29 2 60t6 63 q-188 -182 -262.5 -234t-124.5 -52q-76 0 -114.5 66t-38.5 196zM193 279q0 -75 16.5 -112.5t50.5 -37.5q35 0 112 61t201 187q18 91 36.5 198.5t39.5 243.5q-46 26 -74.5 35.5t-56.5 9.5q-129 0 -227 -174t-98 -411zM243 1139q56 69 113 120t119 89q53 -13 141 -39.5 t119 -26.5q43 0 85.5 26.5t82.5 77.5l51 -38q-48 -71 -103.5 -123t-123.5 -90q-49 11 -138 38t-122 27q-37 0 -74 -21t-99 -81z" />
<glyph unicode="&#xe4;" horiz-adv-x="969" d="M25 242q0 118 30.5 227.5t89.5 206.5q85 136 195.5 208t234.5 72q27 0 59 -5.5t68 -16.5l140 59q-59 -282 -94 -506t-35 -294q0 -32 10.5 -48t32.5 -16q16 0 43 20t90 80l33 -61l-64 -62q-71 -71 -113.5 -98.5t-76.5 -27.5q-51 0 -81 43.5t-30 119.5q0 29 2 60t6 63 q-188 -182 -262.5 -234t-124.5 -52q-76 0 -114.5 66t-38.5 196zM193 279q0 -75 16.5 -112.5t50.5 -37.5q35 0 112 61t201 187q18 91 36.5 198.5t39.5 243.5q-46 26 -74.5 35.5t-56.5 9.5q-129 0 -227 -174t-98 -411zM294 1247q0 35 43.5 69t83.5 34q36 0 70.5 -42t34.5 -81 q0 -34 -43.5 -67.5t-81.5 -33.5q-39 0 -73 42t-34 79zM669 1247q0 35 43 69t84 34q36 0 71.5 -42.5t35.5 -80.5q0 -33 -44.5 -67t-82.5 -34q-39 0 -73 42t-34 79z" />
<glyph unicode="&#xe5;" horiz-adv-x="969" d="M25 242q0 118 30.5 227.5t89.5 206.5q85 136 195.5 208t234.5 72q27 0 59 -5.5t68 -16.5l140 59q-59 -282 -94 -506t-35 -294q0 -32 10.5 -48t32.5 -16q16 0 43 20t90 80l33 -61l-64 -62q-83 -83 -121.5 -109t-68.5 -26q-50 0 -80.5 47t-30.5 125q0 29 2 60t6 63 q-188 -182 -262.5 -234t-124.5 -52q-76 0 -114.5 66t-38.5 196zM193 279q0 -75 16.5 -112.5t50.5 -37.5q35 0 112 61t201 187q18 91 36.5 198.5t39.5 243.5q-46 26 -74.5 35.5t-56.5 9.5q-129 0 -227 -174t-98 -411zM356 1313q0 97 69.5 166t166.5 69q98 0 166.5 -69 t68.5 -166q0 -98 -68.5 -167t-166.5 -69q-97 0 -166.5 69.5t-69.5 166.5zM461 1313q0 -55 38.5 -94t92.5 -39t92.5 39t38.5 94q0 54 -38.5 92.5t-92.5 38.5q-55 0 -93 -38t-38 -93z" />
<glyph unicode="&#xe6;" horiz-adv-x="1282" d="M23 242q0 130 39 251.5t116 227.5q83 115 186 180.5t201 65.5q30 0 59.5 -10t61.5 -31l133 75l-33 -139q46 50 101.5 77.5t111.5 27.5q91 0 156.5 -63.5t65.5 -151.5q0 -87 -163 -188l-11 -7l-342 -211q-2 -9 -2.5 -18t-0.5 -25q0 -96 37.5 -146.5t108.5 -50.5 q45 0 110 39t160 123l31 -69q-134 -121 -222.5 -174.5t-152.5 -53.5q-103 0 -165.5 72t-66.5 194q-36 -31 -101 -87q-205 -179 -271 -179q-68 0 -107.5 72.5t-39.5 198.5zM188 260q0 -67 18 -97t56 -30q22 0 89 45t190 141q17 162 60 350q2 8 3 13l27 125q-27 31 -55.5 47 t-57.5 16q-130 0 -230 -181.5t-100 -428.5zM707 422l239 168q77 52 99 80.5t22 62.5q0 50 -42 93.5t-95 43.5q-87 0 -136.5 -95.5t-86.5 -352.5z" />
<glyph unicode="&#xe7;" horiz-adv-x="739" d="M25 -465q96 28 144 66t48 86q0 38 -27 63t-93 45l256 260h106l-192 -198q52 -27 78 -61.5t26 -78.5q0 -80 -84 -146t-233 -101zM27 319q0 274 140.5 462t346.5 188q75 0 128.5 -32t53.5 -73q0 -16 -8.5 -32t-30.5 -37l-53 -52q-66 67 -105.5 89t-80.5 22 q-92 0 -160 -136.5t-68 -336.5q0 -134 35 -202t103 -68q38 0 104 43.5t139 119.5l41 -71q-116 -123 -198 -177.5t-150 -54.5q-108 0 -172.5 94t-64.5 254z" />
<glyph unicode="&#xe8;" horiz-adv-x="778" d="M23 301q0 105 34.5 225.5t89.5 210.5q69 110 158 170t184 60q97 0 162.5 -61.5t65.5 -149.5q0 -71 -39.5 -117.5t-181.5 -118.5l-306 -158v-10q0 -119 37.5 -181t108.5 -62q42 0 105.5 37.5t162.5 121.5l35 -63q-143 -132 -227.5 -183t-153.5 -51q-105 0 -170 91t-65 239 zM195 451l10 5q356 182 356 281q0 53 -38 92t-89 39q-79 0 -142 -109t-97 -308zM295 1438l157 73l144 -409l-76 -25z" />
<glyph unicode="&#xe9;" horiz-adv-x="778" d="M23 301q0 105 34.5 225.5t89.5 210.5q69 110 158 170t184 60q97 0 162.5 -61.5t65.5 -149.5q0 -71 -39.5 -117.5t-181.5 -118.5l-306 -158v-10q0 -119 37.5 -181t108.5 -62q42 0 105.5 37.5t162.5 121.5l35 -63q-143 -132 -227.5 -183t-153.5 -51q-105 0 -170 91t-65 239 zM195 451l10 5q356 182 356 281q0 53 -38 92t-89 39q-79 0 -142 -109t-97 -308zM334 1112l262 397l153 -79l-350 -353z" />
<glyph unicode="&#xea;" horiz-adv-x="778" d="M23 301q0 105 34.5 225.5t89.5 210.5q69 110 158 170t184 60q97 0 162.5 -61.5t65.5 -149.5q0 -71 -39.5 -117.5t-181.5 -118.5l-306 -158v-10q0 -119 37.5 -181t108.5 -62q42 0 105.5 37.5t162.5 121.5l35 -63q-143 -132 -227.5 -183t-153.5 -51q-105 0 -170 91t-65 239 zM137 1120l338 293h92l225 -291l-63 -39l-234 168l-292 -174zM195 451l10 5q356 182 356 281q0 53 -38 92t-89 39q-79 0 -142 -109t-97 -308z" />
<glyph unicode="&#xeb;" horiz-adv-x="778" d="M23 301q0 105 34.5 225.5t89.5 210.5q69 110 158 170t184 60q97 0 162.5 -61.5t65.5 -149.5q0 -71 -39.5 -117.5t-181.5 -118.5l-306 -158v-10q0 -119 37.5 -181t108.5 -62q42 0 105.5 37.5t162.5 121.5l35 -63q-143 -132 -227.5 -183t-153.5 -51q-105 0 -170 91t-65 239 zM195 451l10 5q356 182 356 281q0 53 -38 92t-89 39q-79 0 -142 -109t-97 -308zM198 1247q0 35 43.5 69t83.5 34q36 0 70.5 -42t34.5 -81q0 -34 -43.5 -67.5t-81.5 -33.5q-39 0 -73 42t-34 79zM573 1247q0 35 43 69t84 34q36 0 71.5 -42.5t35.5 -80.5q0 -33 -44.5 -67 t-82.5 -34q-39 0 -73 42t-34 79z" />
<glyph unicode="&#xec;" horiz-adv-x="563" d="M33 821l133 97q37 27 65 40t52 13q49 0 76.5 -38t27.5 -106q0 -73 -52 -286l-18 -72q-28 -113 -42.5 -187t-14.5 -102q0 -25 11 -41t28 -16q16 0 42 20t91 84l35 -59q-123 -127 -171 -162t-85 -35q-53 0 -85 44.5t-32 119.5q0 94 59.5 314t59.5 317q0 25 -12 40t-31 15 q-16 0 -42 -13t-65 -40zM150 1438l157 73l144 -409l-76 -25z" />
<glyph unicode="&#xed;" horiz-adv-x="563" d="M33 821l133 97q37 27 65 40t52 13q49 0 76.5 -38t27.5 -106q0 -73 -52 -286l-18 -72q-28 -113 -42.5 -187t-14.5 -102q0 -25 11 -41t28 -16q16 0 42 20t91 84l35 -59q-123 -127 -171 -162t-85 -35q-53 0 -85 44.5t-32 119.5q0 94 59.5 314t59.5 317q0 25 -12 40t-31 15 q-16 0 -42 -13t-65 -40zM189 1112l262 397l153 -79l-350 -353z" />
<glyph unicode="&#xee;" horiz-adv-x="563" d="M-8 1120l338 293h92l225 -291l-63 -39l-234 168l-292 -174zM33 821l133 97q37 27 65 40t52 13q49 0 76.5 -38t27.5 -106q0 -73 -52 -286l-18 -72q-28 -113 -42.5 -187t-14.5 -102q0 -25 11 -41t28 -16q16 0 42 20t91 84l35 -59q-123 -127 -171 -162t-85 -35 q-53 0 -85 44.5t-32 119.5q0 94 59.5 314t59.5 317q0 25 -12 40t-31 15q-16 0 -42 -13t-65 -40z" />
<glyph unicode="&#xef;" horiz-adv-x="563" d="M33 821l133 97q37 27 65 40t52 13q49 0 76.5 -38t27.5 -106q0 -73 -52 -286l-18 -72q-28 -113 -42.5 -187t-14.5 -102q0 -25 11 -41t28 -16q16 0 42 20t91 84l35 -59q-123 -127 -171 -162t-85 -35q-53 0 -85 44.5t-32 119.5q0 94 59.5 314t59.5 317q0 25 -12 40t-31 15 q-16 0 -42 -13t-65 -40zM53 1247q0 35 43.5 69t83.5 34q36 0 70.5 -42t34.5 -81q0 -34 -43.5 -67.5t-81.5 -33.5q-39 0 -73 42t-34 79zM428 1247q0 35 43 69t84 34q36 0 71.5 -42.5t35.5 -80.5q0 -33 -44.5 -67t-82.5 -34q-39 0 -73 42t-34 79z" />
<glyph unicode="&#xf0;" horiz-adv-x="930" d="M35 326q0 106 27 203t81 182q79 124 184 192t216 68q20 0 46.5 -4.5t57.5 -12.5q-15 61 -47.5 129t-85.5 152q-57 -36 -106 -68t-93 -63l-45 67q34 22 75.5 49t123.5 80q-45 54 -102.5 109t-124.5 109l104 55q53 -38 111 -89t118 -112q41 26 88.5 57t114.5 76l47 -69 q-78 -48 -121.5 -75t-76.5 -50q110 -140 164.5 -293.5t54.5 -323.5q0 -311 -154 -517t-379 -206q-127 0 -202.5 95.5t-75.5 259.5zM203 336q0 -131 45 -199.5t131 -68.5q127 0 214 183t87 454q0 24 -1.5 50.5t-6.5 77.5q-29 28 -63 42t-72 14q-147 0 -240.5 -154t-93.5 -399 z" />
<glyph unicode="&#xf1;" horiz-adv-x="1036" d="M14 821q11 9 32 26q154 124 206 124q50 0 74 -37.5t24 -116.5q0 -28 -3 -63t-9 -74l162 158q85 81 128.5 107t82.5 26q66 0 107.5 -58t41.5 -153q0 -97 -49 -299.5t-49 -288.5q0 -26 10 -39.5t29 -13.5q9 0 22.5 7.5t26.5 20.5l76 74l35 -53l-109 -111q-39 -40 -77.5 -63 t-67.5 -23q-50 0 -81.5 43.5t-31.5 114.5q0 85 51 299.5t51 312.5q0 37 -15.5 59.5t-41.5 22.5q-39 0 -239 -185q-53 -49 -83 -77l-63 -352l-6 -30q-21 -107 -25 -164l-178 -44q66 287 104.5 499t38.5 278q0 40 -9 57.5t-29 17.5q-12 0 -39.5 -14t-69.5 -41zM237 1139 q56 69 113 120t119 89q53 -13 141 -39.5t119 -26.5q43 0 85.5 26.5t82.5 77.5l51 -38q-48 -71 -103.5 -123t-123.5 -90q-49 11 -138 38t-122 27q-37 0 -74 -21t-99 -81z" />
<glyph unicode="&#xf2;" horiz-adv-x="930" d="M33 328q0 121 39 236t112 208q72 93 163.5 144t182.5 51q149 0 226.5 -92.5t77.5 -270.5q0 -102 -40 -217.5t-108 -208.5q-73 -100 -165.5 -153.5t-194.5 -53.5q-134 0 -213.5 97t-79.5 260zM203 319q0 -123 42.5 -188t123.5 -65q122 0 207.5 156.5t85.5 383.5 q0 135 -43 199.5t-132 64.5q-116 0 -200 -159t-84 -392zM363 1438l157 73l144 -409l-76 -25z" />
<glyph unicode="&#xf3;" horiz-adv-x="930" d="M33 328q0 121 39 236t112 208q72 93 163.5 144t182.5 51q149 0 226.5 -92.5t77.5 -270.5q0 -102 -40 -217.5t-108 -208.5q-73 -100 -165.5 -153.5t-194.5 -53.5q-134 0 -213.5 97t-79.5 260zM203 319q0 -123 42.5 -188t123.5 -65q122 0 207.5 156.5t85.5 383.5 q0 135 -43 199.5t-132 64.5q-116 0 -200 -159t-84 -392zM402 1112l262 397l153 -79l-350 -353z" />
<glyph unicode="&#xf4;" horiz-adv-x="930" d="M33 328q0 121 39 236t112 208q72 93 163.5 144t182.5 51q149 0 226.5 -92.5t77.5 -270.5q0 -102 -40 -217.5t-108 -208.5q-73 -100 -165.5 -153.5t-194.5 -53.5q-134 0 -213.5 97t-79.5 260zM203 319q0 -123 42.5 -188t123.5 -65q122 0 207.5 156.5t85.5 383.5 q0 135 -43 199.5t-132 64.5q-116 0 -200 -159t-84 -392zM205 1120l338 293h92l225 -291l-63 -39l-234 168l-292 -174z" />
<glyph unicode="&#xf5;" horiz-adv-x="930" d="M33 328q0 121 39 236t112 208q72 93 163.5 144t182.5 51q149 0 226.5 -92.5t77.5 -270.5q0 -102 -40 -217.5t-108 -208.5q-73 -100 -165.5 -153.5t-194.5 -53.5q-134 0 -213.5 97t-79.5 260zM203 319q0 -123 42.5 -188t123.5 -65q122 0 207.5 156.5t85.5 383.5 q0 135 -43 199.5t-132 64.5q-116 0 -200 -159t-84 -392zM215 1139q56 69 113 120t119 89q53 -13 141 -39.5t119 -26.5q43 0 85.5 26.5t82.5 77.5l51 -38q-48 -71 -103.5 -123t-123.5 -90q-49 11 -138 38t-122 27q-37 0 -74 -21t-99 -81z" />
<glyph unicode="&#xf6;" horiz-adv-x="930" d="M33 328q0 121 39 236t112 208q72 93 163.5 144t182.5 51q149 0 226.5 -92.5t77.5 -270.5q0 -102 -40 -217.5t-108 -208.5q-73 -100 -165.5 -153.5t-194.5 -53.5q-134 0 -213.5 97t-79.5 260zM203 319q0 -123 42.5 -188t123.5 -65q122 0 207.5 156.5t85.5 383.5 q0 135 -43 199.5t-132 64.5q-116 0 -200 -159t-84 -392zM266 1247q0 35 43.5 69t83.5 34q36 0 70.5 -42t34.5 -81q0 -34 -43.5 -67.5t-81.5 -33.5q-39 0 -73 42t-34 79zM641 1247q0 35 43 69t84 34q36 0 71.5 -42.5t35.5 -80.5q0 -33 -44.5 -67t-82.5 -34q-39 0 -73 42 t-34 79z" />
<glyph unicode="&#xf7;" horiz-adv-x="1706" d="M254 553v117h1198v-117h-1198zM739 250q0 48 34 81.5t81 33.5t81 -34t34 -81t-33.5 -81t-81.5 -34t-81.5 33.5t-33.5 81.5zM739 971q0 47 34 80.5t81 33.5q48 0 81.5 -33.5t33.5 -80.5q0 -48 -33.5 -81.5t-81.5 -33.5q-49 0 -82 33.5t-33 81.5z" />
<glyph unicode="&#xf8;" horiz-adv-x="930" d="M33 328q0 257 154.5 448t359.5 191q48 0 86 -10.5t67 -30.5l91 145l61 -37l-104 -151q44 -54 65 -117t21 -143q0 -113 -39 -230t-109 -215q-73 -100 -165.5 -153.5t-194.5 -53.5q-43 0 -77 9t-65 28l-92 -143l-57 37l100 145q-53 55 -77.5 122t-24.5 159zM197 328 q0 -42 6 -80.5t18 -73.5q128 197 224 348.5t180 286.5q-26 33 -57 49t-70 16q-129 0 -215 -156.5t-86 -389.5zM252 115q18 -25 48.5 -38.5t68.5 -13.5q130 0 215.5 159.5t85.5 406.5q0 32 -4 59.5t-13 52.5q-60 -84 -263 -407q-88 -140 -138 -219z" />
<glyph unicode="&#xf9;" horiz-adv-x="1030" d="M31 817q93 69 163 107.5t99 38.5q41 0 64.5 -35t23.5 -97q0 -78 -61.5 -302t-61.5 -336q0 -35 12 -51.5t37 -16.5q28 0 95.5 55.5t226.5 212.5q38 180 61.5 304.5t36.5 222.5l180 43l-22 -99q-57 -243 -62 -271l-24 -128q-18 -91 -28.5 -174t-10.5 -117q0 -23 9 -36 t24 -13q14 0 52 27t87 73l31 -57l-138 -129q-37 -36 -66.5 -51t-60.5 -15q-45 0 -72.5 43.5t-27.5 116.5q0 21 3.5 50.5t14.5 92.5q-185 -189 -262 -246t-131 -57q-57 0 -95 53t-38 136q0 70 60 315q15 58 22 88q21 83 31 133.5t10 75.5q0 20 -10 32.5t-25 12.5 q-10 0 -39 -14t-80 -43zM410 1438l157 73l144 -409l-76 -25z" />
<glyph unicode="&#xfa;" horiz-adv-x="1030" d="M31 817q93 69 163 107.5t99 38.5q41 0 64.5 -35t23.5 -97q0 -78 -61.5 -302t-61.5 -336q0 -35 12 -51.5t37 -16.5q28 0 95.5 55.5t226.5 212.5q38 180 61.5 304.5t36.5 222.5l180 43l-22 -99q-57 -243 -62 -271l-24 -128q-18 -91 -28.5 -174t-10.5 -117q0 -23 9 -36 t24 -13q14 0 52 27t87 73l31 -57l-138 -129q-37 -36 -66.5 -51t-60.5 -15q-45 0 -72.5 43.5t-27.5 116.5q0 21 3.5 50.5t14.5 92.5q-185 -189 -262 -246t-131 -57q-57 0 -95 53t-38 136q0 70 60 315q15 58 22 88q21 83 31 133.5t10 75.5q0 20 -10 32.5t-25 12.5 q-10 0 -39 -14t-80 -43zM449 1112l262 397l153 -79l-350 -353z" />
<glyph unicode="&#xfb;" horiz-adv-x="1030" d="M31 817q93 69 163 107.5t99 38.5q41 0 64.5 -35t23.5 -97q0 -78 -61.5 -302t-61.5 -336q0 -35 12 -51.5t37 -16.5q28 0 95.5 55.5t226.5 212.5q38 180 61.5 304.5t36.5 222.5l180 43l-22 -99q-57 -243 -62 -271l-24 -128q-18 -91 -28.5 -174t-10.5 -117q0 -23 9 -36 t24 -13q14 0 52 27t87 73l31 -57l-138 -129q-37 -36 -66.5 -51t-60.5 -15q-45 0 -72.5 43.5t-27.5 116.5q0 21 3.5 50.5t14.5 92.5q-185 -189 -262 -246t-131 -57q-57 0 -95 53t-38 136q0 70 60 315q15 58 22 88q21 83 31 133.5t10 75.5q0 20 -10 32.5t-25 12.5 q-10 0 -39 -14t-80 -43zM252 1120l338 293h92l225 -291l-63 -39l-234 168l-292 -174z" />
<glyph unicode="&#xfc;" horiz-adv-x="1030" d="M31 817q93 69 163 107.5t99 38.5q41 0 64.5 -35t23.5 -97q0 -78 -61.5 -302t-61.5 -336q0 -35 12 -51.5t37 -16.5q28 0 95.5 55.5t226.5 212.5q38 180 61.5 304.5t36.5 222.5l180 43l-22 -99q-57 -243 -62 -271l-24 -128q-18 -91 -28.5 -174t-10.5 -117q0 -23 9 -36 t24 -13q14 0 52 27t87 73l31 -57l-138 -129q-37 -36 -66.5 -51t-60.5 -15q-45 0 -72.5 43.5t-27.5 116.5q0 21 3.5 50.5t14.5 92.5q-185 -189 -262 -246t-131 -57q-57 0 -95 53t-38 136q0 70 60 315q15 58 22 88q21 83 31 133.5t10 75.5q0 20 -10 32.5t-25 12.5 q-10 0 -39 -14t-80 -43zM313 1247q0 35 43.5 69t83.5 34q36 0 70.5 -42t34.5 -81q0 -34 -43.5 -67.5t-81.5 -33.5q-39 0 -73 42t-34 79zM688 1247q0 35 43 69t84 34q36 0 71.5 -42.5t35.5 -80.5q0 -33 -44.5 -67t-82.5 -34q-39 0 -73 42t-34 79z" />
<glyph unicode="&#xfd;" horiz-adv-x="905" d="M-170 -436q0 17 7.5 32.5t29.5 36.5l53 50q29 -38 63 -58t68 -20q92 0 165 147.5t73 362.5q0 263 -43 469.5t-86 206.5q-18 0 -39 -20.5t-66 -84.5l-47 47q66 113 121 173.5t92 60.5q90 0 148.5 -201.5t58.5 -521.5q0 -46 -2 -92t-6 -91l27 60q233 521 233 633 q0 29 -9 52.5t-30 45.5l64 68q23 25 42 36t39 11q32 0 50 -21t18 -57q0 -64 -101.5 -307.5t-258.5 -536.5q-172 -319 -292.5 -450.5t-236.5 -131.5q-62 0 -98.5 27.5t-36.5 73.5zM398 1112l262 397l153 -79l-350 -353z" />
<glyph unicode="&#xfe;" horiz-adv-x="975" d="M-154 -518l13 69h30q57 0 79 21.5t34 89.5l205 1200l8 45q74 427 74 475q0 32 -15 47t-47 15q-6 0 -24 -1t-29 -1l-6 55q65 9 143 24.5t183 39.5q-26 -122 -63 -315.5t-101 -547.5l19 21q221 239 321 239q92 0 149.5 -91t57.5 -242q0 -115 -43.5 -237.5t-116.5 -215.5 q-76 -96 -165.5 -146.5t-182.5 -50.5q-36 0 -72 9.5t-78 29.5l-49 -319q-2 -13 -3 -26t-1 -34q0 -49 22.5 -66.5t87.5 -17.5h33l-14 -69q-59 4 -116.5 6t-115.5 2q-39 0 -95.5 -2t-121.5 -6zM238 125q47 -27 89.5 -40t80.5 -13q123 0 210 165.5t87 401.5q0 91 -22.5 135.5 t-68.5 44.5q-58 0 -255 -183q-33 -31 -52 -48z" />
<glyph unicode="&#xff;" horiz-adv-x="905" d="M-170 -436q0 17 7.5 32.5t29.5 36.5l53 50q29 -38 63 -58t68 -20q92 0 165 147.5t73 362.5q0 263 -43 469.5t-86 206.5q-18 0 -39 -20.5t-66 -84.5l-47 47q66 113 121 173.5t92 60.5q90 0 148.5 -201.5t58.5 -521.5q0 -46 -2 -92t-6 -91l27 60q233 521 233 633 q0 29 -9 52.5t-30 45.5l64 68q23 25 42 36t39 11q32 0 50 -21t18 -57q0 -64 -101.5 -307.5t-258.5 -536.5q-172 -319 -292.5 -450.5t-236.5 -131.5q-62 0 -98.5 27.5t-36.5 73.5zM262 1247q0 35 43.5 69t83.5 34q36 0 70.5 -42t34.5 -81q0 -34 -43.5 -67.5t-81.5 -33.5 q-39 0 -73 42t-34 79zM637 1247q0 35 43 69t84 34q36 0 71.5 -42.5t35.5 -80.5q0 -33 -44.5 -67t-82.5 -34q-39 0 -73 42t-34 79z" />
<glyph unicode="&#x192;" d="M-129 -272q0 16 7.5 30.5t23.5 28.5l47 45q32 -38 68 -58t73 -20q192 0 345 894l3 19l-200 1l20 80h199q59 306 212.5 481.5t358.5 175.5q70 0 110 -23.5t40 -64.5q0 -18 -11 -39.5t-30 -42.5l-29 -31q-35 47 -77 71.5t-89 24.5q-116 0 -197 -141t-118 -411h237l-18 -80 h-240q-88 -530 -233.5 -783.5t-360.5 -253.5q-63 0 -102 27t-39 70z" />
<glyph unicode="&#x2c6;" horiz-adv-x="1024" d="M258 1120l338 293h92l225 -291l-63 -39l-234 168l-292 -174z" />
<glyph unicode="&#x2da;" horiz-adv-x="1024" d="M401 1313q0 97 69.5 166t166.5 69q98 0 166.5 -69t68.5 -166q0 -98 -68.5 -167t-166.5 -69q-97 0 -166.5 69.5t-69.5 166.5zM506 1313q0 -55 38.5 -94t92.5 -39t92.5 39t38.5 94q0 54 -38.5 92.5t-92.5 38.5t-92.5 -38.5t-38.5 -92.5z" />
<glyph unicode="&#x2dc;" horiz-adv-x="1024" d="M268 1139q56 69 113 120t119 89q53 -13 141 -39.5t119 -26.5q43 0 85.5 26.5t82.5 77.5l51 -38q-48 -71 -103.5 -123t-123.5 -90q-49 11 -138 38t-122 27q-37 0 -74 -21t-99 -81z" />
<glyph unicode="&#x400;" horiz-adv-x="1190" d="M-24 0l12 66h39q62 0 88.5 35.5t54.5 197.5l141 829q4 27 6 48t2 34q0 44 -25 63t-83 19h-18l12 70q134 -5 247 -7.5t216 -2.5q63 0 417 8l68 2q-16 -64 -27.5 -134.5t-17.5 -146.5l-76 -3q1 8 1.5 16.5t0.5 25.5q0 83 -53.5 112.5t-280.5 29.5h-53q-26 0 -57 -1t-80 -4 q-22 -122 -43.5 -246.5t-42.5 -250.5q7 0 22 -1q117 -5 205 -5h31q152 0 192.5 27t53.5 102l65 -15q-25 -88 -40 -174.5t-19 -171.5l-70 -4q1 5 1 12q3 31 3 43q0 57 -40 76t-220 19h-26q-42 0 -83.5 -1t-88.5 -3q-29 -157 -51.5 -292t-38.5 -257q66 -8 135.5 -11.5 t185.5 -3.5q186 0 248 42t96 173l70 -12q-27 -92 -42.5 -165t-23.5 -138q-160 6 -297 9t-254 3q-88 0 -188 -2.5t-274 -9.5zM562 1773l144 67l133 -376l-70 -23z" />
<glyph unicode="&#x401;" horiz-adv-x="1190" d="M-24 0l12 66h39q62 0 88.5 35.5t54.5 197.5l141 829q4 27 6 48t2 34q0 44 -25 63t-83 19h-18l12 70q134 -5 247 -7.5t216 -2.5q63 0 417 8l68 2q-16 -64 -27.5 -134.5t-17.5 -146.5l-76 -3q1 8 1.5 16.5t0.5 25.5q0 83 -53.5 112.5t-280.5 29.5h-53q-26 0 -57 -1t-80 -4 q-22 -122 -43.5 -246.5t-42.5 -250.5q7 0 22 -1q117 -5 205 -5h31q152 0 192.5 27t53.5 102l65 -15q-25 -88 -40 -174.5t-19 -171.5l-70 -4q1 5 1 12q3 31 3 43q0 57 -40 76t-220 19h-26q-42 0 -83.5 -1t-88.5 -3q-29 -157 -51.5 -292t-38.5 -257q66 -8 135.5 -11.5 t185.5 -3.5q186 0 248 42t96 173l70 -12q-27 -92 -42.5 -165t-23.5 -138q-160 6 -297 9t-254 3q-88 0 -188 -2.5t-274 -9.5zM457 1636q0 35 43.5 69t83.5 34q36 0 70.5 -42t34.5 -81q0 -34 -43.5 -67.5t-81.5 -33.5q-39 0 -73 42t-34 79zM832 1636q0 35 43 69t84 34 q36 0 71.5 -42.5t35.5 -80.5q0 -33 -44.5 -67t-82.5 -34q-39 0 -73 42t-34 79z" />
<glyph unicode="&#x402;" horiz-adv-x="1187" d="M-82 1032q10 40 19 92t15.5 101t10 87t3.5 50q15 -2 39.5 -3.5t52.5 -3t56.5 -2.5t51.5 -1h659q48 0 88.5 3t79.5 9q-15 -90 -22.5 -161.5t-10.5 -139.5h-75q0 16 0.5 30.5t0.5 28.5q0 66 -36 97.5t-121 31.5h-211l-78 -488q81 20 147.5 28.5t123.5 8.5q102 0 170 -29 t109.5 -79.5t59 -119t17.5 -148.5q0 -139 -42.5 -262t-123.5 -226.5t-199.5 -186t-270.5 -140.5l-27 59q126 55 217 138t149.5 184t86.5 213.5t28 225.5q0 53 -8.5 103t-32 88.5t-65.5 62t-109 23.5q-63 0 -124 -13.5t-127 -39.5l-70 -419q-1 -7 -3 -19.5t-3.5 -26 t-2.5 -25.5t-1 -18q0 -24 9 -38.5t24 -22.5t34.5 -11t40.5 -3h21l-13 -68q-24 2 -53.5 4.5t-59 4t-58 2.5t-50.5 1q-24 0 -56 -1t-66 -2.5t-67.5 -4t-60.5 -4.5l13 68h20q29 0 49.5 2t35.5 13t26.5 35.5t23 70.5t24.5 116t31 173l137 771q-27 3 -51 4t-46 1 q-60 0 -100.5 -11t-67.5 -33t-42 -55.5t-24 -79.5l-9 -45h-86z" />
<glyph unicode="&#x403;" horiz-adv-x="1096" d="M-37 0l10 66h27q26 0 47 1.5t38 15.5t30 44.5t24 89.5l174 959q6 31 3.5 54t-15.5 38t-38 22.5t-64 7.5h-15l13 66q19 -2 52.5 -4t85.5 -3.5t124 -3t168 -1.5h57q13 0 40.5 0.5t62.5 1t74.5 1.5t77.5 2t70.5 1.5t53.5 1.5l67 2q-15 -53 -28 -121t-23 -168l-4 -47l-82 -4 l2 57q1 40 -8.5 73.5t-39.5 58t-83.5 38t-140.5 13.5h-70l-149 -11l-172 -966q-2 -8 -4 -24.5t-4 -34.5t-3.5 -35t-1.5 -25q0 -29 8 -48t24.5 -29.5t41.5 -14.5t58 -4h36l-10 -70q-23 1 -59 3t-74 3.5t-74 3t-59 2.5h-43q-23 0 -47 -2t-47 -4zM586 1441l235 357l138 -71 l-315 -318z" />
<glyph unicode="&#x404;" horiz-adv-x="1337" d="M88 561q0 161 63 319q63 157 175 275q115 121 267 184.5t325 63.5q94 0 186.5 -25.5t191.5 -79.5q-23 -73 -38.5 -144.5t-22.5 -143.5l-68 10q2 17 3 33t1 32q0 92 -89 145q-89 54 -238 54q-261 0 -410 -185q-112 -141 -139 -360q172 7 338 12.5t342 16.5l-16 -131 q-45 2 -81 3.5t-73.5 2.5t-80.5 2t-102.5 2t-140.5 1.5t-193 1.5q-1 -16 -1 -31v-31q0 -237 116 -377q115 -139 314 -139q145 0 244.5 69t142.5 201l63 -14q-15 -50 -27 -106.5t-24 -135.5q-123 -64 -230.5 -96.5t-201.5 -32.5q-270 0 -433 165q-163 166 -163 439z" />
<glyph unicode="&#x405;" horiz-adv-x="1139" d="M74 57q18 69 29 141.5t16 149.5l73 -6q-1 -13 -1.5 -24.5t-0.5 -24.5q0 -102 83 -163.5t216 -61.5q130 0 219 83t89 201q0 134 -228 253q-43 22 -65 34q-163 89 -227 167t-64 181q0 163 146.5 289.5t338.5 126.5q85 0 164.5 -20.5t167.5 -65.5q-19 -64 -32 -132t-19 -141 l-70 9q3 24 4.5 41t1.5 26q0 77 -74.5 124.5t-189.5 47.5q-117 0 -192.5 -67.5t-75.5 -169.5q0 -76 43 -129.5t199 -137.5q213 -112 275.5 -191.5t62.5 -195.5q0 -174 -163 -308t-382 -134q-84 0 -167.5 24t-176.5 74z" />
<glyph unicode="&#x406;" horiz-adv-x="674" d="M-23 0l15 65q7 -1 13.5 -1.5t19.5 -0.5q63 0 92.5 34.5t52.5 164.5l150 859q3 21 5.5 41.5t2.5 29.5q0 60 -26.5 80t-104.5 20l16 70q101 -9 152.5 -11.5t89.5 -2.5q47 0 106.5 3.5t128.5 9.5l-14 -69q-6 0 -15.5 1t-13.5 1q-67 0 -97.5 -36.5t-55.5 -178.5l-142 -811 q-6 -35 -9 -59.5t-3 -38.5q0 -60 23 -82t81 -22q5 0 13 1t12 1q6 0 9.5 -1t4.5 -2l-14 -65q-82 6 -142.5 9t-101.5 3t-102.5 -3t-145.5 -9z" />
<glyph unicode="&#x407;" horiz-adv-x="674" d="M-23 0l15 65q7 -1 13.5 -1.5t19.5 -0.5q64 0 92 34q31 35 53 165l150 859q3 21 5.5 41.5t2.5 29.5q0 60 -27 80q-26 20 -104 20l16 70q100 -9 152 -12q26 -1 48.5 -1.5t41.5 -0.5q48 0 107 3.5t128 9.5l-14 -69q-6 0 -15.5 1t-13.5 1q-67 0 -98 -37q-29 -35 -55 -178 l-142 -811q-12 -71 -12 -98q0 -60 23 -82t81 -22q5 0 13 1t12 1q11 0 14 -3l-14 -65q-164 12 -244 12t-248 -12zM238 1636q0 35 43 69t84 34q35 0 70 -42q35 -43 35 -81q0 -33 -44 -68q-44 -33 -81 -33q-39 0 -73 42q-34 41 -34 79zM543 1636q0 35 43 69t84 34q37 0 71 -43 q36 -42 36 -80q0 -33 -45 -67q-43 -34 -82 -34t-73 42q-34 41 -34 79z" />
<glyph unicode="&#x408;" horiz-adv-x="674" d="M-274 -320q196 7 292.5 121.5t153.5 452.5l147 866q4 24 6.5 43.5t2.5 28.5q0 60 -26.5 80t-104.5 20l16 70q101 -9 152.5 -11.5t89.5 -2.5q47 0 106.5 3.5t128.5 9.5l-14 -69h-23q-60 0 -87.5 -19.5t-45.5 -78.5q-23 -77 -117 -650q-27 -165 -43 -257 q-63 -389 -194.5 -526.5t-407.5 -151.5z" />
<glyph unicode="&#x409;" horiz-adv-x="1879" d="M-58 70q0 24 8.5 51t24.5 49.5t40 37t54 14.5q27 0 39.5 -12.5t21 -27.5t18 -27.5t31.5 -12.5q40 0 108 115.5t151 344.5q15 42 33 94.5t36 109.5t34.5 115t29.5 111.5t20.5 98.5t7.5 76q0 49 -29.5 71t-84.5 22q-3 0 -13 -1t-15 -1l11 66q84 -2 145 -3t110 -2t92.5 -1.5 t94.5 -0.5q50 0 105.5 0.5t119.5 1t136.5 2t157.5 3.5l-11 -66q-5 0 -14 1t-12 1q-38 0 -65 -12.5t-45 -35.5q-15 -20 -25.5 -48t-20.5 -76t-22.5 -121t-31.5 -182l1 1l-9 -52q20 3 43.5 5.5t48 4t48 2t42.5 0.5q130 0 221.5 -30.5t149.5 -80t84.5 -114t26.5 -131.5 q0 -84 -34.5 -162.5t-104.5 -140t-176 -98.5t-249 -37q-20 0 -39 0.5t-39 2t-43 2.5t-51 3q-13 1 -25 2t-23 3q-32 1 -58.5 1.5t-48.5 0.5q-52 0 -117 -2t-141 -6l12 68q6 0 17 -1t16 -1q39 0 66.5 7.5t47.5 34t35 76.5t30 135l160 929l-175 7l-162 -7q-41 -145 -87 -311.5 t-107 -336.5q-54 -151 -108 -269t-112 -199.5t-123 -124t-143 -42.5q-49 0 -81.5 28.5t-32.5 77.5zM1063 115q38 -10 72.5 -16t63 -9t49.5 -3.5t33 -0.5q97 0 165.5 26t112 69.5t63 100.5t19.5 119q0 69 -22.5 123.5t-64 91.5t-100 56.5t-130.5 19.5q-59 0 -105 -7.5 t-63 -12.5l-39 -213q-8 -45 -15 -83.5t-13.5 -77.5t-13 -82.5t-12.5 -100.5z" />
<glyph unicode="&#x40a;" horiz-adv-x="1935" d="M-24 0l12 66h39q62 0 88 35t55 198l141 829q4 27 6 48t2 34q0 45 -25 63.5t-83 18.5h-18l12 68q151 -12 225 -12q98 0 244 12l-10 -68h-21q-75 0 -105 -27q-30 -26 -42 -108l-70 -401q84 -4 159.5 -6t156.5 -2q44 0 82.5 0.5t76 1t78 2t89.5 3.5l22 130q12 72 21 123 t15 87.5t8.5 62.5t2.5 48t-3 39t-13.5 27.5t-31.5 16t-56 5.5h-31l13 68q74 -6 130.5 -10t110.5 -4h23q56 1 87 3t51.5 4.5t36 4.5t40.5 2h2l-10 -66h-29q-32 0 -55 -3t-40.5 -22t-31.5 -61t-27 -120l-56 -335q40 7 87 9.5t85 2.5q130 0 220.5 -27.5t147 -73.5t82 -107.5 t25.5 -128.5q0 -84 -33 -162.5t-101 -140t-172.5 -98.5t-247.5 -37q-20 0 -37.5 0.5t-36 2t-39.5 2.5t-49 3q-46 5 -83.5 8.5t-79.5 3.5q-22 0 -52.5 -1.5t-62 -3t-60 -4t-45.5 -3.5l13 66h39q34 0 56.5 10t38 36t27 71t23.5 116l59 354q-52 2 -96.5 3.5t-87 3t-85.5 2 t-92 0.5q-78 0 -144.5 -2.5t-135.5 -6.5l-68 -387q-5 -36 -7.5 -59t-2.5 -39q0 -57 21 -79.5t75 -22.5h39l-13 -66q-67 7 -128 10.5t-115 3.5q-34 0 -94 -3.5t-141 -10.5zM1139 115q76 -20 130.5 -24.5t77.5 -4.5q97 0 164 26t108.5 69.5t59.5 100.5t18 119 q0 69 -21.5 120.5t-61.5 85t-97.5 50t-129.5 16.5q-59 0 -100 -7.5t-58 -12.5l-36 -194q-8 -45 -15 -83.5t-13.5 -77.5t-13 -82.5t-12.5 -100.5z" />
<glyph unicode="&#x40b;" horiz-adv-x="1237" d="M-82 1032q10 40 19 92t15.5 101t10 87t3.5 50q15 -2 39.5 -3.5t52.5 -3t56.5 -2.5t51.5 -1h659q48 0 88.5 3t79.5 9q-15 -90 -22.5 -161.5t-10.5 -137.5l-75 -2q0 16 0.5 30.5t0.5 28.5q0 66 -36 97.5t-121 31.5h-211l-78 -488q81 20 157.5 28.5t133.5 8.5q61 0 108 -5.5 t81.5 -14.5t59 -20t41.5 -22q30 -19 49.5 -41.5t30.5 -47.5t15.5 -51t4.5 -51q0 -23 -2.5 -46t-6.5 -43q-8 -36 -16 -83.5t-15.5 -93.5t-12 -83.5t-4.5 -53.5q0 -34 25 -54t83 -20h19l-13 -70q-31 3 -64 5.5t-63.5 4.5t-56 3t-41.5 1q-21 0 -56.5 -1.5t-72.5 -3.5t-69 -4 t-46 -3l11 68h20q34 0 59 4.5t42.5 19t28.5 41t18 70.5l43 257q3 19 5.5 38t2.5 39q0 32 -9 61t-34 50q-10 9 -25.5 18.5t-40 18t-59 14t-81.5 5.5q-63 0 -134 -13.5t-137 -39.5l-70 -419q-1 -7 -3 -19.5t-3.5 -26t-2.5 -25.5t-1 -18q0 -24 9 -38.5t24 -22.5t34.5 -11 t40.5 -3h21l-13 -68q-24 2 -53.5 4.5t-59 4t-58 2.5t-50.5 1q-24 0 -56 -1t-66 -2.5t-67.5 -4t-60.5 -4.5l13 68h20q29 0 50 2t36.5 13t27.5 35.5t24 70t24.5 115.5t30.5 173l69 406q9 51 65 366q-27 3 -51 4t-46 1q-60 0 -100.5 -11t-67 -33t-42 -55.5t-24.5 -79.5l-9 -45 h-86z" />
<glyph unicode="&#x40c;" horiz-adv-x="1355" d="M-23 0l15 65q7 -1 13.5 -1.5t19.5 -0.5q31 0 53.5 6.5t39 27t28.5 60t24 105.5l150 859q4 21 5.5 41.5t2.5 29.5q0 30 -5.5 49t-20 30.5t-40 16t-65.5 4.5l16 70q52 -5 89 -7.5t64 -4t48 -2t41 -0.5q48 0 107 3.5t128 9.5l-14 -69q-6 0 -15.5 1t-13.5 1q-33 0 -56 -6 t-40.5 -27.5t-30.5 -64.5t-26 -117l-66 -378l501 435q36 33 59 56t36.5 38t18.5 24t5 13q0 34 -72 34h-24l11 64q61 -4 121 -5.5t117 -1.5q42 0 95.5 1.5t118.5 5.5l-12 -64h-8q-112 0 -226 -95l-567 -458l336 -465q40 -50 83 -93.5t84.5 -75.5t79.5 -50t68 -18h10l-10 -55 q-21 -3 -36.5 -5t-30.5 -3.5t-32 -2t-39 -0.5q-56 0 -100.5 13.5t-82.5 37.5t-71 57t-64 73l-373 521l-72 -414q-12 -71 -12 -98q0 -60 23 -82t81 -22q5 0 13 1t12 1q11 0 14 -3l-14 -65q-164 12 -244 12t-248 -12zM748 1441l235 357l138 -71l-315 -318z" />
<glyph unicode="&#x40d;" horiz-adv-x="1594" d="M-25 0l13 66h39q22 0 41.5 3.5t36 19.5t30 49t23.5 91l153 899q3 19 5.5 43.5t2.5 38.5q0 31 -12 48t-29 24.5t-35.5 8.5t-31.5 1h-18l12 70q82 -8 133 -11t92 -3q25 0 55.5 1t62.5 2.5t64.5 4t61.5 4.5l-10 -68h-21q-35 0 -59 -4.5t-41.5 -19t-28.5 -41t-18 -70.5 l-134 -770l506 416l391 336l8 45q3 15 3 31q0 15 -4.5 29t-16.5 24.5t-33.5 17t-55.5 6.5h-20l12 68q28 -3 59 -5.5t60.5 -4t56 -2t45.5 -0.5q23 0 55 1t66.5 2.5t68.5 4t60 4.5l-12 -68h-21q-22 0 -43 -2t-39.5 -12.5t-32 -34.5t-20.5 -67l-88 -467l-72 -426 q-5 -26 -9.5 -59.5t-4.5 -67.5q0 -23 3 -39.5t13.5 -27t31.5 -16t56 -5.5h29l-12 -68l-111 8q-11 1 -29 2t-37.5 2t-37 1.5t-27.5 0.5q-17 0 -40 -1t-48.5 -2.5t-51.5 -3t-50 -3.5l-50 -4l11 66l37 -3h9q43 0 67.5 19t38 49.5t20 67.5t12.5 73l70 387l52 335l-896 -739 l-7 -50q-2 -12 -3 -23t-1 -22q0 -42 18.5 -67.5t66.5 -25.5q10 0 15 1l37 2l-12 -68l-90 6q-35 2 -71.5 4.5t-76.5 1.5q-20 0 -61.5 -1.5t-106.5 -6.5zM712 1773l144 67l133 -376l-70 -23z" />
<glyph unicode="&#x40e;" horiz-adv-x="1324" d="M31 1302l10 60q72 -3 136.5 -5t114.5 -2q62 0 126 2t133 5l-11 -60q-20 -2 -42.5 -3.5t-41.5 -8t-32 -21.5t-13 -43q0 -33 14 -86t42.5 -136.5t71.5 -202t102 -281.5q42 65 92 145t101 164t98 168t82 158q26 53 26 86q0 38 -33.5 49.5t-90.5 11.5l10 60q57 -3 118 -5 t116 -2q46 0 108 2t125 5l-10 -60h-15q-27 0 -55 -7t-59 -27.5t-64.5 -57.5t-70.5 -97l-477 -763q-122 -195 -228.5 -294.5t-192.5 -99.5q-27 0 -53.5 7.5t-47 21.5t-33 35.5t-12.5 48.5q0 25 8.5 51t25 47t40 34t54.5 13q27 0 38.5 -14.5t19.5 -32t18.5 -32t36.5 -14.5 q13 0 30.5 10t41 33.5t53.5 63t68 98.5q-20 56 -42 120.5t-50.5 145.5t-65.5 183t-87 232q-34 89 -64 146.5t-55.5 90.5t-47 46t-39.5 13q-10 0 -15.5 -0.5t-11.5 -0.5zM523 1685q0 37 13.5 65.5t34.5 47.5t46 28.5t48 9.5q35 0 59.5 -19t24.5 -58q0 -5 -0.5 -11t-1.5 -12 q-2 -8 -11 -29t-9 -41q0 -15 10 -25.5t37 -10.5q39 0 87 15t97 42t94.5 66t79.5 87l58 -31q-42 -74 -101.5 -127t-123 -87.5t-126 -51t-111.5 -16.5q-57 0 -96.5 14.5t-63.5 37.5t-34.5 51t-10.5 55z" />
<glyph unicode="&#x40f;" horiz-adv-x="1489" d="M-23 1l12 68h1q6 0 15.5 -1t13.5 -1q67 0 98 37q29 35 55 178l142 811q12 70 12 98q0 60 -23 82t-81 22q-5 0 -13 -1t-12 -1q-11 0 -14 3l14 65q163 -12 244 -12q80 0 248 12l-15 -65q-7 1 -13.5 1.5t-19.5 0.5q-64 0 -92 -34q-31 -35 -53 -165l-168 -975q69 -2 118 -3.5 t84 -2.5t58 -1.5t40 -0.5h129q18 0 36 0.5t42 1.5t57 2.5t81 3.5l170 969q12 70 12 98q0 60 -23 82t-81 22q-5 0 -13 -1t-12 -1q-11 0 -14 3l14 65q163 -12 244 -12q80 0 248 12l-15 -65q-7 1 -13.5 1.5t-19.5 0.5q-32 0 -54 -6.5t-38.5 -27t-28.5 -60t-24 -105.5l-150 -859 q-3 -18 -5 -37.5t-2 -38.5q0 -23 4 -41t17.5 -30t39 -18t69.5 -6l-15 -69q-66 5 -116 8.5t-90.5 6t-75 4t-69 2t-72 1t-85.5 0.5q-26 -43 -48.5 -92.5t-40 -97t-29.5 -89t-17 -68.5h-73q5 27 7.5 68.5t2 89t-6 97t-15.5 92.5q-26 0 -67 -0.5t-90.5 -1.5t-105 -2.5t-111 -4 t-108 -5.5t-96.5 -7z" />
<glyph unicode="&#x410;" horiz-adv-x="1444" d="M-94 0l10 65l22.5 -3t12.5 -1q89 0 214 215l58 99l221 358q84 136 179 300t198 351h146q3 -60 15 -150q7 -45 19 -119t29 -179l74 -431l19 -108q20 -122 34 -192t21 -89q10 -29 32 -40q20 -10 82 -10l-12 -66q-150 12 -225 12q-91 0 -242 -12l12 66h15q37 0 62 5 t40.5 16.5t22 30.5t6.5 46q0 8 -3 34q-1 5 -1 11l-45 323q-66 1 -125 2t-119 1q-64 0 -123 -0.5t-123 -2.5l-160 -282q-14 -25 -22.5 -43.5t-13.5 -32t-7 -24t-2 -19.5q0 -31 27 -48t76 -17h22l-13 -66l-67 5q-55 4 -91.5 5.5t-55.5 1.5q-80 0 -219 -12zM481 616h135h184 l105 3l-86 575z" />
<glyph unicode="&#x411;" horiz-adv-x="1180" d="M-25 0l13 66h39q35 0 57 10t37 36t26 71t23 116l141 829q3 19 5.5 43.5t2.5 38.5q0 19 -4.5 34t-16.5 25.5t-33 16.5t-54 6h-18l12 72q19 -2 52.5 -4t85.5 -3.5t124 -3t168 -1.5h57q13 0 40.5 0.5t62.5 1t74.5 1.5t77.5 2t70.5 1.5t53.5 1.5l68 2q-20 -66 -31.5 -132 t-17.5 -140l-5 -48l-81 -4v54q0 30 -8 60t-35.5 54.5t-82 40t-147.5 15.5h-69l-150 -11l-82 -477q44 6 94 9t88 3q130 0 221.5 -30.5t149.5 -80t84.5 -114t26.5 -131.5q0 -84 -35 -162.5t-105.5 -140t-176.5 -98.5t-247 -37q-20 0 -39 0.5t-39 2t-43 2.5t-51 3 q-46 5 -83.5 8.5t-79.5 3.5q-22 0 -52.5 -1.5t-62 -3t-60 -4t-45.5 -3.5zM319 115q38 -10 72.5 -16t63 -9t49.5 -3.5t33 -0.5q98 0 166.5 26t111.5 69.5t62.5 100.5t19.5 119q0 69 -22.5 123.5t-64 91.5t-100 56.5t-130.5 19.5q-59 0 -105 -7.5t-63 -12.5l-39 -207 q-17 -88 -30 -172t-24 -178z" />
<glyph unicode="&#x412;" horiz-adv-x="1233" d="M-25 0l13 66h39q62 0 88 35t55 198l141 829q4 27 6 48t2 34q0 45 -25 63.5t-83 18.5h-18l12 74q60 -7 113.5 -10.5t95.5 -3.5q29 0 69 1.5t92 5.5t88.5 5.5t59.5 1.5q175 0 279 -84t104 -225q0 -125 -82 -213t-236 -127q147 -20 226.5 -97.5t79.5 -201.5 q0 -183 -158 -305q-157 -121 -406 -121q-34 0 -79 2.5t-102 7.5t-95 7.5t-59 2.5q-94 0 -220 -12zM319 115q55 -15 106.5 -22t102.5 -7q178 0 273.5 82t95.5 233q0 138 -88 198q-89 60 -293 60h-16q-25 -1 -47.5 -1.5t-44.5 -0.5q-25 -132 -47 -266t-42 -276zM422 750h94 q105 0 182 16.5t126.5 50.5t73.5 87t24 126q0 120 -68.5 181t-202.5 61q-25 0 -60 -2t-77 -6q-11 -59 -27 -146.5t-36 -205.5q-10 -54 -17 -94.5t-12 -67.5z" />
<glyph unicode="&#x413;" horiz-adv-x="1096" d="M-37 0l10 66h27q26 0 47 1.5t38 15.5t30 44.5t24 89.5l174 959q6 31 3.5 54t-15.5 38t-38 22.5t-64 7.5h-15l13 66q19 -2 52.5 -4t85.5 -3.5t124 -3t168 -1.5h57q13 0 40.5 0.5t62.5 1t74.5 1.5t77.5 2t70.5 1.5t53.5 1.5l67 2q-15 -53 -28 -121t-23 -168l-4 -47l-82 -4 l2 57q1 40 -8.5 73.5t-39.5 58t-83.5 38t-140.5 13.5h-70l-149 -11l-172 -966q-2 -8 -4 -24.5t-4 -34.5t-3.5 -35t-1.5 -25q0 -29 8 -48t24.5 -29.5t41.5 -14.5t58 -4h36l-10 -70q-23 1 -59 3t-74 3.5t-74 3t-59 2.5h-43q-23 0 -47 -2t-47 -4z" />
<glyph unicode="&#x414;" horiz-adv-x="1436" d="M-79 -324l19 107q2 12 5.5 35.5t9 64.5t13 101.5t16.5 146.5q21 -2 42.5 -4.5t42.5 -2.5q16 0 33.5 7t38.5 24.5t45.5 47.5t54.5 75q41 62 88 148t92 186.5t84 211.5t65 223q10 42 20 86t6.5 80t-26.5 59t-80 23q-3 0 -12 -1t-14 -1l12 70q92 -4 161 -6.5t124.5 -4.5 t102 -3t94.5 -1q81 0 213.5 3.5t303.5 11.5h1l-12 -70q-5 0 -13.5 1t-12.5 1q-74 0 -110 -48q-18 -23 -33 -64t-29 -118q-3 -17 -8.5 -50t-12 -70t-12 -71t-8.5 -52l-94 -521q-8 -43 -12 -73.5t-4 -50.5q0 -34 12 -45t40 -11q8 0 17.5 0.5t20.5 1.5l99 8q-22 -86 -36 -146.5 t-23 -101.5t-13 -64.5t-6 -35.5l-19 -107l-73 -2q3 24 4 46t1 42q0 63 -12 105t-32 68.5t-46 40.5t-54 21q-26 6 -80 10t-118 6.5t-128 3.5t-110 1q-92 0 -175 -5t-140 -16q-35 -8 -70.5 -25.5t-68.5 -53.5t-62 -95t-51 -149zM251 120q51 -2 89.5 -3.5t75.5 -2t76.5 -0.5 h92.5q72 0 159.5 1.5t172.5 4.5q9 43 17 81q7 32 13.5 62.5t8.5 43.5l163 942l-190 6l-181 -7q-41 -155 -81.5 -281.5t-81 -231t-81 -190.5t-82 -159.5t-84.5 -138.5t-87 -127z" />
<glyph unicode="&#x415;" horiz-adv-x="1190" d="M-24 0l12 66h39q62 0 88 35t55 198l141 829q4 27 6 48t2 34q0 45 -25 63.5t-83 18.5h-18l12 70q135 -5 247.5 -7.5t215.5 -2.5q32 0 135.5 2t281.5 6l68 2q-16 -64 -27.5 -134.5t-17.5 -146.5l-76 -3q1 8 1.5 16.5t0.5 25.5q0 83 -54 112q-53 30 -280 30h-53 q-26 0 -57 -1t-80 -4q-22 -123 -43.5 -246.5t-42.5 -250.5h9t13 -1q59 -2 109.5 -3.5t95.5 -1.5h31q151 0 192 27q40 27 54 102l65 -15q-25 -88 -40 -174.5t-19 -171.5l-70 -4q1 3 1 12q3 31 3 43q0 57 -40 76q-39 19 -220 19h-26q-42 0 -83 -1t-89 -3q-29 -158 -51.5 -292 t-38.5 -257q66 -8 135 -12q70 -3 186 -3q186 0 248 42q61 42 96 173l70 -12q-27 -93 -42.5 -165t-23.5 -138q-161 6 -297 9t-254 3q-88 0 -188 -3q-100 -1 -274 -9z" />
<glyph unicode="&#x416;" horiz-adv-x="2015" d="M-24 -12l10 55q34 0 77 19.5t93.5 54t106.5 82.5t115 105l434 444l-358 441q-24 31 -45 51.5t-42 32.5t-44 16.5t-50 4.5h-9l12 65q64 -4 108 -6t85 -2q59 0 129.5 2t133.5 6l-12 -65h-24q-53 0 -76 -13.5t-23 -39.5q0 -20 13 -49t37 -64l318 -468l-485 -501 q-42 -44 -83.5 -77.5t-85.5 -57t-92 -36t-104 -12.5q-22 0 -39 0.5t-32.5 2t-31.5 4t-36 5.5zM678 0l11 67q6 0 17.5 -1t16.5 -1q81 0 116 45q17 23 34.5 77.5t33.5 148.5l13 77l114 613q11 57 15 99.5t5 71.5q0 52 -23.5 73.5t-83.5 21.5h-26l12 67q64 -4 124 -6t119 -2 t120 2t127 6l-12 -67h-26q-79 0 -115 -43q-17 -21 -33.5 -76.5t-32.5 -146.5l-67 -362l490 464q43 43 67.5 75.5t24.5 53.5q0 18 -19.5 27.5t-63.5 9.5h-24l12 65q61 -4 130.5 -6t128.5 -2q42 0 86.5 2t110.5 6l-12 -65h-9q-27 0 -51.5 -4.5t-49.5 -16.5t-53 -32.5 t-63 -51.5l-533 -459l286 -431q39 -57 79.5 -105t80.5 -83t78.5 -54.5t72.5 -19.5l-10 -55q-21 -3 -33.5 -5.5t-24 -4t-25.5 -2t-36 -0.5q-56 0 -100.5 13.5t-81.5 38t-68.5 59.5t-59.5 78l-332 497l-58 -320q-11 -57 -15.5 -99.5t-4.5 -71.5q0 -55 24 -77.5t84 -22.5 q5 0 16.5 1t17.5 1l-11 -67q-75 3 -138 5t-116 2t-117 -2t-139 -5z" />
<glyph unicode="&#x417;" horiz-adv-x="1090" d="M-2 32q5 22 10 55t9 70t6.5 74.5t2.5 68.5v32.5t-1 32.5l91 20q-1 -12 -1.5 -23.5t-0.5 -22.5q0 -137 68.5 -203.5t216.5 -66.5q89 0 164.5 25t130 73t85.5 117t31 157q0 92 -45 145.5t-126 79.5q-14 -2 -45 -7.5t-70 -11.5t-82.5 -10.5t-83.5 -4.5l27 160 q88 0 155.5 -8.5t115.5 -22.5q34 22 69.5 52.5t64.5 71t47.5 92t18.5 116.5q0 98 -56 148t-174 50q-72 0 -128 -18.5t-99.5 -55t-77 -90t-60.5 -123.5l-76 15q30 75 52 151.5t36 154.5q31 12 73 25.5t90.5 25.5t100.5 19.5t104 7.5q109 0 186.5 -24t127 -64.5t72.5 -94.5 t23 -113q0 -68 -25.5 -128t-67.5 -109.5t-96 -86t-112 -57.5q61 -14 108.5 -40.5t79 -64t48 -84t16.5 -100.5q0 -97 -45.5 -184.5t-126.5 -153.5t-193 -104.5t-245 -38.5q-106 0 -205.5 19t-187.5 57z" />
<glyph unicode="&#x418;" horiz-adv-x="1544" d="M-25 0l13 66h39q22 0 41.5 3.5t36 19.5t30 49t23.5 91l153 899q3 19 5.5 43.5t2.5 38.5q0 31 -12 48t-29 24.5t-35.5 8.5t-31.5 1h-18l12 70q82 -8 133 -11t92 -3q25 0 55.5 1t62.5 2.5t64.5 4t61.5 4.5l-10 -68h-21q-35 0 -59 -4.5t-41.5 -19t-28.5 -41t-18 -70.5 l-134 -770l506 416l391 336l8 45q3 15 3 31q0 15 -4.5 29t-16.5 24.5t-33.5 17t-55.5 6.5h-20l12 68q28 -3 59 -5.5t60.5 -4t56 -2t45.5 -0.5q23 0 55 1t66.5 2.5t68.5 4t60 4.5l-12 -68h-21q-22 0 -43 -2t-39.5 -12.5t-32 -34.5t-20.5 -67l-88 -467l-72 -426 q-5 -26 -9.5 -59.5t-4.5 -67.5q0 -23 3 -39.5t13.5 -27t31.5 -16t56 -5.5h29l-12 -68l-111 8q-11 1 -29 2t-37.5 2t-37 1.5t-27.5 0.5q-17 0 -40 -1t-48.5 -2.5t-51.5 -3t-50 -3.5l-50 -4l11 66l37 -3h9q43 0 67.5 19t38 49.5t20 67.5t12.5 73l70 387l52 335l-896 -739 l-7 -50q-2 -12 -3 -23t-1 -22q0 -42 18.5 -67.5t66.5 -25.5q10 0 15 1l37 2l-12 -68l-90 6q-35 2 -71.5 4.5t-76.5 1.5q-20 0 -61.5 -1.5t-106.5 -6.5z" />
<glyph unicode="&#x419;" horiz-adv-x="1544" d="M-25 0l13 66h39q22 0 41.5 3.5t36 19.5t30 49t23.5 91l153 899q3 19 5.5 43.5t2.5 38.5q0 31 -12 48t-29 24.5t-35.5 8.5t-31.5 1h-18l12 70q82 -8 133 -11t92 -3q25 0 55.5 1t62.5 2.5t64.5 4t61.5 4.5l-10 -68h-21q-35 0 -59 -4.5t-41.5 -19t-28.5 -41t-18 -70.5 l-134 -770l506 416l391 336l8 45q3 15 3 31q0 15 -4.5 29t-16.5 24.5t-33.5 17t-55.5 6.5h-20l12 68q28 -3 59 -5.5t60.5 -4t56 -2t45.5 -0.5q23 0 55 1t66.5 2.5t68.5 4t60 4.5l-12 -68h-21q-22 0 -43 -2t-39.5 -12.5t-32 -34.5t-20.5 -67l-88 -467l-72 -426 q-5 -26 -9.5 -59.5t-4.5 -67.5q0 -23 3 -39.5t13.5 -27t31.5 -16t56 -5.5h29l-12 -68l-111 8q-11 1 -29 2t-37.5 2t-37 1.5t-27.5 0.5q-17 0 -40 -1t-48.5 -2.5t-51.5 -3t-50 -3.5l-50 -4l11 66l37 -3h9q43 0 67.5 19t38 49.5t20 67.5t12.5 73l70 387l52 335l-896 -739 l-7 -50q-2 -12 -3 -23t-1 -22q0 -42 18.5 -67.5t66.5 -25.5q10 0 15 1l37 2l-12 -68l-90 6q-35 2 -71.5 4.5t-76.5 1.5q-20 0 -61.5 -1.5t-106.5 -6.5zM703 1692q0 28 10.5 54.5t29.5 46t44 31.5t54 12q37 0 62.5 -19t25.5 -61q0 -13 -3.5 -22.5t-7 -18t-7 -17.5t-3.5 -20 q0 -18 13.5 -33t49.5 -15q43 0 89 15t90.5 42t86 66t75.5 87l58 -31q-42 -74 -96.5 -127t-114.5 -87.5t-123 -51t-123 -16.5q-59 0 -99.5 15.5t-65 39.5t-35 53t-10.5 57z" />
<glyph unicode="&#x41a;" horiz-adv-x="1355" d="M-23 0l15 65q7 -1 13.5 -1.5t19.5 -0.5q31 0 53.5 6.5t39 27t28.5 60t24 105.5l150 859q4 21 5.5 41.5t2.5 29.5q0 30 -5.5 49t-20 30.5t-40 16t-65.5 4.5l16 70q52 -5 89 -7.5t64 -4t48 -2t41 -0.5q48 0 107 3.5t128 9.5l-14 -69q-6 0 -15.5 1t-13.5 1q-33 0 -56 -6 t-40.5 -27.5t-30.5 -64.5t-26 -117l-66 -378l501 435q36 33 59 56t36.5 38t18.5 24t5 13q0 34 -72 34h-24l11 64q61 -4 121 -5.5t117 -1.5q42 0 95.5 1.5t118.5 5.5l-12 -64h-8q-112 0 -226 -95l-567 -458l336 -465q40 -50 83 -93.5t84.5 -75.5t79.5 -50t68 -18h10l-10 -55 q-21 -3 -36.5 -5t-30.5 -3.5t-32 -2t-39 -0.5q-56 0 -100.5 13.5t-82.5 37.5t-71 57t-64 73l-373 521l-72 -414q-12 -71 -12 -98q0 -60 23 -82t81 -22q5 0 13 1t12 1q11 0 14 -3l-14 -65q-164 12 -244 12t-248 -12z" />
<glyph unicode="&#x41b;" horiz-adv-x="1459" d="M-58 63q0 24 8.5 51t24.5 49.5t40 37t54 14.5q27 0 39.5 -12.5t21 -27.5t18 -27.5t31.5 -12.5q40 0 108 120t151 347q15 42 33 94.5t36 109.5t34.5 115t29.5 111.5t20.5 98.5t7.5 76q0 49 -29.5 71t-84.5 22q-3 0 -13 -1t-15 -1l11 66q84 -2 149.5 -3t120 -2t103 -1.5 t99.5 -0.5q50 0 105.5 0.5t119.5 1.5t136.5 2t157.5 3l-11 -66q-5 0 -14 1t-12 1q-38 0 -65 -12.5t-45 -35.5q-15 -20 -25.5 -48t-20.5 -76t-22.5 -121.5t-31.5 -183.5l-45 -257q-18 -101 -29.5 -164.5t-19 -105.5t-10.5 -70t-3 -57q0 -56 21.5 -79.5t78.5 -23.5 q14 0 21.5 0.5t12.5 0.5l-12 -67q-75 4 -140 6t-110 2q-52 0 -117 -2t-141 -6l12 68q6 0 17 -1t16 -1q39 0 66.5 7.5t47 33.5t35 76t30.5 135l160 929q-24 1 -48.5 2.5t-52.5 2.5t-60 2t-71 1q-32 0 -62.5 -2.5t-72.5 -5.5q-41 -145 -87 -311.5t-107 -336.5 q-54 -151 -108 -270t-112 -201.5t-123 -126.5t-143 -44q-49 0 -81.5 28.5t-32.5 77.5z" />
<glyph unicode="&#x41c;" horiz-adv-x="1759" d="M-47 0l8 66q5 0 15 -1.5t14 -1.5q106 0 154 208l1 7l187 833q9 45 12.5 63t3.5 24q0 55 -27 75q-26 19 -112 19l14 68h15t21 -1q99 -3 138 -3q86 0 190 6q0 -1 -0.5 -3.5t-0.5 -10.5q0 -65 63 -348q32 -142 75 -319.5t99 -395.5l137 243q427 763 435 832q112 -6 186 -6 q33 0 77 1.5t101 3.5l-12 -67h-21q-108 0 -130 -169l-3 -24l-104 -814q-6 -48 -9 -77t-3 -44q0 -54 25 -76t85 -22h17l-13 -66q-23 2 -47.5 4t-50.5 3q-51 3 -137 3q-49 0 -112.5 -2.5t-132.5 -7.5l15 65q7 0 16 -1t25 -1q118 0 147 212l3 25l123 904l-582 -1036 q-24 -42 -43.5 -80.5t-36.5 -81.5h-78q-3 25 -7.5 50.5t-9.5 51.5t-12.5 60t-17.5 76l-217 909l-182 -879q-9 -45 -12.5 -72t-3.5 -42q0 -55 26 -75q26 -19 101 -19h14l-11 -66q-63 5 -118 7.5t-98 2.5q-48 0 -97.5 -2.5t-101.5 -7.5z" />
<glyph unicode="&#x41d;" horiz-adv-x="1532" d="M-24 0l12 66h39q62 0 88 35t55 198l141 829q4 27 6 48t2 34q0 45 -25 63.5t-83 18.5h-18l12 68q151 -12 225 -12q98 0 244 12l-10 -68h-21q-75 0 -105 -27q-30 -26 -42 -108l-70 -401q84 -4 164.5 -6t161.5 -2q91 0 186.5 2t198.5 6l59 373q4 23 5.5 38.5t2.5 22.5 q1 8 1.5 13t0.5 9q0 42 -25.5 61t-82.5 19h-21l13 68q144 -12 221 -12q106 0 250 12l-13 -68h-20q-55 0 -80.5 -13t-40.5 -46q-10 -19 -33 -136q-11 -58 -28.5 -154.5t-40.5 -233.5l-13 -79l-26 -152q-23 -137 -35 -216.5t-12 -105.5q0 -27 5 -44t17 -27.5t32 -14.5t50 -4 h18h11l-13 -66l-157 11q-51 3 -84 3q-29 0 -87.5 -3.5t-149.5 -10.5h-3l10 65q6 0 14 -1t23 -1q108 0 147 208l3 14l65 368q-109 4 -214.5 6.5t-205.5 2.5q-78 0 -149.5 -2.5t-140.5 -6.5l-68 -387q-5 -36 -7.5 -59t-2.5 -39q0 -57 21 -79.5t75 -22.5h25h14l-13 -66 q-67 7 -128 10.5t-115 3.5q-34 0 -94 -3.5t-141 -10.5z" />
<glyph unicode="&#x41e;" horiz-adv-x="1497" d="M88 506q0 160 53 321q54 160 150 281q111 141 267 217q157 78 335 78q238 0 378 -147q140 -148 140 -398q0 -159 -54 -318q-52 -158 -149 -282q-56 -72 -123.5 -127t-144.5 -93t-161 -57.5t-173 -19.5q-239 0 -379 146q-139 145 -139 399zM287 537q0 -226 99 -344.5 t288 -118.5q244 0 391 204q147 205 147 543q0 233 -98.5 353t-288.5 120q-244 0 -391 -207q-147 -206 -147 -550z" />
<glyph unicode="&#x41f;" horiz-adv-x="1509" d="M-23 0l15 65q7 -1 13.5 -1.5t19.5 -0.5q31 0 53.5 6.5t39 27t28.5 60t24 105.5l150 859q3 18 5 37.5t2 38.5q0 23 -4 41t-17.5 30t-39 18t-69.5 6l15 69q70 -5 123 -8.5t97 -6t82 -4t77 -2.5t82.5 -1h98.5h168q22 0 61.5 0.5t90.5 1.5t109.5 2.5t118 3.5t115.5 5.5 t103 7.5l-12 -68h-1q-6 0 -15.5 1t-13.5 1q-67 0 -98 -37q-29 -35 -55 -178l-142 -811q-12 -71 -12 -98q0 -60 23 -82t81 -22q5 0 13 1t12 1q11 0 14 -3l-14 -65q-164 12 -244 12t-248 -12l15 65q7 -1 13.5 -1.5t19.5 -0.5q64 0 92 34q31 35 53 165l168 975q-69 2 -118 3.5 t-84 2.5t-58 1.5t-40 0.5h-129q-18 0 -39 -0.5t-49 -1.5t-64 -2.5l-84 -3.5l-170 -969q-12 -71 -12 -98q0 -60 23 -82t81 -22q5 0 13 1t12 1q11 0 14 -3l-14 -65q-164 12 -244 12t-248 -12z" />
<glyph unicode="&#x420;" horiz-adv-x="1176" d="M-29 0l11 66h26q69 0 94 22q27 22 45 129l168 925q5 24 8 45t3 27q0 46 -30.5 65t-102.5 19l12 66q75 -5 127 -7.5t94 -2.5q28 0 67.5 1.5t93.5 3.5t93 3.5t65 1.5q188 0 301 -96t113 -256q0 -203 -170 -334q-170 -129 -444 -129q-42 0 -80 2t-74 6l-55 -311l-2 -15 q-6 -41 -6 -59q0 -59 29 -82.5t102 -23.5q3 0 10.5 1t11.5 1q6 0 9 -0.5t5 -1.5l-10 -66q-176 12 -266 12q-74 0 -248 -12zM408 641l28 -2q82 -6 117 -6q189 0 299 96q109 96 109 262q0 65 -21.5 116.5t-62 87t-99 54.5t-133.5 19q-18 0 -50 -1.5t-81 -5.5 q-17 -94 -39.5 -220t-48.5 -285z" />
<glyph unicode="&#x421;" horiz-adv-x="1337" d="M88 561q0 161 63 319q63 157 175 275q115 121 267 184.5t325 63.5q94 0 186.5 -25.5t191.5 -79.5q-23 -73 -38.5 -144.5t-22.5 -143.5l-68 10q2 17 3 33t1 32q0 92 -89 145q-89 54 -238 54q-261 0 -410 -185q-147 -185 -147 -511q0 -237 116 -377q115 -139 314 -139 q145 0 244.5 69t142.5 201l63 -14q-15 -50 -27 -106.5t-24 -135.5q-123 -64 -230.5 -96.5t-201.5 -32.5q-270 0 -433 165q-163 166 -163 439z" />
<glyph unicode="&#x422;" horiz-adv-x="1165" d="M98 1065q22 75 36 149t20 150q80 -16 165 -16q16 0 31.5 0.5t47.5 3.5h589h70q48 0 88.5 3t79.5 9q-15 -90 -22.5 -161.5t-10.5 -137.5l-75 -2q0 16 0.5 30.5t0.5 28.5q0 66 -36 95.5t-121 33.5h-197l-162 -983q-5 -30 -7.5 -55.5t-2.5 -44.5q0 -55 24 -77.5t82 -22.5 q16 0 25.5 0.5t17.5 0.5l-10 -69q-72 5 -137.5 7.5t-122.5 2.5q-20 0 -43 -0.5t-53 -1.5t-68.5 -3t-89.5 -5l14 69q7 0 16 -0.5t25 -0.5q70 0 98 31q30 31 48 141l168 1011h-201q-103 0 -146 -40q-42 -39 -69 -154z" />
<glyph unicode="&#x423;" horiz-adv-x="1423" d="M130 1302l10 60q72 -3 136.5 -5t114.5 -2q62 0 126 2t133 5l-11 -60q-20 -2 -42.5 -3.5t-41.5 -8t-32 -21.5t-13 -43q0 -33 14 -86t42.5 -136.5t71.5 -202t102 -281.5q42 65 92 145t101 164t98 168t82 158q26 53 26 86q0 38 -33.5 49.5t-90.5 11.5l10 60q57 -3 118 -5 t116 -2q46 0 108 2t125 5l-10 -60h-15q-27 0 -55 -7t-59 -27.5t-64.5 -57.5t-70.5 -97l-477 -763q-122 -195 -228.5 -294.5t-192.5 -99.5q-27 0 -53.5 7.5t-47 21.5t-33 35.5t-12.5 48.5q0 25 8.5 51t25 47t40 34t54.5 13q27 0 38.5 -14.5t19.5 -32t18.5 -32t36.5 -14.5 q13 0 30.5 10t41 33.5t53.5 63t68 98.5q-20 56 -42 120.5t-50.5 145.5t-65.5 183t-87 232q-34 89 -64 146.5t-55.5 90.5t-47 46t-39.5 13q-10 0 -15.5 -0.5t-11.5 -0.5z" />
<glyph unicode="&#x424;" horiz-adv-x="1611" d="M86 641q0 147 57.5 256.5t155 183t227.5 112.5t274 44q6 31 6 57q0 45 -28 66.5t-105 21.5h-18l12 67q67 -4 133.5 -6t130.5 -2q54 0 120.5 2t142.5 6l-12 -67h-17q-45 0 -75 -7t-49.5 -24t-31 -44.5t-21.5 -69.5q133 0 234 -31.5t168 -87t101 -132t34 -166.5 q0 -98 -29 -179.5t-80 -147t-120 -115t-148.5 -82.5t-165.5 -49.5t-171 -16.5q-3 -15 -4 -28.5t-1 -25.5q0 -55 30.5 -80.5t103.5 -25.5h20l-12 -68q-83 4 -152.5 6t-117.5 2q-56 0 -126.5 -2t-149.5 -6l12 68h20q44 0 74.5 8t52.5 26.5t36 49t25 76.5q-58 0 -120.5 8.5 t-122 28t-112.5 50.5t-93.5 76.5t-64 106.5t-23.5 141zM289 657q0 -79 22 -141.5t66.5 -106t111 -67t155.5 -23.5q23 111 60.5 318.5t85.5 512.5q-126 0 -220 -37.5t-156.5 -103.5t-93.5 -156.5t-31 -195.5zM820 319q126 0 220 37.5t156.5 103.5t93.5 156.5t31 195.5 q0 79 -22 141.5t-66.5 106t-111 67t-155.5 23.5q-23 -111 -60.5 -318.5t-85.5 -512.5z" />
<glyph unicode="&#x425;" horiz-adv-x="1346" d="M-69 0l12 66q4 0 12 -1.5t12 -1.5q89 0 209 137l4 5l410 473l-199 463q-41 96 -69 121q-29 26 -78 26q-13 0 -19.5 -0.5t-11.5 -1.5l14 70q63 -4 117.5 -6t97.5 -2q35 0 89.5 2t143.5 8l-11 -72h-21q-86 0 -86 -41q0 -34 25 -90l8 -19l129 -307l237 293q32 42 51 73.5 t19 45.5q0 49 -70 49q-5 -1 -10 -1q-5 -1 -11 -1h-11l10 72q5 -1 13.5 -1t19.5 -1q111 -6 153 -6q32 0 82.5 1.5t119.5 5.5q6 1 10.5 1h6.5l-10 -72q-10 0 -24 -1t-17 -1q-39 0 -73 -20q-17 -10 -42.5 -35.5t-60.5 -67.5l-354 -418l244 -543l7 -16q55 -123 156 -123h19 l-13 -63q-58 3 -99 5t-64 3t-41.5 1.5t-32.5 0.5q-36 0 -90.5 -2t-144.5 -8l12 63h20q28 0 46 3t28 10.5t14 20t4 30.5q0 13 -4 30t-12 36l-178 399l-310 -383q-27 -34 -39 -56.5t-12 -39.5q0 -27 15 -38.5t49 -11.5h49l-10 -63l-123 3q-74 3 -98 3q-75 0 -219 -6z" />
<glyph unicode="&#x426;" horiz-adv-x="1492" d="M-25 2l13 68h20q33 0 56 4.5t39 19t27.5 41.5t22 72.5t21.5 112t27 159.5l78 462q10 63 17.5 106t12 72.5t6.5 49.5t2 37q0 22 -3 39t-13.5 27.5t-31.5 16t-56 5.5h-29l13 68q74 -6 130.5 -10t110.5 -4q64 0 100 2t58 5t38 5t42 2h2l-10 -66l-39 2q-44 0 -69 -16.5 t-40 -44.5t-22.5 -66t-14.5 -81l-166 -965q77 -2 128.5 -3.5t86 -2.5t56 -1.5t39.5 -0.5h82q19 0 41 0.5t51 1.5t67.5 2.5t90.5 3.5l166 971q2 15 6 39t4 59q0 54 -21 77t-75 23l-39 -2l12 68q18 -2 88 -7t177 -5q10 0 32.5 1t52.5 2.5t64 4t66 6.5l-13 -66h-39 q-34 0 -55.5 -7.5t-36.5 -31.5t-26.5 -70t-24.5 -124l-133 -780q-3 -18 -5 -31t-3.5 -24t-2 -22t-0.5 -25q0 -11 1.5 -21.5t7 -19t15 -14t24.5 -5.5h4t16.5 1t42 3t80.5 6q-29 -113 -54.5 -230t-42.5 -226h-73q1 20 2.5 44t1.5 50q0 34 -5 68.5t-20 65t-42.5 54.5t-72.5 37 q-54 16 -137.5 22.5t-205.5 6.5h-122q-22 0 -61.5 -0.5t-90.5 -1.5t-109.5 -2.5t-117.5 -4t-115.5 -5.5t-103.5 -7z" />
<glyph unicode="&#x427;" horiz-adv-x="1237" d="M59 1292l13 70q31 -3 64 -5.5t63.5 -4.5t56 -3t41.5 -1q21 0 56.5 1.5t72.5 3.5t69 4t46 3l-11 -68h-20q-35 0 -59.5 -4.5t-42 -19t-28.5 -41t-18 -70.5l-38 -229q-3 -19 -5.5 -38t-2.5 -39q0 -32 9 -61t34 -50q10 -9 25.5 -18.5t40 -18t59 -14t81.5 -5.5q63 0 132.5 13 t135.5 39l68 385q4 21 6 41.5t2 29.5q0 30 -5.5 49t-20 30.5t-40 16t-65.5 4.5l16 70q41 -3 71.5 -6t57.5 -4.5t53.5 -2.5t59.5 -1q48 0 107 3.5t128 9.5l-14 -69q-6 0 -15.5 1t-13.5 1q-33 0 -56 -6t-40 -27.5t-30.5 -64.5t-26.5 -117l-142 -811q-12 -71 -12 -98 q0 -60 23 -82t81 -22q5 0 13 1t12 1q11 0 14 -3l-14 -65q-164 12 -244 12t-248 -12l15 65q7 -1 13.5 -1.5t19.5 -0.5q31 0 53.5 6.5t39 27t29 60t23.5 105.5l63 365q-81 -20 -157 -28.5t-133 -8.5q-62 0 -108.5 5.5t-81 14.5t-59 20t-41.5 22q-30 19 -49.5 41.5t-30.5 47.5 t-15.5 50.5t-4.5 51.5q0 48 9 89q7 36 14.5 79t14 84t10.5 74t4 49q0 34 -25 54t-83 20h-19z" />
<glyph unicode="&#x428;" horiz-adv-x="1935" d="M-25 2l3 1l14 62q7 -1 13.5 -1.5t19.5 -0.5q64 0 92 34q31 35 53 165l150 859q3 21 5.5 41.5t2.5 29.5q0 60 -27 80q-26 20 -104 20l16 70q100 -9 152 -12q26 -1 48.5 -1.5t41.5 -0.5q48 0 107 3.5t128 9.5l-14 -69q-6 0 -15.5 1t-13.5 1q-67 0 -98 -37q-29 -35 -55 -178 l-169 -954l254 -9l204 8l177 997q3 21 5.5 41.5t2.5 29.5q0 60 -27 80q-26 20 -104 20l16 70q100 -9 152 -12q26 -1 48.5 -1.5t41.5 -0.5q48 0 107 3.5t128 9.5l-14 -69q-6 0 -15.5 1t-13.5 1q-67 0 -98 -37q-31 -38 -55 -178l-165 -955l231 -8l226 8l174 997q3 21 5.5 41.5 t2.5 29.5q0 60 -27 80q-26 20 -104 20l16 70q100 -9 152 -12q26 -1 48.5 -1.5t41.5 -0.5q48 0 107 3.5t128 9.5l-14 -69q-6 0 -15.5 1t-13.5 1q-67 0 -98 -37q-29 -35 -55 -178l-142 -811q-12 -71 -12 -98q0 -60 23 -82t81 -22q5 0 13 1t12 1q11 0 14 -3l-14 -65 q-5 0 -9 0.5t-9 0.5l4 -1q-57 5 -124.5 9.5t-139 7.5t-145 4.5t-142.5 1.5h-621q-26 0 -87.5 -1t-139 -3t-161.5 -5.5t-155 -8.5q-11 -2 -21.5 -3t-21.5 -2l1 2h-3z" />
<glyph unicode="&#x429;" horiz-adv-x="1964" d="M-25 2l13 68h20q32 0 54.5 4.5t38.5 19t27.5 41.5t22.5 72.5t22.5 112t27.5 159.5l69 406q13 81 22 134t14.5 88t8 57.5t2.5 41.5q0 22 -3 39t-13.5 27.5t-31.5 16t-56 5.5h-29l13 68q74 -6 130.5 -10t110.5 -4h23q56 1 87 3t51.5 4.5t36 4.5t40.5 2h2l-10 -66l-39 2 q-44 0 -69 -16.5t-40 -44.5t-22.5 -66t-14.5 -81l-166 -965q63 -2 103.5 -3.5t66 -2t39.5 -0.5h25l231 6l136 760q15 87 24 143t14.5 91t7 54.5t1.5 32.5q0 22 -3 39t-14 27.5t-32 16t-56 5.5h-29l13 68q74 -6 130.5 -10t110.5 -4h23q56 1 87 3t51.5 4.5t36 4.5t40.5 2h2 l-10 -66l-39 2q-44 0 -69.5 -16.5t-40 -44.5t-22 -66t-14.5 -81l-165 -965h467l165 971q4 15 7.5 39t3.5 59q0 54 -21.5 77t-75.5 23l-38 -2l12 68q17 -1 80.5 -6.5t163.5 -5.5h20q10 0 33 1t52.5 2.5t63.5 4t66 6.5l-12 -66h-39q-33 0 -54.5 -7.5t-37 -32t-27.5 -70 t-25 -121.5l-125 -733q-3 -18 -6.5 -40t-6.5 -43.5t-5 -40t-3 -28.5q0 -11 1.5 -21.5t7 -18.5t15 -13.5t24.5 -5.5h4t16.5 1t42 3t80.5 6q-29 -113 -54.5 -230t-42.5 -226h-73q1 20 2.5 44t1.5 50q0 34 -5 68.5t-20 65t-42.5 54.5t-72.5 37q-54 16 -149 22.5t-241 6.5h-545 q-22 0 -61.5 -0.5t-90.5 -1.5t-109.5 -2.5t-117.5 -4t-115.5 -5.5t-103.5 -7z" />
<glyph unicode="&#x42a;" horiz-adv-x="1257" d="M30 1032l15 70q20 99 25.5 165t7.5 95q21 -2 59 -4.5t79.5 -4.5t78.5 -3.5t57 -1.5h154q20 0 59 1.5t82.5 4t85.5 4.5t68 4l-10 -66h-29q-32 0 -54.5 -3t-39.5 -22.5t-31 -61.5t-28 -119l-57 -316q20 3 44 5.5t48 4t47.5 2t42.5 0.5q130 0 221.5 -30.5t149.5 -80 t84.5 -114t26.5 -131.5q0 -84 -34 -162.5t-103 -140t-174.5 -98.5t-248.5 -37q-20 0 -39 0.5t-39 2t-43 2.5t-51 3q-47 5 -84.5 8.5t-79.5 3.5q-21 0 -52 -1.5t-62.5 -3t-59.5 -4t-45 -3.5l12 66h39q34 0 56.5 10t38 36t27 71t23.5 116l142 852q2 11 3.5 26t3 29.5t2.5 25.5 t1 13q-32 5 -60 8t-53 3q-50 0 -86 -11.5t-61 -34t-40 -56t-24 -77.5l-9 -45h-86zM445 115q37 -10 71.5 -16t63 -9t49.5 -3.5t33 -0.5q97 0 165 26t111 69.5t62 100.5t19 119q0 69 -22.5 123.5t-64 91.5t-100 56.5t-130.5 19.5q-46 0 -87 -3t-81 -17l-54 -314 q-4 -24 -8.5 -48t-9 -52.5t-9 -63t-8.5 -79.5z" />
<glyph unicode="&#x42b;" horiz-adv-x="1755" d="M-25 0l13 66h39q34 0 56 10t38 36t27.5 71t23.5 116l98 586q12 72 21 123t15 87.5t8.5 62.5t2.5 48t-3 39t-13.5 27.5t-31.5 16t-56 5.5h-31l13 68q74 -6 130.5 -10t110.5 -4h23q56 1 87 3t51.5 4.5t36 4.5t40.5 2h2l-10 -66h-29q-32 0 -55 -3t-40.5 -22t-31.5 -61 t-27 -120l-53 -316q20 3 43.5 5.5t48 4t48 2t42.5 0.5q130 0 221.5 -30.5t149.5 -80t84.5 -114t26.5 -131.5q0 -84 -34.5 -162.5t-104.5 -140t-176 -98.5t-249 -37q-20 0 -39 0.5t-39 2t-43 2.5t-51 3q-46 5 -83.5 8.5t-79.5 3.5q-22 0 -52.5 -1.5t-62 -3t-60 -4t-45.5 -3.5 zM319 115q38 -10 72.5 -16t63 -9t49.5 -3.5t33 -0.5q97 0 165.5 26t112 69.5t63 100.5t19.5 119q0 69 -22.5 123.5t-64 91.5t-100 56.5t-130.5 19.5q-59 0 -105 -7.5t-63 -12.5l-39 -213q-8 -45 -15 -83.5t-13.5 -77.5t-13 -82.5t-12.5 -100.5zM1069 0l15 65q7 -1 13.5 -1.5 t19.5 -0.5q31 0 53.5 6.5t39 27t28.5 60t24 105.5l150 859q4 21 5.5 41.5t2.5 29.5q0 30 -5.5 49t-20 30.5t-40 16t-65.5 4.5l16 70q52 -5 89 -7.5t64 -4t48 -2t41 -0.5q48 0 107 3.5t128 9.5l-14 -69q-6 0 -15.5 1t-13.5 1q-33 0 -56 -6t-40 -27.5t-30.5 -64.5t-26.5 -117 l-142 -811q-12 -71 -12 -98q0 -60 23 -82t81 -22q5 0 13 1t12 1q11 0 14 -3l-14 -65q-164 12 -244 12t-248 -12z" />
<glyph unicode="&#x42c;" horiz-adv-x="1135" d="M-25 0l13 66h39q34 0 56.5 10t38 36t27 71t23.5 116l98 586q12 72 21 123t15 87.5t8.5 62.5t2.5 48t-3 39t-13.5 27.5t-31.5 16t-56 5.5h-31l13 68q74 -6 130.5 -10t110.5 -4h23q56 1 87 3t51.5 4.5t36 4.5t40.5 2h2l-10 -66h-29q-32 0 -55 -3t-40.5 -22t-31.5 -61 t-27 -120l-53 -316q20 3 43.5 5.5t48 4t48 2t42.5 0.5q130 0 221.5 -30.5t149.5 -80t84.5 -114t26.5 -131.5q0 -84 -34.5 -162.5t-104.5 -140t-176 -98.5t-249 -37q-20 0 -39 0.5t-39 2t-43 2.5t-51 3q-46 5 -83.5 8.5t-79.5 3.5q-22 0 -52.5 -1.5t-62 -3t-60 -4t-45.5 -3.5 zM319 115q38 -10 72.5 -16t63 -9t49.5 -3.5t33 -0.5q97 0 165.5 26t112 69.5t63 100.5t19.5 119q0 69 -22.5 123.5t-64 91.5t-100 56.5t-130.5 19.5q-59 0 -105 -7.5t-63 -12.5l-39 -213q-8 -45 -15 -83.5t-13.5 -77.5t-13 -82.5t-12.5 -100.5z" />
<glyph unicode="&#x42d;" horiz-adv-x="1264" d="M-23 61q17 51 34 123t28 166l67 -10l-4 -66q-1 -13 2.5 -33t15.5 -42t34.5 -44t59.5 -39.5t90 -28.5t126 -11q109 0 192 25.5t144 69t101.5 101t65.5 122t36.5 132t13.5 130.5l-360 -18q-41 -2 -80.5 -5t-75.5 -6t-67 -6t-54 -4l16 151q99 -7 175.5 -10.5t142.5 -5.5 l305 -7q2 63 -4 127.5t-24.5 125t-50 113.5t-80 92t-115 62t-154.5 23q-96 0 -161.5 -24t-108 -63.5t-66.5 -89t-39 -100.5l-72 19q8 33 14.5 62t12.5 60.5t12 66.5t13 80q58 31 116 51.5t112.5 32t105.5 16t96 4.5q71 0 142.5 -15t137.5 -46.5t123.5 -81t99.5 -118.5 t66.5 -158.5t24.5 -201.5q0 -79 -14.5 -157.5t-42.5 -152t-68.5 -140.5t-91.5 -123q-45 -49 -104.5 -94.5t-134 -80.5t-163.5 -56t-192 -21q-39 0 -83.5 4t-94.5 15t-105 31.5t-115 53.5z" />
<glyph unicode="&#x42e;" horiz-adv-x="2071" d="M-23 0l15 65q7 -1 13.5 -1.5t19.5 -0.5q64 0 92 34q31 35 53 165l150 859q3 21 5.5 41.5t2.5 29.5q0 60 -27 80q-26 20 -104 20l16 70q100 -9 152 -12q26 -1 48.5 -1.5t41.5 -0.5q48 0 107 3.5t128 9.5l-14 -69q-6 0 -15.5 1t-13.5 1q-67 0 -98 -37q-29 -35 -55 -178 l-57 -327l113 -4h69l97 4q26 108 67.5 197t99.5 163q61 78 133 133.5t148.5 90.5t154.5 51t152 16q116 0 211 -37.5t162.5 -107.5t104 -171.5t36.5 -228.5q0 -57 -9 -130t-32 -153t-62 -162.5t-99 -158.5q-112 -142 -264 -217.5t-328 -75.5q-119 0 -203 33t-140.5 84.5 t-89.5 115.5t-49.5 125.5t-21 114t-4.5 82.5q0 24 1.5 47t3 42t3 33t2.5 19l-115 5h-57l-101 -7l-68 -387q-12 -71 -12 -98q0 -60 23 -82t81 -22q5 0 13 1t12 1q11 0 14 -3l-14 -65q-164 12 -244 12t-248 -12zM879 537q0 -100 18 -173t48 -124.5t69 -84t81 -50.5t83.5 -24.5 t77.5 -6.5q120 0 218 54t167.5 152t107.5 236t38 305q0 136 -32 227t-83.5 145.5t-118 77.5t-135.5 23q-119 0 -218 -53.5t-170.5 -152.5t-111 -239t-39.5 -312z" />
<glyph unicode="&#x42f;" horiz-adv-x="1329" d="M-85 -30l10 55h10q33 0 67 11.5t76 44t95 89.5t123 148l190 246q-57 18 -104 45.5t-80.5 67t-52.5 92t-19 120.5q0 111 50 198.5t132.5 148t189 92.5t220.5 32q17 0 50.5 -1.5t72.5 -3t77.5 -3t66.5 -1.5q60 0 123.5 2t129.5 7l-6 -70q-5 0 -13.5 1t-12.5 1q-36 0 -62 -9 t-45.5 -35.5t-35 -75t-29.5 -127.5l-41 -244l-83 -482q-9 -53 -13.5 -91.5t-4.5 -67.5q0 -30 5.5 -48.5t17 -29.5t29 -15t42.5 -4q14 0 21 0.5t13 0.5l-12 -66h-2q-75 4 -140 5.5t-110 1.5q-53 0 -118 -1.5t-140 -5.5l12 64h25q44 0 74.5 7t52.5 30t36.5 66.5t27.5 117.5 l44 248q-54 -3 -107 -3q-47 0 -93 3l-265 -356q-46 -61 -91 -102.5t-92 -66.5t-96 -35.5t-102 -10.5q-54 0 -113 10zM425 897q0 -79 28 -131.5t75.5 -84t109 -45t128.5 -13.5q38 0 73 5t53 8q20 113 34.5 198t26.5 155t22 131.5t20 126.5q-36 6 -73 9.5t-77 3.5 q-80 0 -155.5 -24.5t-134 -71t-94.5 -114t-36 -153.5z" />
<glyph unicode="&#x430;" horiz-adv-x="969" d="M25 242q0 118 30 227.5t90 206.5q85 137 195 208.5t235 71.5q27 0 59 -5.5t68 -16.5l140 59q-29 -142 -53 -268t-41 -238t-26 -185.5t-9 -108.5q0 -64 43 -64q15 0 43 20q14 10 36 30t54 50l33 -61l-64 -62q-71 -71 -114 -99q-42 -27 -76 -27q-51 0 -81 43.5t-30 119.5 q0 29 2 60t6 63q-186 -180 -263 -234q-73 -52 -124 -52q-153 0 -153 262zM193 279q0 -150 67 -150q35 0 112 61t201 187q18 91 36.5 198.5t39.5 243.5q-46 26 -74.5 35.5t-56.5 9.5q-130 0 -227 -174q-98 -175 -98 -411z" />
<glyph unicode="&#x431;" horiz-adv-x="968" d="M57 436q0 74 10.5 152.5t29.5 157t46 154.5t60 144q45 92 93 151t102.5 95t118 54t138.5 30l172 27q14 2 32 7.5t36 16t33.5 27.5t23.5 43l58 -14l-9 -27q-8 -23 -22.5 -54.5t-37.5 -68.5q-14 -23 -30.5 -44t-42.5 -44l-282 -35q-38 -4 -74.5 -11.5t-71 -24t-66.5 -46 t-60 -79t-51 -122t-40 -175.5h13l22 36q40 66 88 103t92.5 54t79 20.5t47.5 3.5q75 0 126.5 -23t85 -58.5t52 -78.5t27.5 -83t10.5 -73t1.5 -47q0 -43 -8 -94.5t-25 -107t-45.5 -112.5t-68.5 -112q-48 -66 -98.5 -106.5t-98 -63t-90 -30t-74.5 -7.5q-51 0 -105 18.5 t-98 69.5t-72 142t-28 235zM233 324q0 -83 16 -134t41 -78.5t54 -36.5t55 -9q71 0 125.5 50t92 128.5t56.5 174t19 187.5q0 57 -8 105.5t-27.5 83.5t-52 55t-80.5 20q-52 0 -94 -26.5t-74.5 -71t-55.5 -101.5t-38 -117.5t-22 -120.5t-7 -109z" />
<glyph unicode="&#x432;" horiz-adv-x="888" d="M23 295q0 87 21 171t57 159t84.5 138.5t104 110t114 72.5t115.5 26q67 0 114.5 -18t77.5 -46.5t43.5 -63t13.5 -67.5t-11 -67t-36 -66.5t-66 -62t-101 -51.5v-4q38 -9 73.5 -24.5t62.5 -39.5t43.5 -59t16.5 -84q0 -27 -6.5 -61t-24.5 -69.5t-49 -71t-80 -66.5 q-17 -11 -42.5 -24.5t-59.5 -26t-77 -21t-94 -8.5q-14 0 -41 2t-59.5 11.5t-67 29t-62.5 55.5t-46 91t-18 135zM183 263q0 -48 9 -87t28.5 -66.5t50 -43t73.5 -15.5q32 0 60 9t51 22.5t41 29.5t30 31q23 28 41.5 74t18.5 100q0 32 -11 58t-28 46.5t-38 35t-41 23.5 q-29 -5 -54.5 -12.5t-57.5 -16.5l-157 -45q-8 -39 -12 -74.5t-4 -68.5zM209 484l172 55q111 35 169 91t58 132q0 53 -31 82t-74 29q-61 0 -109 -38t-84.5 -96t-61.5 -126t-39 -129z" />
<glyph unicode="&#x433;" horiz-adv-x="756" d="M19 169q0 40 12.5 74.5t33.5 65.5t49 59t60 54q26 21 55 41.5t59 40.5t59.5 41t55.5 44q31 27 52.5 63t21.5 73q0 45 -27 74.5t-75 29.5q-25 0 -58 -8.5t-66 -21.5t-63 -28.5t-49 -28.5l-36 53q33 24 75.5 53t89.5 53.5t96 41t96 16.5q51 0 88 -15t61 -40.5t35 -58.5 t11 -68q0 -37 -10 -67t-27 -55.5t-41.5 -48t-52.5 -44.5q-30 -23 -65.5 -47t-71.5 -49.5t-69.5 -53t-60.5 -58.5q-26 -30 -43 -63.5t-17 -72.5q0 -59 36.5 -90t101.5 -31q63 0 126 30.5t130 77.5l35 -56q-34 -26 -81 -56.5t-101 -57.5t-111 -45t-111 -18q-40 0 -77 13.5 t-65 39t-44.5 62t-16.5 82.5z" />
<glyph unicode="&#x434;" horiz-adv-x="952" d="M35 326q0 102 22 189t60 159t88 127t106 93t115 57.5t114 19.5q46 0 82.5 -8.5t58.5 -16.5q-2 78 -13 149.5t-35.5 126t-64.5 87t-98 32.5q-51 0 -104 -16t-118 -51l-33 61q93 57 165 77t124 20q70 0 123 -25.5t91.5 -69.5t64 -102t41 -122.5t22 -132t6.5 -129.5 q0 -160 -23.5 -287t-63.5 -225t-93 -167.5t-111.5 -114t-119.5 -65.5t-116 -21q-77 0 -132 31t-90 81t-51.5 114t-16.5 129zM203 336q0 -62 9.5 -106.5t25 -74t34.5 -47t38.5 -26.5t37.5 -11.5t31 -2.5q48 0 102 41t99.5 131t75.5 233t31 347q-31 34 -69.5 51.5t-80.5 17.5 q-50 0 -108.5 -27t-108.5 -91t-83.5 -170.5t-33.5 -264.5z" />
<glyph unicode="&#x435;" horiz-adv-x="778" d="M23 301q0 107 34 225q34 121 90 211q69 111 157.5 170.5t184.5 59.5q97 0 162 -62q66 -62 66 -149q0 -72 -40 -118q-39 -46 -181 -118l-306 -158v-10q0 -120 37 -181.5t109 -61.5q42 0 105.5 37.5t162.5 121.5l35 -63q-143 -132 -228 -183q-84 -51 -153 -51 q-106 0 -170 91q-65 92 -65 239zM195 451l10 5q356 182 356 281q0 52 -38 92q-38 39 -89 39q-39 0 -75 -28t-67 -81t-55.5 -131t-41.5 -177z" />
<glyph unicode="&#x436;" horiz-adv-x="1608" d="M-33 76q0 15 11.5 35t23.5 34l49 52l35 -43q9 -11 19.5 -23t24 -22t29 -16.5t34.5 -6.5q38 0 76.5 33.5t69 95.5t49.5 149.5t19 194.5q0 45 -6 93t-21 87.5t-41.5 64.5t-68.5 25q-28 0 -59.5 -23t-58.5 -52t-46.5 -55t-23.5 -33l-39 71q47 73 89 118.5t78.5 70.5t66.5 34 t53 9q38 0 77 -20t70 -62t50.5 -106t19.5 -152q0 -23 -1.5 -48.5t-4.5 -51.5t-7 -51t-8 -46l231 323q13 62 19 108.5t6 66.5l168 41l-112 -512l-17 -98q38 44 74.5 91.5t74.5 100.5t79 112.5t88 127.5q65 94 139 135t139 41q33 0 60.5 -10t47.5 -25t31 -33.5t11 -36.5 q0 -15 -11.5 -35t-23.5 -34l-49 -52l-27 39q-9 13 -19 26t-22.5 23t-27.5 16.5t-33 6.5q-39 0 -77 -33.5t-69 -95t-50 -149t-19 -195.5q0 -45 6 -93t21 -87.5t41.5 -64.5t68.5 -25q28 0 59.5 23t58.5 52t46 55t24 33l39 -71q-47 -73 -89 -118.5t-78.5 -70.5t-67 -34 t-52.5 -9q-38 0 -77 20t-70 62t-50.5 106t-19.5 152q0 22 2 48t5 52t6.5 51t7.5 46q-58 -80 -118.5 -158.5t-111.5 -159.5l-26 -178l-168 -41l135 631q-36 -50 -73 -101t-76 -105.5t-81.5 -116t-90.5 -132.5q-32 -48 -67.5 -81.5t-72 -54.5t-72 -30.5t-67.5 -9.5 q-35 0 -65 10t-51.5 25t-33.5 33.5t-12 36.5z" />
<glyph unicode="&#x437;" horiz-adv-x="815" d="M-18 102q0 25 11.5 42t20.5 26l54 49q37 -51 73 -81t67.5 -45.5t57 -20t43.5 -4.5q47 0 85 14t64.5 40t41 62.5t14.5 81.5q0 46 -12 80t-33 56t-50 33t-63 11q-44 1 -86.5 -9.5t-88.5 -23.5l20 116l92 7q65 5 111.5 24t76.5 45.5t44 57.5t14 60q0 63 -37 92t-94 29 q-32 0 -67 -9t-70 -26t-68.5 -42t-61.5 -57l-48 54q25 30 59.5 66t81 67t106 51.5t135.5 20.5q47 0 88 -15.5t71.5 -42.5t48 -64t17.5 -79q0 -43 -16.5 -79.5t-45.5 -68t-68 -59.5t-83 -53q58 -12 95 -37t58 -55.5t28.5 -62.5t7.5 -58q0 -50 -26.5 -106.5t-79 -104.5 t-130.5 -79.5t-182 -31.5q-49 0 -98.5 9t-89 26t-64 40.5t-24.5 53.5z" />
<glyph unicode="&#x438;" horiz-adv-x="1030" d="M31 817q93 69 163 107.5t99 38.5q42 0 65 -34.5t23 -97.5q0 -77 -62 -302q-61 -222 -61 -336q0 -68 49 -68q28 0 95 55q34 28 90.5 81t136.5 132q19 91 34.5 166t26.5 138q12 63 21 118.5t16 104.5l180 43l-22 -99q-29 -122 -44.5 -189.5t-17.5 -81.5l-24 -128 q-9 -46 -16.5 -89t-12.5 -85t-7.5 -71t-2.5 -46q0 -23 9 -36t24 -13q14 0 52 27t87 73l31 -57l-138 -129q-37 -36 -66.5 -51t-60.5 -15q-45 0 -72.5 43.5t-27.5 116.5q0 10 0.5 22t2.5 28.5t5.5 38.5t9.5 54q-93 -95 -158.5 -156t-103.5 -90q-77 -57 -131 -57q-57 0 -95 53 t-38 136q0 70 60 315l22 88q21 84 31 134t10 75q0 20 -10 32.5t-25 12.5q-10 0 -39 -14t-80 -43z" />
<glyph unicode="&#x439;" horiz-adv-x="1030" d="M31 817q93 69 163 107.5t99 38.5q42 0 65 -34.5t23 -97.5q0 -77 -62 -302q-61 -222 -61 -336q0 -68 49 -68q15 0 37 12t58 42t91 82t136 132q19 91 34 166t27 138t21 117.5t16 105.5l180 43l-22 -99q-15 -61 -26.5 -110t-21 -95t-19 -92.5t-19.5 -101.5q-8 -44 -15.5 -89 t-12.5 -84.5t-8 -70.5t-3 -47q0 -23 9 -36t24 -13q14 0 52 27t87 73l31 -57l-138 -129q-37 -36 -66.5 -51t-60.5 -15q-45 0 -72.5 43.5t-27.5 116.5q0 10 0.5 22t2.5 28.5t5.5 38.5t9.5 54q-95 -97 -157.5 -156.5t-105 -92t-72.5 -43.5t-58 -11q-29 0 -53.5 14t-42 39.5 t-27.5 60t-10 75.5q0 17 4 47t13.5 77.5t25 116t39.5 162.5q21 84 31 134t10 75q0 20 -10 32.5t-25 12.5q-10 0 -39 -14t-80 -43zM326 1254q0 32 16.5 56.5t48.5 36.5l63 24q24 -77 60 -105.5t85 -28.5q32 0 68.5 12.5t73.5 36.5t72 58t64 77l47 -39q-37 -66 -84.5 -113.5 t-101 -78.5t-109 -46t-107.5 -15q-51 0 -88 10t-61 27t-35.5 39.5t-11.5 48.5z" />
<glyph unicode="&#x43a;" horiz-adv-x="1014" d="M43 -29q12 49 24 105t27 131.5t33.5 178t44.5 243.5q3 17 7.5 41.5t8 49.5t6.5 47t3 34q0 22 -5.5 35t-14.5 19.5t-20.5 8.5t-23.5 2q-14 0 -23.5 -0.5t-25.5 -1.5l-6 60q54 8 138 23t196 44q-5 -19 -7.5 -30.5t-4.5 -18.5q-2 -8 -3 -11q-7 -29 -13 -59.5t-17.5 -86 t-29.5 -140.5t-45 -208l7 -2q23 37 57.5 90.5t77 112.5t91.5 117t101 104t106 75t106 29q21 0 40 -7t33.5 -19t23.5 -27.5t9 -32.5q0 -15 -4.5 -28t-11.5 -22.5t-14 -16.5l-11 -11l-53 -47q-8 31 -29.5 49t-50.5 18q-15 0 -29 -5t-27 -12.5t-24.5 -16t-19.5 -15.5 q-26 -21 -49 -43t-45 -46t-44.5 -51t-48.5 -57q27 -82 61 -165.5t72.5 -151t80 -110t85.5 -42.5q12 0 27 7t31.5 18.5t32.5 25t28 25.5l33 -55l-98 -94q-21 -20 -52.5 -39t-75.5 -19q-43 0 -81.5 25.5t-72 65.5t-62 90.5t-51 100.5t-39.5 95t-27 74q-20 -27 -35.5 -49 t-29 -43t-26.5 -43t-28 -49l-33 -224z" />
<glyph unicode="&#x43b;" horiz-adv-x="1063" d="M-45 61q0 25 12 43t25 29l47 41l39 -41q11 -12 24.5 -18t24.5 -6q25 0 51.5 30.5t50.5 72.5t43 85t29 68t22.5 59.5t25 73.5t25 79.5t22 77t15 66.5t5.5 49q0 35 -12.5 56t-30.5 31.5t-37.5 13.5t-34.5 3h-39l17 60h36t67.5 -0.5t88.5 -1t99 -1t98 -1t88 -0.5l170 41 l-135 -621q-4 -20 -8 -43.5t-7 -48t-5 -47t-2 -39.5q0 -18 4.5 -28.5t10.5 -16t12.5 -7t11.5 -1.5q16 0 49 28l76 74l34 -53l-108 -111q-10 -10 -26 -24.5t-35.5 -28t-42 -23.5t-44.5 -10q-18 0 -37.5 9t-35.5 28t-26.5 49t-10.5 72q0 24 2.5 48.5t7.5 53t12 64t17 80.5 l84 389q5 29 9.5 52t6.5 42q-17 -1 -44.5 -2t-56.5 -2.5t-55.5 -3.5t-41.5 -4l-106 -352q-12 -40 -30.5 -95t-43 -114t-56.5 -117.5t-71 -106.5q-11 -13 -26.5 -29t-36.5 -30t-46.5 -23.5t-55.5 -9.5q-26 0 -47 8.5t-36 21.5t-23.5 29.5t-8.5 32.5z" />
<glyph unicode="&#x43c;" horiz-adv-x="1348" d="M-45 61q0 29 13.5 47.5t21.5 24.5l45 41l41 -43q9 -10 22 -16t25 -6q8 0 18.5 4.5t23 15.5t26 30t28.5 48q17 33 32.5 75.5t29 86t24.5 84.5t19 71q17 66 26.5 109.5t14.5 71.5t6.5 43t1.5 24q0 21 -4 33t-10 18.5t-12.5 8.5t-10.5 2q-8 0 -18 -4t-20.5 -10t-20.5 -12.5 t-17 -10.5l-33 -21l-28 53l32 27q16 13 44 32.5t60 38t64 31.5t56 13q38 0 62 -27t39 -72t24 -105t18 -126q3 -21 8.5 -66.5t11 -106t11 -132t8.5 -146.5h6q30 46 59.5 94.5t56.5 95t50.5 88.5t40.5 75q34 64 59.5 116.5t45 98t35 87t28.5 83.5l176 43l-49 -283 q-3 -19 -9 -53.5t-14 -78t-15.5 -93t-14.5 -98t-11 -93.5t-4 -79q0 -6 0.5 -16.5t4.5 -21t13 -18.5t25 -8q9 0 20 5t26.5 17t36.5 31t50 47l33 -61l-63 -64q-16 -16 -38.5 -37.5t-48 -40.5t-53 -32.5t-53.5 -13.5q-11 0 -29 5t-35.5 23t-30.5 52.5t-13 93.5q0 22 2 51.5 t5.5 61.5t7.5 63.5t7 58.5q8 58 17 115t20 114h-4l-131 -235q-27 -48 -52.5 -90.5t-55.5 -88.5t-68.5 -101t-91.5 -128l-64 -4q-5 71 -9 127t-7.5 103.5t-7.5 89t-8 82.5q-6 61 -10.5 105t-8.5 78.5t-8 64t-9 61.5h-6l-69 -283q-9 -39 -23 -85.5t-31.5 -93t-38.5 -88.5 t-45 -73q-11 -14 -25.5 -29.5t-33.5 -29t-43.5 -22.5t-54.5 -9q-26 0 -48 8.5t-38 21.5t-25.5 29.5t-9.5 32.5z" />
<glyph unicode="&#x43d;" horiz-adv-x="1028" d="M14 821l33 27q39 32 69.5 55.5t54.5 38.5t44 22t39 7q34 0 53.5 -17t29 -40.5t11.5 -47.5t2 -39q0 -29 -3 -64t-7.5 -71.5t-11 -73t-13.5 -67.5l177 -6l172 6l8 33l37 180q12 62 17 99t7 65l178 43l-135 -621q-3 -12 -7 -35t-7 -49.5t-5.5 -51.5t-2.5 -42 q0 -18 4.5 -28.5t10.5 -16t12.5 -7t11.5 -1.5q16 0 49 28l76 74l34 -53l-108 -111q-10 -10 -26 -24.5t-35.5 -28t-42 -23.5t-44.5 -10q-18 0 -37.5 9t-35.5 28t-26.5 49t-10.5 72q0 24 2.5 48.5t7 53t12 64t17.5 80.5l18 84l-172 6l-172 -6l-51 -281q-8 -44 -15 -80t-10 -84 l-178 -43q9 36 23 99t30 138.5t32 158t29 157.5t21 136t8 94q0 24 -3.5 38t-9 21.5t-12 9.5t-11.5 2q-9 0 -23.5 -6t-30 -15t-30.5 -19t-27 -17z" />
<glyph unicode="&#x43e;" horiz-adv-x="930" d="M33 328q0 121 39 235.5t112 208.5q72 94 163.5 144.5t182.5 50.5q150 0 227 -92t77 -271q0 -104 -40 -218q-40 -115 -108 -208q-73 -100 -165 -153.5t-195 -53.5q-135 0 -214 97t-79 260zM203 319q0 -124 42.5 -188.5t123.5 -64.5q121 0 207 156q86 158 86 384 q0 136 -42.5 200t-132.5 64q-116 0 -200 -159t-84 -392z" />
<glyph unicode="&#x43f;" horiz-adv-x="1036" d="M14 821l32 26q154 124 206 124q51 0 74.5 -37.5t23.5 -116.5q0 -28 -3 -63t-9 -74l162 158q43 41 74.5 67.5t53.5 39.5q44 26 83 26q67 0 107 -58q42 -59 42 -153q0 -100 -49 -300t-49 -288q0 -53 39 -53q9 0 22.5 7.5t26.5 20.5l76 74l35 -53l-109 -111 q-39 -40 -77.5 -63t-67.5 -23q-51 0 -82 43t-31 115q0 84 51 299q51 214 51 313q0 37 -15.5 59.5t-41.5 22.5q-39 0 -239 -185l-83 -77l-69 -382q-11 -54 -17 -94.5t-8 -69.5l-178 -44q33 144 59 268.5t45 230.5q39 211 39 278q0 40 -9 57.5t-29 17.5q-23 0 -109 -55z" />
<glyph unicode="&#x440;" horiz-adv-x="993" d="M-143 -518l12 69h31q57 0 79 22q21 23 33 89l168 991q2 8 4 19t4 26q9 54 18 97t17 77l-170 -118l-18 67q78 57 153.5 120t147.5 132l74 -26q-18 -60 -32.5 -121.5t-27.5 -130.5l-16 -101l18 20q226 244 328 244q92 0 149 -91q58 -91 58 -242q0 -113 -44 -237 q-22 -61 -51.5 -114.5t-66.5 -101.5q-76 -97 -164 -147t-182 -50q-35 0 -71 9.5t-79 29.5l-49 -320q-6 -36 -6 -59q0 -24 5.5 -40.5t18 -26t34.5 -13.5t55 -4h32l-14 -69q-60 4 -117.5 6t-115.5 2q-17 0 -52.5 -1.5t-89.5 -3.5zM246 125q93 -53 172 -53q123 0 210 165 q87 166 87 402q0 180 -92 180q-59 0 -255 -183q-17 -16 -30 -28t-23 -20z" />
<glyph unicode="&#x441;" horiz-adv-x="739" d="M27 319q0 274 140 462q141 188 347 188q75 0 128 -32q54 -32 54 -73q0 -16 -8.5 -32t-30.5 -37l-53 -52q-64 66 -106 89q-38 22 -80 22q-92 0 -160 -137q-68 -138 -68 -336q0 -270 138 -270q39 0 104 43t139 120l41 -71q-58 -62 -107 -105.5t-91 -72t-79 -41.5t-71 -13 q-109 0 -173 94t-64 254z" />
<glyph unicode="&#x442;" horiz-adv-x="1501" d="M14 819q13 9 30 22t39 30q128 98 173 98q42 0 67 -35.5t25 -95.5q0 -23 -3 -64t-10 -99l-3 -26l89 98q201 222 273 222q30 0 54.5 -13.5t42 -37.5t27 -57.5t9.5 -74.5q0 -29 -2 -63.5t-8 -83.5l46 53q232 277 325 277q30 0 55 -13t42.5 -37t27.5 -57.5t10 -73.5 q0 -116 -48 -323q-48 -206 -48 -281q0 -30 10 -48.5t25 -18.5q13 0 47 28.5t82 79.5l34 -61q-123 -128 -167 -161q-44 -32 -74 -32q-57 0 -88 42t-31 120q0 110 50 324q25 106 37.5 177t12.5 109q0 36 -13 56t-36 20q-22 0 -81 -53q-58 -52 -232 -238q-17 -94 -30.5 -170 t-22.5 -135q-8 -59 -14.5 -109.5t-10.5 -95.5l-176 -47q29 155 52 281.5t40 228.5q33 202 33 258q0 37 -13.5 58.5t-33.5 21.5q-28 0 -261 -230l-47 -46q-19 -98 -32.5 -175.5t-23.5 -137.5q-20 -119 -27 -207l-179 -52q16 75 33.5 166t37.5 201l26 145q8 47 14 88.5 t11 78.5q9 73 9 100q0 30 -12 49.5t-31 19.5q-6 0 -13.5 -2t-19 -8t-28.5 -16.5t-41 -26.5z" />
<glyph unicode="&#x443;" horiz-adv-x="905" d="M-170 -436q0 17 7.5 32.5t29.5 36.5l53 50q29 -38 63 -58t68 -20q92 0 165 148q73 146 73 362q0 132 -10.5 249t-32.5 220q-44 207 -86 207q-18 0 -39 -21q-21 -20 -66 -84l-47 47q66 114 121 174t92 60q90 0 148 -202q59 -203 59 -521q0 -46 -2 -92t-6 -91l27 60 q233 522 233 633q0 29 -9 52.5t-30 45.5l64 68q23 25 42 36t39 11q32 0 50 -21t18 -57q0 -64 -102 -308q-101 -245 -258 -536q-87 -161 -159.5 -272.5t-133.5 -177.5q-120 -132 -236 -132q-63 0 -99 27.5t-36 73.5z" />
<glyph unicode="&#x444;" horiz-adv-x="1407" d="M33 298q0 89 19.5 173t52.5 157.5t78 134t95 104t103.5 67.5t104.5 24q40 0 82.5 -9t88.5 -36l12 72q16 99 53.5 189t90 159t116.5 109.5t135 40.5q28 0 50 -7.5t37 -20t22.5 -28t7.5 -30.5q0 -20 -10 -36t-15 -22l-34 -40q-26 19 -45.5 29.5t-34 15t-24 5.5t-13.5 1 q-44 0 -74.5 -26.5t-51.5 -69t-33 -95t-19 -104.5l-30 -232q75 74 140.5 104.5t127.5 30.5q47 0 90 -20t75.5 -60t51.5 -100.5t19 -142.5q0 -89 -19.5 -173t-52.5 -157.5t-78 -134t-95 -104t-103.5 -67.5t-104.5 -24q-40 0 -82.5 9t-88.5 36l-14 -87q-16 -99 -53.5 -187.5 t-90 -155.5t-116.5 -106t-131 -39q-29 0 -50.5 7.5t-36.5 20t-22.5 28t-7.5 30.5q0 20 10 34.5t15 20.5l34 43q25 -19 45 -29.5t34.5 -15t23.5 -5.5t14 -1q44 0 73.5 26.5t49 69t30.5 95t19 104.5l34 237q-75 -74 -140.5 -104.5t-127.5 -30.5q-47 0 -90 20t-75.5 60 t-51.5 100.5t-19 142.5zM197 328q0 -61 12 -104t32.5 -70.5t48.5 -40.5t60 -13q41 0 88 24.5t112 77.5l83 580q-22 37 -64 63.5t-89 26.5q-40 0 -76.5 -23t-68 -62.5t-57 -92.5t-43.5 -113.5t-28 -125.5t-10 -127zM701 151q22 -37 64 -63.5t89 -26.5q40 0 76.5 23t68 62.5 t57 92.5t43.5 113.5t28 125t10 127.5q0 61 -12 104t-32.5 70.5t-48.5 40.5t-60 13q-41 0 -88 -24.5t-112 -77.5z" />
<glyph unicode="&#x445;" horiz-adv-x="1061" d="M-37 61q0 38 37 72l47 41q18 -20 31 -32.5t22.5 -19t17.5 -9t17 -2.5q42 0 199 226q29 42 52 75t40 57l-48 132q-86 237 -126 237q-22 0 -107 -63l-18 -13l-33 57l55 47q126 111 183 111q85 0 165 -239q12 -37 22 -66t18 -51l14 21q218 335 326 335q46 0 76 -26t30 -68 q0 -37 -35 -66l-43 -37q-22 27 -44 41.5t-40 14.5q-47 0 -201 -222q-16 -23 -28.5 -41.5t-22.5 -31.5l51 -148q97 -282 142 -282q26 0 102 74l31 30l35 -57q-48 -57 -84 -95t-61 -58q-50 -38 -93 -38q-89 0 -187 278l-48 136l-55 -82q-221 -332 -318 -332q-51 0 -86 29 t-35 65z" />
<glyph unicode="&#x446;" horiz-adv-x="1063" d="M31 817q93 69 163 107.5t99 38.5q42 0 65 -34.5t23 -97.5q0 -77 -62 -302q-61 -222 -61 -336q0 -68 49 -68q15 0 37 12t58 42t91 82t136 132q19 91 34 166t27 138t21 117.5t16 105.5l180 43l-22 -99q-18 -79 -34.5 -149.5t-31 -138.5t-27 -138t-22.5 -147 q-5 -42 -7.5 -71t-2.5 -46q0 -23 9 -36t24 -13q11 0 37 16t61 47l41 37l41 -49q-18 -22 -30 -48t-20 -53t-11.5 -53.5t-3.5 -50.5q0 -22 3.5 -42.5t8 -40t8 -38t3.5 -37.5q0 -33 -16.5 -65.5t-46 -64.5t-69.5 -65t-86 -67l-35 42q32 26 52 48t31 41.5t15 37.5t4 37 q0 25 -3.5 53t-3.5 63q0 20 8 45t20.5 51t28.5 53t32 52l-3 3l-34 -38q-37 -36 -66.5 -51t-60.5 -15q-45 0 -72.5 43.5t-27.5 116.5q0 10 0.5 22t2.5 28.5t5.5 38.5t9.5 54q-95 -97 -157.5 -156.5t-105 -92t-72.5 -43.5t-58 -11q-29 0 -53.5 14t-42 39.5t-27.5 60t-10 75.5 q0 18 4 47.5t13.5 77.5t25 116t39.5 162q21 84 31 134t10 75q0 20 -10 32.5t-25 12.5q-10 0 -39 -14t-80 -43z" />
<glyph unicode="&#x447;" horiz-adv-x="981" d="M-10 817q21 16 56.5 41t74 49t74.5 41t57 17q25 0 41.5 -8.5t26.5 -23.5t14 -35.5t4 -45.5q0 -39 -7.5 -85t-17 -93t-17 -91t-7.5 -79q0 -36 14.5 -56.5t43.5 -20.5q15 0 34 5t38.5 13.5t38 19t34.5 21.5q26 18 58 45t68 70q7 33 14.5 74.5t15 84.5t14.5 85t12 75l180 41 l-37 -160q-5 -21 -11 -47.5t-14.5 -65.5t-19.5 -93t-26 -130q-22 -110 -30.5 -184t-8.5 -103q0 -34 11.5 -44.5t21.5 -10.5q7 0 20 7t27 17t28 21.5t23 19.5l41 37l31 -57l-138 -129q-9 -9 -22 -20.5t-29 -22t-35 -18t-39 -7.5q-45 0 -73.5 42.5t-28.5 119.5q0 27 5.5 72.5 t13 95.5t16.5 97.5t16 78.5q-38 -35 -73.5 -67.5t-70 -58t-68.5 -41t-69 -15.5q-52 0 -87.5 15t-57.5 40t-31.5 58.5t-9.5 70.5q0 27 6.5 70t15 86.5t15 82t6.5 56.5q0 26 -12 35.5t-23 9.5q-5 0 -16 -4t-22.5 -9.5t-22 -11t-14.5 -8.5l-43 -24z" />
<glyph unicode="&#x448;" horiz-adv-x="1470" d="M31 817q21 16 56.5 41t74 49t74.5 41t57 17q12 0 27.5 -5.5t29 -20t22.5 -40.5t9 -68q0 -32 -5 -67t-13.5 -71t-18 -71.5t-18.5 -68.5q-22 -77 -35 -134t-20.5 -100t-10 -73t-2.5 -53q0 -6 1 -17t5.5 -22t13.5 -19t25 -8q5 0 18 4t37 20.5t62 51t94 96.5l86 94l18 84 q5 21 12 55t16 87t20.5 127t25.5 174l190 41l-36 -154q-9 -38 -15.5 -65t-12 -51t-10.5 -47.5t-12 -53.5q-21 -93 -33.5 -158.5t-19.5 -111t-9.5 -75.5t-2.5 -52q0 -6 1 -17t5.5 -22t13.5 -19t25 -8q5 0 18 4t37 20.5t61.5 51t92.5 96.5l84 94q22 104 38 185t27.5 144.5 t19.5 111.5t13 86l180 41l-37 -160q-5 -21 -11 -47.5t-14.5 -65.5t-19.5 -93t-26 -130q-22 -110 -30.5 -184t-8.5 -103q0 -34 11.5 -44.5t21.5 -10.5q7 0 20 7t27 17t28 21.5t23 19.5l41 37l31 -57l-138 -129q-9 -9 -22 -20.5t-29 -22t-35 -18t-39 -7.5q-45 0 -73.5 42.5 t-28.5 119.5q0 9 3 43t16 100l-103 -118q-29 -34 -62.5 -67.5t-69.5 -60t-72.5 -43t-71.5 -16.5q-48 0 -77.5 42.5t-29.5 119.5q0 9 3 43t16 100l-109 -118q-27 -31 -58.5 -63.5t-64.5 -59.5t-68 -44.5t-69 -17.5q-21 0 -44.5 11.5t-42.5 35t-31.5 59.5t-12.5 85 q0 24 3.5 51.5t11 63.5t19 83.5t26.5 110.5l22 92q12 47 19.5 81t12.5 58.5t7 41t2 28.5q0 26 -12 35.5t-23 9.5q-5 0 -16 -4t-22.5 -9.5t-22 -11t-15.5 -8.5l-43 -24z" />
<glyph unicode="&#x449;" horiz-adv-x="1503" d="M31 817q21 16 56.5 41t74 49t74.5 41t57 17q12 0 27.5 -5.5t29 -20t22.5 -40.5t9 -68q0 -32 -5 -67.5t-13.5 -71.5t-18 -71t-18.5 -68q-22 -77 -35 -134.5t-20.5 -100t-10 -72.5t-2.5 -53q0 -6 1 -17t5.5 -22t13.5 -19t25 -8q6 0 18.5 4t36.5 20.5t62 51t94 96.5l86 94 l18 84q4 21 11.5 55t16.5 87t20.5 127t25.5 174l190 41l-36 -154q-38 -153 -61 -258.5t-35 -176t-15.5 -112.5t-3.5 -67q0 -6 1 -17t5.5 -22t13.5 -19t25 -8q5 0 18 4t37 20.5t61.5 51t92.5 96.5l84 94q22 104 38 185t27.5 144.5t19.5 111.5t13 86l180 41l-37 -160 q-4 -21 -10.5 -47.5t-15 -65.5t-20 -93t-25.5 -130q-19 -100 -29 -169.5t-10 -104.5q0 -39 9.5 -53.5t23.5 -14.5q7 0 20 7t27 17t28 21.5t23 19.5l41 37l41 -49q-18 -22 -30 -48t-20 -53t-11.5 -53.5t-3.5 -50.5q0 -22 3.5 -42.5t8 -40t8 -38t3.5 -37.5q0 -33 -16.5 -65.5 t-46 -64.5t-69.5 -65t-86 -67l-35 42q32 26 52 48t31 41.5t15 37.5t4 37q0 25 -3.5 53t-3.5 63q0 20 8 45t20.5 51t28.5 53t32 52l-4 4l-35 -39q-28 -31 -61 -49.5t-62 -18.5q-45 0 -73.5 42.5t-28.5 119.5q0 9 3 43t16 100l-103 -118q-29 -34 -62.5 -67.5t-69.5 -60 t-72.5 -43t-71.5 -16.5q-48 0 -77.5 42.5t-29.5 119.5q0 9 3 43t16 100l-109 -118q-27 -31 -58.5 -63.5t-64.5 -59.5t-68 -44.5t-69 -17.5q-21 0 -44.5 11.5t-42.5 35t-31.5 59.5t-12.5 85q0 24 3.5 51.5t11 63.5t19 83.5t26.5 110.5l22 92q11 45 18.5 78.5t12.5 57.5 t7.5 40.5t2.5 28.5q0 29 -11.5 39t-23.5 10q-5 0 -16 -4t-22.5 -9.5t-22 -11t-15.5 -8.5l-43 -24z" />
<glyph unicode="&#x44a;" horiz-adv-x="894" d="M-37 707l17 71q11 46 24 82t34.5 60.5t53.5 37.5t82 13q12 0 24 -1t30 -4.5t45 -9.5t69 -16q30 -7 72 -16.5t102 -8.5q9 0 24.5 1t35.5 8t42.5 23t45.5 46l61 -51l-70 -68q-7 -7 -22.5 -23t-45.5 -50t-77.5 -90.5t-116.5 -143.5l29 8q10 3 29 8t42.5 9.5t50 8t51.5 3.5 q40 0 79.5 -11.5t71 -38.5t51.5 -70.5t20 -106.5q0 -37 -12 -81.5t-36 -90t-60 -87.5t-84 -75t-108.5 -52.5t-133.5 -19.5q-136 0 -209.5 67.5t-73.5 188.5q0 68 20.5 129.5t56.5 119t85 112.5t107 110l86 82l-183 27q-6 1 -19 2.5t-27.5 3t-28.5 3t-23 1.5q-23 0 -46 -4.5 t-43 -18t-35.5 -37.5t-22.5 -63zM262 244q0 -23 7 -55.5t26 -63.5t52.5 -52.5t86.5 -21.5q18 0 40 5.5t44.5 16.5t43.5 29t38 43q18 26 28.5 53t16 52t7 46t1.5 36q0 53 -15 88t-38 56t-51.5 29.5t-56.5 8.5q-38 0 -75.5 -9t-68.5 -22q-31 -38 -48 -75.5t-25.5 -69.5 t-10.5 -56.5t-2 -37.5z" />
<glyph unicode="&#x44b;" horiz-adv-x="1323" d="M18 821l33 27q39 32 69.5 55.5t54.5 38.5t44 22t39 7q18 0 35 -6.5t30.5 -23t22 -44.5t8.5 -70q0 -21 -2.5 -47.5t-6.5 -53.5t-8.5 -52t-8.5 -43l-19 -86q36 14 68.5 25t62.5 18.5t59 11.5t60 4q37 0 79 -9t77.5 -34t58.5 -69.5t23 -114.5q0 -83 -35.5 -156.5t-94 -129 t-135 -88t-158.5 -32.5q-80 0 -132 21t-82.5 54t-43 73.5t-12.5 79.5q0 32 6.5 79t17 101t22 110.5t21.5 107.5t16 92t6 65t-4 38t-9.5 21.5t-12 9.5t-11.5 2q-9 0 -23.5 -6t-30 -15t-30.5 -19t-27 -17zM262 213q0 -37 6.5 -67.5t22 -52t42.5 -33t69 -11.5q54 0 97 25.5 t73 66t45.5 91t15.5 100.5q0 55 -15.5 90.5t-38 56t-48.5 28t-46 7.5q-40 0 -86.5 -11.5t-105.5 -37.5l-10 -59q-3 -20 -7 -47t-7 -54.5t-5 -52t-2 -39.5zM879 129q0 56 12.5 118.5t26.5 131.5l71 377q14 71 18.5 112t6.5 60l176 43l-62 -287l-59 -330q-3 -19 -7 -44.5 t-7 -51t-5.5 -48.5t-2.5 -38q0 -18 4 -28.5t10 -16t12.5 -7t11.5 -1.5q17 0 50 28l75 74l35 -53l-108 -111q-10 -10 -26 -24.5t-35.5 -28t-42 -23.5t-44.5 -10q-18 0 -37.5 9t-35.5 28t-26.5 49t-10.5 72z" />
<glyph unicode="&#x44c;" horiz-adv-x="874" d="M18 821l33 27q39 32 69.5 55.5t54.5 38.5t44 22t39 7q18 0 35 -6.5t30.5 -23t22 -44.5t8.5 -70q0 -21 -2.5 -47.5t-6.5 -53.5t-8.5 -52t-8.5 -43l-19 -86q36 14 68.5 25t62.5 18.5t59 11.5t60 4q37 0 79 -9t77.5 -34t58.5 -69.5t23 -114.5q0 -83 -35.5 -156.5t-94 -129 t-135 -88t-158.5 -32.5q-80 0 -132 21t-82.5 54t-43 73.5t-12.5 79.5q0 32 6.5 79t17 101t22 110.5t21.5 107.5t16 92t6 65t-4 38t-9.5 21.5t-12 9.5t-11.5 2q-9 0 -23.5 -6t-30 -15t-30.5 -19t-27 -17zM262 213q0 -37 6.5 -67.5t22 -52t42.5 -33t69 -11.5q54 0 97 25.5 t73 66t45.5 91t15.5 100.5q0 55 -15.5 90.5t-38 56t-48.5 28t-46 7.5q-40 0 -86.5 -11.5t-105.5 -37.5l-10 -59q-3 -20 -7 -47t-7 -54.5t-5 -52t-2 -39.5z" />
<glyph unicode="&#x44d;" horiz-adv-x="807" d="M-29 78q0 20 12.5 36.5t26.5 30.5l53 52l41 -41q10 -10 28.5 -24t41.5 -26.5t49 -21t51 -8.5q33 0 74 19t79.5 62t69.5 112.5t44 170.5l-371 -8l24 100l351 -4l2 54q2 52 -8.5 99t-31 82t-48.5 56t-60 21q-23 0 -54.5 -10t-65 -25t-65 -33t-54.5 -35l-45 -32l-41 71 l55 43q37 29 81.5 56t90 48t89.5 33.5t81 12.5q48 0 91.5 -20.5t76.5 -63t52.5 -108.5t19.5 -156q0 -133 -39 -251.5t-111 -207t-174 -140t-227 -51.5q-45 0 -80 9.5t-59 24.5t-37 34t-13 39z" />
<glyph unicode="&#x44e;" horiz-adv-x="1389" d="M33 821l33 27q39 32 69 55.5t54 38.5t44 22t39 7q35 0 54.5 -17t29 -40.5t11.5 -47.5t2 -39q0 -33 -3.5 -73t-9 -81t-12.5 -79.5t-14 -67.5l90 -6l100 6q13 48 41 112.5t82 133.5q15 18 45 51t74 65t101 55.5t126 23.5q28 0 61 -5t67 -19t65.5 -39t56 -65t39 -97.5 t14.5 -135.5q0 -53 -10.5 -109t-29.5 -111t-46 -108t-61 -100q-72 -100 -164.5 -153.5t-196.5 -53.5q-78 0 -133.5 31t-91 81.5t-51.5 114.5t-16 130q0 29 2.5 59.5t5.5 48.5l-103 4l-84 -6l-47 -256q-5 -28 -9 -48.5t-7 -38.5t-5 -36.5t-3 -40.5l-179 -43q9 36 23 99 t30 138.5t32 158t29.5 157.5t21.5 136t8 94q0 24 -4 38t-9.5 21.5t-12 9.5t-11.5 2q-9 0 -23.5 -6t-30 -15t-30.5 -19t-27 -17zM662 324q0 -83 16 -134t40.5 -78.5t53.5 -36.5t55 -9q64 0 117.5 44t92.5 118t61 171t22 203q0 57 -8 106t-27 85t-51.5 56.5t-81.5 20.5 q-47 0 -87 -23t-72 -63t-56.5 -93t-41 -114t-25 -125.5t-8.5 -127.5z" />
<glyph unicode="&#x44f;" horiz-adv-x="1022" d="M-50 61q0 25 9.5 42.5t25.5 31.5l47 39l27 -30q18 -20 31 -27.5t30 -7.5q33 0 63 26.5t57 66.5t49 86.5t38 86.5q-6 2 -12 3.5t-12 3.5q-27 8 -57 24t-55 42.5t-41.5 65.5t-16.5 93q0 68 20 121.5t53.5 93.5t77.5 67.5t91 45t94 25t88 7.5q39 0 72 -4t58.5 -9.5t43.5 -11 t27 -8.5l139 59l-98 -465l-39 -178q-3 -12 -7 -35t-7.5 -49.5t-6 -51.5t-2.5 -42q0 -18 4.5 -28.5t10.5 -16t12.5 -7t11.5 -1.5q18 0 49 28l76 74l35 -53l-109 -111q-10 -10 -26 -24.5t-35.5 -28t-41.5 -23.5t-44 -10q-18 0 -38 9t-36 28t-26.5 49t-10.5 72q0 23 2.5 47 t7.5 53.5t12 65t17 80.5l8 37q-10 -8 -29.5 -16t-45.5 -14t-56.5 -10t-61.5 -4q-17 -41 -36.5 -87t-43.5 -90.5t-52 -84.5t-62.5 -70.5t-75 -48.5t-88.5 -18q-51 0 -83 27t-32 65zM299 613q0 -45 14 -75t37.5 -48.5t54 -26.5t63.5 -8q47 0 92 12.5t77 30.5l65 350 q-52 23 -92 30t-69 7q-56 0 -101 -22.5t-76.5 -60t-48 -86.5t-16.5 -103z" />
<glyph unicode="&#x450;" horiz-adv-x="778" d="M23 301q0 105 34.5 225.5t89.5 210.5q69 110 158 170t184 60q97 0 162.5 -61.5t65.5 -149.5q0 -71 -39.5 -117.5t-181.5 -118.5l-306 -158v-10q0 -119 37.5 -181t108.5 -62q42 0 105.5 37.5t162.5 121.5l35 -63q-143 -132 -227.5 -183t-153.5 -51q-105 0 -170 91t-65 239 zM195 451l10 5q356 182 356 281q0 53 -38 92t-89 39q-79 0 -142 -109t-97 -308zM266 1366l157 73l144 -409l-76 -25z" />
<glyph unicode="&#x451;" horiz-adv-x="778" d="M23 301q0 107 34 225q34 121 90 211q69 111 157.5 170.5t184.5 59.5q97 0 162 -62q66 -62 66 -149q0 -72 -40 -118q-39 -46 -181 -118l-306 -158v-10q0 -120 37 -181.5t109 -61.5q42 0 105.5 37.5t162.5 121.5l35 -63q-143 -132 -228 -183q-84 -51 -153 -51 q-106 0 -170 91q-65 92 -65 239zM195 451l10 5q356 182 356 281q0 52 -38 92q-38 39 -89 39q-39 0 -75 -28t-67 -81t-55.5 -131t-41.5 -177zM215 1258q0 21 11 36.5t37 31.5l79 46l51 -57q22 -23 30.5 -40.5t8.5 -35.5q0 -37 -51 -68l-80 -44l-57 68q-18 23 -23.5 36 t-5.5 27zM585 1258q0 21 11 36.5t37 31.5l79 46l51 -57q22 -23 30.5 -40.5t8.5 -35.5q0 -37 -51 -68l-80 -44l-57 68q-18 23 -23.5 36t-5.5 27z" />
<glyph unicode="&#x452;" horiz-adv-x="988" d="M29 -31q22 96 48.5 231t58.5 313l110 620q-35 -1 -68 -2.5t-66 -3.5l16 103q33 -2 66.5 -3t66.5 -2q10 63 15 99t5 46q0 68 -64 68q-17 0 -27.5 -0.5t-21.5 -1.5l-6 59q88 12 171.5 27.5t162.5 36.5l-73 -337h31q91 0 186.5 2t198.5 6l-17 -103q-108 4 -212.5 6.5 t-204.5 2.5l-93 -488l168 160q56 54 109.5 80t99.5 26q34 0 65.5 -15t56 -45.5t39 -76t14.5 -106.5q0 -176 -45 -336t-131 -296.5t-212 -243.5t-288 -176l-23 57q138 84 238.5 189.5t166.5 228.5t97.5 260.5t31.5 285.5q0 36 -7.5 61.5t-19.5 41.5t-26.5 23.5t-28.5 7.5 q-18 0 -44 -13.5t-56 -35.5t-61.5 -49.5t-61.5 -55t-56.5 -52.5t-45.5 -41l-57 -319q-4 -23 -9 -51t-9 -55t-7 -50t-3 -37z" />
<glyph unicode="&#x453;" horiz-adv-x="756" d="M19 169q0 40 12.5 74.5t33.5 65.5t49 59t60 54q26 21 55 41.5t59 40.5t59.5 41t55.5 44q31 27 52.5 63t21.5 73q0 45 -27 74.5t-75 29.5q-25 0 -58 -8.5t-66 -21.5t-63 -28.5t-49 -28.5l-36 53q33 24 75.5 53t89.5 53.5t96 41t96 16.5q51 0 88 -15t61 -40.5t35 -58.5 t11 -68q0 -37 -10 -67t-27 -55.5t-41.5 -48t-52.5 -44.5q-30 -23 -65.5 -47t-71.5 -49.5t-69.5 -53t-60.5 -58.5q-26 -30 -43 -63.5t-17 -72.5q0 -59 36.5 -90t101.5 -31q63 0 126 30.5t130 77.5l35 -56q-34 -26 -81 -56.5t-101 -57.5t-111 -45t-111 -18q-40 0 -77 13.5 t-65 39t-44.5 62t-16.5 82.5zM414 1073l235 357l138 -71l-315 -318z" />
<glyph unicode="&#x454;" horiz-adv-x="739" d="M27 319q0 274 140 462q141 188 347 188q75 0 128 -32q54 -32 54 -73q0 -16 -8.5 -32t-30.5 -37l-53 -52q-64 66 -106 89q-38 22 -80 22q-92 0 -160 -137q-19 -38 -33 -81.5t-22 -91.5l352 8l-24 -100l-339 4q-1 -18 -1.5 -36.5t-0.5 -38.5q0 -270 138 -270q39 0 104 43 t139 120l41 -71q-58 -62 -107 -105.5t-91 -72t-79 -41.5t-71 -13q-109 0 -173 94t-64 254z" />
<glyph unicode="&#x455;" horiz-adv-x="727" d="M-6 90q0 19 6 33t27 35l53 49q66 -73 110 -102t86 -29q63 0 107.5 42.5t44.5 100.5q0 66 -137 188q-36 32 -55 50q-80 72 -110 120t-30 97q0 107 108.5 200t237.5 93q86 0 143.5 -32t57.5 -75q0 -17 -7 -31.5t-21 -27.5l-56 -53l-7 6q-114 104 -173 104 q-56 0 -92.5 -33.5t-36.5 -85.5q0 -80 139 -196q17 -14 25 -21q103 -88 135.5 -138t32.5 -108q0 -111 -109.5 -207t-249.5 -96q-99 0 -164 34t-65 83z" />
<glyph unicode="&#x456;" horiz-adv-x="563" d="M33 821l133 97q38 28 66 40.5t53 12.5q48 0 75 -38.5t27 -105.5q0 -75 -52 -286l-18 -72q-28 -114 -42.5 -187.5t-14.5 -101.5q0 -25 11 -41t28 -16q16 0 42 20q13 10 36 31t55 53l35 -59q-123 -128 -171 -162q-49 -35 -85 -35q-54 0 -85.5 44.5t-31.5 119.5q0 92 59 314 q60 220 60 317q0 25 -12 40t-31 15q-30 0 -107 -53zM275 1267q0 21 11 36.5t37 31.5l79 46l51 -57q22 -23 30.5 -40.5t8.5 -35.5q0 -37 -51 -68l-80 -44l-57 68q-18 23 -23.5 36t-5.5 27z" />
<glyph unicode="&#x457;" horiz-adv-x="563" d="M33 821l133 97q38 28 66 40.5t53 12.5q48 0 75 -38.5t27 -105.5q0 -75 -52 -286l-18 -72q-28 -114 -42.5 -187.5t-14.5 -101.5q0 -25 11 -41t28 -16q16 0 42 20q13 10 36 31t55 53l35 -59q-123 -128 -171 -162q-49 -35 -85 -35q-54 0 -85.5 44.5t-31.5 119.5q0 92 59 314 q60 220 60 317q0 25 -12 40t-31 15q-30 0 -107 -53zM115 1258q0 21 11 36.5t37 31.5l79 46l51 -57q22 -23 30.5 -40.5t8.5 -35.5q0 -37 -51 -68l-80 -44l-57 68q-18 23 -23.5 36t-5.5 27zM395 1258q0 21 11 36.5t37 31.5l79 46l51 -57q22 -23 30.5 -40.5t8.5 -35.5 q0 -37 -51 -68l-80 -44l-57 68q-18 23 -23.5 36t-5.5 27z" />
<glyph unicode="&#x458;" horiz-adv-x="580" d="M-307 -442q0 22 7.5 37.5t27.5 33.5l43 39q41 -49 77 -70.5t76 -21.5q74 0 117 81.5t88 346.5l41 229q34 201 57 357.5t23 177.5q0 24 -11 38.5t-28 14.5q-19 0 -92 -43q-20 -12 -31 -18l-31 57l115 76q59 38 97.5 56t64.5 18q39 0 59.5 -28t20.5 -81q0 -24 -3 -55 t-10 -68l-88 -590q-22 -153 -47 -251.5t-57 -159.5q-65 -125 -165.5 -197t-209.5 -72q-59 0 -100 27t-41 66zM281 1389q0 23 12 40.5t41 34.5l88 52l57 -64q24 -25 33.5 -44.5t9.5 -39.5q0 -21 -14.5 -40t-42.5 -36l-88 -49l-64 76q-20 25 -26 39.5t-6 30.5z" />
<glyph unicode="&#x459;" horiz-adv-x="1386" d="M-45 61q0 25 12 43t25 29l47 41l39 -41q11 -12 24.5 -18t24.5 -6q25 0 51.5 30.5t51 72.5t44 85t29.5 68t22 59.5t25 73.5t25 79.5t21.5 77t15.5 66.5t6 49q0 35 -13 56t-31 31.5t-38 13.5t-35 3h-39l17 60q15 0 48.5 -0.5t77 -1.5t91.5 -1.5t92 -0.5q71 0 153 1.5 t162 4.5q-19 -61 -40 -160t-42 -231l78 24q81 25 127.5 30t65.5 5t55 -6.5t72 -29.5t63 -68t27 -123q0 -35 -9 -73t-27.5 -77.5t-47.5 -78t-68 -72.5q-37 -32 -73 -52.5t-71.5 -32t-70.5 -16t-68 -4.5q-80 0 -130 21t-78.5 54t-39 73.5t-10.5 79.5q0 23 3.5 54t9.5 67 t13.5 76t15.5 80q9 65 16 107.5t13 75.5t11.5 63.5t12.5 70.5l10 63h-43q-10 0 -26.5 -0.5t-35.5 -2t-39 -3.5t-38 -4l-107 -352q-12 -40 -30 -95t-42.5 -114t-56 -117.5t-70.5 -106.5q-11 -13 -26.5 -29t-35.5 -30t-45.5 -23.5t-55.5 -9.5q-26 0 -47 8.5t-36 21.5 t-23.5 29.5t-8.5 32.5zM774 213q0 -37 5.5 -67.5t19.5 -52t38 -33t62 -11.5q10 0 32 2.5t50 12.5t57.5 29t53.5 52q14 20 24 44t16.5 49.5t9.5 49.5t3 44q0 59 -17.5 95t-43 55.5t-53.5 25.5t-48 6t-39.5 -2.5t-40.5 -8.5t-45 -15.5t-53 -22.5l-10 -59q-3 -20 -7 -47 t-7 -54.5t-5 -52t-2 -39.5z" />
<glyph unicode="&#x45a;" horiz-adv-x="1308" d="M14 821l33 27q39 32 69.5 55.5t54.5 38.5t44 22t39 7q34 0 53.5 -17t29 -40.5t11.5 -47.5t2 -39q0 -29 -3 -64t-7.5 -71.5t-11 -73t-13.5 -67.5l167 -6l152 6l45 213q12 62 17 99t7 65l178 43l-92 -424l72 22q40 12 65.5 19t42 10.5t26.5 4.5t19 1q19 0 55 -6.5t72 -29.5 t63 -68t27 -123q0 -35 -9 -73t-27.5 -77.5t-47.5 -78t-68 -72.5q-37 -32 -70 -52.5t-65 -32t-63.5 -16t-64.5 -4.5q-80 0 -127 21t-71.5 54t-32 73.5t-7.5 79.5q0 44 11 113.5t24 146.5l-152 6l-162 -6l-51 -281q-8 -44 -15 -80t-10 -84l-178 -43q9 36 23 99t30 138.5 t32 158t29 157.5t21 136t8 94q0 24 -3.5 38t-9 21.5t-12 9.5t-11.5 2q-9 0 -23.5 -6t-30 -15t-30.5 -19t-27 -17zM736 213q0 -37 2 -67.5t12.5 -52t31.5 -33t59 -11.5q10 0 29 2.5t43 12.5t50.5 29t50.5 52q14 20 24 44t16.5 49.5t9.5 49.5t3 44q0 59 -14.5 95t-36 55.5 t-46.5 25.5t-45 6t-36 -2.5t-33.5 -8.5t-38.5 -15.5t-50 -22.5l-10 -59q-3 -20 -7 -47t-7 -54.5t-5 -52t-2 -39.5z" />
<glyph unicode="&#x45b;" horiz-adv-x="1022" d="M29 -31q22 96 48.5 231t58.5 313l57 312l53 308q-35 -1 -68 -2.5t-66 -3.5l16 103q33 -2 66.5 -3t66.5 -2q10 63 15 99t5 46q0 68 -64 68q-17 0 -27.5 -0.5t-21.5 -1.5l-6 59q88 12 171.5 27.5t162.5 36.5l-73 -337h31q91 0 186.5 2t198.5 6l-17 -103q-108 4 -212.5 6.5 t-204.5 2.5v-2l-91 -486l168 160q85 80 127 105q44 26 84 26q67 0 108 -57q42 -57 42 -152q0 -22 -6.5 -66.5t-16.5 -99.5t-21.5 -115.5t-21.5 -115.5t-16.5 -98t-6.5 -63q0 -53 38 -53q10 0 23 7.5t27 20.5l75 74l35 -53l-108 -111q-40 -40 -78.5 -63t-67.5 -23 q-49 0 -80.5 43t-31.5 115q0 20 7 65t17 102.5t22.5 121.5t22.5 122t17 104t7 67q0 37 -16 59.5t-41 22.5q-37 0 -189 -140q-43 -40 -77.5 -71.5t-61.5 -54.5l-66 -363q-18 -98 -21 -149z" />
<glyph unicode="&#x45c;" horiz-adv-x="1014" d="M43 -29q12 49 24 105t27 131.5t33.5 178t44.5 243.5q3 17 7.5 41.5t8 49.5t6.5 47t3 34q0 22 -5.5 35t-14.5 19.5t-20.5 8.5t-23.5 2q-14 0 -23.5 -0.5t-25.5 -1.5l-6 60q54 8 138 23t196 44q-5 -19 -7.5 -30.5t-4.5 -18.5q-2 -8 -3 -11q-7 -29 -13 -59.5t-17.5 -86 t-29.5 -140.5t-45 -208l7 -2q23 37 57.5 90.5t77 112.5t91.5 117t101 104t106 75t106 29q21 0 40 -7t33.5 -19t23.5 -27.5t9 -32.5q0 -15 -4.5 -28t-11.5 -22.5t-14 -16.5l-11 -11l-53 -47q-8 31 -29.5 49t-50.5 18q-15 0 -29 -5t-27 -12.5t-24.5 -16t-19.5 -15.5 q-26 -21 -49 -43t-45 -46t-44.5 -51t-48.5 -57q27 -82 61 -165.5t72.5 -151t80 -110t85.5 -42.5q12 0 27 7t31.5 18.5t32.5 25t28 25.5l33 -55l-98 -94q-21 -20 -52.5 -39t-75.5 -19q-43 0 -81.5 25.5t-72 65.5t-62 90.5t-51 100.5t-39.5 95t-27 74q-20 -27 -35.5 -49 t-29 -43t-26.5 -43t-28 -49l-33 -224zM503 1073l235 357l138 -71l-315 -318z" />
<glyph unicode="&#x45d;" horiz-adv-x="1030" d="M31 817q93 69 163 107.5t99 38.5q41 0 64.5 -35t23.5 -97q0 -78 -61.5 -302t-61.5 -336q0 -35 12 -51.5t37 -16.5q28 0 95.5 55.5t226.5 212.5q38 180 61.5 304.5t36.5 222.5l180 43l-22 -99q-57 -243 -62 -271l-24 -128q-18 -91 -28.5 -174t-10.5 -117q0 -23 9 -36 t24 -13q14 0 52 27t87 73l31 -57l-138 -129q-37 -36 -66.5 -51t-60.5 -15q-45 0 -72.5 43.5t-27.5 116.5q0 21 3.5 50.5t14.5 92.5q-185 -189 -262 -246t-131 -57q-57 0 -95 53t-38 136q0 70 60 315q15 58 22 88q21 83 31 133.5t10 75.5q0 20 -10 32.5t-25 12.5 q-10 0 -39 -14t-80 -43zM346 1366l157 73l144 -409l-76 -25z" />
<glyph unicode="&#x45e;" horiz-adv-x="905" d="M-170 -436q0 17 7.5 32.5t29.5 36.5l53 50q29 -38 63 -58t68 -20q92 0 165 148q73 146 73 362q0 132 -10.5 249t-32.5 220q-44 207 -86 207q-18 0 -39 -21q-21 -20 -66 -84l-47 47q66 114 121 174t92 60q90 0 148 -202q59 -203 59 -521q0 -46 -2 -92t-6 -91l27 60 q233 522 233 633q0 29 -9 52.5t-30 45.5l64 68q23 25 42 36t39 11q32 0 50 -21t18 -57q0 -64 -102 -308q-101 -245 -258 -536q-87 -161 -159.5 -272.5t-133.5 -177.5q-120 -132 -236 -132q-63 0 -99 27.5t-36 73.5zM288 1254q0 32 16.5 56.5t48.5 36.5l63 24 q24 -77 60 -105.5t85 -28.5q32 0 68.5 12.5t73.5 36.5t72 58t64 77l47 -39q-37 -66 -84.5 -113.5t-101 -78.5t-109 -46t-107.5 -15q-51 0 -88 10t-61 27t-35.5 39.5t-11.5 48.5z" />
<glyph unicode="&#x45f;" horiz-adv-x="1030" d="M31 817q93 69 163 107.5t99 38.5q42 0 65 -34.5t23 -97.5q0 -77 -62 -302q-61 -222 -61 -336q0 -68 49 -68q28 0 95 55q34 28 90.5 81t136.5 132q19 91 34.5 166t26.5 138q12 63 21 118.5t16 104.5l180 43l-22 -99q-29 -122 -44.5 -189.5t-17.5 -81.5l-24 -128 q-9 -46 -16.5 -89t-12.5 -85t-7.5 -71t-2.5 -46q0 -23 9 -36t24 -13q14 0 52 27t87 73l31 -57l-138 -129q-37 -36 -66.5 -51t-60.5 -15q-45 0 -72.5 43.5t-27.5 116.5q0 10 0.5 22t2.5 28.5t5.5 38.5t9.5 54q-93 -95 -158.5 -156t-103.5 -90q-77 -57 -131 -57q-57 0 -95 53 t-38 136q0 70 60 315l22 88q21 84 31 134t10 75q0 20 -10 32.5t-25 12.5q-10 0 -39 -14t-80 -43zM298 -407q32 26 52 48t31 41.5t15 37.5t4 37q0 25 -3.5 53t-3.5 63q0 20 8 45t20 51.5t27.5 54t30.5 53.5l60 -14q-6 -24 -8.5 -47.5t-2.5 -44.5q0 -22 3.5 -42.5t8 -40t8 -38 t3.5 -37.5q0 -33 -16.5 -65.5t-46 -64.5t-69.5 -65t-86 -67z" />
<glyph unicode="&#x460;" horiz-adv-x="2004" d="M106 1302l11 66q67 -3 125 -5t122 -2q55 0 115.5 2t135.5 5l-11 -66h-16q-57 0 -90.5 -11t-52 -34t-27 -59.5t-16.5 -87.5q-10 -65 -15 -129t-5 -127q0 -122 18.5 -229.5t50 -197t72 -158.5t85.5 -114q66 62 151 167t172 248q-12 96 -12 206q0 140 21 314q4 29 5.5 54 t1.5 45q0 61 -20.5 87t-71.5 26h-17l11 66q33 -2 62 -3t56 -2t55 -1.5t60 -0.5q55 0 112.5 2t132.5 5l-11 -66h-17q-51 0 -82.5 -17t-51 -53t-31 -92t-22.5 -133q-8 -58 -12.5 -113t-4.5 -109q0 -104 14 -197t39.5 -173.5t59.5 -147.5t75 -119q69 57 135.5 140.5 t124.5 189.5t103 231.5t70 268.5l7 45q9 60 15 101.5t6 70.5q0 30 -5 50.5t-17 33t-32.5 18t-51.5 5.5h-26l11 66q65 -3 125.5 -5t121.5 -2q52 0 113 2t130 5l-11 -66q-5 0 -13.5 1t-12.5 1q-36 0 -60.5 -10t-43 -34t-32.5 -65.5t-29 -104.5q-50 -215 -132.5 -395.5 t-182 -323.5t-206.5 -246t-205 -163q-40 55 -74.5 110.5t-63.5 113t-52 118.5t-39 129q-44 -61 -94.5 -125t-105.5 -125.5t-112.5 -118t-115.5 -102.5q-47 46 -103 117t-104.5 176t-81 249t-32.5 336q0 58 3 120t11 130q2 23 4 45.5t2 42.5q0 27 -4.5 50t-16 39.5t-32 25.5 t-51.5 9h-17z" />
<glyph unicode="&#x461;" horiz-adv-x="1454" d="M14 831q99 69 172 107.5t102 38.5q34 0 53.5 -23.5t19.5 -68.5q0 -5 -0.5 -9t-0.5 -9q-4 -45 -8.5 -96t-8 -105t-5.5 -109t-2 -107q0 -53 3 -101.5t10 -88.5t18.5 -70.5t29.5 -46.5q26 22 58 62t65.5 91.5t66 111.5t59 122.5t45 124.5t23.5 117q2 21 3.5 42.5t3.5 43.5 l154 37q-5 -64 -9 -141t-4 -158q0 -74 4 -145.5t14.5 -132t28.5 -107t45 -68.5q31 39 63 86t61.5 99.5t56 109.5t46 115t30.5 116.5t11 114.5q0 19 -6.5 37t-21.5 37l64 68q46 49 84 49q28 0 44.5 -21.5t16.5 -59.5q0 -24 -3.5 -67.5t-24.5 -111t-66.5 -162t-129.5 -219.5 q-65 -96 -136 -189.5t-157 -171.5q-35 29 -63.5 77t-49.5 111.5t-35 139.5t-21 160q-38 -66 -81 -133.5t-91.5 -131.5t-102.5 -121t-113 -102q-39 32 -67 89t-46 132t-26.5 165t-8.5 188q0 59 3 119t8 122v5q0 18 -8.5 29t-22.5 11q-10 0 -40 -14t-84 -43z" />
<glyph unicode="&#x462;" horiz-adv-x="1259" d="M0 851q44 151 56 304q80 -16 165 -16q5 0 9.5 -0.5t23 -1t60 -1t121.5 -0.5q8 52 13 90.5t5 55.5q0 22 -3 39t-13.5 27.5t-31.5 16t-56 5.5h-31l13 68q74 -6 130.5 -10t110.5 -4h23q56 1 87 3.5t51.5 4.5t36 4t40.5 2h2l-10 -66h-29q-32 0 -55 -3t-40.5 -22t-31.5 -61 t-27 -120l-5 -30l205 2h70q48 0 88.5 3t79.5 9q-15 -90 -22.5 -161.5t-10.5 -137.5l-75 -2q0 16 0.5 30.5t0.5 28.5q0 66 -36 95.5t-121 33.5h-196l-53 -319q20 3 43.5 5t48 3.5t48 2.5t42.5 1q130 0 220.5 -28t147 -75.5t82 -109.5t25.5 -129q0 -76 -32 -147.5 t-98.5 -126.5t-170 -88.5t-246.5 -33.5q-20 0 -39 0.5t-39 1.5t-43 2.5t-51 3.5q-46 5 -83.5 8.5t-79.5 3.5q-22 0 -52.5 -1.5t-62 -3.5t-60 -4t-45.5 -3l13 66h39q34 0 56.5 10t38 36t27 71t23.5 116l76 452l47 286h-132q-103 0 -146 -40q-42 -39 -69 -154zM443 115 q38 -10 72.5 -16t63 -9t49.5 -3.5t33 -0.5q97 0 163 22.5t106 60t57 87t17 103.5q0 139 -83 208t-227 69q-59 0 -105 -7.5t-63 -12.5l-35 -189q-8 -45 -14 -78.5t-11.5 -66.5t-11 -71.5t-11.5 -95.5z" />
<glyph unicode="&#x463;" horiz-adv-x="1344" d="M14 821l32 26q154 124 206 124q51 0 74.5 -37.5t23.5 -116.5q0 -28 -3 -63t-9 -74q55 60 114 120t128 111q42 31 81.5 45.5t66.5 14.5q18 0 35 -6.5t30.5 -23t22 -44.5t8.5 -70q0 -21 -2.5 -47.5t-6.5 -53.5t-8.5 -52t-8.5 -43l-19 -86q36 14 68.5 25t62.5 18.5t59 11.5 t60 4q37 0 79 -9t77.5 -34t58.5 -69.5t23 -114.5q0 -83 -35.5 -156.5t-94 -129t-135 -88t-158.5 -32.5q-80 0 -132 21t-82.5 54t-43 73.5t-12.5 79.5q0 32 6.5 79t16.5 101t21.5 110.5t21.5 107.5t16.5 92t6.5 65q0 36 -8.5 50.5t-17.5 18.5q-21 -1 -54 -21t-74.5 -54.5 t-90 -82t-101.5 -104.5l-69 -382q-11 -54 -17 -94.5t-8 -69.5l-178 -44q33 145 59 269t45 230q39 211 39 278q0 40 -9 57.5t-29 17.5q-24 0 -109 -55zM732 213q0 -38 6.5 -68t22 -51.5t42.5 -33t69 -11.5q54 0 97 25.5t73 66t45.5 91t15.5 100.5q0 55 -15.5 90.5t-38 56 t-48.5 28t-46 7.5q-40 0 -86 -11.5t-106 -37.5l-10 -59q-3 -20 -6.5 -47t-7 -54.5t-5.5 -52t-2 -39.5z" />
<glyph unicode="&#x464;" horiz-adv-x="1847" d="M-23 0l15 65q7 -1 13.5 -1.5t19.5 -0.5q64 0 92 34q31 35 53 165l150 859q3 21 5.5 41.5t2.5 29.5q0 60 -27 80q-26 20 -104 20l16 70q100 -9 152 -12q26 -1 48.5 -1.5t41.5 -0.5q48 0 107 3.5t128 9.5l-14 -69q-6 0 -15.5 1t-13.5 1q-67 0 -98 -37q-29 -35 -55 -178 l-57 -327l108 -4h74q15 66 42 132q63 157 175 275q115 121 266.5 184.5t325.5 63.5q94 0 186 -25.5t192 -79.5q-23 -73 -38.5 -144.5t-22.5 -143.5l-68 10q2 17 3 33t1 32q0 92 -89 145q-89 54 -238 54q-261 0 -410 -185q-112 -140 -139 -360q86 3 170 6l168 6t169 7t173 10 l-16 -131q-45 2 -81 3.5t-73 2.5t-80.5 2t-103 1.5t-140.5 1.5t-193 2q-1 -16 -1 -31v-31q0 -237 116 -377q115 -139 314 -139q146 0 245 68.5t142 201.5l63 -14q-15 -50 -27 -106.5t-24 -135.5q-124 -64 -231 -96.5t-201 -32.5q-270 0 -433 165q-163 166 -163 439 q0 49 6 99l-88 2l-96 -7l-68 -387q-12 -71 -12 -98q0 -60 23 -82t81 -22q5 0 13 1t12 1q11 0 14 -3l-14 -65q-164 12 -244 12t-248 -12z" />
<glyph unicode="&#x465;" horiz-adv-x="1159" d="M14 821l32 26q154 124 206 124q51 0 74.5 -37.5t23.5 -116.5q0 -28 -3 -63t-9 -74l-21 -119l-2 -12q14 -1 32.5 -1h44.5h83q34 128 112 233q141 188 347 188q75 0 128 -32q54 -32 54 -73q0 -16 -8.5 -32t-30.5 -37l-53 -52q-66 68 -106 89q-37 22 -80 22q-92 0 -160 -137 q-19 -38 -33 -81.5t-22 -91.5l352 8l-24 -100l-339 4q-1 -18 -1.5 -36.5t-0.5 -38.5q0 -270 138 -270q40 0 104 43q32 22 67 52t72 68l41 -71q-58 -62 -107 -106t-91 -72t-79 -41t-71 -13q-109 0 -173 94t-64 254q0 37 2.5 72.5t7.5 69.5q-30 0 -59 0.5t-58 0.5h-41 l-51 -283q-11 -54 -17 -94.5t-8 -69.5l-178 -44q33 145 59 269t45 230q39 211 39 278q0 40 -9 57.5t-29 17.5q-24 0 -109 -55z" />
<glyph unicode="&#x466;" horiz-adv-x="1444" d="M-94 0l10 65l22.5 -3t12.5 -1q89 0 214 215l58 99l221 358q84 136 179 300t198 351h146q3 -60 15 -150q7 -45 19 -119t29 -179l74 -431l19 -108q20 -122 34 -192t21 -89q10 -29 32 -40q20 -10 82 -10l-12 -66q-150 12 -225 12q-91 0 -242 -12l12 66h15q37 0 62 5 t40.5 16.5t22 30.5t6.5 46q0 8 -3 34q-1 5 -1 11l-45 323q-42 0 -82 1t-78 1l-93 -534h-161l93 535q-82 0 -169 -3l-160 -282q-14 -25 -22.5 -43.5t-13.5 -32t-7 -24t-2 -19.5q0 -31 27 -48t76 -17h22l-13 -66l-67 5q-55 4 -91.5 5.5t-55.5 1.5q-80 0 -219 -12zM481 616h319 l105 3l-86 575z" />
<glyph unicode="&#x467;" horiz-adv-x="987" d="M-89 0q36 38 82.5 105.5t97 152t102.5 179.5t99 188t86 177t64 147l152 28q8 -33 20 -86.5t26.5 -119t31.5 -138.5t34.5 -144.5t35 -136.5t33.5 -114.5t29.5 -79t23.5 -29.5q13 1 23 3.5t22 11t29 25t46 43.5l39 -44q-24 -32 -51.5 -65t-55 -60.5t-53 -45t-44.5 -17.5 q-12 0 -28 4.5t-34 18t-37 39.5t-35 68q-9 22 -19.5 56.5t-21.5 73t-21 78.5t-18 75q-23 0 -42.5 0.5t-39.5 1.5l-7 -41q-5 -28 -12 -75t-13.5 -98.5t-12.5 -100.5t-9 -80l-146 -29q16 75 27 133t18.5 103t12.5 78.5t9 59.5l9 50q-20 0 -41.5 -0.5t-47.5 -0.5 q-12 -23 -28.5 -56.5t-36 -71.5t-39.5 -78t-39 -76t-35 -65.5t-27 -46.5h-158zM314 474q34 -1 50.5 -1.5t22.5 -0.5t5.5 0t1.5 0q22 0 59.5 1t98.5 2q-14 65 -25.5 115.5t-21.5 91.5t-17 75.5t-12 67.5q-27 -68 -47 -113.5t-38 -83t-36.5 -73t-40.5 -81.5z" />
<glyph unicode="&#x468;" horiz-adv-x="1974" d="M-23 0l15 65q7 -1 13.5 -1.5t19.5 -0.5q64 0 92 34q31 35 53 165l150 859q3 21 5.5 41.5t2.5 29.5q0 60 -27 80q-26 20 -104 20l16 70q100 -9 152 -12q26 -1 48.5 -1.5t41.5 -0.5q48 0 107 3.5t128 9.5l-14 -69q-6 0 -15.5 1t-13.5 1q-67 0 -98 -37q-29 -35 -55 -178 l-81 -461h490l71 115q84 136 179 300t198 351h146q3 -60 15 -150q7 -45 19 -119t29 -179l74 -431l19 -108q20 -122 34 -192t21 -89q10 -29 32 -40q20 -10 82 -10l-12 -66q-150 12 -225 12q-91 0 -242 -12l12 66h15q37 0 62 5t40.5 16.5t22 30.5t6.5 46q0 8 -3 34q-1 5 -1 11 l-45 323q-42 0 -82 1t-78 1l-93 -534h-161l93 535q-82 0 -169 -3l-160 -282q-14 -25 -22.5 -43.5t-13.5 -32t-7 -24t-2 -19.5q0 -31 27 -48t76 -17h22l-13 -66q-52 2 -87 4t-61.5 3.5t-49 2t-49 1t-63 0.5h-90.5h-113t-117.5 -1t-125 -3.5t-136.5 -6.5zM340 170 q0 -42 10.5 -64.5t35.5 -31.5q5 -2 22.5 -6.5t54.5 -4.5q43 0 75 16.5t58 45t49.5 67.5t49.5 84l58 99l98 159h-453l-46 -266q-12 -71 -12 -98zM1011 616h319l105 3l-86 575z" />
<glyph unicode="&#x469;" horiz-adv-x="1367" d="M14 821l33 27q39 32 69.5 55.5t54.5 38.5t44 22t39 7q34 0 53.5 -17t29 -40.5t11.5 -47.5t2 -39q0 -29 -5 -74.5t-12 -95t-15.5 -97t-15.5 -78.5l177 -6l117 3q35 65 68 130.5t62.5 126t54 115t41.5 98.5l152 28q8 -33 20 -86.5t26.5 -119t31.5 -138.5t34.5 -144.5 t35 -136.5t33.5 -114.5t29.5 -79t23.5 -29.5q13 1 23 3.5t22 11t29 25t46 43.5l39 -44q-24 -32 -51.5 -65t-55 -60.5t-53 -45t-44.5 -17.5q-12 0 -28 4.5t-34 18t-37 39.5t-35 68q-9 22 -19.5 56.5t-21.5 73t-21 78.5t-18 75q-23 0 -42.5 0.5t-39.5 1.5l-7 -41 q-5 -28 -12 -75t-13.5 -98.5t-12.5 -100.5t-9 -80l-146 -29q16 75 27 133t18.5 103t12.5 78.5t9 59.5l9 50q-20 0 -41.5 -0.5t-47.5 -0.5q-12 -23 -28.5 -56.5t-36 -71.5t-39.5 -78t-39 -76t-35 -65.5t-27 -46.5h-158q25 26 55 67t63 92t68.5 110.5t71.5 123.5l-91 3 l-172 -6l-38 -212q-8 -44 -15 -80t-10 -84l-178 -43q9 36 23 99t30 138.5t32 158t29 157.5t21 136t8 94q0 24 -3.5 38t-9 21.5t-12 9.5t-11.5 2q-10 0 -24 -6t-29.5 -15t-30.5 -19t-27 -17zM694 474q34 -1 50.5 -1.5t22.5 -0.5t5.5 0t1.5 0q22 0 59.5 1t98.5 2 q-14 65 -25.5 115.5t-21.5 91.5t-17 75.5t-12 67.5q-27 -68 -47 -113.5t-38 -83t-36.5 -73t-40.5 -81.5z" />
<glyph unicode="&#x46a;" horiz-adv-x="1939" d="M-108 -18l10 55q30 0 61.5 9.5t73 37t95 78.5t127.5 135l226 258q53 60 104.5 95.5t99.5 53.5t90 23t77 5h34l-270 431q-26 42 -44.5 69t-34 42.5t-30 22t-30.5 6.5q-5 0 -12 -1l-21 -3l11 66q23 -1 68.5 -2t103.5 -2t123.5 -2t129 -1.5t121 -0.5h99.5h75.5t101 0.5 t118.5 0.5t127 1t126.5 2.5t117.5 3.5l-12 -66q-2 1 -6 1.5t-18 0.5q-28 0 -57 -14.5t-63.5 -42t-76 -68.5t-95.5 -95l-349 -349h36q28 0 65 -3.5t76 -20.5t78.5 -53t72.5 -100l134 -258q40 -78 77.5 -128t72 -79.5t66 -41t60.5 -11.5l-10 -55q-21 -3 -33.5 -5t-23.5 -3.5 t-25 -2t-36 -0.5q-56 0 -98.5 12t-75.5 35t-58.5 56.5t-47.5 77.5l-201 389q-15 29 -28 50.5t-28.5 36t-35 22t-46.5 8.5h-14l-68 -390q-12 -71 -12 -98q0 -60 23 -82t81 -22q5 0 13 1t12 1q11 0 14 -3l-14 -65q-164 12 -244 12t-248 -12l15 65q7 -1 13.5 -1.5t19.5 -0.5 q64 0 92 34q31 35 53 165l69 396h-16q-29 -1 -51 -8.5t-42.5 -22t-41 -36t-45.5 -50.5l-335 -389q-38 -44 -74.5 -77.5t-76.5 -56.5t-86 -35t-101 -12q-24 0 -39.5 0.5t-28.5 2t-26.5 3.5t-33.5 5zM804 1227q0 -12 4.5 -26t12.5 -31l204 -407l332 354q48 52 73 84t25 50 q0 21 -35 27t-107 6h-384q-63 0 -94 -13t-31 -44z" />
<glyph unicode="&#x46b;" horiz-adv-x="1572" d="M-13 76q0 15 11.5 35t23.5 34l49 52q11 -23 23.5 -46.5t27.5 -43.5t33.5 -32.5t40.5 -12.5q25 0 44 14t39.5 43t46 72.5t64.5 103.5q33 52 69.5 95.5t76 75.5t83.5 50t93 18h20l-54 85q-38 58 -64.5 98.5t-46 65.5t-34.5 36.5t-28 11.5q-9 0 -22.5 -6.5t-29.5 -16 t-33 -22t-33 -24.5l-33 57l55 47q49 43 92 72.5t93 31.5q32 0 65.5 -0.5t72.5 -0.5h85.5h105.5h136.5t123.5 0.5t120 2t126 3.5l-12 -67q-3 0 -8 0.5t-15 0.5q-29 0 -58.5 -15.5t-68.5 -50t-92.5 -90t-131.5 -134.5l-83 -85h25q19 0 44.5 -9.5t52.5 -27.5t52 -44.5t43 -61.5 q24 -47 51.5 -98t57 -93t60 -69t60.5 -27q25 0 54.5 18.5t70.5 57.5l33 -55q-30 -32 -58.5 -60t-56.5 -49t-55.5 -33t-55.5 -12q-30 0 -60 14t-57.5 39t-53 59t-46.5 73l-113 214q-8 15 -16.5 34.5t-18 36.5t-22 28.5t-28.5 11.5h-6l-74 -465l-180 -45q10 40 20 89.5 t21.5 112t25.5 139t31 169.5h-13q-44 0 -78 -28.5t-61.5 -69t-49 -85t-39.5 -75.5q-41 -72 -85.5 -120.5t-92 -78t-96 -41.5t-97.5 -12q-35 0 -65 10t-51.5 25t-33.5 33.5t-12 36.5zM676 882q5 -6 16 -21t24 -35t27 -42.5t25 -43.5l102 -191l163 169q57 60 83.5 94.5 t26.5 51.5q0 11 -24.5 17t-60.5 9t-76.5 3.5t-73.5 0.5q-30 0 -65.5 -0.5t-68 -1.5t-59 -3.5t-39.5 -6.5z" />
<glyph unicode="&#x46c;" horiz-adv-x="2399" d="M-23 0l15 65q7 -1 13.5 -1.5t19.5 -0.5q64 0 92 34q31 35 53 165l150 859q3 21 5.5 41.5t2.5 29.5q0 60 -27 80q-26 20 -104 20l16 70q100 -9 152 -12q26 -1 48.5 -1.5t41.5 -0.5q48 0 107 3.5t128 9.5l-14 -69q-6 0 -15.5 1t-13.5 1q-67 0 -98 -37q-29 -35 -55 -178 l-60 -344q30 -1 80 -1.5t108.5 -1t120.5 -0.5h116.5h96h59.5h335l-270 431q-26 42 -44.5 69t-34 42.5t-30 22t-30.5 6.5q-5 0 -12 -1l-21 -3l11 66q24 -1 69 -2t103 -2t123.5 -2t129 -1.5t121 -0.5h99.5h75.5t101 0.5t118.5 0.5t127 1t126.5 2.5t117.5 3.5l-12 -66 q-2 1 -6 1.5t-18 0.5q-28 0 -57 -14.5t-63.5 -42t-76 -68.5t-95.5 -95l-349 -349h36q28 0 65 -3.5t76 -20.5t78.5 -53t72.5 -100l134 -258q40 -78 77.5 -128t72 -79.5t66 -41t60.5 -11.5l-10 -55q-21 -3 -33.5 -5t-23.5 -3.5t-25 -2t-36 -0.5q-56 0 -98.5 12t-75.5 35 t-58.5 56.5t-47.5 77.5l-201 389q-15 29 -28 50.5t-28.5 36t-35 22t-46.5 8.5h-14l-68 -390q-12 -71 -12 -98q0 -60 23 -82t81 -22q5 0 13 1t12 1q11 0 14 -3l-14 -65q-164 12 -244 12t-248 -12l15 65q7 -1 13.5 -1.5t19.5 -0.5q64 0 92 34q31 35 53 165l69 396h-16 q-29 -1 -51 -8.5t-42.5 -22t-41 -36t-45.5 -50.5l-335 -389q-38 -44 -71.5 -74t-70 -49.5t-79.5 -28t-98 -8.5q-72 0 -140 10t-134 10q-80 0 -248 -12zM339 159q0 -21 4 -40t14.5 -32.5t28.5 -21.5t45 -8q28 0 60.5 19.5t69 52.5t76.5 76.5t82 91.5l226 258q50 57 102 94 q-44 -1 -99.5 -2t-116 -1t-121.5 -0.5t-116.5 -0.5t-101.5 -1t-75 -2l-65 -374q-5 -27 -9 -56t-4 -53zM1264 1227q0 -12 4.5 -26t12.5 -31l204 -407l332 354q48 52 73 84t25 50q0 21 -35 27t-107 6h-384q-63 0 -94 -13t-31 -44z" />
<glyph unicode="&#x46d;" horiz-adv-x="1737" d="M14 821l32 26q154 124 206 124q51 0 74.5 -37.5t23.5 -116.5q0 -28 -3 -63t-9 -74l-26 -146q64 -2 137.5 -3t147.5 -1t144 0.5t127 2.5q8 1 14.5 1h14.5l-54 85q-37 58 -64 98.5t-47 65.5t-35.5 36.5t-28.5 11.5t-47.5 -19t-70.5 -50l-33 57l55 47q21 18 44.5 36.5 t47.5 33.5t47.5 24.5t43.5 9.5h66.5t73 -0.5t86.5 -0.5h107h136.5t123.5 0.5t120 2t126 3.5l-12 -67q-3 0 -8 0.5t-15 0.5q-29 0 -58.5 -15.5t-68.5 -50t-92.5 -90t-131.5 -134.5l-83 -85h25q19 0 44.5 -9.5t52.5 -27.5t52 -44.5t43 -61.5q24 -47 51.5 -98t57 -93t60 -69 t60.5 -27q25 0 54.5 18.5t70.5 57.5l33 -55q-30 -32 -58.5 -60t-56.5 -49t-55.5 -33t-55.5 -12q-30 0 -60 14t-57.5 39t-53 59t-46.5 73l-113 214q-8 15 -16.5 34.5t-18 36.5t-22 28.5t-28.5 11.5h-6l-74 -465l-180 -45q10 40 20 89.5t21.5 112t25.5 139t31 169.5h-13 q-44 0 -78 -28.5t-61.5 -69t-49 -85t-39.5 -75.5q-41 -72 -85.5 -120.5t-92 -78t-96 -41.5t-97.5 -12q-62 0 -103.5 18t-66.5 44.5t-35 58t-10 58.5q0 15 5 51t13 84t17.5 104.5t19.5 111.5h1q33 184 33 247q0 40 -9 57.5t-29 17.5q-24 0 -109 -55zM258 181q0 -36 7.5 -59.5 t21 -36.5t32.5 -18t42 -5q25 0 44 14t39.5 43t46 72.5t64.5 103.5q30 46 61.5 86t67.5 71q-35 0 -84 -1t-102 -1.5t-105 -2t-94 -2.5q-1 -2 -2 -3.5t-6 -3.5l-27 -181q-6 -45 -6 -76zM840 882q5 -6 16 -21t24.5 -35t27.5 -42.5t25 -43.5l102 -191l163 169q57 60 83.5 94.5 t26.5 51.5q0 11 -24.5 17t-60.5 9t-76.5 3.5t-73.5 0.5q-61 0 -123.5 -1.5t-109.5 -10.5z" />
<glyph unicode="&#x46e;" horiz-adv-x="1082" d="M-60 -163q0 80 36.5 134.5t96.5 88.5t136.5 50.5t157.5 20.5q119 6 201.5 30t134 66.5t74.5 102.5t23 137q0 83 -47 138t-131 73q-15 0 -45.5 -1.5t-67.5 -9t-76.5 -23.5t-73.5 -46l-24 5l30 163h248q40 6 81 34.5t74.5 72t54.5 99.5t21 118q0 95 -55.5 144.5 t-172.5 49.5q-72 0 -127.5 -18.5t-99.5 -54t-77.5 -88t-60.5 -120.5l-74 16q30 72 52 146t35 150q27 10 63.5 22t78 23t87.5 19t93 11l-181 268l64 27l199 -194l271 194l51 -29l-276 -269q85 -9 145.5 -35t99.5 -63.5t57.5 -84.5t18.5 -99q0 -66 -25 -125t-66.5 -107 t-94.5 -83.5t-110 -56.5q61 -14 108 -39.5t79 -60.5t48 -78t16 -92q0 -98 -35.5 -179t-110 -140t-190.5 -93.5t-276 -39.5q-119 -4 -189 -17t-106 -32.5t-46 -44t-10 -51.5q0 -28 17 -49t46 -35t69 -21t86 -7q66 0 150.5 20t184.5 68l35 -61q-40 -26 -68 -47.5t-49.5 -41 t-40.5 -39t-41 -40.5q-51 -9 -108 -9q-65 0 -131 13t-118.5 41t-85.5 72.5t-33 106.5z" />
<glyph unicode="&#x46f;" horiz-adv-x="835" d="M-99 -187q0 14 3 31q10 58 40 98t76.5 66.5t109.5 41.5t141 24q48 6 89 15.5t71 29.5t46.5 55t16.5 92q0 46 -12 80t-33 56t-50 33t-63 11q-45 0 -87 -9.5t-88 -23.5l20 116l92 7q65 5 111.5 24t76.5 45.5t44 57.5t14 60q0 63 -37 92t-94 29q-32 0 -67 -9t-70 -26 t-68.5 -42t-61.5 -57l-48 54q23 28 53.5 60.5t71 61.5t92 51t116.5 29l-134 199l48 40l156 -151l207 152l37 -42l-209 -201q37 -8 68 -26.5t53.5 -44t35 -57t12.5 -67.5q0 -43 -16.5 -79.5t-45.5 -68t-68 -59.5t-83 -53q58 -12 95 -37t58 -55.5t28.5 -62.5t7.5 -58 q0 -48 -17 -102t-60 -101t-117.5 -80t-189.5 -39q-85 -5 -141.5 -17t-90.5 -30.5t-48 -44t-14 -55.5q0 -40 40.5 -67.5t127.5 -27.5q65 0 145 45q78 44 89 44q26 0 43 -20.5t17 -52.5q0 -59 -65 -92t-189 -33q-75 0 -129 16t-88.5 42.5t-51 61t-16.5 71.5z" />
<glyph unicode="&#x470;" horiz-adv-x="1748" d="M161 1304l11 65q46 -3 88.5 -4t84.5 -1q45 0 82.5 1.5t78.5 4.5q-13 -53 -21.5 -92.5t-17 -81t-17.5 -92t-22 -125.5q-11 -60 -20.5 -121t-9.5 -118q0 -58 14 -109.5t51 -89.5t101 -61t164 -24l86 482q11 60 18 104.5t11.5 76.5t6.5 54.5t2 37.5q0 25 -5.5 42.5t-19.5 29 t-38.5 16.5t-62.5 5h-17l11 66q67 -4 133 -6t129 -2q54 0 120.5 2t141.5 6l-12 -66h-16q-59 0 -92.5 -11.5t-53 -44t-31 -90t-27.5 -149.5l-98 -553q100 1 172 24t122.5 61t82.5 89t52.5 108.5t32.5 119t23 121.5q13 75 22 125.5t15.5 92t11.5 81t11 92.5q39 -3 76.5 -4.5 t82.5 -1.5q42 0 84.5 1t90.5 4l-12 -65q-46 0 -75 -9t-48.5 -37.5t-33 -82.5t-29.5 -143q-12 -65 -28.5 -137.5t-46.5 -143.5t-77.5 -137t-121 -117.5t-177 -85t-245.5 -39.5l-5 -32q-13 -74 -19 -116t-6 -67q0 -24 5 -41t20 -28t41.5 -16t68.5 -5h20l-12 -67q-83 4 -152 6 t-117 2q-55 0 -125 -2t-148 -6l11 67h20q48 0 77.5 6t48 21t29.5 40t21 63q14 52 36 175q-151 7 -246 45t-149 96.5t-73.5 131.5t-19.5 151q0 61 8 121t18 115q11 61 17 104.5t6 74.5q0 29 -6.5 47.5t-20 28.5t-35 13.5t-51.5 3.5z" />
<glyph unicode="&#x471;" horiz-adv-x="1335" d="M33 817q93 69 163 107.5t99 38.5q42 0 65 -34.5t23 -97.5q0 -38 -6 -84.5t-15.5 -98t-20.5 -103.5t-20.5 -100.5t-15.5 -90.5t-6 -71q0 -43 10 -82.5t33.5 -69.5t62 -48t96.5 -19l52 288q13 73 28.5 163.5t31.5 184t31 183.5t26.5 162.5t18.5 120.5t7 58l15 139 q23 4 43 8t41 8.5t45 10t56 13.5q-18 -91 -39.5 -203.5t-43.5 -234t-44 -245.5t-42 -236.5t-37 -208.5t-29 -161l-9 -48q79 1 140 38.5t106 96.5t76.5 133.5t50.5 149t27.5 143t8.5 116.5q0 14 -1.5 31t-6 33.5t-12.5 31.5t-20 27l58 64q23 26 42.5 35.5t43.5 9.5 q21 0 35 -10.5t23 -29t12.5 -43.5t3.5 -55q0 -53 -9 -113t-21 -114.5t-23.5 -95.5t-15.5 -55q-29 -94 -81 -181.5t-121.5 -155.5t-153.5 -109.5t-178 -42.5l-74 -460l-185 -45q7 31 19 88t26 126.5t29 145t29 143.5q-88 0 -151 29.5t-103.5 79t-59.5 113.5t-19 133 q2 57 13 117t23 118.5t22 113.5t10 102q0 20 -10 32.5t-25 12.5q-10 0 -39 -14t-80 -43z" />
<glyph unicode="&#x472;" horiz-adv-x="1497" d="M88 506q0 133 30 251t84 218t129 179t164.5 134.5t190.5 85t207 29.5q119 0 215 -38.5t163.5 -110t103.5 -172t36 -224.5q0 -120 -28 -233t-80 -212.5t-125 -182.5t-162 -143t-193 -93t-217 -33q-119 0 -215 38t-163.5 108.5t-103.5 171.5t-36 227zM287 537 q0 -227 98.5 -345t288.5 -118q109 0 200 43t159.5 122.5t112 191t58.5 249.5q-38 -21 -73 -38.5t-71.5 -29.5t-76 -19t-85.5 -7q-43 0 -91.5 6.5t-107.5 20.5q-41 10 -77.5 19t-70.5 16.5t-66.5 12t-64.5 4.5q-63 0 -129 -22q-2 -26 -3 -52.5t-1 -53.5zM301 732 q61 23 116 34.5t113 11.5q45 0 92.5 -6.5t102.5 -19.5q87 -20 151.5 -31t119.5 -11q59 0 109.5 13t105.5 41q1 14 1 28.5v28.5q0 235 -98 354t-289 119q-104 0 -191.5 -39.5t-155 -112.5t-113 -177t-64.5 -233z" />
<glyph unicode="&#x473;" horiz-adv-x="930" d="M33 328q0 82 19 161t53 150t80.5 131.5t102 104t117 68t125.5 24.5q150 0 227 -92t77 -271q0 -104 -40 -218q-34 -96 -83.5 -172.5t-110.5 -130.5t-131 -83t-143 -29q-67 0 -121 25.5t-92.5 72t-59 112.5t-20.5 147zM203 319q0 -124 42.5 -188.5t123.5 -64.5q52 0 98 31 t83.5 85.5t64 129t38.5 161.5q-33 -25 -67.5 -40.5t-79.5 -15.5q-27 0 -58.5 8.5t-64 19t-63.5 19t-55 8.5q-25 0 -52 -9q-5 -35 -7.5 -70.5t-2.5 -73.5zM226 539q48 21 93 21q25 0 58 -7.5t66.5 -17t64 -17t51.5 -7.5q27 0 51 7.5t50 24.5q1 15 1.5 31t0.5 32 q0 136 -42.5 200t-132.5 64q-44 0 -84 -24.5t-73.5 -68t-60.5 -104.5t-43 -134z" />
<glyph unicode="&#x474;" horiz-adv-x="1337" d="M121 1292l11 66l122 -5q76 -3 96 -3q63 0 121.5 2t116.5 6l-6 -66h-29q-119 0 -119 -88q0 -8 2.5 -28t5.5 -43l129 -953q94 226 196 454t224 458q20 38 46 86.5t64.5 91.5t92 72.5t128.5 29.5q51 0 74 -29.5t23 -71.5q0 -27 -9 -55t-25.5 -50.5t-40 -36.5t-51.5 -14 q-17 0 -29.5 7t-22.5 15t-19.5 15t-19.5 7q-16 0 -43 -23t-64 -87q-18 -31 -48.5 -88.5t-68.5 -131t-81 -158.5t-86.5 -172t-84.5 -172t-75.5 -157.5t-59.5 -128t-36 -84.5h-124q-2 39 -4.5 75t-6.5 66l-156 1018v4q-25 172 -125 172h-18z" />
<glyph unicode="&#x475;" horiz-adv-x="967" d="M18 811q87 95 132 128q48 36 86 36q34 0 63 -47t50 -140.5t32.5 -234.5t11.5 -329v-58h9q27 66 61.5 153t74.5 178.5t84.5 180t91 158t94 112t94.5 42.5q38 0 61.5 -25t23.5 -62q0 -16 -5 -33.5t-16 -34.5q-21 8 -40 8q-16 0 -31 -5.5t-28.5 -14t-24.5 -18t-19 -17.5 q-43 -44 -82 -101.5t-76 -124t-72 -139.5t-68 -147t-65 -147t-63 -139l-137 -30q2 47 3 79t1 61q0 88 -3.5 176t-10.5 177q-14 177 -33 297q-14 86 -53 86q-25 0 -102 -74l-7 -6z" />
<glyph unicode="&#x476;" horiz-adv-x="1337" d="M121 1292l11 66l122 -5q76 -3 96 -3q63 0 121.5 2t116.5 6l-6 -66h-29q-119 0 -119 -88q0 -8 2.5 -28t5.5 -43l129 -953q94 226 196 454t224 458q20 38 46 86.5t64.5 91.5t92 72.5t128.5 29.5q51 0 74 -29.5t23 -71.5q0 -27 -9 -55t-25.5 -50.5t-40 -36.5t-51.5 -14 q-17 0 -29.5 7t-22.5 15t-19.5 15t-19.5 7q-16 0 -43 -23t-64 -87q-18 -31 -48.5 -88.5t-68.5 -131t-81 -158.5t-86.5 -172t-84.5 -172t-75.5 -157.5t-59.5 -128t-36 -84.5h-124q-2 39 -4.5 75t-6.5 66l-156 1018v4q-25 172 -125 172h-18zM510 1672l144 67l133 -376l-70 -23 zM768 1708l144 67l133 -376l-70 -23z" />
<glyph unicode="&#x477;" horiz-adv-x="967" d="M18 811q87 95 132 128q48 36 86 36q34 0 63 -47t50 -140.5t32.5 -234.5t11.5 -329v-58h9q27 66 61.5 153t74.5 178.5t84.5 180t91 158t94 112t94.5 42.5q38 0 61.5 -25t23.5 -62q0 -16 -5 -33.5t-16 -34.5q-21 8 -40 8q-16 0 -31 -5.5t-28.5 -14t-24.5 -18t-19 -17.5 q-43 -44 -82 -101.5t-76 -124t-72 -139.5t-68 -147t-65 -147t-63 -139l-137 -30q2 47 3 79t1 61q0 88 -3.5 176t-10.5 177q-14 177 -33 297q-14 86 -53 86q-25 0 -102 -74l-7 -6zM226 1331l144 67l133 -376l-70 -23zM482 1368l144 67l133 -376l-70 -23z" />
<glyph unicode="&#x478;" horiz-adv-x="2246" d="M88 506q0 160 53 321q54 160 150 281q111 141 267 217q157 78 335 78q238 0 378 -147q140 -148 140 -398v-13.5t-1 -13.5q47 66 85.5 101t66.5 35q90 0 148 -202q59 -203 59 -521q0 -46 -2 -92t-6 -91l27 60q233 522 233 633q0 29 -9 52.5t-30 45.5l64 68q23 25 42 36 t39 11q32 0 50 -21t18 -57q0 -64 -102 -308q-101 -245 -258 -536q-87 -161 -159.5 -272.5t-133.5 -177.5q-120 -132 -236 -132q-63 0 -99 27.5t-36 73.5q0 17 7.5 32.5t29.5 36.5l53 50q29 -38 63 -58t68 -20q92 0 165 148q73 146 73 362q0 132 -10.5 249t-32.5 220 q-44 207 -86 207q-18 0 -39 -21q-21 -20 -66 -84l-1 1q-7 -37 -16.5 -73.5t-21.5 -73.5q-52 -158 -149 -282q-56 -72 -123.5 -127t-144.5 -93t-161 -57.5t-173 -19.5q-239 0 -379 146q-139 145 -139 399zM287 537q0 -226 99 -344.5t288 -118.5q244 0 391 204 q147 205 147 543q0 233 -98.5 353t-288.5 120q-244 0 -391 -207q-147 -206 -147 -550z" />
<glyph unicode="&#x479;" horiz-adv-x="1680" d="M33 328q0 121 39 235.5t112 208.5q72 94 163.5 144.5t182.5 50.5q215 0 279 -190q58 93 106 141.5t81 48.5q90 0 148 -202q59 -203 59 -521q0 -46 -2 -92t-6 -91l27 60q233 522 233 633q0 29 -9 52.5t-30 45.5l64 68q23 25 42 36t39 11q32 0 50 -21t18 -57 q0 -64 -102 -308q-101 -245 -258 -536q-87 -161 -159.5 -272.5t-133.5 -177.5q-120 -132 -236 -132q-63 0 -99 27.5t-36 73.5q0 17 7.5 32.5t29.5 36.5l53 50q29 -38 63 -58t68 -20q92 0 165 148q73 146 73 362q0 132 -10.5 249t-32.5 220q-44 207 -86 207q-18 0 -39 -21 q-21 -20 -66 -84l-1 1q2 -20 3.5 -40.5t1.5 -42.5q0 -104 -40 -218q-40 -115 -108 -208q-73 -100 -165 -153.5t-195 -53.5q-135 0 -214 97t-79 260zM203 319q0 -124 42.5 -188.5t123.5 -64.5q121 0 207 156q86 158 86 384q0 136 -42.5 200t-132.5 64q-116 0 -200 -159 t-84 -392z" />
<glyph unicode="&#x47a;" horiz-adv-x="1597" d="M88 506q0 124 26.5 235t74.5 207t115 174.5t148.5 137t174 94t192.5 45.5l25 27q31 35 54.5 50.5t46.5 15.5t37.5 -11.5t28.5 -49.5l13 -29q112 -5 202.5 -45.5t153.5 -111t97 -169t34 -218.5q0 -81 -14 -159.5t-40 -158.5q-42 -127 -110.5 -229t-157 -175.5t-194 -117.5 t-220.5 -54l-27 -28q-35 -35 -57.5 -49.5t-46.5 -14.5t-37.5 14t-27.5 45l-16 32q-110 7 -198 47.5t-149.5 110t-94.5 167t-33 218.5zM287 537q0 -98 19 -179t56 -142.5t91.5 -101.5t125.5 -56l35 38q31 35 54.5 50.5t46.5 15.5t37.5 -11.5t28.5 -49.5l12 -27q119 4 215 60 t163.5 154t104 233.5t36.5 299.5q0 100 -19 183t-55.5 145.5t-91 103.5t-126.5 57l-42 -44q-35 -35 -57.5 -49.5t-46.5 -14.5t-37.5 14t-27.5 45l-16 32q-115 -8 -208.5 -65t-159.5 -155.5t-102 -234.5t-36 -301z" />
<glyph unicode="&#x47b;" horiz-adv-x="1030" d="M33 328q0 76 16.5 150.5t46.5 141.5t71 125.5t90.5 103.5t105.5 74t115 39l23 26q27 32 48.5 45.5t41.5 13.5t33.5 -10t26.5 -44l12 -28q134 -10 202.5 -101.5t68.5 -259.5q0 -104 -40 -218q-30 -85 -72.5 -155t-94.5 -122.5t-111 -85.5t-123 -45l-32 -34 q-31 -32 -51.5 -45t-41.5 -13q-22 0 -34.5 13t-24.5 41l-17 33q-60 6 -108 34t-81.5 74t-51.5 108.5t-18 138.5zM203 319q0 -106 31.5 -168.5t91.5 -79.5l15 17q27 32 48.5 45.5t41.5 13.5t33.5 -10t26.5 -44l10 -24q56 11 103.5 58t82.5 119t55 164.5t20 195.5 q0 114 -29.5 177t-92.5 80l-19 -19q-31 -32 -51.5 -45t-41.5 -13q-22 0 -34.5 13t-24.5 41l-14 26q-53 -11 -99 -58t-80 -120.5t-53.5 -168t-19.5 -200.5z" />
<glyph unicode="&#x47c;" horiz-adv-x="2126" d="M94 493q0 124 26.5 237t74 210.5t113 177t143.5 135.5t166 86.5t181 30.5q21 0 59 -5t79.5 -13.5t80 -20.5t62.5 -26q-11 -41 -18.5 -75t-12.5 -67t-7.5 -67t-4.5 -74l-66 18q-5 72 -27 116t-55.5 68.5t-76.5 32.5t-90 8q-50 0 -100 -24t-96.5 -70.5t-87 -113t-70.5 -152 t-47 -188t-17 -219.5q0 -95 16.5 -172t49 -131.5t81 -84.5t113.5 -30q75 0 144.5 41.5t122 110t84 157t31.5 183.5q0 27 -6 46.5t-21 32.5t-40 19.5t-63 6.5h-17l12 66q66 -4 131.5 -6t129.5 -2q54 0 120.5 2t141.5 6l-12 -66h-16q-66 0 -104.5 -22.5t-59 -58t-26 -78.5 t-5.5 -83q0 -69 19 -133t55 -113.5t88.5 -79t120.5 -29.5q59 0 114.5 33.5t104.5 91.5t90.5 137t71.5 171t46.5 192t16.5 200q0 94 -20.5 162.5t-55 113t-80 66t-96.5 21.5q-31 0 -67 -10.5t-74.5 -38.5t-78 -75.5t-76.5 -121.5l-66 18q10 40 18.5 71.5t14.5 61t11 60.5 t8 72q80 32 158 49t153 17q93 0 174 -28.5t140.5 -90t94 -157t34.5 -228.5q0 -128 -26 -244t-73 -216t-111.5 -181t-140.5 -138.5t-161.5 -88.5t-174.5 -31q-83 0 -146 26.5t-107.5 69.5t-72 95.5t-38.5 105.5q-29 -52 -74.5 -105t-105.5 -95.5t-133.5 -69.5t-159.5 -27 q-98 0 -174 38.5t-129 107.5t-80.5 165.5t-27.5 213.5zM908 1829q11 46 36.5 81.5t59.5 59.5t72.5 36t76.5 12q47 0 87.5 -10.5t78.5 -26.5t75 -34.5t76.5 -34.5t84.5 -26.5t99 -10.5h16.5t17.5 1v-66q-17 -2 -32.5 -2h-29.5q-63 0 -110.5 8.5t-85.5 21.5t-70 28.5 t-62.5 28.5t-63.5 21.5t-74 8.5q-24 0 -43 -8.5t-34 -22t-26.5 -30.5t-18.5 -35h-130zM1065 1422l13 74q43 1 81 8.5t66.5 21.5t47 35t23.5 48q6 35 -11 47.5t-45 12.5q-27 0 -59.5 -7.5t-61.5 -14.5l-3 136q66 20 116 20q44 0 77 -13.5t53.5 -37t28 -56t1.5 -69.5 q-5 -29 -21.5 -65t-53.5 -67t-97.5 -52t-154.5 -21z" />
<glyph unicode="&#x47d;" horiz-adv-x="1418" d="M33 315q0 114 33.5 221t94.5 195.5t146.5 152.5t190.5 93l15 -60q-74 -40 -132.5 -98.5t-99.5 -134t-63 -167.5t-22 -198q0 -61 12 -105t33 -72.5t50.5 -42t64.5 -13.5q37 0 74 17t68.5 48.5t55.5 77.5t36 105q9 42 17 83.5t15.5 85t15.5 90t18 100.5l147 23l-69 -381 q-6 -35 -9 -67.5t-3 -45.5q0 -33 8.5 -62t26 -50.5t45.5 -34t67 -12.5q51 0 92.5 26t74.5 68.5t57 97.5t40 112.5t24 114t8 102.5q0 115 -35.5 201t-121.5 138q9 12 16.5 27.5t15.5 28.5q74 -23 127 -65t87.5 -95.5t51 -114.5t16.5 -121q0 -127 -41.5 -237.5t-110 -192.5 t-156.5 -129t-181 -47q-98 0 -161 50t-77 135q-24 -33 -52 -65.5t-63.5 -58t-78.5 -41t-97 -15.5q-63 0 -113 20.5t-85 62t-54 104t-19 146.5zM588 1249q11 46 36.5 81.5t59.5 59.5t72.5 36t76.5 12q47 0 87.5 -10.5t78.5 -26.5t75 -34.5t76.5 -34.5t84.5 -26.5t99 -10.5 h16.5t17.5 1v-66q-17 -2 -32.5 -2h-29.5q-63 0 -110.5 8.5t-85.5 21.5t-70 28.5t-62.5 28.5t-63.5 21.5t-74 8.5q-24 0 -43 -8.5t-34 -22t-26.5 -30.5t-18.5 -35h-130zM615 843l13 74q46 1 86 9.5t69.5 24.5t46.5 39.5t17 54.5q0 26 -16.5 35.5t-40.5 9.5q-27 0 -59.5 -7.5 t-61.5 -14.5l-3 136q66 20 116 20q79 0 121 -40t42 -103q0 -17 -4.5 -41t-17 -50.5t-35 -52.5t-59.5 -47t-89.5 -34t-124.5 -13z" />
<glyph unicode="&#x47e;" horiz-adv-x="2004" d="M106 1302l11 66q67 -3 125 -5t122 -2q55 0 115.5 2t135.5 5l-11 -66h-16q-57 0 -90.5 -11t-52 -34t-27 -59.5t-16.5 -87.5q-10 -65 -15 -129t-5 -127q0 -122 18.5 -229.5t50 -197t72 -158.5t85.5 -114q66 62 151 167t172 248q-12 96 -12 206q0 140 21 314q4 29 5.5 54 t1.5 45q0 61 -20.5 87t-71.5 26h-17l11 66q33 -2 62 -3t56 -2t55 -1.5t60 -0.5q55 0 112.5 2t132.5 5l-11 -66h-17q-51 0 -82.5 -17t-51 -53t-31 -92t-22.5 -133q-8 -58 -12.5 -113t-4.5 -109q0 -104 14 -197t39.5 -173.5t59.5 -147.5t75 -119q69 57 135.5 140.5 t124.5 189.5t103 231.5t70 268.5l7 45q9 60 15 101.5t6 70.5q0 30 -5 50.5t-17 33t-32.5 18t-51.5 5.5h-26l11 66q65 -3 125.5 -5t121.5 -2q52 0 113 2t130 5l-11 -66q-5 0 -13.5 1t-12.5 1q-36 0 -60.5 -10t-43 -34t-32.5 -65.5t-29 -104.5q-50 -215 -132.5 -395.5 t-182 -323.5t-206.5 -246t-205 -163q-40 55 -74.5 110.5t-63.5 113t-52 118.5t-39 129q-44 -61 -94.5 -125t-105.5 -125.5t-112.5 -118t-115.5 -102.5q-47 46 -103 117t-104.5 176t-81 249t-32.5 336q0 58 3 120t11 130q2 23 4 45.5t2 42.5q0 27 -4.5 50t-16 39.5t-32 25.5 t-51.5 9h-17zM632 1531q13 31 24 61.5t22.5 65t23 76.5t24.5 96q41 -17 123.5 -19.5t213.5 -2.5h159q42 0 89 0.5t94.5 3t92.5 8t83 16.5q-10 -56 -20 -131.5t-5 -173.5l-68 -13q-4 69 -16.5 109.5t-38.5 60.5t-69 25.5t-107 5.5h-53q-2 -8 -11 -69t-21 -184q-26 2 -48 3.5 t-42.5 1.5t-42 -1t-47.5 -4q12 46 21 87.5t16 74.5t12 56.5t7 34.5h-44q-57 0 -104 -5t-85.5 -25.5t-69.5 -60.5t-57 -110z" />
<glyph unicode="&#x47f;" horiz-adv-x="1454" d="M14 831q99 69 172 107.5t102 38.5q34 0 53.5 -23.5t19.5 -68.5q0 -5 -0.5 -9t-0.5 -9q-4 -45 -8.5 -96t-8 -105t-5.5 -109t-2 -107q0 -53 3 -101.5t10 -88.5t18.5 -70.5t29.5 -46.5q26 22 58 62t65.5 91.5t66 111.5t59 122.5t45 124.5t23.5 117q2 21 3.5 42.5t3.5 43.5 l154 37q-5 -64 -9 -141t-4 -158q0 -74 4 -145.5t14.5 -132t28.5 -107t45 -68.5q31 39 63 86t61.5 99.5t56 109.5t46 115t30.5 116.5t11 114.5q0 19 -6.5 37t-21.5 37l64 68q46 49 84 49q28 0 44.5 -21.5t16.5 -59.5q0 -24 -3.5 -67.5t-24.5 -111t-66.5 -162t-129.5 -219.5 q-65 -96 -136 -189.5t-157 -171.5q-35 29 -63.5 77t-49.5 111.5t-35 139.5t-21 160q-38 -66 -81 -133.5t-91.5 -131.5t-102.5 -121t-113 -102q-39 32 -67 89t-46 132t-26.5 165t-8.5 188q0 59 3 119t8 122v5q0 18 -8.5 29t-22.5 11q-10 0 -40 -14t-84 -43zM350 1155 q13 52 42 92t70.5 67t92 40.5t106.5 13.5q34 0 63 -10t56 -25.5t53.5 -35.5t55.5 -40q59 56 127.5 82t142.5 26q43 0 80.5 -12.5t65 -33t43 -47t15.5 -55.5q0 -26 -16.5 -46.5t-46 -35.5t-69 -23t-84.5 -8q-72 0 -128.5 12.5t-103.5 31.5q-17 -26 -32 -59.5t-28 -72.5 l-112 -18q17 57 39 104.5t49 85.5q-27 15 -51.5 28.5t-48.5 24t-48 17t-49 6.5q-27 0 -48.5 -9.5t-38.5 -25t-29.5 -35t-20.5 -39.5h-147zM968 1210q41 -20 89.5 -32.5t111.5 -12.5q38 0 54 9t16 22q0 14 -13 26.5t-32.5 21.5t-42.5 14.5t-42 5.5q-80 0 -141 -54z" />
<glyph unicode="&#x480;" horiz-adv-x="1337" d="M88 561q0 161 63 319q49 123 127 220t178 164.5t217 103t245 35.5q94 0 186.5 -25.5t191.5 -79.5q-23 -73 -38.5 -144.5t-22.5 -143.5l-68 10q2 17 3 33t1 32q0 46 -23.5 83t-66.5 62.5t-103.5 39.5t-133.5 14q-131 0 -234.5 -48t-175 -138t-109.5 -219t-38 -291 q0 -118 30 -213.5t86 -162.5t135.5 -103.5t178.5 -36.5q72 0 125.5 6.5t97.5 21.5t84 39t85 59l36 -10l-73 -418q-12 -71 -12 -98q0 -60 23 -82t81 -22q5 0 13 1t12 1q11 0 14 -3l-14 -65q-164 12 -244 12t-248 -12l15 65q7 -1 13.5 -1.5t19.5 -0.5q31 0 53.5 6.5t39 27 t28.5 60t24 105.5l42 241q-135 -48 -248 -48q-135 0 -245 43.5t-188 123t-120.5 190.5t-42.5 247z" />
<glyph unicode="&#x481;" horiz-adv-x="739" d="M27 319q0 274 140 462q141 188 347 188q75 0 128 -32q54 -32 54 -73q0 -16 -8.5 -32t-30.5 -37l-53 -52q-64 66 -106 89q-38 22 -80 22q-92 0 -160 -137q-68 -138 -68 -336q0 -270 138 -270q39 0 79.5 20t80.5 50t77.5 65.5t69.5 67.5l41 -71q-16 -66 -34.5 -151 t-36.5 -174.5t-33 -174t-25 -148.5l-178 -44q4 15 10 46.5t14 74t17.5 92t19.5 101t20 102t19 94.5q-62 -43 -114.5 -66.5t-90.5 -23.5q-109 0 -173 94t-64 254z" />
<glyph unicode="&#x482;" horiz-adv-x="932" d="M0 218q14 25 21.5 51.5t17.5 54.5q60 -29 121 -52.5t122 -45.5l45 -17l158 435l-45 17q-62 23 -123 44t-126 35q14 28 23.5 54t15.5 58q25 -12 55.5 -26t63 -27.5t66 -26.5t65.5 -25l38 -14q11 31 24 68t26 75t24.5 76.5t20.5 74.5q23 -13 56.5 -25.5t62.5 -17.5 q-16 -33 -33 -71.5t-33 -77.5t-30 -74.5t-24 -61.5l46 -16q58 -22 113 -40.5t124 -36.5q-12 -26 -21 -50.5t-17 -56.5q-63 27 -121 51t-120 47l-36 13l-159 -435l46 -17q58 -21 118.5 -39t119.5 -39q-16 -27 -24.5 -49.5t-13.5 -51.5q-60 22 -119 46.5t-119 46.5l-40 14 q-23 -64 -48.5 -146t-48.5 -161q-26 11 -56.5 22.5t-58.5 22.5q35 86 65 160t53 136l-54 20q-60 22 -119.5 40t-121.5 38z" />
<glyph unicode="&#x483;" horiz-adv-x="0" d="M-699 1083q-1 17 1 37.5t10 42t22.5 42.5t39.5 39q43 13 97 16t108.5 2.5t105.5 -1t87 7.5q21 4 34.5 15.5t22 26t13 31t7.5 31.5h141q0 -17 -2 -37.5t-9.5 -42t-22.5 -42.5t-40 -39q-43 -13 -96.5 -16t-108.5 -2.5t-105.5 0.5t-86.5 -7q-21 -5 -34.5 -16t-22.5 -26 t-13.5 -31t-7.5 -31h-140z" />
<glyph unicode="&#x484;" horiz-adv-x="0" d="M-692 1204q69 154 152.5 228.5t189.5 74.5q109 0 174 -79.5t80 -229.5l-72 -25q-17 102 -67 150.5t-138 48.5q-76 0 -141 -52t-102 -145z" />
<glyph unicode="&#x485;" horiz-adv-x="0" d="M-534 1246q0 44 16.5 82.5t46.5 67.5t71.5 46t91.5 17t108 -20l-51 -136q-26 7 -56 14.5t-57 7.5q-15 0 -29 -3.5t-25 -12t-17.5 -23t-6.5 -36.5q0 -24 13 -42t37 -30t57 -18.5t73 -7.5l-13 -74q-80 0 -130.5 15.5t-79 40t-39 54t-10.5 58.5z" />
<glyph unicode="&#x486;" horiz-adv-x="0" d="M-475 1078l13 74q46 1 86 9.5t69.5 24.5t46.5 39.5t17 54.5q0 26 -16.5 35.5t-40.5 9.5q-27 0 -59.5 -7.5t-61.5 -14.5l-3 136q66 20 116 20q79 0 121 -40t42 -103q0 -17 -4.5 -41t-17 -50.5t-35 -52.5t-59.5 -47t-89.5 -34t-124.5 -13z" />
<glyph unicode="&#x487;" horiz-adv-x="0" d="M-762 1165q11 46 36.5 81.5t59.5 59.5t72.5 36t76.5 12q47 0 87.5 -10.5t78.5 -26.5t75 -34.5t76.5 -34.5t84.5 -26.5t99 -10.5h16.5t17.5 1v-66q-17 -2 -32.5 -2h-29.5q-63 0 -110.5 8.5t-85.5 21.5t-70 28.5t-62.5 28.5t-63.5 21.5t-74 8.5q-24 0 -43 -8.5t-34 -22 t-26.5 -30.5t-18.5 -35h-130z" />
<glyph unicode="&#x488;" horiz-adv-x="0" d="M-1434 551l59 15q17 -72 49 -105.5t75 -33.5q25 0 33.5 15.5t8.5 36.5q0 22 -6.5 47.5t-12.5 48.5l119 24q29 -62 29 -110q0 -35 -14.5 -61.5t-38 -44t-52 -26t-56.5 -8.5q-23 0 -50 8t-53.5 30.5t-50.5 62t-39 101.5zM-1222 -127l32 52q64 -38 114 -38q10 0 25 3.5 t28 10t22.5 16.5t9.5 24q0 15 -9.5 28t-24.5 25t-33 22.5t-34 20.5l67 100q76 -27 106.5 -66.5t30.5 -80.5q0 -24 -9.5 -54t-30 -55.5t-53.5 -43t-79 -17.5q-33 0 -73.5 12t-88.5 41zM-1159 1020q0 32 12 72.5t41 88.5l52 -32q-38 -66 -38 -114q0 -11 3.5 -25.5t10 -27.5 t16.5 -22.5t24 -9.5q15 0 28 9.5t25 24.5t22.5 32.5t20.5 34.5l100 -67q-14 -38 -30.5 -64.5t-35.5 -43t-39.5 -23.5t-41.5 -7q-25 0 -54.5 9.5t-55 30.5t-43 54t-17.5 80zM-640 -130q62 29 110 29q35 0 61.5 -14.5t44 -38t26 -52t8.5 -56.5q0 -23 -8.5 -50t-31 -53.5 t-61.5 -50.5t-101 -39l-14 59q72 18 104.5 50t32.5 75q0 25 -15.5 33t-35.5 8q-23 0 -48 -6.5t-48 -12.5zM-630 1200q0 22 8 49.5t30.5 54t62 50.5t101.5 39l14 -59q-72 -19 -104.5 -50.5t-32.5 -75.5q0 -24 15.5 -32t35.5 -8q22 0 47.5 6.5t48.5 12.5l24 -119 q-32 -16 -59.5 -22.5t-50.5 -6.5q-35 0 -61.5 14.5t-44 37.5t-26 51.5t-8.5 57.5zM-178 -47q27 76 66 107t80 31q25 0 54.5 -9.5t55.5 -30t43.5 -53.5t17.5 -80q0 -33 -12 -73t-41 -88l-52 32q38 64 38 113q0 10 -3.5 25t-10.5 28.5t-17 23t-23 9.5q-15 0 -28 -9.5 t-25 -24.5t-22.5 -33t-20.5 -34zM-133 948q0 24 9.5 53.5t30 55t53.5 43t80 17.5q33 0 73 -12t89 -41l-32 -51q-64 38 -113 38q-11 0 -25.5 -3.5t-28 -10.5t-23 -17t-9.5 -23q0 -15 9.5 -28t24.5 -25t32.5 -22.5t34.5 -20.5l-67 -100q-38 13 -64.5 30t-43 36t-23.5 39.5 t-7 41.5zM60 449q0 35 14.5 61.5t37.5 44t51.5 26t57.5 8.5q22 0 49.5 -8.5t54 -31t50.5 -61.5t39 -101l-59 -14q-18 72 -49.5 104t-74.5 32q-25 0 -33.5 -15t-8.5 -35q0 -23 6.5 -48t12.5 -48l-119 -24q-16 32 -22.5 59.5t-6.5 50.5z" />
<glyph unicode="&#x489;" horiz-adv-x="0" d="M-1453 376q15 54 37.5 98.5t51.5 76t65 48.5t80 17q42 0 78 -17.5t65 -49t51.5 -75.5t37.5 -98l-54 -18q-25 66 -67 94.5t-111 28.5q-70 0 -113 -29.5t-67 -93.5zM-1299 836q15 54 37 98.5t51 76t65 48.5t79 17t79 -17.5t65 -49t51.5 -75.5t37.5 -98l-53 -19 q-26 66 -68 95t-112 29q-69 0 -112 -29t-66 -95zM-1243 -76q15 54 36.5 98.5t51 76t65.5 48.5t79 17q42 0 78 -17.5t65 -49t51.5 -75.5t37.5 -98l-53 -19q-25 66 -67.5 95t-111.5 29t-112.5 -29.5t-67.5 -94.5zM-752 -340q15 54 37 98.5t51 76t65 48.5t79 17q42 0 78 -17.5 t65.5 -49t52 -75.5t37.5 -98l-54 -18q-25 66 -67 95t-112 29q-69 0 -112 -29.5t-67 -94.5zM-752 1095q15 54 37 98.5t51 76t65 48.5t79 17q42 0 78 -17.5t65.5 -49t52 -75.5t37.5 -98l-54 -17q-25 66 -67 94.5t-112 28.5q-69 0 -112 -29.5t-67 -93.5zM-260 -76q15 54 37 98 t51 75.5t65.5 49t78.5 17.5q43 0 79 -17t65 -48.5t51 -76t37 -98.5l-53 -19q-24 65 -67 94.5t-112 29.5q-70 0 -112 -29t-68 -95zM-206 836q15 54 37 98t51.5 75.5t65.5 49t79 17.5t79 -17t65 -48.5t51 -76t37 -98.5l-54 -19q-23 66 -66 95t-112 29t-111.5 -29t-68.5 -95z M-52 376q15 54 37 98t51 75.5t65.5 49t78.5 17.5q43 0 79 -17t65 -48.5t51.5 -76t37.5 -98.5l-54 -18q-23 64 -66.5 93.5t-112.5 29.5q-70 0 -112 -28.5t-67 -94.5z" />
<glyph unicode="&#x48a;" horiz-adv-x="1544" d="M-25 0l13 66h39q22 0 41.5 3.5t36 19.5t30 48.5t23.5 91.5l153 899q3 19 5.5 43.5t2.5 38.5q0 31 -12 48t-29 24.5t-35.5 8.5t-31.5 1h-18l12 70q41 -4 73.5 -7t59.5 -4.5t49 -2t43 -0.5q25 0 55.5 1t62.5 3t64.5 4t61.5 4l-10 -68h-21q-34 0 -58.5 -4.5t-42 -19 t-28.5 -41t-18 -70.5l-134 -770l506 416l391 336l8 45q3 15 3 31q0 15 -4.5 29t-16.5 24.5t-33.5 17t-55.5 6.5h-20l12 68q28 -3 59 -5.5t60.5 -4t56 -2t45.5 -0.5q23 0 55 1t66.5 3t68.5 4t60 4l-12 -68h-21q-22 0 -43.5 -2t-39.5 -12.5t-31.5 -34.5t-20.5 -67l-88 -467 l-72 -426q-4 -23 -9 -51.5t-5 -57.5q0 -48 18 -66.5t44 -18.5q23 0 52 11.5t61 25.5l27 -39q-59 -58 -109.5 -110t-97.5 -102t-91.5 -98.5t-90.5 -99.5l-51 54q24 27 49 57.5t45 61t33 58.5t13 50q0 23 -16.5 39t-57.5 16q-32 0 -69 -3.5t-70 -5.5l-50 -4l11 66l46 -3 q43 0 67.5 19t38 49.5t20 67.5t12.5 73l70 387l52 335l-896 -739l-7 -50q-2 -12 -3.5 -23t-0.5 -22q0 -42 18.5 -67.5t66.5 -25.5q12 0 15 1l37 2l-12 -68l-90 6l-64 4t-67 2q-11 0 -55 -0.5t-130 -7.5zM703 1692q0 28 10.5 54.5t29.5 46t44 31.5t54 12q37 0 62.5 -19 t25.5 -61q0 -13 -3.5 -22.5t-7 -18t-7 -17.5t-3.5 -20q0 -18 13.5 -33t49.5 -15q43 0 89 15t90.5 42t86 66t75.5 87l58 -31q-42 -74 -96.5 -127t-114.5 -87.5t-123 -51t-123 -16.5q-59 0 -99.5 15.5t-65 39.5t-35 53t-10.5 57z" />
</font>
</defs>
</svg>
