<?xml version="1.0" standalone="no"?>
<!DOCTYPE svg PUBLIC "-//W3C//DTD SVG 1.1//EN" "http://www.w3.org/Graphics/SVG/1.1/DTD/svg11.dtd" >
<svg xmlns="http://www.w3.org/2000/svg">
<metadata></metadata>
<defs>
<font id="iowan_old_styleroman" horiz-adv-x="1139" >
<font-face units-per-em="2048" ascent="1638" descent="-410" />
<missing-glyph horiz-adv-x="569" />
<glyph horiz-adv-x="2048" />
<glyph horiz-adv-x="2048" />
<glyph unicode="&#xd;" horiz-adv-x="682" />
<glyph unicode=" "  horiz-adv-x="569" />
<glyph unicode="&#x09;" horiz-adv-x="569" />
<glyph unicode="&#xa0;" horiz-adv-x="569" />
<glyph unicode="!" horiz-adv-x="690" d="M186 106q0 22 10.5 38.5t41.5 39.5l73 58l70 -56q28 -21 40.5 -41t12.5 -43t-10 -40t-37 -37l-76 -58l-69 53q-29 23 -42.5 43.5t-13.5 42.5zM227 1427h207q-2 -189 -34.5 -539t-41.5 -497h-81q-5 240 -17.5 498.5t-32.5 537.5z" />
<glyph unicode="&#x22;" horiz-adv-x="678" d="M90 1362q0 48 22 74t62 26q41 0 63.5 -26t22.5 -74q0 -9 -3 -34q-1 -5 -1 -7l-66 -457h-32l-64 457q-2 17 -3 26t-1 15zM418 1360q0 49 22.5 75.5t63.5 26.5q40 0 62 -26t22 -74q0 -14 -0.5 -23t-1.5 -18l-68 -457h-31l-65 457q0 2 -1 6q-3 22 -3 33z" />
<glyph unicode="#" d="M70 477l34 112q31 -2 61 -3.5t60 -1.5q13 0 37.5 1t36.5 1l82 250q-82 0 -124 -1t-79 -4l35 115q37 -3 75 -4.5t77 -1.5h51l139 477h115q-33 -100 -67.5 -211t-81.5 -268q20 -1 42.5 -1.5t59.5 -0.5q30 0 65.5 0.5t75.5 1.5q36 111 72 228.5t73 250.5h115l-152 -479 q14 0 40.5 -1t39.5 -1q35 0 67 1.5t62 4.5l-34 -117q-47 4 -99 6.5t-108 4.5l-82 -252q17 0 48.5 -1t45.5 -1q25 0 52 0.5t68 3.5l-34 -113q-64 5 -101.5 6.5t-70.5 1.5h-39l-143 -481h-115q36 117 73.5 237t78.5 244h-119h-129q-18 -59 -53 -169q-68 -220 -95 -312h-116 l155 479q-23 1 -45.5 1.5t-42.5 0.5q-27 0 -89 -3q-11 -1 -17 -1zM403 584q24 -1 46.5 -1.5t44.5 -0.5q30 0 65 0.5t98 3.5l76 249q-38 2 -72.5 2.5t-72.5 0.5h-103z" />
<glyph unicode="$" d="M182 279q0 39 25 67.5t57 28.5q34 0 96.5 -86t145.5 -86l4 448q-169 56 -247.5 134t-78.5 192q0 122 89 208t237 105l-2 240h104l-2 -234q137 -4 215 -42.5t78 -100.5q0 -36 -23.5 -62t-56.5 -26q-24 0 -84.5 68.5t-129.5 72.5l-7 -403q184 -64 259 -141.5t75 -198.5 q0 -134 -91.5 -228.5t-242.5 -115.5v-234h-104l4 230q-151 4 -235.5 47.5t-84.5 116.5zM338 1026q0 -64 41.5 -110t132.5 -82v372q-81 -12 -127.5 -60t-46.5 -120zM600 207q83 15 133.5 76t50.5 145q0 65 -44 112.5t-140 84.5v-418z" />
<glyph unicode="%" horiz-adv-x="1802" d="M109 1024q0 187 91.5 304.5t233.5 117.5q41 0 76.5 -6.5t71.5 -20.5q119 -38 190.5 -52.5t130.5 -14.5q85 0 181.5 27t201.5 81l80 -43q-383 -647 -556 -941t-304 -523l-76 39l813 1399q-106 -65 -187 -93t-157 -28q-47 0 -97.5 11.5t-113.5 37.5q37 -53 56.5 -125 t19.5 -158q0 -189 -93.5 -305.5t-244.5 -116.5q-145 0 -231 111t-86 299zM268 1065q0 -181 45.5 -277t130.5 -96q80 0 120 75t40 224q0 184 -45.5 281.5t-130.5 97.5q-80 0 -120 -76.5t-40 -228.5zM1036 379q0 191 94 307.5t246 116.5q142 0 230 -109t88 -284 q0 -203 -91.5 -321t-246.5 -118q-146 0 -233 110.5t-87 297.5zM1196 422q0 -181 45.5 -278t130.5 -97q80 0 120 75.5t40 225.5q0 184 -45.5 280.5t-130.5 96.5q-80 0 -120 -75.5t-40 -227.5z" />
<glyph unicode="&#x26;" horiz-adv-x="1702" d="M135 365q0 147 93 253.5t270 161.5q-82 85 -124 168t-42 160q0 132 101 231t235 99q136 0 224.5 -80.5t88.5 -202.5q0 -99 -67.5 -187.5t-211.5 -176.5l342 -414q103 113 167.5 244.5t64.5 201.5q0 46 -26.5 63t-102.5 17v74q67 -7 123.5 -10.5t97.5 -3.5q30 0 74 2.5 t145 11.5v-76h-22q-104 0 -153 -106q-3 -6 -5 -11q-75 -160 -149 -273.5t-158 -197.5l41 -49q71 -86 129 -124t116 -38q47 0 100 26.5t105 76.5l41 -43q-76 -102 -159.5 -154.5t-169.5 -52.5q-75 0 -141.5 43t-186.5 182q-109 -105 -220 -159t-220 -54q-170 0 -285 114.5 t-115 283.5zM303 426q0 -131 93.5 -225.5t224.5 -94.5q70 0 143.5 33.5t159.5 104.5l-379 475q-121 -41 -181.5 -114.5t-60.5 -178.5zM485 1167q0 -72 45 -157.5t127 -165.5q79 53 123.5 132t44.5 165q0 91 -49 149t-127 58q-72 0 -118 -50.5t-46 -130.5z" />
<glyph unicode="'" horiz-adv-x="348" d="M90 1360q0 50 21.5 76t62.5 26t63.5 -26t22.5 -74q0 -9 -3 -34q-1 -5 -1 -7l-66 -457h-32l-66 457q-1 8 -1.5 16t-0.5 23z" />
<glyph unicode="(" horiz-adv-x="858" d="M270 606q0 287 125.5 533t366.5 432l51 -53q-185 -205 -280 -440t-95 -488t95 -479t288 -437l-53 -61q-251 194 -374.5 440t-123.5 553z" />
<glyph unicode=")" horiz-adv-x="858" d="M39 -326q193 210 288 434.5t95 469.5q0 262 -94 497t-281 443l51 53q240 -186 365 -432.5t125 -532.5q0 -307 -123 -553.5t-373 -439.5z" />
<glyph unicode="*" horiz-adv-x="930" d="M160 926v90q109 27 170 51t61 39t-57.5 38t-173.5 54v90l78 45q85 -88 126.5 -125t57.5 -37q5 0 8.5 5.5t3.5 13.5q0 24 -12.5 85.5t-34.5 139.5l78 45l80 -45q-24 -73 -36.5 -132.5t-12.5 -94.5q0 -7 3 -12t7 -5q16 0 60.5 39t125.5 123l78 -45l2 -90 q-122 -33 -176.5 -54.5t-54.5 -37.5q0 -15 61 -39t170 -51l-2 -90l-78 -43q-81 83 -125 121t-57 38q-7 0 -10.5 -4t-3.5 -12q0 -32 12 -89t37 -138l-80 -45l-78 45q22 82 34.5 141.5t12.5 83.5v4q0 5 -4.5 9.5t-9.5 4.5q-13 0 -57 -38t-125 -121z" />
<glyph unicode="+" horiz-adv-x="1706" d="M254 553v117h541v551h118v-551h539v-117h-539v-553h-118v553h-541z" />
<glyph unicode="," horiz-adv-x="569" d="M68 -246q66 52 107 112t58 132q-56 35 -78 60t-22 51q0 19 13.5 38t60.5 58l59 47q82 -63 107.5 -100t25.5 -82q0 -74 -75.5 -178.5t-202.5 -202.5z" />
<glyph unicode="-" horiz-adv-x="717" d="M66 424q15 35 28 73.5t25 84.5q10 -1 30 -1q147 -3 209 -3q98 0 163 1t128 3q-17 -44 -30 -83.5t-23 -74.5q-60 2 -118.5 3t-141.5 1t-145 -1t-125 -3z" />
<glyph unicode="." horiz-adv-x="569" d="M135 117q0 19 10.5 35.5t49.5 48.5l71 59l80 -59q33 -25 48.5 -45.5t15.5 -38.5q0 -24 -13.5 -44t-46.5 -44l-78 -58l-73 58q-36 26 -50 46t-14 42z" />
<glyph unicode="/" horiz-adv-x="944" d="M-35 -143q290 533 513.5 954.5t387.5 747.5l107 -50q-392 -729 -589.5 -1101.5t-311.5 -597.5z" />
<glyph unicode="0" d="M78 676q0 351 139 560.5t367 209.5q221 0 348 -188t127 -521q0 -350 -138.5 -558t-367.5 -208q-221 0 -348 188.5t-127 516.5zM260 766q0 -336 84.5 -511t245.5 -175q146 0 218.5 143t72.5 434q0 330 -85 505t-245 175q-147 0 -219 -141.5t-72 -429.5z" />
<glyph unicode="1" d="M235 1354q109 18 223 41t232 51q-10 -187 -14 -385t-4 -529q0 -38 -1.5 -100t-1.5 -86q0 -178 35.5 -228t134.5 -50q6 0 20 1t21 1v-70q-90 4 -169.5 6t-143.5 2q-52 0 -128.5 -2t-168.5 -6v68h31q106 0 143 21t51 83q9 38 15 262t6 559q0 52 -2.5 157.5t-3.5 149.5 q-58 -1 -123 -6.5t-139 -15.5z" />
<glyph unicode="2" d="M49 68q316 270 495 524t179 428q0 126 -74.5 209.5t-187.5 83.5q-85 0 -156.5 -49.5t-142.5 -157.5l-78 45q84 149 189.5 222t236.5 73q170 0 291 -117.5t121 -281.5q0 -153 -131.5 -343.5t-485.5 -531.5q45 -1 120 -2q128 -2 167 -2h125q146 0 192.5 30.5t67.5 118.5 l63 -20q-29 -79 -48 -152t-30 -145q-162 5 -279.5 7.5t-211.5 2.5q-81 0 -175 -2.5t-216 -7.5z" />
<glyph unicode="3" d="M90 147q0 30 27.5 58t56.5 28q37 0 82 -48q12 -13 18 -19q46 -49 93.5 -70.5t107.5 -21.5q127 0 214 93.5t87 233.5q0 131 -74 213t-192 82q-42 0 -89.5 -10.5t-101.5 -32.5l-28 70q199 87 299 183.5t100 201.5q0 93 -62 155t-157 62q-71 0 -136.5 -42t-129.5 -128 l-74 43q69 123 166 185.5t221 62.5q151 0 252.5 -90.5t101.5 -220.5q0 -111 -75 -196t-227 -146q8 1 18 1.5t28 0.5q164 0 258.5 -93.5t94.5 -255.5q0 -191 -162.5 -333t-380.5 -142q-136 0 -236 53.5t-100 122.5z" />
<glyph unicode="4" d="M53 545q93 113 164 202t107 138l98 135q10 14 32 44q160 223 253 374h130q-7 -198 -10.5 -412.5t-3.5 -450.5h31q44 1 96.5 3t126.5 7q-15 -55 -21.5 -83.5t-10.5 -52.5q-56 3 -111.5 4.5t-110.5 1.5v-211q0 -118 25.5 -146t105.5 -28h27v-70q-69 4 -132.5 6t-113.5 2 q-42 0 -103 -2t-136 -6v70q6 0 18 -1t18 -1q80 0 107 36t27 170v76v105q-64 0 -152.5 1t-112.5 1q-29 0 -137.5 -2t-169.5 -2zM223 584q13 -1 36 -1q233 -8 335 -8h72v633z" />
<glyph unicode="5" d="M119 147q0 30 27.5 58t56.5 28q38 0 86 -52q9 -10 14 -15q48 -50 94 -71t103 -21q132 0 216.5 98t84.5 256q0 142 -80.5 223.5t-218.5 81.5q-56 0 -109.5 -17t-103.5 -50l-80 34l90 717q130 -5 207 -7.5t127 -2.5q103 0 184.5 5t147.5 15q-20 -44 -35 -87.5t-25 -86.5 q-96 -8 -179 -12t-157 -4q-36 0 -138 3q-25 1 -38 1l-67 -432q68 33 129.5 48t122.5 15q176 0 293.5 -117t117.5 -294q0 -203 -156.5 -346.5t-377.5 -143.5q-136 0 -236 53.5t-100 122.5z" />
<glyph unicode="6" d="M127 571q0 374 201 622.5t489 248.5q76 0 116 -26.5t40 -76.5q0 -32 -18 -52.5t-46 -20.5q-10 0 -76 20.5t-122 20.5q-170 0 -273.5 -145t-118.5 -406q100 70 175.5 100.5t148.5 30.5q165 0 275 -124.5t110 -313.5q0 -209 -128 -343.5t-327 -134.5q-201 0 -323.5 163 t-122.5 437zM311 569q0 -242 74.5 -369.5t214.5 -127.5q116 0 186 85.5t70 229.5q0 166 -78 265.5t-207 99.5q-58 0 -122.5 -25t-134.5 -75q-2 -16 -2.5 -33t-0.5 -50z" />
<glyph unicode="7" d="M123 1110q19 73 30.5 148.5t16.5 158.5q132 -5 220.5 -7.5t154.5 -2.5q125 0 249 2t248 6l29 -59q-95 -113 -264.5 -495t-331.5 -869h-213q166 317 321 628.5t302 622.5q-79 1 -203 2.5t-156 1.5h-90q-142 0 -183.5 -31t-59.5 -124z" />
<glyph unicode="8" d="M123 342q0 120 78.5 218t234.5 173q-137 62 -203.5 148.5t-66.5 203.5q0 147 121 255t286 108q155 0 261 -94t106 -232q0 -108 -67 -194t-201 -152q168 -72 245.5 -166.5t77.5 -226.5q0 -170 -133.5 -292t-320.5 -122q-175 0 -296.5 109.5t-121.5 263.5zM297 362 q0 -132 76 -214t198 -82q106 0 181 80.5t75 195.5t-73.5 191.5t-253.5 144.5q-104 -67 -153.5 -144.5t-49.5 -171.5zM332 1124q0 -93 69 -167.5t209 -131.5q90 56 134 128.5t44 162.5q0 103 -65 170.5t-166 67.5q-94 0 -159.5 -67.5t-65.5 -162.5z" />
<glyph unicode="9" d="M98 977q0 204 124 336.5t317 132.5q212 0 332 -160t120 -444q0 -377 -197 -623t-489 -246q-74 0 -113.5 25t-39.5 72q0 32 18 49.5t51 17.5q12 0 70.5 -17.5t107.5 -17.5q180 0 280 144t122 432q-86 -67 -166 -100t-158 -33q-161 0 -270 123t-109 309zM272 1038 q0 -161 77.5 -257.5t207.5 -96.5q59 0 121 25.5t129 76.5q0 282 -70.5 419.5t-214.5 137.5q-115 0 -182.5 -81.5t-67.5 -223.5z" />
<glyph unicode=":" horiz-adv-x="569" d="M135 117q0 19 10.5 35.5t49.5 48.5l71 59l80 -59q33 -25 48.5 -45.5t15.5 -38.5q0 -24 -13.5 -44t-46.5 -44l-78 -58l-73 58q-36 26 -50 46t-14 42zM135 772q0 19 10.5 35.5t49.5 48.5l71 59l80 -59q33 -25 48.5 -45t15.5 -39q0 -24 -13.5 -44t-46.5 -44l-78 -57l-73 57 q-36 26 -50 46t-14 42z" />
<glyph unicode=";" horiz-adv-x="569" d="M68 -246q66 52 107 112t58 132q-56 35 -78 60t-22 51q0 19 13.5 38t60.5 58l59 47q82 -63 107.5 -100t25.5 -82q0 -74 -75.5 -178.5t-202.5 -202.5zM135 772q0 19 10.5 35.5t49.5 48.5l71 59l80 -59q33 -25 48.5 -45t15.5 -39q0 -24 -13.5 -44t-46.5 -44l-78 -57l-73 57 q-36 26 -50 46t-14 42z" />
<glyph unicode="&#x3c;" horiz-adv-x="1706" d="M264 559v103l1178 483v-127l-1000 -408l1000 -405v-129z" />
<glyph unicode="=" horiz-adv-x="1706" d="M254 360v117h1198v-117h-1198zM254 743v117h1198v-117h-1198z" />
<glyph unicode="&#x3e;" horiz-adv-x="1706" d="M264 76v129l1000 405l-1000 408v127l1178 -483v-103z" />
<glyph unicode="?" horiz-adv-x="963" d="M98 1303q0 66 64 108.5t166 42.5q198 0 330.5 -118.5t132.5 -295.5q0 -137 -77 -231.5t-281 -193.5q-6 -3 -17 -8q-86 -40 -86 -169v-47l-76 1q1 16 1.5 36t0.5 59q0 58 -2.5 118.5t-7.5 123.5q193 46 301 142t108 221q0 98 -68 162.5t-171 64.5q-72 0 -151 -46t-97 -46 q-30 0 -50 21.5t-20 54.5zM170 104q0 23 10 40t39 38l76 58l70 -54q28 -21 40.5 -41t12.5 -43t-10 -40t-37 -37l-76 -60l-72 55q-28 22 -40.5 42t-12.5 42z" />
<glyph unicode="@" horiz-adv-x="2048" d="M240 340q0 177 73 355.5t201 312.5q135 142 308.5 219.5t357.5 77.5q273 0 449.5 -163.5t176.5 -412.5q0 -145 -66 -280.5t-192 -247.5q-75 -68 -142.5 -101.5t-127.5 -33.5q-66 0 -101.5 47t-35.5 135q0 12 1.5 33.5t3.5 53.5q-173 -163 -242 -210t-116 -47 q-63 0 -96 55t-33 162t32 213.5t91 198.5q78 120 181 184.5t215 64.5q27 0 55 -5t57 -15l127 53q-68 -285 -102.5 -464.5t-34.5 -254.5q0 -45 19.5 -68.5t58.5 -23.5q109 0 210 171.5t101 383.5q0 225 -140 357.5t-376 132.5q-152 0 -292.5 -70t-252.5 -201 q-108 -126 -166.5 -279t-58.5 -308q0 -279 172.5 -450t456.5 -171q205 0 408.5 122.5t357.5 340.5l37 -60q-165 -242 -383 -373.5t-453 -131.5q-327 0 -533 195t-206 503zM817 350q0 -78 13 -107.5t44 -29.5t100.5 53.5t188.5 169.5q17 74 36.5 167.5t45.5 230.5 q-35 22 -62.5 31t-54.5 9q-59 0 -114.5 -42.5t-100.5 -122.5q-41 -75 -68.5 -178t-27.5 -181z" />
<glyph unicode="A" horiz-adv-x="1479" d="M-31 0v69q71 2 112.5 28.5t72.5 88.5q56 117 198.5 468.5t300.5 772.5h172q130 -397 246.5 -725t183.5 -493q40 -95 69 -117t83 -22h20v-70q-78 4 -142.5 6t-108.5 2q-56 0 -123 -2t-142 -6v70h19q71 0 97 16.5t26 60.5q0 16 -4 35.5t-13 46.5l-98 306q-38 0 -104 1 q-120 3 -154 3q-68 0 -128.5 -0.5t-125.5 -2.5q-71 -179 -97 -261t-26 -117q0 -49 26 -68.5t93 -19.5h27v-70q-73 4 -136.5 6t-113.5 2q-40 0 -100 -2t-130 -6zM469 641q19 0 55 -1q113 -3 154 -3q50 0 181 3q29 1 44 1l-205 598z" />
<glyph unicode="B" horiz-adv-x="1274" d="M76 -2v67q7 -1 13.5 -1.5t19.5 -0.5q133 0 135 374q1 94 2 147l4 273q1 88 1.5 171t0.5 180q0 86 -32 119t-114 33h-8v70q64 -5 125.5 -7t124.5 -2q70 0 172 4.5t133 4.5q206 0 325.5 -91.5t119.5 -246.5q0 -109 -58.5 -188.5t-193.5 -153.5q176 -34 263 -120t87 -227 q0 -183 -145 -295t-387 -112q-44 0 -165 5t-200 5q-33 0 -91.5 -2t-131.5 -6zM426 451q0 -62 1 -131.5t3 -189.5q58 -17 114 -25.5t109 -8.5q164 0 254 80t90 223q0 152 -101 225.5t-310 73.5q-34 0 -68.5 -0.5t-89.5 -3.5q0 -42 -1 -123.5t-1 -119.5zM428 787 q23 -2 49.5 -2.5t79.5 -0.5q57 0 105.5 2t93.5 7q73 52 110 117.5t37 144.5q0 127 -81 200.5t-222 73.5q-31 0 -71.5 -4t-91.5 -12q-3 -134 -5.5 -311t-3.5 -215z" />
<glyph unicode="C" horiz-adv-x="1448" d="M84 713q0 330 217 537.5t561 207.5q102 0 215.5 -19t235.5 -57v-34q0 -70 5 -145.5t15 -158.5l-73 -12q-20 144 -136 224.5t-303 80.5q-249 0 -384.5 -152.5t-135.5 -432.5q0 -299 155.5 -483.5t403.5 -184.5q156 0 270.5 72t178.5 211l67 -33q-32 -65 -58 -132.5 t-46 -135.5q-108 -49 -220 -74t-225 -25q-332 0 -537.5 205.5t-205.5 540.5z" />
<glyph unicode="D" horiz-adv-x="1599" d="M76 0v69q6 0 13 -0.5t20 -0.5q133 0 135 371q1 94 2 147l4 266q1 86 1.5 167.5t0.5 186.5q0 86 -32 119t-114 33h-8v69q66 -3 122.5 -5.5t94.5 -2.5q110 0 242.5 8.5t155.5 8.5q372 0 586 -189t214 -514q0 -334 -214.5 -537.5t-573.5 -203.5q-53 0 -193 8t-227 8 q-41 0 -100 -2t-129 -6zM430 121q73 -16 143.5 -23.5t141.5 -7.5q282 0 432.5 154t150.5 440q0 305 -162 478t-450 173q-59 0 -120 -4.5t-125 -13.5q-6 -364 -8.5 -574t-2.5 -350v-272z" />
<glyph unicode="E" horiz-adv-x="1298" d="M76 0v65q7 -1 13.5 -1t19.5 -1q133 0 135 374q1 94 2 147l4 273q1 88 1.5 171t0.5 180q0 86 -32 119t-114 33h-8v67q175 -6 313 -9t238 -3q111 0 224.5 3t230.5 9q1 -75 6 -153.5t12 -157.5l-67 -6q-8 120 -74 162.5t-285 42.5q-56 0 -205 -3q-30 -1 -44 -1 q-2 -120 -6 -294t-5 -226h31q59 0 147.5 -1.5t118.5 -1.5q145 0 191.5 27t50.5 100l63 -6q-7 -62 -10.5 -115t-3.5 -98q0 -26 5 -112q2 -31 3 -47l-65 -2v8q0 85 -49.5 115t-231.5 30h-178h-72q0 -49 -1 -135.5t-1 -124.5q0 -66 1 -137.5t4 -167.5q50 -6 113.5 -9t139.5 -3 q251 0 330.5 48.5t126.5 186.5l72 -24q-30 -83 -53 -163t-40 -159q-157 6 -292 9t-244 3q-149 0 -480 -11z" />
<glyph unicode="F" horiz-adv-x="1198" d="M76 0v65q8 -1 15.5 -1.5t23.5 -0.5q80 0 108.5 52.5t28.5 234.5q0 30 -1 107t-1 127v272q0 55 1 172.5t1 179.5q0 85 -32.5 118.5t-113.5 33.5h-16v67q207 -5 335.5 -7.5t217.5 -2.5q97 0 209.5 2.5t251.5 7.5q0 -69 4.5 -145.5t13.5 -173.5l-69 -8q-7 127 -71 171 t-286 44q-78 0 -243 -4h-6q-2 -148 -6 -329.5t-5 -201.5h33q56 0 139 -1t113 -1q147 0 194.5 27t51.5 100l63 -4q-8 -75 -11 -123.5t-3 -89.5q0 -30 1.5 -71t4.5 -92l-66 -5v17q0 82 -49 111.5t-227 29.5h-172h-72v-389q0 -144 32 -181.5t130 -37.5h39v-70q-76 4 -149.5 6 t-143.5 2q-35 0 -106.5 -2t-161.5 -6z" />
<glyph unicode="G" horiz-adv-x="1520" d="M84 705q0 334 224.5 543.5t582.5 209.5q108 0 217.5 -19.5t220.5 -58.5q2 -74 10 -150.5t23 -156.5l-76 -16q-28 142 -134 210t-300 68q-262 0 -406.5 -154t-144.5 -436q0 -303 165 -484t437 -181q57 0 115 11.5t123 35.5q3 77 4.5 131t1.5 88q0 171 -38 205.5t-167 34.5 h-14v67q85 -4 157.5 -6t122.5 -2q73 0 136.5 2t121.5 6v-67q-84 0 -109.5 -32.5t-25.5 -201.5v-104q0 -77 2 -119.5t6 -81.5q-33 -7 -99 -22q-259 -58 -392 -58q-347 0 -555.5 202t-208.5 536z" />
<glyph unicode="H" horiz-adv-x="1626" d="M72 0v69q6 0 13.5 -0.5t20.5 -0.5q78 0 106 50t28 214q0 31 -1 115.5t-1 138.5v266q0 50 1 127.5t1 105.5q0 173 -28.5 224t-107.5 51q-3 0 -12 -1t-14 -1v69q71 -4 136 -6t118 -2q61 0 125 2t131 6v-69h-27q-82 0 -110.5 -43.5t-28.5 -231.5v-49v-246q65 -2 137.5 -3 t202.5 -1q133 0 231.5 1t200.5 3v279q0 199 -28.5 245t-110.5 46h-27v69q67 -4 131.5 -6t126.5 -2q53 0 117 2t135 6v-69q-5 0 -14 1t-13 1q-77 0 -105 -48.5t-28 -207.5q0 -30 1 -114t1 -138v-266q0 -54 -1 -138.5t-1 -115.5q0 -164 28 -214t105 -50q14 0 21.5 0.5 t13.5 0.5v-69q-79 4 -146.5 6t-113.5 2q-54 0 -121.5 -2t-144.5 -6v70q6 0 18 -1t17 -1q82 0 110.5 45t28.5 217v121v219h-13q-257 4 -376 4q-90 0 -172 -2h-12q-43 0 -93 -0.5t-106 -1.5v-238v-80q0 -192 29 -238t112 -46q5 0 17 1t18 1v-70q-77 4 -144.5 6t-121.5 2 q-46 0 -113 -2t-147 -6z" />
<glyph unicode="I" horiz-adv-x="696" d="M66 0v70h20q62 0 95 11t46 36q14 27 19.5 88.5t5.5 222.5v158v391q0 157 -4 223.5t-13 92.5q-12 35 -43.5 50t-97.5 15h-18v69q70 -4 139 -6t135 -2q56 0 125 2t146 6v-69h-17q-65 0 -97.5 -15t-45.5 -50q-8 -23 -11.5 -74.5t-3.5 -167.5v-199v-498q0 -118 5.5 -166 t17.5 -71q13 -25 46.5 -36t94.5 -11h21v-70q-86 4 -159 6t-122 2q-58 0 -131 -2t-153 -6z" />
<glyph unicode="J" horiz-adv-x="680" d="M-172 -264q0 38 23 67t55 29q24 0 83.5 -31.5t96.5 -31.5q81 0 116.5 78t35.5 266v1077q0 101 -30.5 134.5t-119.5 33.5h-20v69q11 0 35 -1q159 -7 225 -7q64 0 221 7q25 1 37 1l-1 -69q-65 -2 -93.5 -16t-40.5 -50q-11 -28 -15 -124.5t-4 -442.5q0 -118 2 -272t2 -191 q0 -172 -22.5 -265t-75.5 -171q-66 -95 -154 -144t-194 -49q-82 0 -122 25.5t-40 77.5z" />
<glyph unicode="K" horiz-adv-x="1419" d="M72 0v69q6 0 13 -0.5t19 -0.5q79 0 107.5 55.5t28.5 247.5q0 26 -1 98t-1 117v266q0 50 1 127.5t1 105.5q0 173 -28.5 224t-107.5 51q-3 0 -12 -1t-14 -1v69q71 -4 136 -6t118 -2q62 0 126 2t130 6v-67h-13q-90 0 -120.5 -45t-30.5 -232v-731q0 -196 29 -240t116 -44 q5 0 16 1t17 1v-70q-75 4 -143.5 6t-126.5 2q-46 0 -113 -2t-147 -6zM424 696l385 416q26 29 71 76q101 109 101 129q0 22 -19.5 32.5t-62.5 10.5h-25v67q64 -4 127 -6t123 -2q43 0 99 2t123 6v-67h-9q-114 0 -219 -99l-10 -10l-496 -475l457 -459l51 -51q193 -198 283 -198 q11 0 17 0.5t9 1.5l1 -70q-16 1 -43 2q-104 6 -142 6t-86.5 -2t-103.5 -6l1.5 4.5t0.5 5.5q0 52 -319 369q-193 193 -314 317z" />
<glyph unicode="L" horiz-adv-x="1171" d="M76 0v65q7 -1 13.5 -1.5t19.5 -0.5q135 1 136 385q0 87 1 136l2 272q0 44 1 113t1 96q0 184 -29.5 239.5t-114.5 55.5h-8v70q107 -6 162.5 -8t89.5 -3q65 0 127.5 2.5t124.5 7.5v-69h-31q-79 0 -107 -54.5t-28 -250.5v-199l3 -733q56 -3 106.5 -4.5t95.5 -1.5 q268 0 345.5 49.5t123.5 191.5l72 -22q-31 -86 -55 -169t-42 -167q-166 5 -305.5 7.5t-261.5 2.5q-86 0 -192 -2.5t-250 -7.5z" />
<glyph unicode="M" horiz-adv-x="1864" d="M33 0v70h28q57 0 85 14t44 49q19 41 39 332q5 80 9 127l18 242v3q27 359 27 408q0 63 -30.5 88t-115.5 25h-16v69q8 0 26 -1q116 -7 162 -7q35 0 133 6q31 2 47 2v-6q0 -89 339 -840l104 -231l289 656l12 27q143 323 143 382q0 2 -1 6t-1 6q59 -3 106.5 -4.5t84.5 -1.5 q35 0 81 1.5t101 4.5v-69h-12q-87 0 -119.5 -30t-32.5 -107q0 -30 4 -134t10 -225l17 -281l1 -27q22 -374 34 -423q6 -29 37 -45t81 -16h25v-70q-79 4 -147 6t-113 2q-53 0 -119 -2t-141 -6v72q9 0 23 -1t20 -1q76 0 105.5 27t29.5 98q0 33 -1 65t-3 66l-39 860l-410 -943 q-1 -2 -4 -9q-48 -99 -71 -211h-66q-14 62 -70 190l-4 9l-403 913q-6 -107 -17 -294q-28 -464 -28 -581v-10q0 -127 28.5 -153.5t116.5 -26.5h21v-70q-65 4 -124.5 6t-115.5 2q-40 0 -99.5 -2t-127.5 -6z" />
<glyph unicode="N" horiz-adv-x="1655" d="M61 0v69q6 0 13.5 -0.5t19.5 -0.5q134 0 136 371q1 94 1 147l5 266q1 86 1.5 167.5t0.5 186.5q0 86 -33 119t-117 33h-27v69q47 -4 91.5 -6t87.5 -2q32 0 75 2t93 6q13 -33 36 -68t58 -77l825 -976q-3 152 -6 403q-8 527 -18 567q-12 46 -42.5 64t-99.5 18h-31v69 q12 0 36 -1q142 -7 200 -7q59 0 206 7q21 1 32 1l-1 -69q-6 1 -13 1.5t-19 0.5q-134 0 -136 -373q-1 -94 -1 -147l-4 -266q-2 -59 -2.5 -121.5t-0.5 -171.5q0 -121 3 -188.5t10 -108.5h-111q-17 40 -121 160l-10 12l-858 1009v-23q6 -936 20 -990q12 -46 42.5 -64t97.5 -18 h30v-70q-15 1 -44 2q-140 6 -191 6q-49 0 -108.5 -2t-125.5 -6z" />
<glyph unicode="O" horiz-adv-x="1642" d="M94 717q0 158 59.5 298.5t172.5 246.5q102 96 230 147t265 51q152 0 271.5 -43.5t216.5 -134.5q116 -110 177.5 -255t61.5 -308q0 -166 -65 -314t-185 -255q-96 -86 -223.5 -134.5t-255.5 -48.5q-160 0 -294.5 59t-237.5 175q-94 106 -143.5 238t-49.5 278zM315 760 q0 -298 150.5 -489t376.5 -191q218 0 351.5 164.5t133.5 439.5q0 291 -150 477.5t-378 186.5q-219 0 -351.5 -160t-132.5 -428z" />
<glyph unicode="P" horiz-adv-x="1206" d="M76 0v65q8 -1 15.5 -1.5t23.5 -0.5q80 0 108.5 54.5t28.5 242.5q0 28 -1 103t-1 121v626q0 86 -31 118t-113 32h-8v70q68 -5 135.5 -7t133.5 -2q74 0 176.5 4.5t132.5 4.5q219 0 350 -109t131 -287q0 -211 -143.5 -328.5t-405.5 -117.5q-26 0 -70.5 3t-105.5 9v-301 q0 -154 31.5 -193.5t126.5 -39.5q3 0 10.5 1t11.5 1q5 0 7.5 -0.5t4.5 -1.5l1 -66q-73 4 -147 6t-146 2q-35 0 -102.5 -2t-153.5 -6zM432 692q42 -6 76 -9t67 -3q188 0 285.5 83.5t97.5 244.5q0 145 -96 231t-260 86q-45 0 -85.5 -3.5t-79.5 -10.5q-3 -135 -4 -272.5 t-1 -346.5z" />
<glyph unicode="Q" horiz-adv-x="1642" d="M94 713q0 160 59.5 300t172.5 249q100 96 228 147t267 51q150 0 269.5 -44t216.5 -134q117 -111 179 -256t62 -307q0 -248 -125 -430t-354 -264l229 -138q168 -99 267 -135.5t188 -36.5q29 0 68 5t94 16l12 -62q-142 -40 -210.5 -52.5t-121.5 -12.5q-213 0 -712 338 l-41 28q-7 0 -21.5 -1t-21.5 -1q-306 0 -505.5 210t-199.5 530zM315 760q0 -301 151 -489.5t384 -188.5q214 0 345.5 164.5t131.5 437.5q0 291 -150 477.5t-378 186.5q-219 0 -351.5 -160t-132.5 -428z" />
<glyph unicode="R" horiz-adv-x="1440" d="M76 0v65q7 -1 13.5 -1.5t19.5 -0.5q133 0 135 374q1 94 2 147l4 273q1 88 1.5 171t0.5 180q0 86 -32 119t-114 33h-8v70q67 -5 132.5 -7t127.5 -2q67 0 166.5 4.5t132.5 4.5q205 0 336 -108t131 -271q0 -121 -65.5 -215.5t-196.5 -161.5l187 -283q10 -16 30 -46 q194 -296 318 -296h10v-57q-14 -1 -42 -4q-65 -6 -95 -6q-106 0 -167.5 28.5t-121.5 110.5q-10 13 -110.5 178t-202.5 311q-38 -4 -81 -6t-95 -2h-60v-307q0 -150 31 -189.5t123 -39.5q3 0 8 1t8 1q4 0 6.5 -1t3.5 -1v-66q-71 4 -141 6t-139 2q-37 0 -104 -2t-152 -6z M432 705q48 -5 90.5 -7t75.5 -2q28 0 64 1.5t78 5.5q96 58 141 134.5t45 182.5q0 139 -90 223t-242 84q-41 0 -80 -3.5t-77 -10.5q-3 -124 -4 -255t-1 -353z" />
<glyph unicode="S" horiz-adv-x="1108" d="M70 387l90 21q17 -164 103 -240t255 -76q148 0 241 74.5t93 191.5q0 166 -290 258q-41 13 -64 21q-201 65 -288 159t-87 240q0 172 136 287t341 115q75 0 152 -12t188 -42q0 -74 8.5 -146t26.5 -142l-78 -15q-17 124 -95.5 184t-221.5 60q-132 0 -214.5 -64t-82.5 -165 q0 -166 352 -284q47 -15 72 -24q161 -56 237 -143.5t76 -216.5q0 -199 -151 -322.5t-400 -123.5q-95 0 -185.5 15.5t-183.5 48.5q1 10 1.5 23.5t0.5 39.5q0 71 -8 140t-24 138z" />
<glyph unicode="T" horiz-adv-x="1292" d="M-14 1108q19 87 29 171t10 165q30 -19 121.5 -27t320.5 -8h244q304 0 391.5 7.5t122.5 27.5q0 -10 -1 -31.5t-1 -32.5q0 -63 5.5 -130t16.5 -138l-63 -12q-12 113 -61.5 154t-208.5 46h-189q-1 -57 -2 -161q-2 -273 -2 -367q0 -355 4.5 -481t15.5 -157q13 -36 43 -50 t92 -14h35v-70q-83 4 -156.5 6t-131.5 2q-51 0 -125.5 -2t-161.5 -6v70h35q71 0 101 17.5t42 64.5q9 31 12.5 225t3.5 604v319h-202q-147 0 -198.5 -39.5t-76.5 -166.5z" />
<glyph unicode="U" horiz-adv-x="1612" d="M82 1358v69q71 -4 135 -6t117 -2q64 0 130 2t134 6v-69q-6 0 -17 1t-16 1q-79 0 -107 -52t-28 -247v-158v-207q0 -162 10 -239t33 -127q49 -108 144.5 -164.5t230.5 -56.5q101 0 177 29t130 89t76 147t22 290q0 244 -5.5 410.5t-14.5 201.5q-14 46 -43.5 64t-95.5 18h-15 v69q12 0 35 -1q138 -7 197 -7q58 0 196 7q24 1 35 1v-69h-12q-59 0 -88.5 -15t-42.5 -50q-11 -29 -16 -152.5t-5 -399.5v-100q0 -158 -12 -241.5t-39 -147.5q-56 -133 -193 -209t-323 -76q-129 0 -237.5 38t-184.5 110q-83 76 -118 179.5t-35 289.5q0 72 2 235.5t2 255.5v31 q0 172 -28.5 212t-111.5 40h-18z" />
<glyph unicode="V" horiz-adv-x="1468" d="M14 1364v63q75 -4 142 -6t118 -2q64 0 130.5 2t136.5 6l-1 -63q-84 -7 -111.5 -22t-27.5 -52q0 -28 10.5 -70.5t37.5 -117.5l301 -842q241 605 303.5 784.5t62.5 235.5q0 46 -24.5 63t-112.5 21v63q60 -4 118.5 -6t114.5 -2q48 0 107 2t123 6v-63h-15q-110 0 -187 -194 q-17 -44 -28 -68q-282 -677 -363 -881t-85 -237h-123q0 24 -93 299t-225 623q-9 25 -26 71q-145 389 -256 389q-10 0 -15.5 -0.5t-11.5 -1.5z" />
<glyph unicode="W" horiz-adv-x="2124" d="M18 1427q64 -4 121 -6t105 -2q57 0 117 2t122 6v-69q-72 0 -95 -13t-23 -51q0 -41 49 -180l4 -10l299 -854l307 764l-61 196q-32 100 -59 125t-85 25q-16 0 -24.5 -0.5t-15.5 -1.5l-1 69q92 -5 148 -7.5t96 -2.5q38 0 97.5 2.5t160.5 7.5v-69h-27q-72 0 -95 -13.5 t-23 -50.5q0 -22 7.5 -54t35.5 -116l284 -874q39 109 106 302q234 664 234 728q0 45 -24 61.5t-99 16.5h-26v69q63 -4 120.5 -6t104.5 -2q54 0 110.5 2t114.5 6v-69h-16q-28 0 -47.5 -5t-34.5 -16q-32 -25 -177 -412l-44 -118l-84 -221q-37 -99 -98 -260 q-110 -289 -121 -342h-117q-14 52 -43 141l-14 42l-232 697l-270 -671q-3 -8 -12 -30q-42 -97 -64 -179h-117q-7 50 -118 354q-52 143 -82 227l-109 299q-27 76 -69 201q-101 297 -185 297q-5 0 -11.5 -1t-18.5 -3z" />
<glyph unicode="X" horiz-adv-x="1456" d="M18 0v69q5 0 11.5 -0.5t17.5 -0.5q100 0 234 180l1 1l349 466l-320 483q-3 5 -11 17q-95 143 -189 143h-19v69q69 -4 131 -6t113 -2q61 0 125 2t131 6v-69h-37q-36 0 -56 -11t-20 -30q0 -17 20 -55t74 -121l177 -271l153 222q80 115 103.5 156.5t23.5 62.5q0 23 -23 35 t-67 12h-20v69q62 -4 118.5 -6t100.5 -2q53 0 108.5 2t114.5 6l-1 -69q-5 1 -10.5 1.5t-17.5 0.5q-92 0 -225 -184q-31 -44 -49 -68l-248 -330l344 -504q91 -135 137 -170.5t101 -35.5q10 0 15 0.5t9 0.5v-69q-78 4 -146.5 6t-123.5 2q-45 0 -112 -2t-146 -6v70h26 q52 0 76.5 12t24.5 37q0 26 -57 110l-9 13l-258 383l-176 -252q-82 -117 -115.5 -175t-33.5 -81q0 -25 24.5 -37t73.5 -12q6 0 17.5 1t17.5 1v-70q-73 4 -134.5 6t-103.5 2q-49 0 -111.5 -2t-132.5 -6z" />
<glyph unicode="Y" horiz-adv-x="1350" d="M18 1427q74 -4 139 -6t115 -2q54 0 116 2t130 6v-69h-14q-55 0 -84 -11.5t-29 -33.5q0 -24 49 -108q13 -22 21 -36l241 -430q164 263 246 406t82 166q0 24 -24.5 35.5t-79.5 11.5h-17v69q60 -4 114 -6t95 -2q51 0 104 2t109 6v-69q-2 1 -5 1.5t-9 0.5h-12 q-89 0 -231 -228q-44 -71 -70 -112l-252 -385l4 -357q2 -139 32 -173.5t119 -34.5h35v-70q-83 4 -157.5 6t-133.5 2q-50 0 -124.5 -2t-161.5 -6v70q7 0 21 -1t20 -1q87 0 118 40t33 166l4 355l-323 545q-9 13 -23 38q-89 150 -162 150q-5 0 -12.5 -1t-21.5 -3z" />
<glyph unicode="Z" horiz-adv-x="1366" d="M39 59q53 44 139 159q11 14 17 22l790 1060h-336q-289 0 -374 -43t-107 -165l-66 18q24 75 37 153.5t17 163.5q83 -9 193.5 -13.5t305.5 -4.5h119h119q121 0 209 4.5t168 13.5l28 -55q-38 -35 -76.5 -78.5t-86.5 -107.5l-790 -1053q63 -1 131.5 -1.5t191.5 -0.5 q190 0 290.5 5t149.5 16q57 11 100 65.5t80 163.5l68 -21q-32 -95 -54.5 -184t-35.5 -176q-114 11 -267.5 17t-355.5 6h-76q-168 0 -280.5 -5.5t-214.5 -17.5z" />
<glyph unicode="[" horiz-adv-x="858" d="M275 -358q7 352 11.5 661t4.5 549q0 274 -0.5 417t-1.5 269q49 -4 99.5 -6t133.5 -2h260v-86h-57q-53 0 -121.5 -4t-159.5 -13l-14 -1675q62 -10 125.5 -15t130.5 -5q19 0 39.5 0.5t42.5 1.5v-86h-238q-44 0 -108.5 -1.5t-146.5 -4.5z" />
<glyph unicode="\" horiz-adv-x="944" d="M-45 1509l106 50q145 -285 353 -676.5t551 -1023.5l-107 -49q-145 287 -715 1348z" />
<glyph unicode="]" horiz-adv-x="858" d="M80 -265q18 0 39 -1.5t24 -1.5q85 0 265 19l11 1l3 1675q-45 3 -121 9q-118 8 -151 8h-64v86h197q105 0 170 2t127 6q-6 -389 -8.5 -578.5t-2.5 -306.5q0 -193 1 -454.5t3 -556.5q-112 3 -190.5 4.5t-126.5 1.5h-176v87z" />
<glyph unicode="^" horiz-adv-x="2048" d="M412 897l522 565h178l520 -565h-92l-518 436l-520 -436h-90z" />
<glyph unicode="_" horiz-adv-x="1024" d="M0 -365h1024v-118h-1024v118z" />
<glyph unicode="`" horiz-adv-x="1024" d="M252 1460l147 90l265 -405l-76 -25z" />
<glyph unicode="a" horiz-adv-x="985" d="M74 246q0 187 403 282q95 22 148 35q0 17 1 49q3 66 3 86q0 104 -43 153.5t-131 49.5q-86 0 -135.5 -31.5t-49.5 -85.5q0 -5 1 -13.5t1 -12.5q0 -31 -30 -51.5t-72 -20.5q-36 0 -53 12t-17 37q0 80 135 178.5t279 98.5q139 0 211 -76.5t72 -224.5q0 -80 -9.5 -246 t-9.5 -252q0 -65 14.5 -88t51.5 -23q16 0 41.5 9.5t75.5 33.5l28 -63q-75 -54 -137 -83.5t-100 -29.5q-64 0 -96 37.5t-35 113.5q-109 -73 -181 -104.5t-129 -31.5q-101 0 -169 76t-68 186zM238 258q0 -66 42 -107.5t111 -41.5q42 0 97 22t128 70l4 282l-57 -15 q-325 -89 -325 -210z" />
<glyph unicode="b" d="M41 1464q77 16 156 37t159 49l-1 -36q-15 -392 -15 -574v-66q103 69 181 99.5t151 30.5q165 0 284 -136.5t119 -330.5q0 -246 -157 -398.5t-418 -152.5q-86 0 -168 11t-162 34q6 335 9 531.5t3 254.5v133q0 52 1 132t1 108q0 132 -15.5 174.5t-57.5 42.5 q-10 0 -24.5 -1.5t-34.5 -4.5zM342 485q0 -152 4 -236t12 -118q46 -24 92 -35.5t99 -11.5q166 0 261 103.5t95 285.5q0 178 -85.5 288.5t-221.5 110.5q-57 0 -118 -19t-136 -60q-1 -87 -1.5 -164.5t-0.5 -143.5z" />
<glyph unicode="c" horiz-adv-x="915" d="M66 471q0 227 157 384t383 157q116 0 179 -32.5t63 -90.5q0 -42 -25.5 -72.5t-58.5 -30.5q-11 0 -92.5 50.5t-155.5 50.5q-130 0 -206.5 -93.5t-76.5 -254.5q0 -203 92.5 -316.5t256.5 -113.5q61 0 121.5 21t125.5 67l50 -76q-97 -74 -191 -112t-178 -38 q-196 0 -320 140.5t-124 359.5z" />
<glyph unicode="d" horiz-adv-x="1151" d="M66 469q0 236 141 381t366 145q51 0 107.5 -9.5t122.5 -29.5q0 9 1 27q5 175 5 315q0 63 -19.5 89t-64.5 26q-10 0 -25 -2.5t-41 -7.5l-12 65q74 13 157 33.5t179 48.5l-1 -18q-12 -355 -19 -686l-2 -156q-2 -55 -3.5 -146.5t-1.5 -201.5v-39q0 -156 11 -193.5t43 -37.5 q19 0 39.5 4t42.5 12l16 -63q-70 -27 -137 -40.5t-135 -13.5l-29 1q-7 43 -10.5 79.5t-3.5 69.5q-114 -73 -188 -101t-144 -28q-175 0 -285 132.5t-110 344.5zM229 528q0 -186 82.5 -295.5t220.5 -109.5q55 0 118.5 21t142.5 65l6 612q-67 38 -127 56t-121 18 q-154 0 -238 -96t-84 -271z" />
<glyph unicode="e" horiz-adv-x="999" d="M74 465q0 231 132 388t322 157q177 0 282 -118t120 -333h-488q-57 0 -105 -2t-89 -6v-37q0 -196 90.5 -303t255.5 -107q73 0 144 24.5t151 76.5l39 -64q-103 -84 -205.5 -127t-202.5 -43q-194 0 -320 138.5t-126 355.5zM254 633q198 0 311.5 7t179.5 24 q-30 123 -91 188.5t-146 65.5q-96 0 -164.5 -77t-89.5 -208z" />
<glyph unicode="f" horiz-adv-x="655" d="M74 0v68h26q69 0 93 42t24 183q0 27 -1 108.5t-1 135.5q0 74 -0.5 156.5t-1.5 174.5h-66q-2 0 -26.5 -1.5t-46.5 -2.5v74q43 2 77 12t62 29v18q0 254 120 402.5t326 148.5q94 0 146.5 -31t52.5 -85q0 -36 -20.5 -60t-49.5 -24q-18 0 -93.5 39.5t-123.5 39.5 q-105 0 -149.5 -80t-44.5 -284v-19l2 -83h67q52 0 102 1.5t97 3.5q0 -4 -1 -13q-3 -64 -3 -89l-12 1q-139 7 -203 7h-43q0 -107 -2 -233v-45q0 -229 3 -326t11 -131q10 -40 41.5 -54.5t120.5 -14.5v-68q-98 6 -151 8t-89 2q-32 0 -83 -2t-160 -8z" />
<glyph unicode="g" horiz-adv-x="1057" d="M80 -233q0 68 43.5 133.5t152.5 154.5q-45 41 -74.5 84t-47.5 94q36 34 79 64.5t95 60.5q-101 32 -158 107t-57 174q0 155 114.5 262t286.5 107q63 0 118 -16.5t111 -51.5q67 0 135.5 2t137.5 6l-5 -100q-44 5 -96.5 7.5t-121.5 2.5q47 -36 71.5 -87.5t24.5 -113.5 q0 -135 -112.5 -232t-276.5 -97q-17 0 -48 2.5t-44 3.5q-27 -18 -51 -37.5t-44 -40.5q15 -28 34.5 -51.5t45.5 -44.5q31 0 89 1q140 3 184 3q181 0 260.5 -55t79.5 -177q0 -78 -43.5 -157.5t-122.5 -145.5q-81 -67 -186.5 -105t-209.5 -38q-155 0 -259.5 82t-104.5 199z M229 -172q0 -93 83.5 -157t209.5 -64q143 0 247.5 79.5t104.5 178.5q0 81 -51 114t-196 33q-15 0 -66 1t-86 1h-151q-49 -55 -72 -100t-23 -86zM281 682q0 -132 57.5 -205.5t161.5 -73.5q105 0 165 66.5t60 183.5q0 135 -57 208t-162 73q-107 0 -166 -66t-59 -186z" />
<glyph unicode="h" horiz-adv-x="1200" d="M45 1v69q6 0 17 -1t16 -1q69 0 93 36.5t24 212.5v74l4 752v172q0 43 -18.5 64.5t-55.5 21.5q-14 0 -46 -6q-8 -2 -11 -2l-15 65q82 16 161 37.5t158 50.5q-4 -168 -7 -343t-4 -359q112 85 200 125.5t160 40.5q147 0 221 -83t74 -249q0 -1 -1 -88t-1 -174q0 -37 -1 -92.5 t-1 -75.5q0 -112 20 -146t76 -34q3 0 11.5 1t13.5 1v-70q-91 6 -137 8t-76 2q-48 0 -103.5 -2.5t-115.5 -7.5l-1 70h15q128 0 131 234v20l2 215v41q0 182 -43 241.5t-148 59.5q-57 0 -126.5 -28t-163.5 -89l-5 -356q0 -30 -1 -77t-1 -65q0 -124 20 -161t77 -37q4 0 12.5 1 t13.5 1v-70q-63 5 -118.5 7.5t-96.5 2.5q-39 0 -90 -2t-133 -7z" />
<glyph unicode="i" horiz-adv-x="608" d="M63 0v70h25q124 0 125 244v55l4 247q0 27 1 68t1 55q0 81 -15.5 107t-56.5 26q-8 0 -23.5 -1.5t-33.5 -3.5l-10 63q79 15 157.5 38t157.5 54q-1 -38 -3 -108q-13 -402 -13 -566v-106q0 -116 22 -146t86 -30q6 0 16 1t15 1v-68q-85 6 -137 8t-88 2q-32 0 -81.5 -2 t-148.5 -8zM162 1358q0 22 10 38.5t41 39.5l74 57l71 -53q28 -21 41 -42t13 -44t-10.5 -39.5t-39.5 -38.5l-75 -57l-70 55q-29 23 -42 42.5t-13 41.5z" />
<glyph unicode="j" horiz-adv-x="561" d="M-84 -535l4 80q151 13 215 116t64 343v723q0 95 -15 120t-55 25q-9 0 -21.5 -1.5t-29.5 -3.5l-12 63q86 16 162.5 39t146.5 53q-6 -154 -9.5 -312t-3.5 -339v-140q0 -251 -8 -349t-28 -150q-47 -123 -151 -195t-234 -72h-25zM141 1358q0 22 10.5 38.5t41.5 39.5l73 57 l72 -53q27 -21 40 -42t13 -44t-10 -39.5t-39 -38.5l-76 -57l-69 55q-30 23 -43 42.5t-13 41.5z" />
<glyph unicode="k" horiz-adv-x="1118" d="M51 0v70h15q52 0 78 14.5t38 50.5q15 51 18 472q1 39 1 59l2 194q1 65 3.5 177.5t2.5 156.5q0 123 -17.5 165t-64.5 42q-14 0 -46 -6q-8 -2 -11 -2l-15 65q82 16 161 37.5t158 50.5q-7 -349 -11.5 -623t-4.5 -372v-361q0 -81 24.5 -100t106.5 -20v-70q-69 6 -124 9t-97 3 q-64 0 -114.5 -3t-102.5 -9zM358 532q55 52 147 135q202 184 202 220q0 12 -19 19t-53 7h-14v68q63 -3 110.5 -4.5t81.5 -1.5q45 0 97 1.5t109 4.5l1 -67q-4 0 -9.5 0.5t-15.5 0.5q-107 0 -367 -239q-67 -61 -104 -94l355 -382q10 -11 29 -33q85 -99 163 -99q11 0 17.5 0.5 t11.5 0.5l-3 -69q-58 5 -100.5 7.5t-76.5 2.5q-16 0 -40.5 -1.5t-98.5 -8.5l-1 20q0 40 -60 106q-16 17 -24 26z" />
<glyph unicode="l" horiz-adv-x="598" d="M55 70q7 0 17.5 -1t15.5 -1q70 0 93.5 36.5t23.5 212.5v74l4 752v172q0 43 -18.5 64.5t-55.5 21.5q-14 0 -52 -7q-5 -1 -7 -1l-15 65q84 14 162.5 36t153.5 52q-6 -186 -7 -484q-1 -115 -1 -165l-2 -205v-155v-209v-82q0 -115 25.5 -145.5t96.5 -30.5h23v-70 q-69 5 -129.5 7.5t-106.5 2.5q-47 0 -103 -2.5t-117 -7.5z" />
<glyph unicode="m" horiz-adv-x="1802" d="M53 70h19q125 0 126 243q0 36 1 56l2 245v99q0 98 -15 128.5t-55 30.5q-8 0 -20.5 -2t-26.5 -6l-12 62q74 20 149 44t149 52q-4 -41 -7 -79.5t-4 -77.5q136 86 212 115.5t146 29.5q85 0 144.5 -39t101.5 -123q134 89 219 125.5t153 36.5q146 0 212.5 -89t66.5 -288v-21 l-4 -329q0 -50 -2 -91v-4q0 -72 22 -95t88 -23h23v-70q-97 6 -145 8t-78 2q-32 0 -79.5 -2t-135.5 -8v70q6 -1 15 -1.5t25 -0.5q64 0 85.5 41.5t21.5 201.5v146q0 36 1 95t1 83q0 128 -46.5 188t-143.5 60q-47 0 -112 -25t-161 -80l-7 -493v-82q0 -90 22 -111.5t92 -21.5h12 v-69q-79 4 -132 6.5t-91 2.5t-89 -2.5t-107 -7.5l-1 70q70 0 91 11.5t30 53.5q7 33 10.5 167t3.5 343q0 125 -44.5 181.5t-141.5 56.5q-47 0 -112.5 -24.5t-157.5 -76.5q-6 -163 -8.5 -283t-2.5 -218q0 -153 20.5 -183t86.5 -30q5 0 15.5 1t17.5 1l-1 -70q-62 5 -120 7.5 t-109 2.5q-44 0 -98 -2.5t-114 -7.5z" />
<glyph unicode="n" horiz-adv-x="1196" d="M53 70h19q125 0 126 243q0 36 1 56l2 245v99q0 98 -15 128.5t-55 30.5q-8 0 -20.5 -2t-26.5 -6l-12 62q75 14 150.5 38t154.5 58l-12 -168q113 82 196.5 119t153.5 37q147 0 221 -83t74 -249q0 -1 -1 -88t-1 -174q0 -37 -1 -92.5t-1 -75.5q0 -112 20 -146t76 -34 q3 0 11.5 1t12.5 1v-70q-90 6 -136 8t-77 2q-48 0 -104 -2.5t-114 -7.5l-1 70h15q128 0 130 234q1 13 1 20l2 215v36q0 185 -43 245.5t-148 60.5q-58 0 -128.5 -27.5t-149.5 -81.5q-4 -104 -6 -196.5t-2 -167.5v-138q0 -132 19.5 -167t76.5 -35q4 0 12.5 1t13.5 1v-70 q-86 6 -135.5 8t-81.5 2q-30 0 -79 -2t-137 -8z" />
<glyph unicode="o" horiz-adv-x="1128" d="M68 481q0 220 149.5 374.5t357.5 154.5q211 0 349.5 -141.5t138.5 -350.5q0 -230 -146 -387.5t-360 -157.5t-351.5 144t-137.5 364zM252 545q0 -211 90.5 -342t235.5 -131q140 0 223.5 104t83.5 283q0 196 -94.5 321t-241.5 125q-134 0 -215.5 -97.5t-81.5 -262.5z" />
<glyph unicode="p" horiz-adv-x="1147" d="M27 -444q65 0 88 6.5t35 23.5q26 45 28 408v117l2 227v280v50q0 124 -14.5 155t-56.5 31q-10 0 -24 -2t-30 -6l-10 61q85 24 162.5 55.5t150.5 71.5l-8 -160q91 63 169.5 92t154.5 29q165 0 276 -131.5t111 -326.5q0 -254 -141.5 -397.5t-391.5 -143.5q-46 0 -93 9.5 t-93 27.5v-357q0 -118 173 -120h1v-72q-66 5 -127.5 7.5t-116.5 2.5q-33 0 -86 -2t-159 -8v72zM342 279q0 -19 1 -63.5t1 -70.5q60 -29 120 -45t114 -16q148 0 232.5 97.5t84.5 271.5q0 188 -83 300.5t-218 112.5q-58 0 -121.5 -19t-122.5 -54q-4 -146 -6 -276t-2 -238z" />
<glyph unicode="q" horiz-adv-x="1143" d="M66 457q0 234 145 386t369 152q60 0 125.5 -13.5t142.5 -43.5q36 19 65.5 39.5t52.5 41.5q-4 -166 -7 -333t-5 -344v-225v-133q0 -26 -1 -65t-1 -52v-123q0 -126 20 -160.5t77 -34.5q15 0 23 0.5t17 1.5l1 -65q-16 0 -46 1q-155 3 -215 3q-29 0 -128 -2q-58 -1 -93 -2v65 h45q62 0 86 12.5t35 45.5q13 39 16 439q0 41 1 63q-98 -67 -168.5 -94t-141.5 -27q-183 0 -299 130.5t-116 336.5zM233 532q0 -182 91.5 -299.5t228.5 -117.5q47 0 106.5 19.5t128.5 58.5q3 86 4 164.5t1 154.5q0 120 -2.5 185.5t-8.5 123.5q-65 40 -124.5 59t-118.5 19 q-143 0 -224.5 -97t-81.5 -270z" />
<glyph unicode="r" horiz-adv-x="799" d="M55 0v70h23q73 0 99 35t26 163v105v325q0 108 -15 139t-55 31q-8 0 -17 -0.5t-30 -3.5l-12 62q71 16 146 40t155 56q-7 -68 -11 -137.5t-6 -147.5q81 143 149.5 206t141.5 63q57 0 90 -30.5t33 -82.5q0 -37 -21.5 -63.5t-50.5 -26.5q-18 0 -55.5 19.5t-64.5 19.5 q-52 0 -104 -45.5t-109 -141.5v-110q0 -160 2.5 -259.5t7.5 -126.5q9 -51 38.5 -70t100.5 -19h29v-70q-78 6 -139 9t-103 3q-58 0 -119.5 -3t-128.5 -9z" />
<glyph unicode="s" horiz-adv-x="907" d="M105 295l75 18q16 -124 78 -185.5t172 -61.5q100 0 163.5 48.5t63.5 125.5q0 108 -212 172q-21 7 -31 10q-152 46 -213.5 113t-61.5 178q0 128 102 212.5t261 84.5q49 0 106.5 -10t130.5 -31q0 -61 6.5 -123t18.5 -125l-76 -12q-12 104 -66 155t-151 51q-84 0 -138 -45.5 t-54 -115.5q0 -111 236 -176q41 -11 63 -17q118 -33 172.5 -94t54.5 -160q0 -146 -114.5 -241t-293.5 -95q-65 0 -133 14t-139 42q1 10 1.5 21t0.5 34q0 46 -5.5 99.5t-16.5 113.5z" />
<glyph unicode="t" horiz-adv-x="737" d="M59 866v72q98 14 162 72.5t94 160.5l66 -20q-6 -55 -9.5 -98.5t-4.5 -85.5h71q57 0 116 1.5t119 4.5l-24 -109q-64 5 -120.5 6.5t-112.5 1.5h-47q-6 -172 -8.5 -263.5t-2.5 -151.5q0 -226 31 -294.5t111 -68.5q33 0 73.5 14t98.5 46l33 -66q-96 -58 -174 -87.5 t-136 -29.5q-107 0 -156 73.5t-49 236.5q0 32 4.5 228.5t4.5 360.5q-9 0 -26 -1q-83 -3 -114 -3z" />
<glyph unicode="u" horiz-adv-x="1204" d="M59 940q72 12 148.5 29.5t159.5 41.5q-7 -196 -11 -343.5t-4 -204.5q0 -214 44 -285.5t151 -71.5q53 0 118 26t148 79q3 154 4.5 254t1.5 147v68q0 126 -21 158t-81 32q-10 0 -21.5 -0.5t-23.5 -1.5l-6 64q85 6 167.5 19t161.5 32q-6 -171 -9 -305t-3 -234 q0 -41 -1 -102.5t-1 -81.5q0 -93 16 -122t60 -29q10 0 23.5 2t35.5 8l8 -62l-305 -77l-4 149q-108 -82 -189.5 -120t-148.5 -38q-137 0 -214 79t-77 220q0 36 3 151q1 48 1 75l3 112q0 28 1 71.5t1 59.5q0 86 -14.5 114t-53.5 28q-12 0 -28 -2t-33 -4z" />
<glyph unicode="v" horiz-adv-x="1006" d="M0 911v69q75 -5 120 -7t77 -2q30 0 76.5 2t129.5 8v-70h-26q-50 0 -70 -13.5t-20 -47.5q0 -26 98 -293q81 -219 133 -364q161 384 209.5 510.5t48.5 152.5q0 29 -22 42t-72 13h-14v70q45 -4 87 -6t83 -2q32 0 75 2t93 6v-70h-11q-68 0 -128 -142q-16 -37 -25 -58l-12 -26 q-290 -647 -300 -710h-110q0 33 -58 193.5t-215 561.5q-4 11 -13 34q-56 147 -126 147h-8z" />
<glyph unicode="w" horiz-adv-x="1587" d="M12 913v68q54 -4 101 -6t84 -2q50 0 103 2t108 6v-68h-15q-55 0 -76.5 -16t-21.5 -55q0 -13 5 -34t13 -46l193 -553l264 559l-18 55q-20 57 -43 73.5t-72 16.5h-29v68q58 -4 108 -6t89 -2q53 0 107 2t112 6v-68q-5 0 -15 -1t-14 -1q-41 0 -60.5 -13.5t-19.5 -43.5 q0 -18 5.5 -41.5t15.5 -52.5l186 -545l32 81q196 504 196 552q0 38 -21.5 51.5t-81.5 13.5h-18v68q46 -4 90.5 -6t87.5 -2q36 0 78.5 2t91.5 6v-68q-32 0 -53 -8.5t-33 -25.5q-22 -33 -91.5 -198t-289.5 -710h-72l-235 670q-117 -227 -190.5 -386t-118.5 -284h-68 q-80 221 -191 540.5t-135 360.5q-13 22 -31 31.5t-42 9.5h-15z" />
<glyph unicode="x" horiz-adv-x="1085" d="M18 0v69q4 0 9.5 -0.5t15.5 -0.5q94 0 338 310q55 71 86 109l-225 310q-52 70 -83 94t-65 24q-2 0 -7.5 -1t-8.5 -1v68q13 -1 38 -2q118 -6 163 -6q37 0 86.5 2t107.5 6v-68h-8q-34 0 -51 -11.5t-17 -35.5q0 -35 155 -240l14 -17q98 129 135.5 186t37.5 77q0 22 -14 30.5 t-59 10.5v68q47 -4 89 -6t76 -2q43 0 86 2t89 6l-1 -67q-2 0 -6 0.5t-10 0.5q-74 0 -270 -247q-65 -81 -103 -127l269 -359q54 -73 83.5 -92.5t67.5 -19.5h11v-70q-18 1 -49 2q-113 6 -154 6q-29 0 -120 -4q-51 -3 -78 -4l-1 70h12q38 0 55 10t17 33q0 24 -109 170 q-62 83 -100 135q-106 -137 -154.5 -210.5t-48.5 -98.5q0 -21 14 -30t46 -9h12v-70q-54 4 -102.5 6t-87.5 2q-32 0 -78.5 -2t-102.5 -6z" />
<glyph unicode="y" horiz-adv-x="995" d="M0 912v68q75 -5 120 -7t77 -2q30 0 76.5 2t129.5 8v-70h-26q-50 0 -70 -13.5t-20 -47.5q0 -26 88 -264q84 -226 139 -381q139 330 195.5 476t56.5 175t-22 42t-72 13h-15v70q45 -4 88.5 -6t83.5 -2q33 0 76 2t92 6v-70h-8q-33 0 -55.5 -14.5t-38.5 -46.5q-2 -5 -17 -39 q-106 -245 -227 -514q-60 -136 -153 -355q-200 -474 -308 -474q-40 0 -67 26t-27 66q0 55 77 69q31 5 44 11q56 22 161 254q29 65 46 102q-69 178 -170 457q-167 460 -238 460q-6 0 -9.5 -0.5t-6.5 -0.5z" />
<glyph unicode="z" horiz-adv-x="967" d="M51 63q86 64 231 262l7 9l362 491q-29 1 -82 2q-122 2 -161 2h-41q-126 0 -161 -24.5t-50 -93.5l-66 18q16 59 27.5 121.5t17.5 130.5q83 -6 155 -9t128 -3q200 0 284 2.5t146 9.5l35 -55q-46 -37 -99 -98.5t-137 -176.5l-354 -485q56 -4 109.5 -6t103.5 -2h72 q148 0 195 28.5t65 106.5l63 -19q-17 -64 -30 -132.5t-21 -141.5q-15 1 -43 2q-266 14 -379 14q-81 0 -166 -4t-178 -12z" />
<glyph unicode="{" horiz-adv-x="858" d="M152 553v74h20q124 0 174 57t53 210l4 196q6 273 87 361.5t276 88.5q11 0 42.5 -1t51.5 -1v-76q-13 1 -25.5 1.5t-23.5 0.5q-66 0 -110 -11t-72 -36q-66 -57 -68 -273q-1 -64 -2 -98l-2 -61q-6 -200 -59 -279.5t-181 -111.5v-6q128 -32 181 -112.5t59 -280.5l2 -60 q1 -30 1 -85q1 -207 54 -269q27 -33 74.5 -48.5t122.5 -15.5q10 0 22.5 0.5t26.5 1.5v-77h-94q-195 0 -276 89t-87 361l-4 193q-3 154 -53 211t-174 57h-20z" />
<glyph unicode="|" horiz-adv-x="1024" d="M449 -483v2048h126v-2048h-126z" />
<glyph unicode="}" horiz-adv-x="858" d="M0 -281q15 -1 27.5 -1.5t21.5 -0.5q65 0 109 12t71 35q66 58 68 273q1 64 2 98l2 59q6 201 59.5 281.5t182.5 112.5v6q-129 32 -182.5 111.5t-59.5 280.5l-2 61q-1 26 -2 74q-6 343 -248 343q-12 0 -24 -0.5t-25 -1.5v76q6 0 37 1t55 1q195 0 276 -88.5t87 -361.5l6 -196 q3 -154 52.5 -210.5t172.5 -56.5h23v-74h-21q-124 0 -174 -57.5t-53 -210.5l-6 -193q-6 -272 -87 -361t-276 -89h-92v77z" />
<glyph unicode="~" horiz-adv-x="1706" d="M178 461v133q105 73 202 109t185 36q56 0 116.5 -12.5t174.5 -52.5q12 -4 35 -13q164 -59 254 -59q85 0 176 36.5t209 119.5v-131q-101 -72 -197.5 -108t-189.5 -36q-43 0 -90.5 9t-100.5 26q-30 10 -87 31q-202 72 -302 72q-83 0 -173.5 -37.5t-211.5 -122.5z" />
<glyph unicode="&#xa0;" />
<glyph unicode="&#xa1;" horiz-adv-x="690" d="M186 1325q0 23 10.5 39.5t39.5 38.5l75 57l70 -53q27 -21 40 -42t13 -44t-10 -39.5t-39 -38.5l-74 -57l-71 53q-29 22 -41.5 42t-12.5 44zM189 0q2 190 34.5 542t40.5 494h82q3 -205 15.5 -464.5t33.5 -571.5h-206z" />
<glyph unicode="&#xa2;" d="M131 696q0 166 89 277t243 139l-6 348h96l-6 -340q7 0 20 -1t19 -1q90 0 146 -30.5t56 -79.5q0 -34 -19.5 -58t-45.5 -24t-76.5 48.5t-101.5 51.5v-600q7 -1 13.5 -1.5t12.5 -0.5q41 0 91 23.5t108 70.5l47 -63q-67 -63 -133 -97.5t-137 -44.5l4 -352h-94l2 352 q-148 20 -238 125t-90 258zM287 741q0 -116 45 -194.5t131 -110.5v588q-83 -19 -129.5 -93.5t-46.5 -189.5z" />
<glyph unicode="&#xa3;" d="M84 29q172 106 253 212.5t81 227.5q0 32 -8 71.5t-27 98.5q-28 0 -69.5 -1t-55.5 -1h-15q-52 -2 -98 -2l1 94q42 -1 94.5 -2.5t121.5 -3.5q-17 74 -25.5 136.5t-8.5 113.5q0 211 110.5 344t280.5 133q92 0 157.5 -38.5t65.5 -90.5q0 -31 -22 -55.5t-50 -24.5 q-29 0 -94.5 54.5t-120.5 54.5q-75 0 -116 -67t-41 -189q0 -69 19 -242q9 -82 13 -127h88q78 0 236 4h6v-94h-12q-209 4 -307 4q1 -16 4 -44q4 -47 4 -60q0 -96 -39 -180t-121 -167h39q54 0 163 -20.5t161 -20.5q96 0 141.5 51t56.5 171l70 -11l-8 -90q-16 -153 -74 -223 t-168 -70q-67 0 -215 38t-221 38q-49 0 -98 -19.5t-107 -62.5z" />
<glyph unicode="&#xa4;" horiz-adv-x="1241" d="M86 424l207 205q-44 58 -66 122t-22 134q0 69 22 133.5t66 122.5l-207 205l72 73l207 -207q60 46 122.5 68.5t133.5 22.5t135.5 -22.5t124.5 -68.5l204 207l72 -73l-205 -205q43 -57 64.5 -121t21.5 -135t-21.5 -135.5t-64.5 -120.5l205 -205l-72 -74l-204 207 q-57 -44 -121.5 -66t-138.5 -22t-136.5 21.5t-119.5 66.5l-207 -207zM309 887q0 -131 91.5 -223.5t222.5 -92.5q129 0 221 93t92 223q0 129 -91.5 221t-221.5 92t-222 -92t-92 -221z" />
<glyph unicode="&#xa5;" d="M29 1350v69q65 -6 120.5 -9t98.5 -3q45 0 100 3t119 9v-69q-61 0 -86 -11.5t-25 -38.5q0 -11 9.5 -36t35.5 -84l187 -420l209 420q29 61 41 88.5t12 36.5q0 22 -21 33.5t-63 11.5h-12v69q46 -4 91.5 -6t88.5 -2q34 0 78.5 2t95.5 6v-69h-23q-69 0 -116 -93 q-10 -19 -15 -29l-178 -329h88q28 0 105 3q20 1 30 1v-78q-27 0 -114 1t-146 1l-106 -198h90q68 0 137 1.5t139 4.5v-72h-155h-207l2 -264v-18q2 -213 129 -213h35v-68q-85 6 -149.5 9t-108.5 3q-41 0 -163 -7q-50 -3 -78 -5l-1 68q8 0 21.5 -1t19.5 -1q75 0 100 32.5 t25 175.5v289q-103 0 -316 -4h-12l1 72q30 -1 66 -1.5t103 -0.5h160l-96 198q-50 -1 -108.5 -2.5t-124.5 -3.5l-1 76h82q42 0 67 0.5t49 1.5l-146 311q-39 86 -68.5 114t-71.5 28q-10 0 -15 -0.5t-9 -1.5z" />
<glyph unicode="&#xa6;" horiz-adv-x="1024" d="M449 -350v758h126v-758h-126zM449 674v758h126v-758h-126z" />
<glyph unicode="&#xa7;" horiz-adv-x="1024" d="M119 -41q0 39 27.5 67.5t62.5 28.5q42 0 79 -65q8 -14 13 -23q32 -55 76.5 -83.5t97.5 -28.5q72 0 121 53.5t49 130.5q0 126 -213 352q-27 28 -41 43q-160 171 -214 278t-54 226q0 204 132.5 355t309.5 151q118 0 208.5 -61t90.5 -132q0 -40 -24.5 -69t-59.5 -29 q-34 0 -69 59q-14 24 -23 37q-30 47 -69 72t-82 25q-65 0 -108.5 -49t-43.5 -121q0 -65 55 -147t203 -228q174 -172 222 -271t48 -223q0 -223 -143 -388t-328 -165q-128 0 -225.5 65t-97.5 140zM217 987q0 -97 51 -194t174 -230q15 -15 43 -46q244 -260 244 -411 q0 -47 -11.5 -91.5t-37.5 -94.5q71 78 105 160t34 176q0 182 -227 416q-23 24 -35 37q-142 147 -198 244t-56 188q0 36 11 73t34 76q-63 -60 -97 -138.5t-34 -164.5z" />
<glyph unicode="&#xa8;" horiz-adv-x="1024" d="M174 1294q0 36 43 76.5t82 40.5t82 -40t43 -77q0 -36 -43 -76t-82 -40q-40 0 -82.5 39.5t-42.5 76.5zM600 1294q0 36 43 76.5t82 40.5t83 -40t44 -77q0 -36 -44 -76t-83 -40q-40 0 -82.5 39.5t-42.5 76.5z" />
<glyph unicode="&#xa9;" horiz-adv-x="1683" d="M137 678q0 121 40.5 235t117.5 209q101 125 245 193.5t304 68.5q116 0 232.5 -42t211.5 -119q121 -98 189.5 -243t68.5 -302q0 -137 -54.5 -268t-154.5 -232q-99 -99 -227 -152t-268 -53q-142 0 -269.5 52.5t-228.5 152.5q-100 100 -153.5 229.5t-53.5 270.5zM207 678 q0 -263 185.5 -448t449.5 -185q262 0 447.5 186.5t185.5 446.5q0 263 -186 449t-447 186q-263 0 -449 -185.5t-186 -449.5zM426 672q0 187 125 312.5t313 125.5q63 0 129.5 -13.5t145.5 -41.5v-43q0 -50 2.5 -94t7.5 -86l-55 -9q-13 106 -72 157.5t-168 51.5 q-128 0 -203.5 -90t-75.5 -246q0 -173 83.5 -279t218.5 -106q88 0 150 48.5t91 140.5l51 -23q-20 -50 -35.5 -94.5t-25.5 -87.5q-74 -31 -140 -46.5t-128 -15.5q-182 0 -298 123t-116 316z" />
<glyph unicode="&#xaa;" horiz-adv-x="739" d="M55 911q0 132 306 199q70 16 108 25q1 21 1.5 42.5t0.5 51.5q0 72 -31.5 106.5t-97.5 34.5q-65 0 -102 -22t-37 -60q0 -3 1 -9t1 -9q0 -21 -23 -35t-55 -14q-28 0 -39.5 7.5t-11.5 24.5q0 56 101 125.5t208 69.5q105 0 159 -53.5t54 -157.5q0 -56 -7 -172t-7 -176 q0 -46 10.5 -62t38.5 -16q20 0 84 29l3 1l21 -44q-54 -38 -100.5 -58t-77.5 -20q-47 0 -71 26t-27 78q-82 -52 -135.5 -74t-96.5 -22q-75 0 -126.5 53.5t-51.5 130.5zM178 920q0 -46 32 -75.5t83 -29.5q32 0 74 16t96 50l1 196q-12 -3 -37 -9q-249 -63 -249 -148z" />
<glyph unicode="&#xab;" horiz-adv-x="856" d="M68 485q79 90 153.5 187t145.5 200l75 -45q-45 -84 -88.5 -168t-85.5 -170q44 -90 87 -174t87 -163l-77 -43q-76 108 -149 201t-148 175zM449 487q19 33 61 101q110 181 166 278l82 -37q-13 -31 -60.5 -144.5t-81.5 -195.5q19 -47 64.5 -160t71.5 -177l-76 -35 q-51 87 -161 263q-45 72 -66 107z" />
<glyph unicode="&#xac;" horiz-adv-x="1706" d="M254 741v117h1198v-502h-115v385h-1083z" />
<glyph unicode="&#xad;" horiz-adv-x="717" d="M66 424q15 35 28 73.5t25 84.5q10 -1 30 -1q147 -3 209 -3q98 0 163 1t128 3q-17 -44 -30 -83.5t-23 -74.5q-60 2 -118.5 3t-141.5 1t-145 -1t-125 -3z" />
<glyph unicode="&#xae;" horiz-adv-x="1683" d="M137 678q0 121 40.5 235t117.5 209q101 125 245 193.5t304 68.5q116 0 232.5 -42t211.5 -119q121 -98 189.5 -243t68.5 -302q0 -137 -54.5 -268t-154.5 -232q-99 -99 -227 -152t-268 -53q-142 0 -269.5 52.5t-228.5 152.5q-100 100 -153.5 229.5t-53.5 270.5zM207 678 q0 -263 185.5 -448t449.5 -185q262 0 447.5 186.5t185.5 446.5q0 263 -186 449t-447 186q-263 0 -449 -185.5t-186 -449.5zM477 271v55q6 0 14.5 -1t12.5 -1q43 0 58.5 26.5t15.5 116.5v121v321q0 94 -15 120t-55 26h-19v57q11 -1 29 -2q83 -6 117 -6q40 0 108 5t95 5 q116 0 189 -64.5t73 -164.5q0 -68 -34 -120t-108 -97l30 -50q177 -307 255 -307q3 0 8 1t9 1l-1 -51q-24 -3 -45.5 -4.5t-37.5 -1.5q-145 0 -278 245q-41 77 -66 121q-27 -2 -46.5 -3t-35.5 -1h-33q0 -68 1 -139t1 -73q0 -49 15 -64.5t63 -15.5h16v-55q-59 2 -102 3.5 t-74 1.5q-22 0 -62 -1.5t-98 -3.5zM717 690q26 -3 47.5 -4.5t36.5 -1.5q9 0 42 2q20 1 31 2q43 32 62.5 73t19.5 97q0 78 -46 132t-109 54q-28 0 -76 -11l-4 -1q-1 -62 -2.5 -129t-1.5 -74v-139z" />
<glyph unicode="&#xaf;" horiz-adv-x="1024" d="M0 1446v119h1024v-119h-1024z" />
<glyph unicode="&#xb0;" horiz-adv-x="674" d="M55 1171q0 119 82.5 201t200.5 82q117 0 200 -83t83 -200q0 -116 -83.5 -199t-201.5 -83t-199.5 82t-81.5 200zM135 1171q0 -84 59.5 -143t143.5 -59t142.5 59t58.5 143t-58.5 142.5t-142.5 58.5t-143.5 -58.5t-59.5 -142.5z" />
<glyph unicode="&#xb1;" horiz-adv-x="1706" d="M254 41v117h1198v-117h-1198zM254 719v117h541v344h118v-344h539v-117h-539v-344h-118v344h-541z" />
<glyph unicode="&#xb2;" horiz-adv-x="752" d="M33 608q208 162 326 314t118 258q0 75 -49 125.5t-123 50.5q-56 0 -103.5 -29.5t-95.5 -95.5l-51 26q56 90 125.5 134.5t155.5 44.5q113 0 192.5 -70.5t79.5 -169.5q0 -92 -87 -207.5t-320 -318.5q51 0 114 -1t76 -1h82q95 0 126.5 18.5t45.5 71.5l41 -13 q-18 -44 -30.5 -87.5t-20.5 -89.5q-91 2 -172.5 3.5t-151.5 1.5q-60 0 -124.5 -1.5t-133.5 -3.5z" />
<glyph unicode="&#xb3;" horiz-adv-x="752" d="M59 655q0 18 18.5 35t37.5 17q25 0 54 -29q8 -7 12 -11q30 -29 61.5 -42t70.5 -13q85 0 142 56.5t57 140.5q0 78 -49 127t-127 49q-28 0 -60 -6.5t-65 -20.5l-18 43q130 52 196 110t66 122q0 55 -41 92t-103 37q-46 0 -89.5 -25.5t-86.5 -76.5l-49 26q46 75 110 112.5 t146 37.5q99 0 166 -55t67 -134q0 -66 -49.5 -117t-150.5 -88q7 2 13.5 2h19.5q107 0 169 -56t62 -152q0 -115 -107 -200t-251 -85q-90 0 -156 31.5t-66 72.5z" />
<glyph unicode="&#xb4;" horiz-adv-x="1024" d="M369 1147l260 403l149 -96l-334 -334z" />
<glyph unicode="&#xb5;" horiz-adv-x="1120" d="M-80 -330q0 40 64.5 273.5t105.5 427.5l109 514h147l-104 -492q-6 -30 -9.5 -58.5t-3.5 -53.5q0 -83 42 -129t118 -46q98 0 163.5 68.5t94.5 200.5l111 510h149l-114 -531q-13 -59 -17 -87.5t-4 -49.5q0 -48 26 -78t66 -30q35 0 65.5 18t51.5 51t41 93.5t39 60.5 q12 0 19 -10t7 -27q0 -25 -11 -66.5t-29 -83.5q-38 -82 -95 -122.5t-135 -40.5q-68 0 -108.5 51t-40.5 139v23q-46 -110 -116 -164t-165 -54q-96 0 -152.5 54.5t-70.5 161.5q-27 -136 -52 -339q-34 -272 -112 -272q-37 0 -58.5 23.5t-21.5 64.5z" />
<glyph unicode="&#xb6;" horiz-adv-x="1124" d="M117 893q0 228 165 380t420 152q36 0 92.5 -2t77.5 -2q38 0 79.5 1.5t88.5 4.5v-69h-22q-68 0 -98 -21t-37 -73q-4 -31 -6.5 -201.5t-2.5 -423.5q0 -126 5 -553q2 -240 3 -381h-118l6 688q-6 0 -19 -2q-61 -6 -85 -6q-241 0 -395 143.5t-154 364.5zM608 934 q0 -225 39.5 -340t122.5 -131v887q-85 -11 -123.5 -108.5t-38.5 -307.5z" />
<glyph unicode="&#xb7;" horiz-adv-x="569" d="M121 723q0 67 48 115.5t116 48.5t116 -48t48 -116t-48.5 -116t-115.5 -48q-66 0 -115 49t-49 115z" />
<glyph unicode="&#xb8;" horiz-adv-x="1024" d="M406 -395q66 15 100.5 46t34.5 77q0 37 -30.5 61t-90.5 35l155 176h76l-98 -121q65 -16 100 -50t35 -81q0 -67 -66.5 -120.5t-185.5 -82.5z" />
<glyph unicode="&#xb9;" horiz-adv-x="752" d="M156 1380q73 11 148 25t151 31q-7 -113 -10 -232t-3 -317v-113q0 -106 23.5 -136t89.5 -30h27v-41q-47 2 -93.5 3t-113.5 1q-59 0 -104 -1t-93 -3v41h21q70 0 94.5 12.5t34.5 49.5q5 23 8.5 157.5t3.5 335.5q0 47 -3 159q-1 17 -1 25q-47 -1 -90 -4.5t-82 -9.5z" />
<glyph unicode="&#xba;" horiz-adv-x="846" d="M51 1077q0 154 112 261.5t269 107.5q158 0 261.5 -99t103.5 -245q0 -161 -109.5 -271t-269.5 -110t-263.5 100.5t-103.5 255.5zM188 1120q0 -147 69 -238t177 -91q106 0 168 72t62 198q0 137 -71 224t-181 87q-101 0 -162.5 -68t-61.5 -184z" />
<glyph unicode="&#xbb;" horiz-adv-x="856" d="M100 152q31 74 64 155.5t76 184.5l-45 112q-61 152 -89 223l76 35q49 -83 105 -174.5t122 -196.5l-9 -15q-145 -234 -220 -363zM416 152q55 103 97.5 185.5t76.5 151.5q-49 102 -91.5 184.5t-82.5 155.5l76 43q63 -94 137.5 -188t161.5 -190q-79 -90 -154 -187t-145 -201 z" />
<glyph unicode="&#xbc;" horiz-adv-x="1776" d="M147 1382q77 12 147.5 25t139.5 27q-6 -104 -9 -215t-3 -295v-105q0 -101 22 -129t84 -28q4 0 12.5 1t12.5 1v-39q-44 2 -88 3t-109 1q-56 0 -98.5 -1t-87.5 -3v37h18q68 0 91.5 12t31.5 46q6 23 9.5 148.5t3.5 313.5q0 42 -4 148q0 15 -1 24q-44 -2 -84.5 -5.5 t-78.5 -9.5zM373 8q199 289 424.5 631.5t527.5 816.5l76 -49q-207 -302 -439 -656t-511 -794zM1092 305l49 54q103 112 123 137l61 75q8 10 25 31q98 122 153 203h84q-5 -134 -7.5 -253t-2.5 -230h20q32 0 67 1.5t72 4.5q-2 -11 -9 -36t-11 -40q-24 1 -52.5 1.5t-86.5 0.5 v-117q0 -66 16 -82t68 -16h16v-39q-34 2 -69.5 3t-85.5 1q-44 0 -79 -1t-73 -3v39q4 0 12.5 -1t12.5 -1q50 0 67 20.5t17 96.5v43v57q-42 0 -97.5 1t-70.5 1q-7 0 -71 -1t-122 -1zM1201 328q62 -3 120 -4.5t113 -1.5h45v354z" />
<glyph unicode="&#xbd;" horiz-adv-x="1776" d="M147 1382q77 12 147.5 25t139.5 27q-6 -104 -9 -215t-3 -295v-105q0 -101 22 -129t84 -28q4 0 12.5 1t12.5 1v-39q-44 2 -88 3t-109 1q-56 0 -98.5 -1t-87.5 -3v37h18q68 0 91.5 12t31.5 46q6 23 9.5 148.5t3.5 313.5q0 42 -4 148q0 15 -1 24q-44 -2 -84.5 -5.5 t-78.5 -9.5zM373 8q199 289 424.5 631.5t527.5 816.5l76 -49q-207 -302 -439 -656t-511 -794zM1090 37q198 151 310.5 294t112.5 240q0 71 -46.5 117.5t-116.5 46.5q-55 0 -100.5 -28t-88.5 -89l-49 27q53 82 119.5 123t148.5 41q108 0 184 -65.5t76 -157.5 q0 -85 -81.5 -190.5t-306.5 -298.5q43 -2 84 -2.5t96 -0.5h79q93 0 121.5 17t42.5 67l39 -12q-18 -44 -30 -84.5t-19 -81.5q-86 3 -164 4.5t-145 1.5q-58 0 -119 -1.5t-127 -4.5z" />
<glyph unicode="&#xbe;" horiz-adv-x="1778" d="M57 707q0 16 17.5 32.5t36.5 16.5q21 0 49 -28q7 -7 13 -12q30 -27 60 -38.5t66 -11.5q80 0 135 53t55 131q0 73 -46.5 118.5t-120.5 45.5q-25 0 -55 -5.5t-66 -17.5l-19 39q126 49 189 103t63 112q0 51 -39 86t-98 35q-45 0 -86 -23t-82 -71l-47 24q44 69 105 103.5 t139 34.5q95 0 159 -50.5t64 -123.5q0 -63 -47.5 -110.5t-143.5 -80.5h31q103 0 162 -52t59 -143q0 -107 -101.5 -186.5t-240.5 -79.5q-84 0 -147.5 30t-63.5 69zM373 8q199 289 424.5 631.5t527.5 816.5l76 -49q-207 -302 -439 -656t-511 -794zM1092 305l49 54 q103 112 123 137l61 75q8 10 25 31q98 122 153 203h84q-5 -134 -7.5 -253t-2.5 -230h20q32 0 67 1.5t72 4.5q-2 -11 -9 -36t-11 -40q-24 1 -52.5 1.5t-86.5 0.5v-117q0 -66 16 -82t68 -16h16v-39q-34 2 -69.5 3t-85.5 1q-44 0 -79 -1t-73 -3v39q4 0 12.5 -1t12.5 -1 q50 0 67 20.5t17 96.5v43v57q-42 0 -97.5 1t-70.5 1q-7 0 -71 -1t-122 -1zM1201 328q62 -3 120 -4.5t113 -1.5h45v354z" />
<glyph unicode="&#xbf;" horiz-adv-x="963" d="M172 381q0 137 76.5 232.5t281.5 195.5q7 3 18 8q85 39 85 170v45h77q0 -20 -0.5 -44t-0.5 -73q0 -65 2 -119.5t6 -103.5q-193 -46 -301.5 -142t-108.5 -220q0 -98 68.5 -163t171.5 -65q71 0 150.5 47.5t97.5 47.5q29 0 49 -22.5t20 -55.5q0 -66 -63.5 -108t-165.5 -42 q-199 0 -331 118t-132 294zM545 1325q0 23 10 39.5t39 38.5l76 57l69 -53q28 -21 41 -42t13 -44t-10.5 -39.5t-39.5 -38.5l-73 -57l-72 53q-29 22 -41 42t-12 44z" />
<glyph unicode="&#xc0;" horiz-adv-x="1479" d="M-31 0v69q71 2 112.5 28.5t72.5 88.5q56 117 198.5 468.5t300.5 772.5h172q130 -397 246.5 -725t183.5 -493q40 -95 69 -117t83 -22h20v-70q-78 4 -142.5 6t-108.5 2q-56 0 -123 -2t-142 -6v70h19q71 0 97 16.5t26 60.5q0 16 -4 35.5t-13 46.5l-98 306q-38 0 -104 1 q-120 3 -154 3q-68 0 -128.5 -0.5t-125.5 -2.5q-71 -179 -97 -261t-26 -117q0 -49 26 -68.5t93 -19.5h27v-70q-73 4 -136.5 6t-113.5 2q-40 0 -100 -2t-130 -6zM469 641q19 0 55 -1q113 -3 154 -3q50 0 181 3q29 1 44 1l-205 598zM479 1911l147 90l265 -405l-76 -25z" />
<glyph unicode="&#xc1;" horiz-adv-x="1479" d="M-31 0v69q71 2 112.5 28.5t72.5 88.5q56 117 198.5 468.5t300.5 772.5h172q130 -397 246.5 -725t183.5 -493q40 -95 69 -117t83 -22h20v-70q-78 4 -142.5 6t-108.5 2q-56 0 -123 -2t-142 -6v70h19q71 0 97 16.5t26 60.5q0 16 -4 35.5t-13 46.5l-98 306q-38 0 -104 1 q-120 3 -154 3q-68 0 -128.5 -0.5t-125.5 -2.5q-71 -179 -97 -261t-26 -117q0 -49 26 -68.5t93 -19.5h27v-70q-73 4 -136.5 6t-113.5 2q-40 0 -100 -2t-130 -6zM469 641q19 0 55 -1q113 -3 154 -3q50 0 181 3q29 1 44 1l-205 598zM596 1598l260 403l149 -96l-334 -334z" />
<glyph unicode="&#xc2;" horiz-adv-x="1479" d="M-31 0v69q71 2 112.5 28.5t72.5 88.5q56 117 198.5 468.5t300.5 772.5h172q130 -397 246.5 -725t183.5 -493q40 -95 69 -117t83 -22h20v-70q-78 4 -142.5 6t-108.5 2q-56 0 -123 -2t-142 -6v70h19q71 0 97 16.5t26 60.5q0 16 -4 35.5t-13 46.5l-98 306q-38 0 -104 1 q-120 3 -154 3q-68 0 -128.5 -0.5t-125.5 -2.5q-71 -179 -97 -261t-26 -117q0 -49 26 -68.5t93 -19.5h27v-70q-73 4 -136.5 6t-113.5 2q-40 0 -100 -2t-130 -6zM436 1602l274 322h62l272 -322l-61 -31l-244 203l-244 -203zM469 641q19 0 55 -1q113 -3 154 -3q50 0 181 3 q29 1 44 1l-205 598z" />
<glyph unicode="&#xc3;" horiz-adv-x="1479" d="M-31 0v69q71 2 112.5 28.5t72.5 88.5q56 117 198.5 468.5t300.5 772.5h172q130 -397 246.5 -725t183.5 -493q40 -95 69 -117t83 -22h20v-70q-78 4 -142.5 6t-108.5 2q-56 0 -123 -2t-142 -6v70h19q71 0 97 16.5t26 60.5q0 16 -4 35.5t-13 46.5l-98 306q-38 0 -104 1 q-120 3 -154 3q-68 0 -128.5 -0.5t-125.5 -2.5q-71 -179 -97 -261t-26 -117q0 -49 26 -68.5t93 -19.5h27v-70q-73 4 -136.5 6t-113.5 2q-40 0 -100 -2t-130 -6zM350 1639q52 68 110 118.5t125 86.5q72 -6 174.5 -22.5t135.5 -16.5q51 0 94 23.5t80 70.5l53 -43 q-53 -69 -107 -119t-117 -86q-71 5 -173 21t-133 16q-60 0 -107 -23.5t-86 -72.5zM469 641q19 0 55 -1q113 -3 154 -3q50 0 181 3q29 1 44 1l-205 598z" />
<glyph unicode="&#xc4;" horiz-adv-x="1479" d="M-31 0v69q71 2 112.5 28.5t72.5 88.5q56 117 198.5 468.5t300.5 772.5h172q130 -397 246.5 -725t183.5 -493q40 -95 69 -117t83 -22h20v-70q-78 4 -142.5 6t-108.5 2q-56 0 -123 -2t-142 -6v70h19q71 0 97 16.5t26 60.5q0 16 -4 35.5t-13 46.5l-98 306q-38 0 -104 1 q-120 3 -154 3q-68 0 -128.5 -0.5t-125.5 -2.5q-71 -179 -97 -261t-26 -117q0 -49 26 -68.5t93 -19.5h27v-70q-73 4 -136.5 6t-113.5 2q-40 0 -100 -2t-130 -6zM401 1745q0 36 43 76.5t82 40.5t82 -40t43 -77q0 -36 -43 -76t-82 -40q-40 0 -82.5 39.5t-42.5 76.5zM469 641 q19 0 55 -1q113 -3 154 -3q50 0 181 3q29 1 44 1l-205 598zM827 1745q0 36 43 76.5t82 40.5t83 -40t44 -77q0 -36 -44 -76t-83 -40q-40 0 -82.5 39.5t-42.5 76.5z" />
<glyph unicode="&#xc5;" horiz-adv-x="1479" d="M-31 0v69q71 2 112.5 28.5t72.5 88.5q56 117 198.5 468.5t300.5 772.5h172q130 -397 246.5 -725t183.5 -493q40 -95 69 -117t83 -22h20v-70q-78 4 -142.5 6t-108.5 2q-56 0 -123 -2t-142 -6v70h19q71 0 97 16.5t26 60.5q0 16 -4 35.5t-13 46.5l-98 306q-38 0 -104 1 q-120 3 -154 3q-68 0 -128.5 -0.5t-125.5 -2.5q-71 -179 -97 -261t-26 -117q0 -49 26 -68.5t93 -19.5h27v-70q-73 4 -136.5 6t-113.5 2q-40 0 -100 -2t-130 -6zM469 641q19 0 55 -1q113 -3 154 -3q50 0 181 3q29 1 44 1l-205 598zM500 1735q0 99 69.5 168t169.5 69 q101 0 170.5 -69t69.5 -168t-70 -169.5t-170 -70.5q-99 0 -169 70.5t-70 169.5zM606 1735q0 -54 40 -95t93 -41q54 0 94.5 41t40.5 95q0 55 -39.5 95t-95.5 40q-54 0 -93.5 -40t-39.5 -95z" />
<glyph unicode="&#xc6;" horiz-adv-x="2152" d="M2 0v66h16q117 0 263 212q20 29 30 44q156 225 392 557q278 391 278 424q0 31 -25.5 44t-93.5 13h-49v67q125 -7 262 -10.5t291 -3.5q125 0 267.5 3.5t324.5 10.5q1 -75 6 -153.5t12 -157.5l-69 -6q-8 120 -74 162.5t-285 42.5q-54 0 -196 -3q-36 -1 -53 -1 q-2 -169 -7 -418q-1 -71 -2 -102h31q59 0 147.5 -1.5t118.5 -1.5q145 0 191.5 27t50.5 100l63 -6q-7 -62 -10.5 -115t-3.5 -98q0 -26 1.5 -67t4.5 -92l-65 -2v8q0 85 -49.5 115t-229.5 30h-178h-72q0 -49 -1 -135.5t-1 -124.5q0 -66 1 -137.5t4 -167.5q50 -6 113.5 -9 t139.5 -3q251 0 330.5 48.5t126.5 186.5l72 -24q-30 -83 -53 -163t-40 -159h-12q-385 12 -573 12q-101 0 -216.5 -3t-248.5 -9v68q2 -1 5 -1q31 -3 44 -4q72 0 97.5 43.5t25.5 223.5v69q0 51 0.5 79.5t1.5 53.5q-82 2 -166.5 5.5t-89.5 3.5q-47 0 -138.5 -3t-125.5 -3 q-36 -58 -97 -154q-135 -214 -135 -246q0 -38 25.5 -52.5t95.5 -14.5h21v-68q-86 6 -147.5 9t-102.5 3q-44 0 -105 -3t-139 -9zM655 633q66 -1 124.5 -1.5t111.5 -0.5q74 0 121 0.5t92 1.5q1 134 4.5 307t7.5 380z" />
<glyph unicode="&#xc7;" horiz-adv-x="1448" d="M84 713q0 330 217 537.5t561 207.5q102 0 215.5 -19t235.5 -57v-34q0 -70 5 -145.5t15 -158.5l-73 -12q-20 144 -136 224.5t-303 80.5q-249 0 -384.5 -152.5t-135.5 -432.5q0 -299 155.5 -483.5t403.5 -184.5q156 0 270.5 72t178.5 211l67 -33q-32 -65 -58 -132.5 t-46 -135.5q-108 -49 -220 -74t-225 -25q-332 0 -537.5 205.5t-205.5 540.5zM646 -395q66 15 100.5 46t34.5 77q0 37 -30.5 61t-90.5 35l155 176h76l-98 -121q65 -16 100 -50t35 -81q0 -67 -66.5 -120.5t-185.5 -82.5z" />
<glyph unicode="&#xc8;" horiz-adv-x="1298" d="M76 0v65q7 -1 13.5 -1.5t19.5 -0.5q133 0 135 374q1 94 2 147l4 273q1 88 1.5 171t0.5 180q0 86 -32 119t-114 33h-8v67q175 -6 313 -9t238 -3q111 0 224.5 3t230.5 9q1 -75 6 -153.5t12 -157.5l-67 -6q-8 120 -74 162.5t-285 42.5q-56 0 -205 -3q-30 -1 -44 -1 q-2 -120 -6 -294t-5 -226h31q59 0 147.5 -1.5t118.5 -1.5q145 0 191.5 27t50.5 100l63 -6q-7 -62 -10.5 -115t-3.5 -98q0 -26 5 -112q2 -31 3 -47l-65 -2v8q0 85 -49.5 115t-231.5 30h-178h-72q0 -49 -1 -135.5t-1 -124.5q0 -66 1 -137.5t4 -167.5q50 -6 113.5 -9t139.5 -3 q251 0 330.5 48.5t126.5 186.5l72 -24q-30 -83 -53 -163t-40 -159q-157 6 -292 9t-244 3q-149 0 -480 -11zM389 1911l147 90l265 -405l-76 -25z" />
<glyph unicode="&#xc9;" horiz-adv-x="1298" d="M76 0v65q7 -1 13.5 -1.5t19.5 -0.5q133 0 135 374q1 94 2 147l4 273q1 88 1.5 171t0.5 180q0 86 -32 119t-114 33h-8v67q175 -6 313 -9t238 -3q111 0 224.5 3t230.5 9q1 -75 6 -153.5t12 -157.5l-67 -6q-8 120 -74 162.5t-285 42.5q-56 0 -205 -3q-30 -1 -44 -1 q-2 -120 -6 -294t-5 -226h31q59 0 147.5 -1.5t118.5 -1.5q145 0 191.5 27t50.5 100l63 -6q-7 -62 -10.5 -115t-3.5 -98q0 -26 5 -112q2 -31 3 -47l-65 -2v8q0 85 -49.5 115t-231.5 30h-178h-72q0 -49 -1 -135.5t-1 -124.5q0 -66 1 -137.5t4 -167.5q50 -6 113.5 -9t139.5 -3 q251 0 330.5 48.5t126.5 186.5l72 -24q-30 -83 -53 -163t-40 -159q-157 6 -292 9t-244 3q-149 0 -480 -11zM506 1598l260 403l149 -96l-334 -334z" />
<glyph unicode="&#xca;" horiz-adv-x="1298" d="M76 0v65q7 -1 13.5 -1.5t19.5 -0.5q133 0 135 374q1 94 2 147l4 273q1 88 1.5 171t0.5 180q0 86 -32 119t-114 33h-8v67q175 -6 313 -9t238 -3q111 0 224.5 3t230.5 9q1 -75 6 -153.5t12 -157.5l-67 -6q-8 120 -74 162.5t-285 42.5q-56 0 -205 -3q-30 -1 -44 -1 q-2 -120 -6 -294t-5 -226h31q59 0 147.5 -1.5t118.5 -1.5q145 0 191.5 27t50.5 100l63 -6q-7 -62 -10.5 -115t-3.5 -98q0 -26 5 -112q2 -31 3 -47l-65 -2v8q0 85 -49.5 115t-231.5 30h-178h-72q0 -49 -1 -135.5t-1 -124.5q0 -66 1 -137.5t4 -167.5q50 -6 113.5 -9t139.5 -3 q251 0 330.5 48.5t126.5 186.5l72 -24q-30 -83 -53 -163t-40 -159q-157 6 -292 9t-244 3q-149 0 -480 -11zM346 1602l274 322h62l272 -322l-61 -31l-244 203l-244 -203z" />
<glyph unicode="&#xcb;" horiz-adv-x="1298" d="M76 0v65q7 -1 13.5 -1.5t19.5 -0.5q133 0 135 374q1 94 2 147l4 273q1 88 1.5 171t0.5 180q0 86 -32 119t-114 33h-8v67q175 -6 313 -9t238 -3q111 0 224.5 3t230.5 9q1 -75 6 -153.5t12 -157.5l-67 -6q-8 120 -74 162.5t-285 42.5q-56 0 -205 -3q-30 -1 -44 -1 q-2 -120 -6 -294t-5 -226h31q59 0 147.5 -1.5t118.5 -1.5q145 0 191.5 27t50.5 100l63 -6q-7 -62 -10.5 -115t-3.5 -98q0 -26 5 -112q2 -31 3 -47l-65 -2v8q0 85 -49.5 115t-231.5 30h-178h-72q0 -49 -1 -135.5t-1 -124.5q0 -66 1 -137.5t4 -167.5q50 -6 113.5 -9t139.5 -3 q251 0 330.5 48.5t126.5 186.5l72 -24q-30 -83 -53 -163t-40 -159q-157 6 -292 9t-244 3q-149 0 -480 -11zM311 1745q0 36 43 76.5t82 40.5t82 -40t43 -77q0 -36 -43 -76t-82 -40q-40 0 -82.5 39.5t-42.5 76.5zM737 1745q0 36 43 76.5t82 40.5t83 -40t44 -77q0 -36 -44 -76 t-83 -40q-40 0 -82.5 39.5t-42.5 76.5z" />
<glyph unicode="&#xcc;" horiz-adv-x="696" d="M66 0v70h20q62 0 95 11t46 36q14 27 19.5 88.5t5.5 222.5v158v391q0 157 -4 223.5t-13 92.5q-12 35 -43.5 50t-97.5 15h-18v69q70 -4 139 -6t135 -2q56 0 125 2t146 6v-69h-17q-65 0 -97.5 -15t-45.5 -50q-8 -23 -11.5 -74.5t-3.5 -167.5v-199v-498q0 -118 5.5 -166 t17.5 -71q13 -25 46.5 -36t94.5 -11h21v-70q-86 4 -159 6t-122 2q-58 0 -131 -2t-153 -6zM90 1911l147 90l265 -405l-76 -25z" />
<glyph unicode="&#xcd;" horiz-adv-x="696" d="M66 0v70h20q62 0 95 11t46 36q14 27 19.5 88.5t5.5 222.5v158v391q0 157 -4 223.5t-13 92.5q-12 35 -43.5 50t-97.5 15h-18v69q70 -4 139 -6t135 -2q56 0 125 2t146 6v-69h-17q-65 0 -97.5 -15t-45.5 -50q-8 -23 -11.5 -74.5t-3.5 -167.5v-199v-498q0 -118 5.5 -166 t17.5 -71q13 -25 46.5 -36t94.5 -11h21v-70q-86 4 -159 6t-122 2q-58 0 -131 -2t-153 -6zM207 1598l260 403l149 -96l-334 -334z" />
<glyph unicode="&#xce;" horiz-adv-x="696" d="M47 1602l274 322h62l272 -322l-61 -31l-244 203l-244 -203zM66 0v70h20q62 0 95 11t46 36q14 27 19.5 88.5t5.5 222.5v158v391q0 157 -4 223.5t-13 92.5q-12 35 -43.5 50t-97.5 15h-18v69q70 -4 139 -6t135 -2q56 0 125 2t146 6v-69h-17q-65 0 -97.5 -15t-45.5 -50 q-8 -23 -11.5 -74.5t-3.5 -167.5v-199v-498q0 -118 5.5 -166t17.5 -71q13 -25 46.5 -36t94.5 -11h21v-70q-86 4 -159 6t-122 2q-58 0 -131 -2t-153 -6z" />
<glyph unicode="&#xcf;" horiz-adv-x="696" d="M12 1745q0 36 43 76.5t82 40.5t82 -40t43 -77q0 -36 -43 -76t-82 -40q-40 0 -82.5 39.5t-42.5 76.5zM66 0v70h20q62 0 95 11t46 36q14 27 19.5 88.5t5.5 222.5v158v391q0 157 -4 223.5t-13 92.5q-12 35 -43.5 50t-97.5 15h-18v69q70 -4 139 -6t135 -2q56 0 125 2t146 6 v-69h-17q-65 0 -97.5 -15t-45.5 -50q-8 -23 -11.5 -74.5t-3.5 -167.5v-199v-498q0 -118 5.5 -166t17.5 -71q13 -25 46.5 -36t94.5 -11h21v-70q-86 4 -159 6t-122 2q-58 0 -131 -2t-153 -6zM438 1745q0 36 43 76.5t82 40.5t83 -40t44 -77q0 -36 -44 -76t-83 -40 q-40 0 -82.5 39.5t-42.5 76.5z" />
<glyph unicode="&#xd0;" horiz-adv-x="1612" d="M18 678v100q22 0 63 -1t60 -1h127v76q0 57 1 143.5t1 116.5q0 152 -28.5 199t-106.5 47h-18v69q71 -3 128.5 -5.5t88.5 -2.5q112 0 245.5 8.5t155.5 8.5q373 0 587 -189t214 -514q0 -334 -214.5 -537.5t-573.5 -203.5q-51 0 -192.5 8t-231.5 8q-41 0 -100 -2t-130 -6v69 q7 0 15.5 -0.5t21.5 -0.5q80 0 108.5 56t28.5 259v203v92h-102h-76h-72zM453 121q72 -16 143 -23.5t141 -7.5q282 0 433 154t151 440q0 306 -161.5 478.5t-448.5 172.5q-60 0 -122 -4.5t-126 -13.5q-2 -95 -4 -206.5t-4 -334.5h190q32 0 97 1t98 1v-102q-65 1 -123 1.5 t-109 0.5h-153q-1 -80 -1.5 -151.5t-0.5 -133.5v-272z" />
<glyph unicode="&#xd1;" horiz-adv-x="1655" d="M61 0v69q6 0 13.5 -0.5t19.5 -0.5q134 0 136 371q1 94 1 147l5 266q1 86 1.5 167.5t0.5 186.5q0 86 -33 119t-117 33h-27v69q47 -4 91.5 -6t87.5 -2q32 0 75 2t93 6q13 -33 36 -68t58 -77l825 -976q-3 152 -6 403q-8 527 -18 567q-12 46 -42.5 64t-99.5 18h-31v69 q12 0 36 -1q142 -7 200 -7q59 0 206 7q21 1 32 1l-1 -69q-6 1 -13 1.5t-19 0.5q-134 0 -136 -373q-1 -94 -1 -147l-4 -266q-2 -59 -2.5 -121.5t-0.5 -171.5q0 -121 3 -188.5t10 -108.5h-111q-17 40 -121 160l-10 12l-858 1009v-23q6 -936 20 -990q12 -46 42.5 -64t97.5 -18 h30v-70q-15 1 -44 2q-140 6 -191 6q-49 0 -108.5 -2t-125.5 -6zM438 1639q52 68 110 118.5t125 86.5q72 -6 174.5 -22.5t135.5 -16.5q51 0 94 23.5t80 70.5l53 -43q-53 -69 -107 -119t-117 -86q-71 5 -173 21t-133 16q-60 0 -107 -23.5t-86 -72.5z" />
<glyph unicode="&#xd2;" horiz-adv-x="1642" d="M94 717q0 158 59.5 298.5t172.5 246.5q102 96 230 147t265 51q152 0 271.5 -43.5t216.5 -134.5q116 -110 177.5 -255t61.5 -308q0 -166 -65 -314t-185 -255q-96 -86 -223.5 -134.5t-255.5 -48.5q-160 0 -294.5 59t-237.5 175q-94 106 -143.5 238t-49.5 278zM315 760 q0 -298 150.5 -489t376.5 -191q218 0 351.5 164.5t133.5 439.5q0 291 -150 477.5t-378 186.5q-219 0 -351.5 -160t-132.5 -428zM561 1911l147 90l265 -405l-76 -25z" />
<glyph unicode="&#xd3;" horiz-adv-x="1642" d="M94 717q0 158 59.5 298.5t172.5 246.5q102 96 230 147t265 51q152 0 271.5 -43.5t216.5 -134.5q116 -110 177.5 -255t61.5 -308q0 -166 -65 -314t-185 -255q-96 -86 -223.5 -134.5t-255.5 -48.5q-160 0 -294.5 59t-237.5 175q-94 106 -143.5 238t-49.5 278zM315 760 q0 -298 150.5 -489t376.5 -191q218 0 351.5 164.5t133.5 439.5q0 291 -150 477.5t-378 186.5q-219 0 -351.5 -160t-132.5 -428zM678 1598l260 403l149 -96l-334 -334z" />
<glyph unicode="&#xd4;" horiz-adv-x="1642" d="M94 717q0 158 59.5 298.5t172.5 246.5q102 96 230 147t265 51q152 0 271.5 -43.5t216.5 -134.5q116 -110 177.5 -255t61.5 -308q0 -166 -65 -314t-185 -255q-96 -86 -223.5 -134.5t-255.5 -48.5q-160 0 -294.5 59t-237.5 175q-94 106 -143.5 238t-49.5 278zM315 760 q0 -298 150.5 -489t376.5 -191q218 0 351.5 164.5t133.5 439.5q0 291 -150 477.5t-378 186.5q-219 0 -351.5 -160t-132.5 -428zM518 1602l274 322h62l272 -322l-61 -31l-244 203l-244 -203z" />
<glyph unicode="&#xd5;" horiz-adv-x="1642" d="M94 717q0 158 59.5 298.5t172.5 246.5q102 96 230 147t265 51q152 0 271.5 -43.5t216.5 -134.5q116 -110 177.5 -255t61.5 -308q0 -166 -65 -314t-185 -255q-96 -86 -223.5 -134.5t-255.5 -48.5q-160 0 -294.5 59t-237.5 175q-94 106 -143.5 238t-49.5 278zM315 760 q0 -298 150.5 -489t376.5 -191q218 0 351.5 164.5t133.5 439.5q0 291 -150 477.5t-378 186.5q-219 0 -351.5 -160t-132.5 -428zM432 1639q52 68 110 118.5t125 86.5q72 -6 174.5 -22.5t135.5 -16.5q51 0 94 23.5t80 70.5l53 -43q-53 -69 -107 -119t-117 -86q-71 5 -173 21 t-133 16q-60 0 -107 -23.5t-86 -72.5z" />
<glyph unicode="&#xd6;" horiz-adv-x="1642" d="M94 717q0 158 59.5 298.5t172.5 246.5q102 96 230 147t265 51q152 0 271.5 -43.5t216.5 -134.5q116 -110 177.5 -255t61.5 -308q0 -166 -65 -314t-185 -255q-96 -86 -223.5 -134.5t-255.5 -48.5q-160 0 -294.5 59t-237.5 175q-94 106 -143.5 238t-49.5 278zM315 760 q0 -298 150.5 -489t376.5 -191q218 0 351.5 164.5t133.5 439.5q0 291 -150 477.5t-378 186.5q-219 0 -351.5 -160t-132.5 -428zM483 1745q0 36 43 76.5t82 40.5t82 -40t43 -77q0 -36 -43 -76t-82 -40q-40 0 -82.5 39.5t-42.5 76.5zM909 1745q0 36 43 76.5t82 40.5t83 -40 t44 -77q0 -36 -44 -76t-83 -40q-40 0 -82.5 39.5t-42.5 76.5z" />
<glyph unicode="&#xd7;" horiz-adv-x="1706" d="M301 135l475 475l-475 477l80 82l477 -477l475 477l82 -82l-475 -477l475 -475l-82 -82l-475 475l-477 -475z" />
<glyph unicode="&#xd8;" horiz-adv-x="1642" d="M94 717q0 315 214 529t532 214q88 0 169.5 -19t161.5 -59q41 64 110 181q17 30 26 45l84 -54q-58 -86 -88.5 -132.5t-57.5 -88.5q147 -112 225 -270t78 -344q0 -165 -65 -314t-185 -255q-96 -86 -223.5 -134.5t-255.5 -48.5q-111 0 -201.5 24.5t-168.5 76.5 q-33 -52 -67.5 -109.5t-76.5 -130.5l-80 49q66 99 98 148t58 90q-135 100 -211 259t-76 343zM301 760q0 -154 40.5 -278.5t121.5 -219.5q135 196 439 679q129 204 198 312q-70 53 -144 79t-155 26q-226 0 -363 -163t-137 -435zM520 197q75 -63 158 -94t174 -31 q216 0 352.5 168.5t136.5 445.5q0 157 -45.5 286t-134.5 224q-142 -210 -299 -454.5t-342 -544.5z" />
<glyph unicode="&#xd9;" horiz-adv-x="1612" d="M82 1358v69q71 -4 135 -6t117 -2q64 0 130 2t134 6v-69q-6 0 -17 1t-16 1q-79 0 -107 -52t-28 -247v-158v-207q0 -162 10 -239t33 -127q49 -108 144.5 -164.5t230.5 -56.5q101 0 177 29t130 89t76 147t22 290q0 244 -5.5 410.5t-14.5 201.5q-14 46 -43.5 64t-95.5 18h-15 v69q12 0 35 -1q138 -7 197 -7q58 0 196 7q24 1 35 1v-69h-12q-59 0 -88.5 -15t-42.5 -50q-11 -29 -16 -152.5t-5 -399.5v-100q0 -158 -12 -241.5t-39 -147.5q-56 -133 -193 -209t-323 -76q-129 0 -237.5 38t-184.5 110q-83 76 -118 179.5t-35 289.5q0 72 2 235.5t2 255.5v31 q0 172 -28.5 212t-111.5 40h-18zM578 1911l147 90l265 -405l-76 -25z" />
<glyph unicode="&#xda;" horiz-adv-x="1612" d="M82 1358v69q71 -4 135 -6t117 -2q64 0 130 2t134 6v-69q-6 0 -17 1t-16 1q-79 0 -107 -52t-28 -247v-158v-207q0 -162 10 -239t33 -127q49 -108 144.5 -164.5t230.5 -56.5q101 0 177 29t130 89t76 147t22 290q0 244 -5.5 410.5t-14.5 201.5q-14 46 -43.5 64t-95.5 18h-15 v69q12 0 35 -1q138 -7 197 -7q58 0 196 7q24 1 35 1v-69h-12q-59 0 -88.5 -15t-42.5 -50q-11 -29 -16 -152.5t-5 -399.5v-100q0 -158 -12 -241.5t-39 -147.5q-56 -133 -193 -209t-323 -76q-129 0 -237.5 38t-184.5 110q-83 76 -118 179.5t-35 289.5q0 72 2 235.5t2 255.5v31 q0 172 -28.5 212t-111.5 40h-18zM695 1598l260 403l149 -96l-334 -334z" />
<glyph unicode="&#xdb;" horiz-adv-x="1612" d="M82 1358v69q71 -4 135 -6t117 -2q64 0 130 2t134 6v-69q-6 0 -17 1t-16 1q-79 0 -107 -52t-28 -247v-158v-207q0 -162 10 -239t33 -127q49 -108 144.5 -164.5t230.5 -56.5q101 0 177 29t130 89t76 147t22 290q0 244 -5.5 410.5t-14.5 201.5q-14 46 -43.5 64t-95.5 18h-15 v69q12 0 35 -1q138 -7 197 -7q58 0 196 7q24 1 35 1v-69h-12q-59 0 -88.5 -15t-42.5 -50q-11 -29 -16 -152.5t-5 -399.5v-100q0 -158 -12 -241.5t-39 -147.5q-56 -133 -193 -209t-323 -76q-129 0 -237.5 38t-184.5 110q-83 76 -118 179.5t-35 289.5q0 72 2 235.5t2 255.5v31 q0 172 -28.5 212t-111.5 40h-18zM535 1602l274 322h62l272 -322l-61 -31l-244 203l-244 -203z" />
<glyph unicode="&#xdc;" horiz-adv-x="1612" d="M82 1358v69q71 -4 135 -6t117 -2q64 0 130 2t134 6v-69q-6 0 -17 1t-16 1q-79 0 -107 -52t-28 -247v-158v-207q0 -162 10 -239t33 -127q49 -108 144.5 -164.5t230.5 -56.5q101 0 177 29t130 89t76 147t22 290q0 244 -5.5 410.5t-14.5 201.5q-14 46 -43.5 64t-95.5 18h-15 v69q12 0 35 -1q138 -7 197 -7q58 0 196 7q24 1 35 1v-69h-12q-59 0 -88.5 -15t-42.5 -50q-11 -29 -16 -152.5t-5 -399.5v-100q0 -158 -12 -241.5t-39 -147.5q-56 -133 -193 -209t-323 -76q-129 0 -237.5 38t-184.5 110q-83 76 -118 179.5t-35 289.5q0 72 2 235.5t2 255.5v31 q0 172 -28.5 212t-111.5 40h-18zM500 1745q0 36 43 76.5t82 40.5t82 -40t43 -77q0 -36 -43 -76t-82 -40q-40 0 -82.5 39.5t-42.5 76.5zM926 1745q0 36 43 76.5t82 40.5t83 -40t44 -77q0 -36 -44 -76t-83 -40q-40 0 -82.5 39.5t-42.5 76.5z" />
<glyph unicode="&#xdd;" horiz-adv-x="1350" d="M18 1427q74 -4 139 -6t115 -2q54 0 116 2t130 6v-69h-14q-55 0 -84 -11.5t-29 -33.5q0 -24 49 -108q13 -22 21 -36l241 -430q164 263 246 406t82 166q0 24 -24.5 35.5t-79.5 11.5h-17v69q60 -4 114 -6t95 -2q51 0 104 2t109 6v-69q-2 1 -5 1.5t-9 0.5h-12 q-89 0 -231 -228q-44 -71 -70 -112l-252 -385l4 -357q2 -139 32 -173.5t119 -34.5h35v-70q-83 4 -157.5 6t-133.5 2q-50 0 -124.5 -2t-161.5 -6v70q7 0 21 -1t20 -1q87 0 118 40t33 166l4 355l-323 545q-9 13 -23 38q-89 150 -162 150q-5 0 -12.5 -1t-21.5 -3zM533 1598 l260 403l149 -96l-334 -334z" />
<glyph unicode="&#xde;" horiz-adv-x="1188" d="M76 0v65q8 -1 15.5 -1.5t23.5 -0.5q79 0 107 52.5t28 246.5v140v82l2 272v352q0 86 -32 119t-114 33h-8v69q25 -1 70 -4q133 -8 182 -8q37 0 98.5 3t147.5 10v-70h-21q-82 0 -114.5 -30.5t-34.5 -110.5l-2 -54q65 4 124 6.5t105 2.5q229 0 361.5 -106t132.5 -288 q0 -212 -144 -330t-405 -118q-33 0 -164 13l-12 1v-67q0 -137 31.5 -173t136.5 -36h24v-70q-74 4 -145 6t-141 2q-34 0 -101 -2t-151 -6zM422 437q32 -6 69 -8.5t76 -2.5q188 0 284.5 83.5t96.5 244.5q0 145 -95.5 231t-258.5 86q-39 0 -80 -4t-86 -13q-3 -195 -4.5 -350 t-1.5 -267z" />
<glyph unicode="&#xdf;" horiz-adv-x="1200" d="M70 0v68q1 -1 4 -1q23 -3 35 -4q62 0 85 51.5t23 221.5q0 27 -1 102.5t-1 122.5v418q0 277 116 423t337 146q148 0 247 -86.5t99 -214.5q0 -63 -31.5 -123t-103.5 -135l-13 -13q-94 -96 -94 -138q0 -20 15.5 -43t70.5 -76q24 -22 69 -62q201 -179 201 -321 q0 -146 -107.5 -250t-252.5 -104q-93 0 -147 39.5t-54 107.5q0 31 20.5 51.5t53.5 20.5t77.5 -60.5t106.5 -60.5q71 0 116.5 48.5t45.5 123.5q0 107 -192 281q-35 32 -54 49q-55 50 -84.5 98t-29.5 86q0 61 88 156q14 15 23 25q65 72 96.5 138.5t31.5 128.5q0 110 -66 177 t-175 67q-124 0 -184 -96t-60 -295v-633q0 -37 -1 -95t-1 -79q0 -121 17 -157.5t65 -36.5q3 0 9.5 1t10.5 1v-68q-82 6 -131 8t-84 2q-38 0 -88.5 -2.5t-107.5 -7.5z" />
<glyph unicode="&#xe0;" horiz-adv-x="985" d="M74 246q0 187 403 282q95 22 148 35q0 17 1 49q3 66 3 86q0 104 -43 153.5t-131 49.5q-86 0 -135.5 -31.5t-49.5 -85.5q0 -5 1 -13.5t1 -12.5q0 -31 -30 -51.5t-72 -20.5q-36 0 -53 12t-17 37q0 80 135 178.5t279 98.5q139 0 211 -76.5t72 -224.5q0 -80 -9.5 -246 t-9.5 -252q0 -65 14.5 -88t51.5 -23q16 0 41.5 9.5t75.5 33.5l28 -63q-75 -54 -137 -83.5t-100 -29.5q-64 0 -96 37.5t-35 113.5q-109 -73 -181 -104.5t-129 -31.5q-101 0 -169 76t-68 186zM236 1460l147 90l265 -405l-76 -25zM238 258q0 -66 42 -107.5t111 -41.5 q42 0 97 22t128 70l4 282l-57 -15q-325 -89 -325 -210z" />
<glyph unicode="&#xe1;" horiz-adv-x="985" d="M74 246q0 187 403 282q95 22 148 35q0 17 1 49q3 66 3 86q0 104 -43 153.5t-131 49.5q-86 0 -135.5 -31.5t-49.5 -85.5q0 -5 1 -13.5t1 -12.5q0 -31 -30 -51.5t-72 -20.5q-36 0 -53 12t-17 37q0 80 135 178.5t279 98.5q139 0 211 -76.5t72 -224.5q0 -80 -9.5 -246 t-9.5 -252q0 -65 14.5 -88t51.5 -23q16 0 41.5 9.5t75.5 33.5l28 -63q-75 -54 -137 -83.5t-100 -29.5q-64 0 -96 37.5t-35 113.5q-109 -73 -181 -104.5t-129 -31.5q-101 0 -169 76t-68 186zM238 258q0 -66 42 -107.5t111 -41.5q42 0 97 22t128 70l4 282l-57 -15 q-325 -89 -325 -210zM353 1147l260 403l149 -96l-334 -334z" />
<glyph unicode="&#xe2;" horiz-adv-x="985" d="M74 246q0 187 403 282q95 22 148 35q0 17 1 49q3 66 3 86q0 104 -43 153.5t-131 49.5q-86 0 -135.5 -31.5t-49.5 -85.5q0 -5 1 -13.5t1 -12.5q0 -31 -30 -51.5t-72 -20.5q-36 0 -53 12t-17 37q0 80 135 178.5t279 98.5q139 0 211 -76.5t72 -224.5q0 -80 -9.5 -246 t-9.5 -252q0 -65 14.5 -88t51.5 -23q16 0 41.5 9.5t75.5 33.5l28 -63q-75 -54 -137 -83.5t-100 -29.5q-64 0 -96 37.5t-35 113.5q-109 -73 -181 -104.5t-129 -31.5q-101 0 -169 76t-68 186zM193 1151l274 322h62l272 -322l-61 -31l-244 203l-244 -203zM238 258 q0 -66 42 -107.5t111 -41.5q42 0 97 22t128 70l4 282l-57 -15q-325 -89 -325 -210z" />
<glyph unicode="&#xe3;" horiz-adv-x="985" d="M74 246q0 187 403 282q95 22 148 35q0 17 1 49q3 66 3 86q0 104 -43 153.5t-131 49.5q-86 0 -135.5 -31.5t-49.5 -85.5q0 -5 1 -13.5t1 -12.5q0 -31 -30 -51.5t-72 -20.5q-36 0 -53 12t-17 37q0 80 135 178.5t279 98.5q139 0 211 -76.5t72 -224.5q0 -80 -9.5 -246 t-9.5 -252q0 -65 14.5 -88t51.5 -23q16 0 41.5 9.5t75.5 33.5l28 -63q-75 -54 -137 -83.5t-100 -29.5q-64 0 -96 37.5t-35 113.5q-109 -73 -181 -104.5t-129 -31.5q-101 0 -169 76t-68 186zM107 1188q52 68 110 118.5t125 86.5q72 -6 174.5 -22.5t135.5 -16.5q51 0 94 23.5 t80 70.5l53 -43q-53 -69 -107 -119t-117 -86q-71 5 -173 21t-133 16q-60 0 -107 -23.5t-86 -72.5zM238 258q0 -66 42 -107.5t111 -41.5q42 0 97 22t128 70l4 282l-57 -15q-325 -89 -325 -210z" />
<glyph unicode="&#xe4;" horiz-adv-x="985" d="M74 246q0 187 403 282q95 22 148 35q0 17 1 49q3 66 3 86q0 104 -43 153.5t-131 49.5q-86 0 -135.5 -31.5t-49.5 -85.5q0 -5 1 -13.5t1 -12.5q0 -31 -30 -51.5t-72 -20.5q-36 0 -53 12t-17 37q0 80 135 178.5t279 98.5q139 0 211 -76.5t72 -224.5q0 -80 -9.5 -246 t-9.5 -252q0 -65 14.5 -88t51.5 -23q16 0 41.5 9.5t75.5 33.5l28 -63q-75 -54 -137 -83.5t-100 -29.5q-64 0 -96 37.5t-35 113.5q-109 -73 -181 -104.5t-129 -31.5q-101 0 -169 76t-68 186zM158 1294q0 36 43 76.5t82 40.5t82 -40t43 -77q0 -36 -43 -76t-82 -40 q-40 0 -82.5 39.5t-42.5 76.5zM238 258q0 -66 42 -107.5t111 -41.5q42 0 97 22t128 70l4 282l-57 -15q-325 -89 -325 -210zM584 1294q0 36 43 76.5t82 40.5t83 -40t44 -77q0 -36 -44 -76t-83 -40q-40 0 -82.5 39.5t-42.5 76.5z" />
<glyph unicode="&#xe5;" horiz-adv-x="985" d="M74 244q0 188 416 287q86 20 135 32q0 17 1 49q3 66 3 86q0 104 -43 153.5t-131 49.5q-91 0 -133 -31t-50 -113q-3 -41 -23 -57t-69 -16q-41 0 -60.5 12.5t-19.5 38.5q0 80 135 178.5t279 98.5q139 0 211 -76.5t72 -224.5q0 -77 -9.5 -243t-9.5 -255q0 -63 14.5 -87 t49.5 -24q16 0 38 9t66 32l33 -57q-89 -62 -143 -90.5t-84 -28.5q-63 0 -95.5 38t-35.5 115q-112 -75 -183 -106.5t-127 -31.5q-101 0 -169 76t-68 186zM238 258q0 -66 42 -107.5t111 -41.5q44 0 99 22t126 68l4 284l-57 -15q-325 -89 -325 -210zM252 1343q0 102 70.5 173 t171.5 71t172 -71t71 -173q0 -101 -70.5 -171t-172.5 -70t-172 70t-70 171zM354 1343q0 -56 41.5 -97.5t98.5 -41.5q56 0 97.5 41.5t41.5 97.5q0 59 -40.5 99.5t-98.5 40.5t-99 -41t-41 -99z" />
<glyph unicode="&#xe6;" horiz-adv-x="1548" d="M72 246q0 186 412 281q98 23 153 36q1 18 2 50q2 65 2 85q0 105 -43.5 154t-136.5 49q-88 0 -138.5 -30t-50.5 -83v-20q0 -39 -29 -60.5t-81 -21.5q-30 0 -46 12.5t-16 36.5q0 79 138.5 178t279.5 99q87 0 146.5 -37.5t87.5 -110.5q63 76 142.5 112t180.5 36 q176 0 281 -118.5t121 -334.5h-488q-57 0 -105 -2t-89 -6v-37q0 -196 90.5 -303t255.5 -107q73 0 145.5 24.5t151.5 76.5l39 -64q-102 -84 -205.5 -127t-202.5 -43q-116 0 -213.5 53.5t-153.5 147.5q-137 -100 -228 -144t-159 -44q-102 0 -172.5 76t-70.5 186zM236 262 q0 -64 44.5 -106.5t114.5 -42.5q46 0 101.5 21.5t132.5 70.5l3 278q-17 -4 -53 -14q-343 -89 -343 -207zM801 633q198 0 311.5 7t179.5 24q-30 123 -91 188.5t-146 65.5q-96 0 -165 -77t-89 -208z" />
<glyph unicode="&#xe7;" horiz-adv-x="915" d="M66 471q0 227 157 384t383 157q116 0 179 -32.5t63 -90.5q0 -42 -25.5 -72.5t-58.5 -30.5q-11 0 -92.5 50.5t-155.5 50.5q-130 0 -206.5 -93.5t-76.5 -254.5q0 -203 92.5 -316.5t256.5 -113.5q61 0 121.5 21t125.5 67l50 -76q-97 -74 -191 -112t-178 -38 q-196 0 -320 140.5t-124 359.5zM353 -395q66 15 100.5 46t34.5 77q0 37 -30.5 61t-90.5 35l155 176h76l-98 -121q65 -16 100 -50t35 -81q0 -67 -66.5 -120.5t-185.5 -82.5z" />
<glyph unicode="&#xe8;" horiz-adv-x="999" d="M74 465q0 231 132 388t322 157q177 0 282 -118t120 -333h-488q-57 0 -105 -2t-89 -6v-37q0 -196 90.5 -303t255.5 -107q73 0 144 24.5t151 76.5l39 -64q-103 -84 -205.5 -127t-202.5 -43q-194 0 -320 138.5t-126 355.5zM242 1460l147 90l265 -405l-76 -25zM254 633 q198 0 311.5 7t179.5 24q-30 123 -91 188.5t-146 65.5q-96 0 -164.5 -77t-89.5 -208z" />
<glyph unicode="&#xe9;" horiz-adv-x="999" d="M74 465q0 231 132 388t322 157q177 0 282 -118t120 -333h-488q-57 0 -105 -2t-89 -6v-37q0 -196 90.5 -303t255.5 -107q73 0 144 24.5t151 76.5l39 -64q-103 -84 -205.5 -127t-202.5 -43q-194 0 -320 138.5t-126 355.5zM254 633q198 0 311.5 7t179.5 24 q-30 123 -91 188.5t-146 65.5q-96 0 -164.5 -77t-89.5 -208zM359 1147l260 403l149 -96l-334 -334z" />
<glyph unicode="&#xea;" horiz-adv-x="999" d="M74 465q0 231 132 388t322 157q177 0 282 -118t120 -333h-488q-57 0 -105 -2t-89 -6v-37q0 -196 90.5 -303t255.5 -107q73 0 144 24.5t151 76.5l39 -64q-103 -84 -205.5 -127t-202.5 -43q-194 0 -320 138.5t-126 355.5zM199 1151l274 322h62l272 -322l-61 -31l-244 203 l-244 -203zM254 633q198 0 311.5 7t179.5 24q-30 123 -91 188.5t-146 65.5q-96 0 -164.5 -77t-89.5 -208z" />
<glyph unicode="&#xeb;" horiz-adv-x="999" d="M74 465q0 231 132 388t322 157q177 0 282 -118t120 -333h-488q-57 0 -105 -2t-89 -6v-37q0 -196 90.5 -303t255.5 -107q73 0 144 24.5t151 76.5l39 -64q-103 -84 -205.5 -127t-202.5 -43q-194 0 -320 138.5t-126 355.5zM164 1294q0 36 43 76.5t82 40.5t82 -40t43 -77 q0 -36 -43 -76t-82 -40q-40 0 -82.5 39.5t-42.5 76.5zM254 633q198 0 311.5 7t179.5 24q-30 123 -91 188.5t-146 65.5q-96 0 -164.5 -77t-89.5 -208zM590 1294q0 36 43 76.5t82 40.5t83 -40t44 -77q0 -36 -44 -76t-83 -40q-40 0 -82.5 39.5t-42.5 76.5z" />
<glyph unicode="&#xec;" horiz-adv-x="608" d="M47 1460l147 90l265 -405l-76 -25zM63 0v70h25q124 0 125 244v55l4 247q0 27 1 68t1 55q0 81 -15.5 107t-56.5 26q-8 0 -23.5 -1.5t-33.5 -3.5l-10 63q79 15 157.5 38t157.5 54q-1 -38 -3 -108q-13 -402 -13 -566v-106q0 -114 21.5 -143t86.5 -29h21h10v-70q-85 6 -137 8 t-88 2q-32 0 -81.5 -2t-148.5 -8z" />
<glyph unicode="&#xed;" horiz-adv-x="608" d="M63 0v70h25q124 0 125 244v55l4 247q0 27 1 68t1 55q0 81 -15.5 107t-56.5 26q-8 0 -23.5 -1.5t-33.5 -3.5l-10 63q79 15 157.5 38t157.5 54q-1 -38 -3 -108q-13 -402 -13 -566v-106q0 -114 21.5 -143t86.5 -29h21h10v-70q-85 6 -137 8t-88 2q-32 0 -81.5 -2t-148.5 -8z M164 1147l260 403l149 -96l-334 -334z" />
<glyph unicode="&#xee;" horiz-adv-x="608" d="M4 1151l274 322h62l272 -322l-61 -31l-244 203l-244 -203zM63 0v70h25q124 0 125 244v55l4 247q0 27 1 68t1 55q0 81 -15.5 107t-56.5 26q-8 0 -23.5 -1.5t-33.5 -3.5l-10 63q79 15 157.5 38t157.5 54q-1 -38 -3 -108q-13 -402 -13 -566v-106q0 -114 21.5 -143t86.5 -29 h21h10v-70q-85 6 -137 8t-88 2q-32 0 -81.5 -2t-148.5 -8z" />
<glyph unicode="&#xef;" horiz-adv-x="608" d="M-31 1294q0 36 43 76.5t82 40.5t82 -40t43 -77q0 -36 -43 -76t-82 -40q-40 0 -82.5 39.5t-42.5 76.5zM63 0v70h25q124 0 125 244v55l4 247q0 27 1 68t1 55q0 81 -15.5 107t-56.5 26q-8 0 -23.5 -1.5t-33.5 -3.5l-10 63q79 15 157.5 38t157.5 54q-1 -38 -3 -108 q-13 -402 -13 -566v-106q0 -114 21.5 -143t86.5 -29h21h10v-70q-85 6 -137 8t-88 2q-32 0 -81.5 -2t-148.5 -8zM395 1294q0 36 43 76.5t82 40.5t83 -40t44 -77q0 -36 -44 -76t-83 -40q-40 0 -82.5 39.5t-42.5 76.5z" />
<glyph unicode="&#xf0;" horiz-adv-x="1128" d="M68 481q0 220 152.5 374.5t373.5 154.5q56 0 105 -10.5t96 -32.5q-43 81 -96 152.5t-119 137.5q-82 -53 -127 -84t-84 -59l-47 72q38 23 84.5 53.5t115.5 77.5q-63 56 -126.5 105t-129.5 91l150 48q61 -38 116.5 -78.5t108.5 -85.5q43 28 93 64t112 83l49 -76 q-35 -22 -74.5 -49.5t-118.5 -83.5q183 -182 273 -376t90 -406q0 -252 -143 -416t-359 -164q-215 0 -355 145t-140 363zM246 524q0 -204 91.5 -328t240.5 -124q142 0 224.5 112.5t82.5 309.5q0 83 -14.5 170t-43.5 174q-63 36 -121 54.5t-112 18.5q-169 0 -258.5 -99 t-89.5 -288z" />
<glyph unicode="&#xf1;" horiz-adv-x="1196" d="M53 70h19q125 0 126 243q0 36 1 56l2 245v99q0 98 -15 128.5t-55 30.5q-8 0 -20.5 -2t-26.5 -6l-12 62q75 14 150.5 38t154.5 58l-12 -168q113 82 196.5 119t153.5 37q147 0 221 -83t74 -249q0 -1 -1 -88t-1 -174q0 -37 -1 -92.5t-1 -75.5q0 -112 20 -146t76 -34 q3 0 11.5 1t12.5 1v-70q-90 6 -136 8t-77 2q-48 0 -104 -2.5t-114 -7.5l-1 70h15q128 0 130 234q1 13 1 20l2 215v36q0 185 -43 245.5t-148 60.5q-58 0 -128.5 -27.5t-149.5 -81.5q-4 -104 -6 -196.5t-2 -167.5v-138q0 -132 19.5 -167t76.5 -35q4 0 12.5 1t13.5 1v-70 q-86 6 -135.5 8t-81.5 2q-30 0 -79 -2t-137 -8zM209 1188q52 68 110 118.5t125 86.5q72 -6 174.5 -22.5t135.5 -16.5q51 0 94 23.5t80 70.5l53 -43q-53 -69 -107 -119t-117 -86q-71 5 -173 21t-133 16q-60 0 -107 -23.5t-86 -72.5z" />
<glyph unicode="&#xf2;" horiz-adv-x="1128" d="M68 481q0 220 149.5 374.5t357.5 154.5q211 0 349.5 -141.5t138.5 -350.5q0 -230 -146 -387.5t-360 -157.5t-351.5 144t-137.5 364zM252 545q0 -211 90.5 -342t235.5 -131q140 0 223.5 104t83.5 283q0 196 -94.5 321t-241.5 125q-134 0 -215.5 -97.5t-81.5 -262.5z M305 1460l147 90l265 -405l-76 -25z" />
<glyph unicode="&#xf3;" horiz-adv-x="1128" d="M68 481q0 220 149.5 374.5t357.5 154.5q211 0 349.5 -141.5t138.5 -350.5q0 -230 -146 -387.5t-360 -157.5t-351.5 144t-137.5 364zM252 545q0 -211 90.5 -342t235.5 -131q140 0 223.5 104t83.5 283q0 196 -94.5 321t-241.5 125q-134 0 -215.5 -97.5t-81.5 -262.5z M422 1147l260 403l149 -96l-334 -334z" />
<glyph unicode="&#xf4;" horiz-adv-x="1128" d="M68 481q0 220 149.5 374.5t357.5 154.5q211 0 349.5 -141.5t138.5 -350.5q0 -230 -146 -387.5t-360 -157.5t-351.5 144t-137.5 364zM252 545q0 -211 90.5 -342t235.5 -131q140 0 223.5 104t83.5 283q0 196 -94.5 321t-241.5 125q-134 0 -215.5 -97.5t-81.5 -262.5z M262 1151l274 322h62l272 -322l-61 -31l-244 203l-244 -203z" />
<glyph unicode="&#xf5;" horiz-adv-x="1128" d="M68 481q0 220 149.5 374.5t357.5 154.5q211 0 349.5 -141.5t138.5 -350.5q0 -230 -146 -387.5t-360 -157.5t-351.5 144t-137.5 364zM176 1188q52 68 110 118.5t125 86.5q72 -6 174.5 -22.5t135.5 -16.5q51 0 94 23.5t80 70.5l53 -43q-53 -69 -107 -119t-117 -86 q-71 5 -173 21t-133 16q-60 0 -107 -23.5t-86 -72.5zM252 545q0 -211 90.5 -342t235.5 -131q140 0 223.5 104t83.5 283q0 196 -94.5 321t-241.5 125q-134 0 -215.5 -97.5t-81.5 -262.5z" />
<glyph unicode="&#xf6;" horiz-adv-x="1128" d="M68 481q0 220 149.5 374.5t357.5 154.5q211 0 349.5 -141.5t138.5 -350.5q0 -230 -146 -387.5t-360 -157.5t-351.5 144t-137.5 364zM227 1294q0 36 43 76.5t82 40.5t82 -40t43 -77q0 -36 -43 -76t-82 -40q-40 0 -82.5 39.5t-42.5 76.5zM252 545q0 -211 90.5 -342 t235.5 -131q140 0 223.5 104t83.5 283q0 196 -94.5 321t-241.5 125q-134 0 -215.5 -97.5t-81.5 -262.5zM653 1294q0 36 43 76.5t82 40.5t83 -40t44 -77q0 -36 -44 -76t-83 -40q-40 0 -82.5 39.5t-42.5 76.5z" />
<glyph unicode="&#xf7;" horiz-adv-x="1706" d="M254 553v117h1198v-117h-1198zM739 250q0 48 34 81.5t81 33.5t81 -34t34 -81t-33.5 -81t-81.5 -34t-81.5 33.5t-33.5 81.5zM739 971q0 47 34 80.5t81 33.5q48 0 81.5 -33.5t33.5 -80.5q0 -48 -33.5 -81.5t-81.5 -33.5q-49 0 -82 33.5t-33 81.5z" />
<glyph unicode="&#xf8;" horiz-adv-x="1128" d="M68 481q0 223 151 376t371 153q54 0 104.5 -12t102.5 -37l112 178l62 -37l-113 -180q98 -71 151.5 -176.5t53.5 -227.5q0 -229 -146.5 -387t-359.5 -158q-79 0 -140.5 16.5t-113.5 51.5l-110 -174l-58 37l111 178q-85 71 -131.5 175.5t-46.5 223.5zM244 530 q0 -91 21.5 -170.5t62.5 -140.5l403 633q-40 30 -85 44.5t-97 14.5q-141 0 -223 -101t-82 -280zM375 162q34 -45 87.5 -69.5t117.5 -24.5q143 0 228 104.5t85 286.5q0 95 -28 184.5t-79 157.5z" />
<glyph unicode="&#xf9;" horiz-adv-x="1204" d="M59 940q72 12 148.5 29.5t159.5 41.5q-7 -196 -11 -343.5t-4 -204.5q0 -214 44 -285.5t151 -71.5q53 0 118 26t148 79q3 154 4.5 254t1.5 147v68q0 126 -21 158t-81 32q-10 0 -21.5 -0.5t-23.5 -1.5l-6 64q85 6 167.5 19t161.5 32q-6 -171 -9 -305t-3 -234 q0 -41 -1 -102.5t-1 -81.5q0 -93 16 -122t60 -29q10 0 23.5 2t35.5 8l8 -62l-305 -77l-4 149q-108 -82 -189.5 -120t-148.5 -38q-137 0 -214 79t-77 220q0 36 3 151q1 48 1 75l3 112q0 28 1 71.5t1 59.5q0 86 -14.5 114t-53.5 28q-12 0 -28 -2t-33 -4zM342 1460l147 90 l265 -405l-76 -25z" />
<glyph unicode="&#xfa;" horiz-adv-x="1204" d="M59 940q72 12 148.5 29.5t159.5 41.5q-7 -196 -11 -343.5t-4 -204.5q0 -214 44 -285.5t151 -71.5q53 0 118 26t148 79q3 154 4.5 254t1.5 147v68q0 126 -21 158t-81 32q-10 0 -21.5 -0.5t-23.5 -1.5l-6 64q85 6 167.5 19t161.5 32q-6 -171 -9 -305t-3 -234 q0 -41 -1 -102.5t-1 -81.5q0 -93 16 -122t60 -29q10 0 23.5 2t35.5 8l8 -62l-305 -77l-4 149q-108 -82 -189.5 -120t-148.5 -38q-137 0 -214 79t-77 220q0 36 3 151q1 48 1 75l3 112q0 28 1 71.5t1 59.5q0 86 -14.5 114t-53.5 28q-12 0 -28 -2t-33 -4zM459 1147l260 403 l149 -96l-334 -334z" />
<glyph unicode="&#xfb;" horiz-adv-x="1204" d="M59 940q72 12 148.5 29.5t159.5 41.5q-7 -196 -11 -343.5t-4 -204.5q0 -214 44 -285.5t151 -71.5q53 0 118 26t148 79q3 154 4.5 254t1.5 147v68q0 126 -21 158t-81 32q-10 0 -21.5 -0.5t-23.5 -1.5l-6 64q85 6 167.5 19t161.5 32q-6 -171 -9 -305t-3 -234 q0 -41 -1 -102.5t-1 -81.5q0 -93 16 -122t60 -29q10 0 23.5 2t35.5 8l8 -62l-305 -77l-4 149q-108 -82 -189.5 -120t-148.5 -38q-137 0 -214 79t-77 220q0 36 3 151q1 48 1 75l3 112q0 28 1 71.5t1 59.5q0 86 -14.5 114t-53.5 28q-12 0 -28 -2t-33 -4zM299 1151l274 322h62 l272 -322l-61 -31l-244 203l-244 -203z" />
<glyph unicode="&#xfc;" horiz-adv-x="1204" d="M59 940q72 12 148.5 29.5t159.5 41.5q-7 -196 -11 -343.5t-4 -204.5q0 -214 44 -285.5t151 -71.5q53 0 118 26t148 79q3 154 4.5 254t1.5 147v68q0 126 -21 158t-81 32q-10 0 -21.5 -0.5t-23.5 -1.5l-6 64q85 6 167.5 19t161.5 32q-6 -171 -9 -305t-3 -234 q0 -41 -1 -102.5t-1 -81.5q0 -93 16 -122t60 -29q10 0 23.5 2t35.5 8l8 -62l-305 -77l-4 149q-108 -82 -189.5 -120t-148.5 -38q-137 0 -214 79t-77 220q0 36 3 151q1 48 1 75l3 112q0 28 1 71.5t1 59.5q0 86 -14.5 114t-53.5 28q-12 0 -28 -2t-33 -4zM264 1294 q0 36 43 76.5t82 40.5t82 -40t43 -77q0 -36 -43 -76t-82 -40q-40 0 -82.5 39.5t-42.5 76.5zM690 1294q0 36 43 76.5t82 40.5t83 -40t44 -77q0 -36 -44 -76t-83 -40q-40 0 -82.5 39.5t-42.5 76.5z" />
<glyph unicode="&#xfd;" horiz-adv-x="995" d="M0 912v68q75 -5 120 -7t77 -2q30 0 76.5 2t129.5 8v-70h-26q-50 0 -70 -13.5t-20 -47.5q0 -26 88 -264q84 -226 139 -381q139 330 195.5 476t56.5 175t-22 42t-72 13h-15v70q45 -4 88.5 -6t83.5 -2q33 0 76 2t92 6v-70h-8q-33 0 -55.5 -14.5t-38.5 -46.5q-2 -5 -17 -39 q-106 -245 -227 -514q-60 -136 -153 -355q-200 -474 -308 -474q-40 0 -67 26t-27 66q0 55 77 69q31 5 44 11q56 22 161 254q29 65 46 102q-69 178 -170 457q-167 460 -238 460q-6 0 -9.5 -0.5t-6.5 -0.5zM357 1147l260 403l149 -96l-334 -334z" />
<glyph unicode="&#xfe;" horiz-adv-x="1147" d="M27 -449q63 2 87 10t36 25q15 26 21.5 106.5t6.5 315.5v103l4 1032v174q0 42 -18.5 63t-54.5 21q-14 0 -46 -6q-8 -2 -12 -2l-14 65q83 14 161.5 36t153.5 52q-5 -199 -7.5 -353t-2.5 -286v-37q105 68 181.5 96.5t148.5 28.5q165 0 277 -131.5t112 -326.5 q0 -254 -141.5 -397.5t-391.5 -143.5q-46 0 -93 9.5t-93 27.5v-357q0 -118 173 -120h1v-70q-70 4 -132 6t-112 2q-33 0 -86 -2t-159 -8v67zM342 279q0 -21 1 -65.5t1 -68.5q60 -29 120 -45t114 -16q148 0 232.5 97.5t84.5 271.5q0 188 -83 300.5t-218 112.5 q-58 0 -121.5 -19t-122.5 -54q-4 -146 -6 -276t-2 -238z" />
<glyph unicode="&#xff;" horiz-adv-x="995" d="M0 912v68q75 -5 120 -7t77 -2q30 0 76.5 2t129.5 8v-70h-26q-50 0 -70 -13.5t-20 -47.5q0 -26 88 -264q84 -226 139 -381q139 330 195.5 476t56.5 175t-22 42t-72 13h-15v70q45 -4 88.5 -6t83.5 -2q33 0 76 2t92 6v-70h-8q-33 0 -55.5 -14.5t-38.5 -46.5q-2 -5 -17 -39 q-106 -245 -227 -514q-60 -136 -153 -355q-200 -474 -308 -474q-40 0 -67 26t-27 66q0 55 77 69q31 5 44 11q56 22 161 254q29 65 46 102q-69 178 -170 457q-167 460 -238 460q-6 0 -9.5 -0.5t-6.5 -0.5zM162 1294q0 36 43 76.5t82 40.5t82 -40t43 -77q0 -36 -43 -76 t-82 -40q-40 0 -82.5 39.5t-42.5 76.5zM588 1294q0 36 43 76.5t82 40.5t83 -40t44 -77q0 -36 -44 -76t-83 -40q-40 0 -82.5 39.5t-42.5 76.5z" />
<glyph unicode="&#x192;" d="M-14 -272q0 27 17.5 45t43.5 18q14 0 61.5 -18.5t81.5 -18.5q179 0 244 872q4 52 6 79q-10 0 -42.5 -1.5t-55.5 -1.5h-106l14 89h78h61h60q30 288 184.5 471.5t355.5 183.5q76 0 123 -28t47 -72q0 -33 -19.5 -54.5t-49.5 -21.5q-20 0 -75.5 32.5t-105.5 32.5 q-122 0 -195 -139t-91 -405h65h76q23 0 50 0.5t56 1.5l-14 -90q-36 1 -83 1.5t-163 0.5q-43 -536 -164 -805t-319 -269q-64 0 -102.5 27t-38.5 70z" />
<glyph unicode="&#x2c6;" horiz-adv-x="1024" d="M209 1151l274 322h62l272 -322l-61 -31l-244 203l-244 -203z" />
<glyph unicode="&#x2da;" horiz-adv-x="1024" d="M270 1343q0 102 70.5 173t171.5 71t172.5 -71t71.5 -173q0 -101 -70.5 -171t-173.5 -70q-101 0 -171.5 70t-70.5 171zM375 1343q0 -57 40 -98t97 -41t98 41.5t41 97.5q0 59 -40.5 99.5t-98.5 40.5q-57 0 -97 -40.5t-40 -99.5z" />
<glyph unicode="&#x2dc;" horiz-adv-x="1024" d="M123 1188q52 68 110 118.5t125 86.5q72 -6 174.5 -22.5t135.5 -16.5q51 0 94 23.5t80 70.5l53 -43q-53 -69 -107 -119t-117 -86q-71 5 -173 21t-133 16q-60 0 -107 -23.5t-86 -72.5z" />
<glyph unicode="&#x400;" horiz-adv-x="1298" d="M76 0v65q7 -1 13.5 -1.5t19.5 -0.5q133 0 135 374q1 94 2 147l4 273q1 88 1.5 171t0.5 180q0 86 -32 119t-114 33h-8v67q175 -6 313 -9t238 -3q111 0 224.5 3t230.5 9q1 -75 6 -153.5t12 -157.5l-67 -6q-8 120 -74 162.5t-285 42.5q-56 0 -205 -3q-30 -1 -44 -1 q-2 -120 -6 -294t-5 -226h31q59 0 147.5 -1.5t118.5 -1.5q145 0 191.5 27t50.5 100l63 -6q-7 -62 -10.5 -115t-3.5 -98q0 -26 5 -112q2 -31 3 -47l-65 -2v8q0 85 -49.5 115t-231.5 30h-178h-72q0 -49 -1 -135.5t-1 -124.5q0 -66 1 -137.5t4 -167.5q50 -6 113.5 -9t139.5 -3 q251 0 330.5 48.5t126.5 186.5l72 -24q-30 -83 -53 -163t-40 -159q-157 6 -292 9t-244 3q-149 0 -480 -11zM389 1910l147 90l265 -405l-76 -25z" />
<glyph unicode="&#x401;" horiz-adv-x="1298" d="M76 0v65q7 -1 13.5 -1.5t19.5 -0.5q133 0 135 374q1 94 2 147l4 273q1 88 1.5 171t0.5 180q0 86 -32 119t-114 33h-8v67q175 -6 313 -9t238 -3q111 0 224.5 3t230.5 9q1 -75 6 -153.5t12 -157.5l-67 -6q-8 120 -74 162.5t-285 42.5q-56 0 -205 -3q-30 -1 -44 -1 q-2 -120 -6 -294t-5 -226h31q59 0 147.5 -1.5t118.5 -1.5q145 0 191.5 27t50.5 100l63 -6q-7 -62 -10.5 -115t-3.5 -98q0 -26 5 -112q2 -31 3 -47l-65 -2v8q0 85 -49.5 115t-231.5 30h-178h-72q0 -49 -1 -135.5t-1 -124.5q0 -66 1 -137.5t4 -167.5q50 -6 113.5 -9t139.5 -3 q251 0 330.5 48.5t126.5 186.5l72 -24q-30 -83 -53 -163t-40 -159q-157 6 -292 9t-244 3q-149 0 -480 -11zM322 1709q0 36 43 76q44 41 82 41q39 0 82 -40t43 -77q0 -36 -43 -76t-82 -40q-40 0 -83 39q-42 40 -42 77zM748 1709q0 36 43 76q44 41 82 41q40 0 83 -40 q44 -41 44 -77q0 -35 -44 -76q-43 -40 -83 -40t-83 39q-42 40 -42 77z" />
<glyph unicode="&#x402;" horiz-adv-x="1445" d="M-14 1108q19 88 29 171.5t10 164.5q16 -11 42.5 -17.5t74.5 -10.5t124.5 -5.5t193.5 -1.5h161q76 0 143 0.5t121.5 1t94.5 2t62 3.5q45 4 75.5 11t47.5 17q0 -5 -0.5 -13.5t-0.5 -18t-0.5 -18t-0.5 -14.5q0 -63 5.5 -129.5t16.5 -138.5l-63 -12q-6 56 -18.5 93.5 t-41.5 60.5t-79 33.5t-131 12.5h-219q-2 -80 -3 -156.5t-1 -142.5v-118.5v-83.5q60 17 128 30.5t133 13.5q138 0 234.5 -40t157 -108.5t87.5 -159.5t27 -194q0 -61 -10 -130t-34.5 -140t-65 -141t-102.5 -133.5t-147.5 -118t-198.5 -94.5l-36 60q113 51 188 126t120 165.5 t64 194t19 211.5q0 112 -27 189.5t-73 125.5t-107.5 69t-130.5 21q-66 0 -121.5 -14t-104.5 -34q0 -155 0.5 -255.5t2.5 -162.5t6 -94.5t11 -51.5q12 -36 42.5 -50t92.5 -14h35v-70q-84 4 -157 6t-131 2q-51 0 -125 -2t-162 -6v70h35q36 0 60.5 4t40.5 13.5t26 25t16 39.5 q5 18 8 72.5t5 154t2.5 248t0.5 354.5v319h-112q-73 0 -120.5 -8t-77.5 -30.5t-47 -62.5t-30 -105z" />
<glyph unicode="&#x403;" horiz-adv-x="1171" d="M72 0v65q8 -1 15.5 -1.5t23.5 -0.5q80 0 108 52q29 53 29 235v42t-1 65t-1 70v57v272v70.5t1 101.5q1 60 1 104.5v75.5q0 42 -7.5 71t-25 47t-45.5 26t-68 8h-16v67l322 -8q58 -1 109 -1.5t96 -0.5q49 0 104.5 0.5t119.5 1.5q64 2 123 7.5t113 15.5q-7 -78 -0.5 -168.5 t22.5 -205.5l-69 -8q-9 134 -78 196q-68 62 -282 59q-39 0 -93 -1t-124 -3h-9q-2 -76 -3.5 -150.5t-3.5 -147.5q-3 -146 -3 -233v-102l2 -389q0 -144 32 -182q31 -37 130 -37h39v-70q-76 4 -149.5 6t-143.5 2q-35 0 -106.5 -2t-161.5 -6zM400 1596l260 403l149 -96 l-334 -334z" />
<glyph unicode="&#x404;" horiz-adv-x="1448" d="M84 713q0 165 57.5 302t161 235.5t246.5 153t313 54.5q103 0 215.5 -19t235.5 -57v-34q0 -70 5 -145t15 -159l-73 -12q-10 72 -45 128.5t-91.5 96t-133 60t-169.5 20.5q-121 0 -216 -37t-161.5 -108t-103 -175t-39.5 -239h115q16 0 50 0.5t78 1.5t95.5 3t104 4.5t102.5 5 t92 6.5l61 5q-5 -32 -6 -74.5t2 -74.5q-36 2 -83 5t-99 5.5t-106.5 5t-105.5 4.5t-95.5 3t-77.5 1h-124q10 -134 54.5 -243.5t117 -187.5t170.5 -121t214 -43q157 0 271 71.5t178 211.5l67 -33q-32 -66 -58 -132.5t-46 -135.5q-109 -49 -220 -74t-225 -25q-166 0 -302.5 54 t-234.5 152t-152 235.5t-54 304.5z" />
<glyph unicode="&#x405;" horiz-adv-x="1108" d="M70 387l90 21q17 -164 103 -240t255 -76q148 0 241 74.5t93 191.5q0 166 -290 258q-41 13 -64 21q-201 65 -288 159t-87 240q0 172 136 287t341 115q75 0 152 -12t188 -42q0 -74 8.5 -146t26.5 -142l-78 -15q-17 124 -95.5 184t-221.5 60q-132 0 -214.5 -64t-82.5 -165 q0 -166 352 -284q47 -15 72 -24q161 -56 237 -143.5t76 -216.5q0 -199 -151 -322.5t-400 -123.5q-95 0 -185.5 15.5t-183.5 48.5q1 10 1.5 23.5t0.5 39.5q0 71 -8 140t-24 138z" />
<glyph unicode="&#x406;" horiz-adv-x="696" d="M66 0v70h20q62 0 95 11t46 36q14 27 19.5 88.5t5.5 222.5v158v391q0 157 -4 223.5t-13 92.5q-12 35 -43.5 50t-97.5 15h-18v69q70 -4 139 -6t135 -2q56 0 125 2t146 6v-69h-17q-65 0 -97.5 -15t-45.5 -50q-8 -23 -11.5 -74.5t-3.5 -167.5v-199v-498q0 -118 5.5 -166 t17.5 -71q13 -25 46.5 -36t94.5 -11h21v-70q-86 4 -159 6t-122 2q-58 0 -131 -2t-153 -6z" />
<glyph unicode="&#x407;" horiz-adv-x="696" d="M66 0v70h20q62 0 95 11t46 36q14 27 19.5 88.5t5.5 222.5v158v391q0 157 -4 223.5t-13 92.5q-12 35 -43.5 50t-97.5 15h-18v69q70 -4 139 -6t135 -2q56 0 125 2t146 6v-69h-17q-65 0 -97.5 -15t-45.5 -50q-8 -23 -11.5 -74.5t-3.5 -167.5v-199v-498q0 -118 5.5 -166 t17.5 -71q13 -25 46.5 -36t94.5 -11h21v-70q-86 4 -159 6t-122 2q-58 0 -131 -2t-153 -6zM67 1706q0 36 43 76q44 41 82 41q39 0 82 -40t43 -77q0 -36 -43 -76t-82 -40q-40 0 -83 39q-42 40 -42 77zM410 1706q0 36 43 76q44 41 82 41q40 0 83 -40q44 -41 44 -77 q0 -35 -44 -76q-43 -40 -83 -40t-83 39q-42 40 -42 77z" />
<glyph unicode="&#x408;" horiz-adv-x="680" d="M-172 -264q0 38 23 67t55 29q24 0 83.5 -31.5t96.5 -31.5q81 0 116.5 78t35.5 266v1077q0 101 -30.5 134.5t-119.5 33.5h-20v69q11 0 35 -1q159 -7 225 -7q64 0 221 7q25 1 37 1l-1 -69q-65 -2 -93.5 -16t-40.5 -50q-11 -28 -15 -124.5t-4 -442.5q0 -118 2 -272t2 -191 q0 -172 -22.5 -265t-75.5 -171q-66 -95 -154 -144t-194 -49q-82 0 -122 25.5t-40 77.5z" />
<glyph unicode="&#x409;" horiz-adv-x="2014" d="M31 97q0 24 6 47.5t18.5 42.5t33 31t49.5 12q28 0 43 -13t26.5 -28t23.5 -28t35 -13q42 0 91 119.5t93 356.5q20 105 35.5 221.5t23.5 239.5q13 186 -22 231q-35 44 -114 44q-3 0 -13.5 -1t-15.5 -1v69q87 -2 155 -3.5t125 -2.5t107 -1.5t102 -0.5t109.5 0.5t124 1.5 t143 2.5t166.5 3.5v-69h-27q-82 0 -111 -44q-28 -43 -28 -231v-49l-1 -168q28 3 78 4t99 1q151 0 260.5 -34t180 -91t104.5 -132t34 -157q0 -102 -36.5 -186t-110 -145t-183 -94.5t-256.5 -33.5q-28 0 -54.5 1.5t-56.5 3.5t-66.5 3.5t-84.5 1.5q-54 0 -121 -2t-145 -6v70 q6 0 18 -1t17 -1q81 0 110 45q29 46 29 217v243l-3 733q-51 2 -87 3t-57 1l-82 2q-39 -1 -72.5 -1.5t-81.5 -4.5q-8 -75 -16 -158.5t-17.5 -171.5t-22 -178t-28.5 -177q-29 -156 -63 -278.5t-79 -206.5t-104.5 -128.5t-140.5 -44.5q-28 0 -53.5 9.5t-44.5 27t-30.5 42.5 t-11.5 55zM1209 382.5q0 -32.5 1 -67.5l3 -194q11 -5 28 -9t36 -7.5t38.5 -5.5t34.5 -2q104 0 180.5 25t127 71.5t75 111.5t24.5 146q0 74 -21.5 126.5t-55.5 88.5t-77.5 58t-87 33.5t-84 15t-68.5 3.5q-45 0 -79 -2.5t-75 -9.5v-319v-62.5z" />
<glyph unicode="&#x40a;" horiz-adv-x="2105" d="M72 0v69q6 0 13.5 -0.5t20.5 -0.5q39 0 64.5 9.5t41 38t22 80.5t6.5 136v26t-0.5 41t-0.5 49.5t-0.5 52t-0.5 48v37.5v266q0 22 0.5 57t0.5 70.5t0.5 65t0.5 40.5q0 88 -7 142t-22.5 83.5t-41.5 39.5t-65 10q-3 0 -12 -1t-14 -1v69q72 -4 136 -6t118 -2q61 0 125 2t131 6 v-69h-27q-82 0 -111 -44q-28 -43 -28 -231v-250q65 -2 118.5 -2.5t97 -1t79.5 -0.5h66h54.5t58.5 0.5t85 1t135 1.5v235q0 198 -29 245q-28 46 -110 46h-27v69q67 -4 131 -6t127 -2q61 0 126.5 2t132.5 6v-69h-27q-82 0 -111 -44q-28 -43 -28 -231v-49l-1 -168q28 3 78 4 t99 1q151 0 260.5 -34t180 -91t104.5 -132t34 -157q0 -102 -36.5 -186t-110 -145t-183 -94.5t-256.5 -33.5q-28 0 -54.5 1.5t-56.5 3.5t-66.5 3.5t-84.5 1.5q-54 0 -121 -2t-145 -6v70q6 0 18 -1t17 -1q40 0 67 7.5t43 34.5t22.5 79t6.5 141v389q-118 2 -199 3t-134 1 q-100 0 -188 -1.5t-173 -2.5v-367q0 -191 29 -238q28 -46 112 -46q5 0 17 1t18 1v-70q-78 4 -145 6t-121 2q-46 0 -112.5 -2t-147.5 -6zM1300 382.5q0 -32.5 1 -67.5l3 -194q11 -5 28 -9t36 -7.5t38.5 -5.5t34.5 -2q104 0 180.5 25t127 71.5t75 111.5t24.5 146 q0 74 -21.5 126.5t-55.5 88.5t-77.5 58t-87 33.5t-84 15t-68.5 3.5q-45 0 -79 -2.5t-75 -9.5v-319v-62.5z" />
<glyph unicode="&#x40b;" horiz-adv-x="1561" d="M-14 1108q19 88 29 171.5t10 164.5q16 -11 42.5 -17.5t74.5 -10.5t124.5 -5.5t193.5 -1.5h161q76 0 143 0.5t121.5 1t94.5 2t62 3.5q45 4 75.5 11t47.5 17q0 -5 -0.5 -13.5t-0.5 -18t-0.5 -18t-0.5 -14.5q0 -63 5.5 -129.5t16.5 -138.5l-63 -12q-6 56 -18.5 93.5 t-41.5 60.5t-79 33.5t-131 12.5h-219q-2 -76 -3 -151t-1.5 -142t0 -121.5t0.5 -90.5q62 19 127 32t132 13q108 0 187.5 -15.5t136.5 -43.5t93.5 -67t57.5 -86t29 -100.5t8 -109.5v-77q-8 -183 21 -228q28 -46 94 -46q3 0 12 1t14 1v-69q-72 4 -129.5 6t-111.5 2 q-61 0 -125 -2t-131 -6v69h27q82 0 111 44q28 43 28 231l-2 96q0 86 -27 144t-72 93t-103.5 49.5t-121.5 14.5q-66 0 -132.5 -15.5t-122.5 -35.5v-184.5t1 -136t2.5 -96.5t3.5 -65.5t5 -43.5t8 -30q12 -36 42.5 -50t92.5 -14h35v-70q-84 4 -157 6t-131 2q-51 0 -125 -2 t-162 -6v70h35q36 0 60.5 4t40.5 13.5t26 25t16 39.5q5 18 8 72.5t5 154t2.5 248t0.5 354.5v319h-112q-73 0 -120.5 -8t-77.5 -30.5t-47 -62.5t-30 -105z" />
<glyph unicode="&#x40c;" horiz-adv-x="1419" d="M72 0v69q6 0 13.5 -0.5t20.5 -0.5q77 0 106 50q28 49 28 214v44q0 29 -1 71q-1 43 -1 77v385q0 32 1 70q1 39 1 65v41q0 172 -29 224q-29 51 -107 51q-3 0 -12 -1t-14 -1v69q72 -4 136 -6t118 -2q61 0 125 2t131 6v-69h-27q-82 0 -111 -44q-28 -43 -28 -231v-386l455 491 q37 40 63.5 72t33 54.5t-11 34t-66.5 11.5h-25v67q64 -4 127 -6t123 -2q43 0 99 2t123 6v-67h-9q-114 0 -219 -99l-10 -10l-496 -475l445 -459q51 -53 102 -101t98.5 -85.5t89 -59.5t73.5 -22h10v-57q-21 -3 -37 -5.5t-31.5 -4t-33 -2t-40.5 -0.5q-58 0 -107.5 14t-93.5 39 t-84.5 59.5t-79.5 76.5l-498 526v-343q0 -191 29 -238q28 -46 112 -46q5 0 17 1t18 1v-70q-78 4 -145 6t-121 2q-46 0 -112.5 -2t-147.5 -6zM518 1596l260 403l149 -96l-334 -334z" />
<glyph unicode="&#x40d;" horiz-adv-x="1649" d="M72 0v69q6 0 13.5 -0.5t20.5 -0.5q77 0 106 50q28 49 28 214v44.5t-1 70.5q-1 43 -1 77.5v61.5v266v57t1 70q1 39 1 65.5v40.5q0 172 -29 224q-29 51 -107 51q-3 0 -12 -1t-14 -1v69q72 -4 136 -6t118 -2q61 0 125 2t131 6v-69h-27q-82 0 -111 -44q-28 -43 -28 -231v-669 q202 191 401 385.5t395 392.5q-2 73 -30 120q-28 46 -110 46h-27v69q67 -4 131 -6t127 -2q54 0 117 2t135 6v-69q-5 0 -14 1t-13 1q-77 0 -105 -49q-28 -47 -28 -207v-43.5t1 -70.5t1 -76.5v-61.5v-266v-61.5t-1 -77.5q-1 -42 -1 -70.5v-44.5q0 -165 28 -214q29 -50 105 -50 q14 0 21.5 0.5t13.5 0.5v-69q-79 4 -146.5 6t-113.5 2q-54 0 -121 -2t-145 -6v70q6 0 18 -1t17 -1q81 0 110 45q29 46 29 217v121l1 580q-202 -191 -401 -385t-395 -392q0 -80 29 -133t112 -53q5 0 17 1t18 1v-70q-78 4 -145 6t-121 2q-46 0 -112.5 -2t-147.5 -6zM499 1910 l147 90l265 -405l-76 -25z" />
<glyph unicode="&#x40e;" horiz-adv-x="1468" d="M44 1364v63q75 -4 142 -6t118 -2q64 0 130.5 2t136.5 6l-1 -63q-21 -2 -42 -3t-38.5 -7t-28.5 -19.5t-11 -38.5q0 -28 57 -154q22 -49 50.5 -104.5t66 -124.5t85 -156.5t108.5 -201.5q31 67 69.5 150t76 170t70.5 174t55 163q14 50 11 80t-20 46t-48 21t-72 5v63 q60 -4 123 -6t120 -2q48 0 112 2t128 6v-63h-15q-27 0 -55.5 -7.5t-56.5 -28.5t-55.5 -59t-54.5 -100q-41 -95 -74.5 -172.5t-63.5 -144t-56.5 -125t-53 -115t-54 -113.5t-58.5 -120q-49 -98 -98.5 -175.5t-97.5 -131t-94.5 -81.5t-89.5 -28q-28 0 -57 10t-53 28.5t-39 44 t-15 57.5t9.5 56t25 39.5t35 23.5t39.5 8q28 0 42.5 -15t25.5 -33t25 -33t40 -15q13 0 31.5 11.5t40.5 38t47.5 68.5t54.5 103q-30 58 -65 124.5t-79.5 150.5t-102 189t-132.5 240q-52 93 -93 152.5t-73.5 94t-57 47.5t-43.5 13q-10 0 -15.5 -0.5t-11.5 -1.5zM538 1722 q0 30 9.5 52t25 36.5t35 22t39.5 7.5q38 1 65.5 -22t27.5 -71q0 -7 -1 -23.5t3.5 -33t18 -29.5t42.5 -13q37 0 75.5 13t75 38t68.5 60t56 80l59 -29q-27 -69 -69.5 -117.5t-92 -80t-101 -46t-97.5 -14.5q-60 0 -104.5 15.5t-74.5 40t-45 55t-15 59.5z" />
<glyph unicode="&#x40f;" horiz-adv-x="1596" d="M72 0v69q6 0 13.5 -0.5t20.5 -0.5q39 0 64.5 9.5t41 38t22 80.5t6.5 136v26t-0.5 41t-0.5 49.5t-0.5 52t-0.5 48v37.5v266q0 22 0.5 57t0.5 70.5t0.5 65t0.5 40.5q0 88 -7 142t-22.5 83.5t-41.5 39.5t-65 10q-3 0 -12 -1t-14 -1v69q72 -4 136 -6t118 -2q61 0 125 2t131 6 v-69h-27q-82 0 -111 -44q-28 -43 -28 -231v-227l5 -733q100 -3 190 -4.5t185 -1.5q159 0 359 6l4 733l-1 211q-2 200 -29 245q-28 46 -110 46h-27v69q67 -4 131 -6t127 -2q54 0 117 2t135 6v-69q-5 0 -14 1t-13 1q-38 0 -63 -9t-41 -36.5t-22.5 -78t-6.5 -132.5 q0 -11 0.5 -43.5t0.5 -71t0.5 -76.5t0.5 -61v-266v-37.5t-0.5 -48t-0.5 -52t-0.5 -49.5t-0.5 -41v-26q0 -84 6.5 -136t22 -80.5t41 -38t64.5 -9.5q13 0 20.5 0.5t13.5 0.5v-69q-57 1 -126 3t-145 3.5t-157.5 2.5t-164.5 1h-14q-18 -45 -32 -95.5t-23.5 -99.5t-14 -91 t-4.5 -70h-76q0 28 -4.5 70t-14 91t-23.5 99.5t-32 95.5q-110 0 -199 -1.5t-163 -3t-135.5 -3t-115.5 -2.5z" />
<glyph unicode="&#x410;" horiz-adv-x="1479" d="M-31 0v69q71 2 112.5 28.5t72.5 88.5q56 117 198.5 468.5t300.5 772.5h172q130 -397 246.5 -725t183.5 -493q40 -95 69 -117t83 -22h20v-70q-78 4 -142.5 6t-108.5 2q-56 0 -123 -2t-142 -6v70h19q71 0 97 16.5t26 60.5q0 16 -4 35.5t-13 46.5l-98 306q-38 0 -104 1 q-120 3 -154 3q-68 0 -128.5 -0.5t-125.5 -2.5q-71 -179 -97 -261t-26 -117q0 -49 26 -68.5t93 -19.5h27v-70q-73 4 -136.5 6t-113.5 2q-40 0 -100 -2t-130 -6zM469 641q19 0 55 -1q113 -3 154 -3q50 0 181 3q29 1 44 1l-205 598z" />
<glyph unicode="&#x411;" horiz-adv-x="1274" d="M76 -2v67q7 -1 13.5 -1.5t19.5 -0.5q133 0 135 374q1 48 1 84.5t1 62.5l4 273q1 88 1.5 171t0.5 180q0 85 -32 119q-32 33 -114 33h-8v70l329 -8q61 -1 112.5 -1.5t93.5 -0.5q93 0 198.5 2.5t238.5 7.5q0 -72 4.5 -148.5t13.5 -173.5l-69 -8q-8 128 -71 171 q-65 44 -286 44q-24 0 -77.5 -1t-141.5 -3q-6 -153 -7.5 -271t-2.5 -209q28 3 59.5 5t63 3.5t61.5 2t56 0.5q147 0 248 -35.5t162.5 -93t88.5 -130.5t27 -147q1 -84 -30.5 -163.5t-100 -141.5t-175.5 -98.5t-257 -34.5q-16 -1 -137 3q-61 2 -110.5 3.5t-89.5 1.5 q-33 0 -91.5 -2t-131.5 -6zM431 387q0 -33 1 -68l3 -191q46 -17 102 -27t111 -10q24 0 59 4t74 16.5t78 34.5t70 58.5t50.5 88.5t19.5 124q0 61 -21.5 120.5t-69 106.5t-121.5 76.5t-179 29.5q-43 0 -90.5 -3t-82.5 -8q0 -8 -0.5 -41t-1.5 -92t-1.5 -97.5t-0.5 -57.5v-64z " />
<glyph unicode="&#x412;" horiz-adv-x="1274" d="M76 -2v67q7 -1 13.5 -1.5t19.5 -0.5q133 0 135 374q1 94 2 147l4 273q1 88 1.5 171t0.5 180q0 86 -32 119t-114 33h-8v70q64 -5 125.5 -7t124.5 -2q70 0 172 4.5t133 4.5q206 0 325.5 -91.5t119.5 -246.5q0 -109 -58.5 -188.5t-193.5 -153.5q176 -34 263 -120t87 -227 q0 -183 -145 -295t-387 -112q-44 0 -165 5t-200 5q-33 0 -91.5 -2t-131.5 -6zM426 451q0 -62 1 -131.5t3 -189.5q58 -17 114 -25.5t109 -8.5q164 0 254 80t90 223q0 152 -101 225.5t-310 73.5q-34 0 -68.5 -0.5t-89.5 -3.5q0 -42 -1 -123.5t-1 -119.5zM428 787 q23 -2 49.5 -2.5t79.5 -0.5q57 0 105.5 2t93.5 7q73 52 110 117.5t37 144.5q0 127 -81 200.5t-222 73.5q-31 0 -71.5 -4t-91.5 -12q-3 -134 -5.5 -311t-3.5 -215z" />
<glyph unicode="&#x413;" horiz-adv-x="1171" d="M72 0v65q8 -1 15.5 -1.5t23.5 -0.5q80 0 108 52q29 53 29 235v42t-1 65t-1 70v57v272v70.5t1 101.5q1 60 1 104.5v75.5q0 42 -7.5 71t-25 47t-45.5 26t-68 8h-16v67l322 -8q58 -1 109 -1.5t96 -0.5q49 0 104.5 0.5t119.5 1.5q64 2 123 7.5t113 15.5q-7 -78 -0.5 -168.5 t22.5 -205.5l-69 -8q-9 134 -78 196q-68 62 -282 59q-39 0 -93 -1t-124 -3h-9q-2 -76 -3.5 -150.5t-3.5 -147.5q-3 -146 -3 -233v-102l2 -389q0 -144 32 -182q31 -37 130 -37h39v-70q-76 4 -149.5 6t-143.5 2q-35 0 -106.5 -2t-161.5 -6z" />
<glyph unicode="&#x414;" horiz-adv-x="1501" d="M54 130l85 -7q17 -2 34 5.5t35.5 27t39 52t44.5 81.5q31 64 64 153t61.5 193.5t49 219t26.5 230.5q2 44 4 92.5t-8.5 89t-39.5 67t-88 26.5q-3 0 -12.5 -1t-14.5 -1v69l168 -7t130 -5t106.5 -3t97.5 -1q85 0 221 4t311 12h1v-69q-5 0 -14 1t-13 1q-77 0 -105 -49 q-28 -47 -28 -207v-791q0 -69 4 -110t16 -61.5t34 -25t58 -1.5l100 9q-7 -89 -10.5 -151t-5 -104t-2 -66t-0.5 -36v-111l-74 -2q-6 93 -26 154t-47.5 98.5t-61.5 55.5t-68 26q-28 6 -84.5 10t-123 7t-133 4t-114.5 1q-96 0 -181 -5t-141 -17q-35 -8 -68.5 -26t-61 -55.5 t-47.5 -98.5t-26 -154l-74 2v111q0 12 -0.5 37t-2 68t-5 106t-10.5 152zM332 123q53 -2 93.5 -3.5t78.5 -2t79.5 -0.5h95.5q74 0 164.5 1.5t178.5 4.5q0 49 1 90q0 18 0.5 36t1 33.5t0.5 28v19.5v243l-3 733l-129 4q-13 1 -30 1t-39 1l-76 -2l-110 -6q-14 -160 -32 -292 t-40 -242t-48 -200.5t-55 -168.5t-62 -146t-69 -132z" />
<glyph unicode="&#x415;" horiz-adv-x="1298" d="M76 0v65q7 -1 13.5 -1.5t19.5 -0.5q133 0 135 374q1 94 2 147l4 273q1 88 1.5 171t0.5 180q0 86 -32 119t-114 33h-8v67q175 -6 313 -9t238 -3q111 0 224.5 3t230.5 9q1 -75 6 -153.5t12 -157.5l-67 -6q-8 120 -74 162.5t-285 42.5q-56 0 -205 -3q-30 -1 -44 -1 q-2 -120 -6 -294t-5 -226h31q59 0 147.5 -1.5t118.5 -1.5q145 0 191.5 27t50.5 100l63 -6q-7 -62 -10.5 -115t-3.5 -98q0 -26 5 -112q2 -31 3 -47l-65 -2v8q0 85 -49.5 115t-231.5 30h-178h-72q0 -49 -1 -135.5t-1 -124.5q0 -66 1 -137.5t4 -167.5q50 -6 113.5 -9t139.5 -3 q251 0 330.5 48.5t126.5 186.5l72 -24q-30 -83 -53 -163t-40 -159q-157 6 -292 9t-244 3q-149 0 -480 -11z" />
<glyph unicode="&#x416;" horiz-adv-x="2068" d="M24 -8v57q36 0 79 20t91 56t98.5 86t101.5 109l378 442l-457 489q-30 33 -55.5 54t-49.5 33t-48.5 17t-52.5 5h-9v67q67 -4 113 -6t89 -2q30 0 64 0.5t69 1.5t70 2.5t67 3.5v-67h-25q-50 0 -72 -12t-22.5 -34t19 -54t54.5 -72l420 -511v406q0 188 -28 231q-29 44 -111 44 h-27v69q67 -4 130 -6t124 -2t124 2t130 6v-69h-27q-82 0 -111 -44q-28 -43 -28 -231v-406l420 511q34 41 53.5 73t19.5 54t-22.5 33.5t-71.5 11.5h-25v67q32 -2 67 -3.5t70 -2.5t69 -1.5t64 -0.5q43 0 89 2t113 6v-67h-9q-29 0 -53 -5t-48 -17t-49.5 -33t-55.5 -54 l-457 -489l378 -442q51 -59 101.5 -109t98.5 -86t91 -56t79 -20v-57q-21 -3 -35.5 -5.5t-28 -4t-29.5 -2t-39 -0.5q-116 0 -204 50.5t-161 138.5l-425 506v-323q0 -191 29 -238q28 -46 112 -46q5 0 17 1t18 1v-70q-78 4 -144 6t-120 2t-120 -2t-144 -6v70q6 0 18 -1t17 -1 q84 0 112 46q29 47 29 238v323l-425 -506q-37 -44 -76.5 -79t-84.5 -59.5t-95.5 -37.5t-108.5 -13q-23 0 -39 0.5t-29.5 2t-28 4t-35.5 5.5z" />
<glyph unicode="&#x417;" horiz-adv-x="1153" d="M72 397l90 21q17 -162 101 -242t249 -80q82 0 149 20.5t115 59.5t74 95t26 128q0 64 -15.5 114t-44 87t-69.5 62t-93 41q-15 -2 -45.5 -8t-70 -12t-84 -11t-85.5 -5l-1 163q38 0 79.5 -3t80.5 -8t72 -10t55 -9q27 19 54 44t49 57t36 71.5t14 86.5q0 137 -67.5 207.5 t-211.5 70.5q-75 0 -129.5 -19t-93.5 -56.5t-64 -92t-41 -124.5l-80 16q36 150 36 309q30 12 71 26t88.5 26t100 20t106.5 8q126 0 217 -30t149.5 -80t86.5 -114.5t28 -133.5q0 -59 -20 -110.5t-53.5 -93.5t-78.5 -73.5t-94 -50.5q76 -16 135 -49.5t99.5 -80.5t61.5 -105.5 t21 -125.5q0 -87 -39 -164t-110.5 -134t-173.5 -90t-228 -33q-109 0 -216 19.5t-206 58.5q1 6 1.5 19.5t0.5 39.5q0 72 -8 140.5t-24 137.5z" />
<glyph unicode="&#x418;" horiz-adv-x="1649" d="M72 0v69q6 0 13.5 -0.5t20.5 -0.5q77 0 106 50q28 49 28 214v44.5t-1 70.5q-1 43 -1 77.5v61.5v266v57t1 70q1 39 1 65.5v40.5q0 172 -29 224q-29 51 -107 51q-3 0 -12 -1t-14 -1v69q72 -4 136 -6t118 -2q61 0 125 2t131 6v-69h-27q-82 0 -111 -44q-28 -43 -28 -231v-669 q202 191 401 385.5t395 392.5q-2 73 -30 120q-28 46 -110 46h-27v69q67 -4 131 -6t127 -2q54 0 117 2t135 6v-69q-5 0 -14 1t-13 1q-77 0 -105 -49q-28 -47 -28 -207v-43.5t1 -70.5t1 -76.5v-61.5v-266v-61.5t-1 -77.5q-1 -42 -1 -70.5v-44.5q0 -165 28 -214q29 -50 105 -50 q14 0 21.5 0.5t13.5 0.5v-69q-79 4 -146.5 6t-113.5 2q-54 0 -121 -2t-145 -6v70q6 0 18 -1t17 -1q81 0 110 45q29 46 29 217v121l1 580q-202 -191 -401 -385t-395 -392q0 -80 29 -133t112 -53q5 0 17 1t18 1v-70q-78 4 -145 6t-121 2q-46 0 -112.5 -2t-147.5 -6z" />
<glyph unicode="&#x419;" horiz-adv-x="1649" d="M72 0v69q6 0 13.5 -0.5t20.5 -0.5q77 0 106 50q28 49 28 214v44.5t-1 70.5q-1 43 -1 77.5v61.5v266v57t1 70q1 39 1 65.5v40.5q0 172 -29 224q-29 51 -107 51q-3 0 -12 -1t-14 -1v69q72 -4 136 -6t118 -2q61 0 125 2t131 6v-69h-27q-82 0 -111 -44q-28 -43 -28 -231v-669 q202 191 401 385.5t395 392.5q-2 73 -30 120q-28 46 -110 46h-27v69q67 -4 131 -6t127 -2q54 0 117 2t135 6v-69q-5 0 -14 1t-13 1q-77 0 -105 -49q-28 -47 -28 -207v-43.5t1 -70.5t1 -76.5v-61.5v-266v-61.5t-1 -77.5q-1 -42 -1 -70.5v-44.5q0 -165 28 -214q29 -50 105 -50 q14 0 21.5 0.5t13.5 0.5v-69q-79 4 -146.5 6t-113.5 2q-54 0 -121 -2t-145 -6v70q6 0 18 -1t17 -1q81 0 110 45q29 46 29 217v121l1 580q-202 -191 -401 -385t-395 -392q0 -80 29 -133t112 -53q5 0 17 1t18 1v-70q-78 4 -145 6t-121 2q-46 0 -112.5 -2t-147.5 -6zM538 1722 q0 30 9.5 52t25 36.5t35 22t39.5 7.5q38 1 65.5 -22t27.5 -71q0 -7 -1 -23.5t3.5 -33t18 -29.5t42.5 -13q37 0 75.5 13t75 38t68.5 60t56 80l59 -29q-27 -69 -69.5 -117.5t-92 -80t-101 -46t-97.5 -14.5q-60 0 -104.5 15.5t-74.5 40t-45 55t-15 59.5z" />
<glyph unicode="&#x41a;" horiz-adv-x="1419" d="M72 0v69q6 0 13.5 -0.5t20.5 -0.5q77 0 106 50q28 49 28 214v44q0 29 -1 71q-1 43 -1 77v385q0 32 1 70q1 39 1 65v41q0 172 -29 224q-29 51 -107 51q-3 0 -12 -1t-14 -1v69q72 -4 136 -6t118 -2q61 0 125 2t131 6v-69h-27q-82 0 -111 -44q-28 -43 -28 -231v-386l455 491 q37 40 63.5 72t33 54.5t-11 34t-66.5 11.5h-25v67q64 -4 127 -6t123 -2q43 0 99 2t123 6v-67h-9q-114 0 -219 -99l-10 -10l-496 -475l445 -459q51 -53 102 -101t98.5 -85.5t89 -59.5t73.5 -22h10v-57q-21 -3 -37 -5.5t-31.5 -4t-33 -2t-40.5 -0.5q-58 0 -107.5 14t-93.5 39 t-84.5 59.5t-79.5 76.5l-498 526v-343q0 -191 29 -238q28 -46 112 -46q5 0 17 1t18 1v-70q-78 4 -145 6t-121 2q-46 0 -112.5 -2t-147.5 -6z" />
<glyph unicode="&#x41b;" horiz-adv-x="1457" d="M31 97q0 24 6 47.5t18.5 42.5t33 31t49.5 12q28 0 43 -13t26.5 -28t23.5 -28t35 -13q42 0 91 119.5t93 356.5q20 105 35.5 221.5t23.5 239.5q13 186 -22 231q-35 44 -114 44q-3 0 -13.5 -1t-15.5 -1v69q87 -2 155 -3.5t125 -2.5t107 -1.5t102 -0.5t109.5 0.5t123 1.5 t141 2.5t162.5 3.5v-69q-5 0 -14 1t-13 1q-77 0 -105 -49q-28 -47 -28 -207v-43.5t1 -70.5t1 -76.5v-61.5v-266v-61.5t-1 -77.5q-1 -42 -1 -70.5v-44.5q0 -165 28 -214q29 -50 105 -50q14 0 21.5 0.5t13.5 0.5v-69q-79 4 -146.5 6t-113.5 2q-54 0 -121 -2t-145 -6v70 q6 0 18 -1t17 -1q81 0 110 45q29 46 29 217v243l-3 733q-51 2 -87 3t-57 1l-82 2q-39 -1 -72.5 -1.5t-81.5 -4.5q-8 -75 -16 -158.5t-17.5 -171.5t-22 -178t-28.5 -177q-29 -156 -63 -278.5t-79 -206.5t-104.5 -128.5t-140.5 -44.5q-28 0 -53.5 9.5t-44.5 27t-30.5 42.5 t-11.5 55z" />
<glyph unicode="&#x41c;" horiz-adv-x="1864" d="M33 0v70h28q57 0 85 14t44 49q19 41 39 332q5 80 9 127l18 242v3q27 359 27 408q0 63 -30.5 88t-115.5 25h-16v69q8 0 26 -1q116 -7 162 -7q35 0 133 6q31 2 47 2v-6q0 -89 339 -840l104 -231l289 656l12 27q143 323 143 382q0 2 -1 6t-1 6q59 -3 106.5 -4.5t84.5 -1.5 q35 0 81 1.5t101 4.5v-69h-12q-87 0 -119.5 -30t-32.5 -107q0 -30 4 -134t10 -225l17 -281l1 -27q22 -374 34 -423q6 -29 37 -45t81 -16h25v-70q-79 4 -147 6t-113 2q-53 0 -119 -2t-141 -6v72q9 0 23 -1t20 -1q76 0 105.5 27t29.5 98q0 33 -1 65t-3 66l-39 860l-410 -943 q-1 -2 -4 -9q-48 -99 -71 -211h-66q-14 62 -70 190l-4 9l-403 913q-6 -107 -17 -294q-28 -464 -28 -581v-10q0 -127 28.5 -153.5t116.5 -26.5h21v-70q-65 4 -124.5 6t-115.5 2q-40 0 -99.5 -2t-127.5 -6z" />
<glyph unicode="&#x41d;" horiz-adv-x="1626" d="M72 0v69q6 0 13.5 -0.5t20.5 -0.5q78 0 106 50t28 214q0 31 -1 115.5t-1 138.5v266q0 50 1 127.5t1 105.5q0 173 -28.5 224t-107.5 51q-3 0 -12 -1t-14 -1v69q71 -4 136 -6t118 -2q61 0 125 2t131 6v-69h-27q-82 0 -110.5 -43.5t-28.5 -231.5v-49v-246q65 -2 137.5 -3 t202.5 -1q133 0 231.5 1t200.5 3v279q0 199 -28.5 245t-110.5 46h-27v69q67 -4 131.5 -6t126.5 -2q53 0 117 2t135 6v-69q-5 0 -14 1t-13 1q-77 0 -105 -48.5t-28 -207.5q0 -30 1 -114t1 -138v-266q0 -54 -1 -138.5t-1 -115.5q0 -164 28 -214t105 -50q14 0 21.5 0.5 t13.5 0.5v-69q-79 4 -146.5 6t-113.5 2q-54 0 -121.5 -2t-144.5 -6v70q6 0 18 -1t17 -1q82 0 110.5 45t28.5 217v121v219h-13q-257 4 -376 4q-90 0 -172 -2h-12q-43 0 -93 -0.5t-106 -1.5v-238v-80q0 -192 29 -238t112 -46q5 0 17 1t18 1v-70q-77 4 -144.5 6t-121.5 2 q-46 0 -113 -2t-147 -6z" />
<glyph unicode="&#x41e;" horiz-adv-x="1642" d="M94 717q0 158 59.5 298.5t172.5 246.5q102 96 230 147t265 51q152 0 271.5 -43.5t216.5 -134.5q116 -110 177.5 -255t61.5 -308q0 -166 -65 -314t-185 -255q-96 -86 -223.5 -134.5t-255.5 -48.5q-160 0 -294.5 59t-237.5 175q-94 106 -143.5 238t-49.5 278zM315 760 q0 -298 150.5 -489t376.5 -191q218 0 351.5 164.5t133.5 439.5q0 291 -150 477.5t-378 186.5q-219 0 -351.5 -160t-132.5 -428z" />
<glyph unicode="&#x41f;" horiz-adv-x="1598" d="M72 0v69q6 0 13.5 -0.5t20.5 -0.5q77 0 106 50q28 49 28 214v44.5t-1 70.5q-1 43 -1 77.5v61.5v266v57t1 70q1 39 1 65.5v40.5q0 172 -29 224q-29 51 -107 51q-3 0 -12 -1t-14 -1v69q117 -2 217.5 -4t186.5 -2q85 0 163 -1t148 -1t147 0.5t163 1.5q172 1 405 6h2v-69 q-5 0 -14 1t-13 1q-77 0 -105 -49q-28 -47 -28 -207v-43.5t1 -70.5t1 -76.5v-61.5v-266v-61.5t-1 -77.5q-1 -42 -1 -70.5v-44.5q0 -165 28 -214q29 -50 105 -50q14 0 21.5 0.5t13.5 0.5v-69q-79 4 -146.5 6t-113.5 2q-54 0 -121 -2t-145 -6v70q6 0 18 -1t17 -1q81 0 110 45 q29 46 29 217v243l-3 733q-103 3 -194 4t-176 2q-84 -1 -174.5 -2t-193.5 -4l-3 -733v-221q0 -191 29 -238q28 -46 112 -46q5 0 17 1t18 1v-70q-78 4 -145 6t-121 2q-46 0 -112.5 -2t-147.5 -6z" />
<glyph unicode="&#x420;" horiz-adv-x="1206" d="M76 0v65q8 -1 15.5 -1.5t23.5 -0.5q80 0 108.5 54.5t28.5 242.5q0 28 -1 103t-1 121v626q0 86 -31 118t-113 32h-8v70q68 -5 135.5 -7t133.5 -2q74 0 176.5 4.5t132.5 4.5q219 0 350 -109t131 -287q0 -211 -143.5 -328.5t-405.5 -117.5q-26 0 -70.5 3t-105.5 9v-301 q0 -154 31.5 -193.5t126.5 -39.5q3 0 10.5 1t11.5 1q5 0 7.5 -0.5t4.5 -1.5l1 -66q-73 4 -147 6t-146 2q-35 0 -102.5 -2t-153.5 -6zM432 692q42 -6 76 -9t67 -3q188 0 285.5 83.5t97.5 244.5q0 145 -96 231t-260 86q-45 0 -85.5 -3.5t-79.5 -10.5q-3 -135 -4 -272.5 t-1 -346.5z" />
<glyph unicode="&#x421;" horiz-adv-x="1448" d="M84 713q0 330 217 537.5t561 207.5q102 0 215.5 -19t235.5 -57v-34q0 -70 5 -145.5t15 -158.5l-73 -12q-20 144 -136 224.5t-303 80.5q-249 0 -384.5 -152.5t-135.5 -432.5q0 -299 155.5 -483.5t403.5 -184.5q156 0 270.5 72t178.5 211l67 -33q-32 -65 -58 -132.5 t-46 -135.5q-108 -49 -220 -74t-225 -25q-332 0 -537.5 205.5t-205.5 540.5z" />
<glyph unicode="&#x422;" horiz-adv-x="1292" d="M-14 1108q19 87 29 171t10 165q30 -19 121.5 -27t320.5 -8h244q304 0 391.5 7.5t122.5 27.5q0 -10 -1 -31.5t-1 -32.5q0 -63 5.5 -130t16.5 -138l-63 -12q-12 113 -61.5 154t-208.5 46h-189q-1 -57 -2 -161q-2 -273 -2 -367q0 -355 4.5 -481t15.5 -157q13 -36 43 -50 t92 -14h35v-70q-83 4 -156.5 6t-131.5 2q-51 0 -125.5 -2t-161.5 -6v70h35q71 0 101 17.5t42 64.5q9 31 12.5 225t3.5 604v319h-202q-147 0 -198.5 -39.5t-76.5 -166.5z" />
<glyph unicode="&#x423;" horiz-adv-x="1468" d="M44 1364v63q75 -4 142 -6t118 -2q64 0 130.5 2t136.5 6l-1 -63q-21 -2 -42 -3t-38.5 -7t-28.5 -19.5t-11 -38.5q0 -28 57 -154q22 -49 50.5 -104.5t66 -124.5t85 -156.5t108.5 -201.5q31 67 69.5 150t76 170t70.5 174t55 163q14 50 11 80t-20 46t-48 21t-72 5v63 q60 -4 123 -6t120 -2q48 0 112 2t128 6v-63h-15q-27 0 -55.5 -7.5t-56.5 -28.5t-55.5 -59t-54.5 -100q-41 -95 -74.5 -172.5t-63.5 -144t-56.5 -125t-53 -115t-54 -113.5t-58.5 -120q-49 -98 -98.5 -175.5t-97.5 -131t-94.5 -81.5t-89.5 -28q-28 0 -57 10t-53 28.5t-39 44 t-15 57.5t9.5 56t25 39.5t35 23.5t39.5 8q28 0 42.5 -15t25.5 -33t25 -33t40 -15q13 0 31.5 11.5t40.5 38t47.5 68.5t54.5 103q-30 58 -65 124.5t-79.5 150.5t-102 189t-132.5 240q-52 93 -93 152.5t-73.5 94t-57 47.5t-43.5 13q-10 0 -15.5 -0.5t-11.5 -1.5z" />
<glyph unicode="&#x424;" horiz-adv-x="1603" d="M67 734q0 96 25 173.5t69.5 138t105 104.5t131.5 72.5t149 42t158 13.5q0 39 -5.5 67t-22.5 46.5t-48 27.5t-82 9h-18v69q70 -4 139 -6t135 -2q57 0 125 2t146 6v-69h-17q-47 0 -76.5 -7.5t-46.5 -24.5t-24.5 -46t-10.5 -72h37q141 0 253 -36t189.5 -101.5t118.5 -157.5 t41 -203q0 -96 -25 -173.5t-69.5 -138t-105 -104.5t-131.5 -72.5t-149 -42t-158 -13.5q0 -43 8.5 -74.5t27.5 -51.5t50 -30t77 -10h21v-70q-87 4 -159.5 6t-121.5 2q-58 0 -130.5 -2t-153.5 -6v70h20q45 0 75.5 8t49.5 27.5t28.5 51.5t12.5 79h-36q-141 0 -253 36 t-189.5 101.5t-118.5 157.5t-41 203zM265 758q2 -95 25.5 -163.5t59.5 -116.5t81 -77.5t90 -45.5t85 -21.5t68 -5.5h37q3 112 4.5 327t-4.5 533q-97 0 -179.5 -25.5t-142.5 -78.5t-93 -134t-31 -192zM888.5 861q-1.5 -215 4.5 -533q97 0 179.5 25.5t142.5 78.5t93 134 t31 192q-2 95 -25.5 163.5t-59.5 116.5t-81 77.5t-90 45.5t-85.5 21.5t-67.5 5.5h-37q-3 -112 -4.5 -327z" />
<glyph unicode="&#x425;" horiz-adv-x="1456" d="M18 0v69q5 0 11.5 -0.5t17.5 -0.5q100 0 234 180l1 1l349 466l-320 483q-3 5 -11 17q-95 143 -189 143h-19v69q69 -4 131 -6t113 -2q61 0 125 2t131 6v-69h-37q-36 0 -56 -11t-20 -30q0 -17 20 -55t74 -121l177 -271l153 222q80 115 103.5 156.5t23.5 62.5q0 23 -23 35 t-67 12h-20v69q62 -4 118.5 -6t100.5 -2q53 0 108.5 2t114.5 6l-1 -69q-5 1 -10.5 1.5t-17.5 0.5q-92 0 -225 -184q-31 -44 -49 -68l-248 -330l344 -504q91 -135 137 -170.5t101 -35.5q10 0 15 0.5t9 0.5v-69q-78 4 -146.5 6t-123.5 2q-45 0 -112 -2t-146 -6v70h26 q52 0 76.5 12t24.5 37q0 26 -57 110l-9 13l-258 383l-176 -252q-82 -117 -115.5 -175t-33.5 -81q0 -25 24.5 -37t73.5 -12q6 0 17.5 1t17.5 1v-70q-73 4 -134.5 6t-103.5 2q-49 0 -111.5 -2t-132.5 -6z" />
<glyph unicode="&#x426;" horiz-adv-x="1630" d="M72 0v69q6 0 13.5 -0.5t20.5 -0.5q77 0 106 50q28 49 28 214v44.5t-1 70.5q-1 43 -1 77.5v61.5v266v57t1 70q1 39 1 65.5v40.5q0 172 -29 224q-29 51 -107 51q-3 0 -12 -1t-14 -1v69q72 -4 136 -6t118 -2q61 0 125 2t131 6v-69h-27q-82 0 -111 -44q-28 -43 -28 -231v-227 l5 -733q100 -3 190 -4.5t185 -1.5q159 0 359 6l4 733l-1 211q0 198 -29 245q-28 46 -110 46h-27v69q67 -4 131 -6t127 -2q54 0 117 2t135 6v-69q-5 0 -14 1t-13 1q-77 0 -105 -49q-28 -47 -28 -207v-43.5t1 -70.5t1 -76.5v-61.5v-266v-61.5t-1 -77.5q-1 -42 -1 -75.5v-58.5 q0 -69 2.5 -110t12.5 -61.5t30.5 -25t56.5 -1.5l100 9q-7 -89 -10.5 -151t-5 -104t-2 -66t-0.5 -36v-111l-74 -2q-6 93 -26 154t-47.5 98.5t-61.5 55.5t-68 26q-19 4 -50.5 7t-71 5.5t-84 4.5t-88.5 3t-84.5 1.5t-72.5 0.5l-333 -3q-85 -1 -184.5 -3t-214.5 -4z" />
<glyph unicode="&#x427;" horiz-adv-x="1386" d="M20 1358v69q72 -4 129.5 -6t111.5 -2q61 0 125 2t131 6v-69h-27q-82 0 -111 -44q-28 -43 -28 -231v-135q0 -84 27 -136t69.5 -81t94 -39t99.5 -10q31 0 64 2.5t70 9.5t80 19t96 32l3 322q0 198 -29 245q-28 46 -110 46h-27v69q67 -4 131 -6t127 -2q54 0 117 2t135 6v-69 q-5 0 -14 1t-13 1q-77 0 -105 -49q-28 -47 -28 -207v-43.5t1 -70.5t1 -76.5v-61.5v-266v-61.5t-1 -77.5q-1 -42 -1 -70.5v-44.5q0 -165 28 -214q29 -50 105 -50q14 0 21.5 0.5t13.5 0.5v-69q-79 4 -146.5 6t-113.5 2q-54 0 -126 -2t-150 -6v70q6 0 18 -1t17 -1q91 0 120 45 q29 46 29 217v121l-3 180q-56 -16 -101 -26.5t-87 -17t-83.5 -9.5t-89.5 -3q-95 0 -164 19.5t-116.5 51.5t-77 74.5t-45.5 88.5t-21.5 92.5t-4.5 87.5v97q7 183 -21 228q-28 46 -94 46q-3 0 -12 -1t-14 -1z" />
<glyph unicode="&#x428;" horiz-adv-x="2138" d="M72 0v69q6 0 13.5 -0.5t20.5 -0.5q39 0 64.5 9.5t41 38t22 80.5t6.5 136v26t-0.5 41t-0.5 49.5t-0.5 52t-0.5 48v37.5v266q0 22 0.5 57t0.5 70.5t0.5 65t0.5 40.5q0 88 -7 142t-22.5 83.5t-41.5 39.5t-65 10q-3 0 -12 -1t-14 -1v69q72 -4 136 -6t118 -2q61 0 125 2t131 6 v-69h-27q-82 0 -111 -44q-29 -45 -28 -231l3 -960q154 -6 279 -6q63 0 123 1.5t137 4.5l3 854q0 123 -0.5 198t-14 115.5t-46.5 54t-97 13.5h-18v69q70 -4 139 -6t135 -2q57 0 125 2t146 6v-69h-17q-65 0 -98 -15t-45 -50q-4 -13 -7 -30t-5 -44t-2.5 -67.5t-0.5 -100.5 l3 -928q154 -6 279 -6q63 0 123 1.5t137 4.5l3 733l-1 211q-2 200 -29 245q-28 46 -110 46h-27v69q67 -4 131 -6t127 -2q54 0 117 2t135 6v-69q-5 0 -14 1t-13 1q-38 0 -63 -9t-41 -36.5t-22.5 -78t-6.5 -132.5q0 -11 0.5 -43.5t0.5 -71t0.5 -76.5t0.5 -61v-266v-37.5 t-0.5 -48t-0.5 -52t-0.5 -49.5t-0.5 -41v-26q0 -84 6.5 -136t22 -80.5t41 -38t63.5 -9.5q14 0 21.5 0.5t13.5 0.5v-69q-160 2 -297 4t-255 3l-440 3l-441 -3q-118 -1 -255 -3t-297 -4z" />
<glyph unicode="&#x429;" horiz-adv-x="2137" d="M72 0v69q6 0 13.5 -0.5t20.5 -0.5q77 0 106 50q28 49 28 214v44.5t-1 70.5q-1 43 -1 77.5v61.5v266v57t1 70q1 39 1 65.5v40.5q0 172 -29 224q-29 51 -107 51q-3 0 -12 -1t-14 -1v69q72 -4 136 -6t118 -2q61 0 125 2t131 6v-69h-27q-82 0 -111 -44q-28 -43 -28 -231v-227 l3 -733q154 -6 279 -6q63 0 123 1.5t137 4.5l3 733v121q0 79 -1 134.5t-3 88.5q-5 69 -13 93q-12 35 -43.5 50t-97.5 15h-18v69q70 -4 139 -6t135 -2q57 0 125 2t146 6v-69h-17q-66 0 -98 -15t-45 -50q-8 -23 -12 -75q-3 -51 -3 -167v-195l3 -733q154 -6 279 -6 q63 0 123 1.5t137 4.5l3 733l-1 211q0 198 -29 245q-28 46 -110 46h-27v69q67 -4 131 -6t127 -2q54 0 117 2t135 6v-69q-5 0 -14 1t-13 1q-77 0 -105 -49q-28 -47 -28 -207v-43.5t1 -70.5t1 -76.5v-61.5v-266v-61.5t-1 -77.5q-1 -42 -1 -75.5v-58.5q0 -69 2.5 -110 t12.5 -61.5t30.5 -25t56.5 -1.5l100 9q-7 -89 -10.5 -151t-5 -104t-2 -66t-0.5 -36v-111l-74 -2q-6 93 -26 154t-47.5 98.5t-61.5 55.5t-68 26q-14 3 -59.5 5.5t-112 4.5t-148 4t-167 3t-169 2t-155 1.5t-124.5 1t-77 0.5l-313 -3q-85 -1 -184.5 -3t-214.5 -4z" />
<glyph unicode="&#x42a;" horiz-adv-x="1470" d="M20 1120q24 116 31 198t7 130q17 -4 43.5 -8.5t64 -8.5t88.5 -7t118 -3h181q39 0 73 0.5t66.5 2t66 3t71.5 3.5v-72h-35q-48 0 -76 -12.5t-42.5 -42.5t-18.5 -79t-4 -121v-239q13 1 37 3t52 3.5t57 2.5t53 1q148 0 255.5 -35t177 -93t102.5 -133.5t33 -156.5 q0 -102 -35.5 -186t-106.5 -144.5t-178.5 -94t-251.5 -33.5q-34 0 -62 1.5t-57 3.5t-62 3.5t-76 1.5q-74 0 -142.5 -1.5t-145.5 -6.5l1 69q6 0 13.5 -0.5t20.5 -0.5q77 0 106 50q28 49 28 214v44.5t-1 70.5q-1 43 -1 77.5v61.5v735l-103 -2q-78 -2 -126.5 -12t-78 -32 t-45 -56.5t-27.5 -85.5l-6 -27zM654 382q0 -32 1 -67l3 -194q11 -5 31.5 -9t44 -7.5t46 -5.5t37.5 -2q102 0 177.5 25t125 71t74 111t24.5 146q0 73 -21 126t-55 89t-76.5 58t-86.5 34t-85 15.5t-71 3.5q-87 0 -169 -14v-318v-62z" />
<glyph unicode="&#x42b;" horiz-adv-x="1902" d="M72 0l1 69q6 0 13.5 -0.5t20.5 -0.5q77 0 106 50q28 49 28 214v44.5t-1 70.5q-1 43 -1 77.5v61.5v266v57t1 70q1 39 1 65.5v40.5q0 172 -29 224q-29 51 -107 51q-3 0 -12 -1t-14 -1v69q72 -4 136 -6t118 -2q61 0 125 2t131 6v-69h-27q-82 0 -111 -44q-28 -43 -28 -231 v-49l-1 -170q13 1 37 3t52 3.5t57 2.5t53 1q148 0 255.5 -35t177 -93t102.5 -133.5t33 -156.5q0 -102 -35.5 -186t-106.5 -144.5t-178.5 -94t-251.5 -33.5q-34 0 -62 1.5t-57 3.5t-62 3.5t-76 1.5q-74 0 -142.5 -1.5t-145.5 -6.5zM422 382q0 -32 1 -67l3 -194q11 -5 31.5 -9 t44 -7.5t46 -5.5t37.5 -2q102 0 177.5 25t125 71t74 111t24.5 146q0 73 -21 126t-55 89t-76.5 58t-86.5 34t-85 15.5t-71 3.5q-87 0 -169 -14v-318v-62zM1257 0v70h20q62 0 95 11t46 36q14 27 19.5 88.5t5.5 222.5v158v391q0 157 -4 223.5t-13 92.5q-12 35 -43.5 50 t-97.5 15h-18v69q70 -4 139 -6t135 -2q56 0 125 2t146 6v-69h-17q-65 0 -97.5 -15t-45.5 -50q-8 -23 -11.5 -74.5t-3.5 -167.5v-199v-498q0 -118 5.5 -166t17.5 -71q13 -25 46.5 -36t94.5 -11h21v-70q-86 4 -159 6t-122 2q-58 0 -131 -2t-153 -6z" />
<glyph unicode="&#x42c;" horiz-adv-x="1247" d="M81 0l1 69q6 0 13.5 -0.5t20.5 -0.5q77 0 106 50q28 49 28 214v44.5t-1 70.5q-1 43 -1 77.5v61.5v266v57t1 70q1 39 1 65.5v40.5q0 172 -29 224q-29 51 -107 51q-3 0 -12 -1t-14 -1v69q72 -4 136 -6t118 -2q61 0 125 2t131 6v-69h-27q-82 0 -111 -44q-28 -43 -28 -231 v-49l-1 -170q13 1 37 3t52 3.5t57 2.5t53 1q148 0 255.5 -35t177 -93t102.5 -133.5t33 -156.5q0 -102 -35.5 -186t-106.5 -144.5t-178.5 -94t-251.5 -33.5q-34 0 -62 1.5t-57 3.5t-62 3.5t-76 1.5q-74 0 -142.5 -1.5t-145.5 -6.5zM431 382q0 -32 1 -67l3 -194q11 -5 31.5 -9 t44 -7.5t46 -5.5t37.5 -2q102 0 177.5 25t125 71t74 111t24.5 146q0 73 -21 126t-55 89t-76.5 58t-86.5 34t-85 15.5t-71 3.5q-87 0 -169 -14v-318v-62z" />
<glyph unicode="&#x42d;" horiz-adv-x="1432" d="M72 365l80 25q18 -59 47 -114.5t79.5 -99t128 -69.5t193.5 -26q110 0 205 27t165.5 95t112.5 183t47 291h-114q-25 0 -87 -2t-144 -6t-174.5 -9.5t-177.5 -12.5q5 35 6 80.5t-2 80.5q36 -3 83 -6t99 -6t106.5 -6t105.5 -5t95.5 -3.5t77.5 -1.5h124q-9 124 -54 228.5 t-117.5 180.5t-167.5 118.5t-204 42.5q-101 0 -174.5 -27.5t-123.5 -72.5t-78 -102t-37 -116l-73 12q2 21 5.5 53.5t6.5 72t5.5 82.5t2.5 85v35q124 50 244 68t219 18q135 0 244 -29t194 -80.5t147 -122t102 -152t59.5 -171.5t19.5 -181q0 -160 -55 -298t-157 -239.5 t-245.5 -159.5t-320.5 -58q-83 0 -156.5 9.5t-132 22.5t-99 26t-57.5 21q-5 107 -21.5 186.5t-31.5 132.5z" />
<glyph unicode="&#x42e;" horiz-adv-x="2215" d="M72 0v69q6 0 13.5 -0.5t20.5 -0.5q77 0 106 50q28 49 28 214v44.5t-1 70.5q-1 43 -1 77.5v61.5v266v57t1 70q1 39 1 65.5v40.5q0 172 -29 224q-29 51 -107 51q-3 0 -12 -1t-14 -1v69q72 -4 136 -6t118 -2q61 0 125 2t131 6v-69h-27q-82 0 -111 -44q-28 -43 -28 -231v-295 q145 -3 280 0q6 82 29 163t64 155t99.5 138t134.5 111t169.5 75t204.5 30q114 2 212 -26.5t177.5 -80t141 -122t103 -153.5t62.5 -174.5t21 -184.5q-1 -109 -27 -207t-73 -181t-113 -150t-145.5 -114t-171 -73t-189.5 -27q-144 -2 -268.5 47t-218 141t-150 222.5 t-64.5 292.5q-33 1 -53 1.5t-35.5 0.5t-29.5 -0.5t-33.5 -0.5t-49.5 -0.5t-77 -0.5v-318q0 -191 29 -238q28 -46 112 -46q5 0 17 1t18 1v-70q-78 4 -145 6t-121 2q-46 0 -112.5 -2t-147.5 -6zM907 760q0 -146 38.5 -270t107 -214.5t163 -142.5t207.5 -53q87 -1 172.5 34 t153 109t109 188.5t40.5 272.5q-1 112 -22 205t-58 166.5t-87 128t-107 91t-119.5 54.5t-124.5 19q-87 1 -171.5 -33.5t-151.5 -107t-108.5 -183.5t-41.5 -264z" />
<glyph unicode="&#x42f;" horiz-adv-x="1383" d="M-8 -8v57h10q34 0 66.5 13t69 47t81.5 93t105 150l177 271q-59 21 -109.5 53.5t-88 80t-59 110.5t-21.5 145q0 78 33 153t99 134t165 95t230 36q18 0 53 -1.5t75.5 -3l81 -3t69.5 -1.5q63 0 128 2t132 7l6 -72q-5 0 -14 1t-13 1q-38 0 -63 -9t-41 -36.5t-22.5 -78 t-6.5 -132.5q0 -11 0.5 -43.5t0.5 -71t0.5 -76.5t0.5 -61v-266v-37.5t-0.5 -48t-0.5 -52t-0.5 -49.5t-0.5 -41v-26q0 -84 6.5 -136t22 -80.5t41 -38t63.5 -9.5q14 0 21.5 0.5t13.5 0.5v-69h-2q-79 4 -146.5 6t-113.5 2q-54 0 -121 -2t-145 -6v66h26q46 0 75.5 7t47 31 t24.5 69.5t7 121.5v278q-58 -3 -123.5 -2.5t-132.5 8.5l-232 -375q-38 -62 -77.5 -104t-83 -68.5t-92 -38t-103.5 -11.5q-28 0 -57.5 2.5t-61.5 7.5zM421 1022q0 -73 16.5 -127t45.5 -92t68 -62t84 -38t94 -19t98 -5q40 0 75 5t53 8v142t-0.5 118t-0.5 100t-0.5 89t-1.5 85 t-2 87q-38 7 -76.5 10.5t-80.5 3.5q-83 0 -151.5 -22t-117.5 -61.5t-76 -96t-27 -125.5z" />
<glyph unicode="&#x430;" horiz-adv-x="985" d="M74 246q0 187 403 282q95 22 148 35q0 17 1 49q3 66 3 86q0 104 -43 153.5t-131 49.5q-86 0 -135.5 -31.5t-49.5 -85.5q0 -5 1 -13.5t1 -12.5q0 -31 -30 -51.5t-72 -20.5q-36 0 -53 12t-17 37q0 80 135 178.5t279 98.5q139 0 211 -76.5t72 -224.5q0 -80 -9.5 -246 t-9.5 -252q0 -65 14.5 -88t51.5 -23q16 0 41.5 9.5t75.5 33.5l28 -63q-75 -54 -137 -83.5t-100 -29.5q-64 0 -96 37.5t-35 113.5q-109 -73 -181 -104.5t-129 -31.5q-101 0 -169 76t-68 186zM238 258q0 -66 42 -107.5t111 -41.5q42 0 97 22t128 70l4 282l-57 -15 q-325 -89 -325 -210z" />
<glyph unicode="&#x431;" horiz-adv-x="1129" d="M100 565q0 172 25.5 296.5t65.5 211t90 140.5t99.5 85.5t93 44.5t70.5 19l164 33q35 7 73.5 14t75 21t68.5 38t53 66l56 -14q-10 -46 -26 -85.5t-34 -71.5t-37 -58t-35 -45l-310 -50q-84 -13 -145.5 -34.5t-105 -60.5t-69 -99t-37.5 -150l-11 -80l19 -8 q71 96 169.5 146.5t205.5 50.5q82 0 162 -30.5t143 -90.5t102 -150t39 -210q0 -108 -36.5 -202.5t-102.5 -165.5t-158.5 -112t-204.5 -41q-104 0 -189.5 40t-146 115.5t-93.5 185.5t-33 251zM284 479q0 -96 26 -171.5t69 -128t97.5 -80t111.5 -27.5q67 0 122 26t94 75 t60 120.5t21 162.5q0 100 -25 177t-67.5 128.5t-99 78t-119.5 26.5q-65 0 -118.5 -27t-91.5 -77.5t-59 -122t-21 -160.5z" />
<glyph unicode="&#x432;" horiz-adv-x="1078" d="M70 0v70h23q44 0 69 26.5t37.5 65t15.5 82t3 76.5v342q0 85 -6 135t-20.5 75t-38 32t-58.5 7h-23v70q88 -6 141.5 -8t83.5 -2q47 0 81 1.5t63.5 3t57 3t62.5 2.5q100 0 170 -20.5t113.5 -54.5t63 -78.5t19.5 -91.5q0 -70 -43.5 -128.5t-119.5 -89.5q54 -12 96.5 -35.5 t71 -55.5t43.5 -70t15 -80q0 -72 -31.5 -125t-85 -87t-124 -50.5t-148.5 -16.5q-32 0 -61 2t-63.5 4t-78 4t-103.5 2q-51 0 -103.5 -2.5t-121.5 -7.5zM384 451l2 -345q30 -8 59.5 -12t54 -6.5t43 -3t27.5 -0.5q65 0 111 16t74.5 43.5t41.5 63t13 74.5q0 41 -13 74.5 t-43.5 57.5t-82 37t-127.5 13q-70 0 -160 -12zM384 548q41 -3 75 -5t66 -2q42 0 80.5 2t81.5 7q38 32 54.5 74t16.5 87q0 36 -11.5 68.5t-39.5 57t-73.5 39t-112.5 14.5q-30 0 -66 -2.5t-65 -7.5z" />
<glyph unicode="&#x433;" horiz-adv-x="903" d="M70 0v70h23q44 0 69 26.5t37.5 65t15.5 82t3 76.5v342q0 165 -26 208q-13 22 -36.5 31.5t-60.5 9.5h-23v70q29 -2 65 -3.5t74.5 -2.5t76 -1t69.5 -0.5t55.5 -0.5h33.5q43 0 94 0.5t103 3t100.5 8.5t85.5 17q0 -29 1 -66.5t4.5 -81.5t10 -93t18.5 -100l-68 -13 q-17 72 -38.5 116t-55 68.5t-83 34.5t-124.5 13l-112 5v-615q0 -52 1.5 -90t11 -62.5t30 -36t58.5 -11.5h26v-70q-51 4 -103.5 7t-110.5 3q-51 0 -103.5 -2.5t-121.5 -7.5z" />
<glyph unicode="&#x434;" d="M20 111l68 -8q31 -4 57 27.5t55 88.5q51 100 85 227.5t52 290.5q3 25 3 55.5t-9 56.5t-31 44t-64 18h-23v70q49 -2 86.5 -3.5t75 -2.5t80 -2t100.5 -1q59 0 123.5 0.5t128 1.5t123 3t108.5 4v-70h-23q-43 0 -66.5 -19t-34 -52.5t-12.5 -79t-2 -98.5v-239l3 -245 q0 -28 6 -44.5t16 -25t24 -10.5t29 0l91 8q-6 -85 -9 -147.5t-4 -110.5t-0.5 -85.5t2.5 -71.5l-73 -8q-4 93 -21 149.5t-41 89.5t-52.5 47.5t-56.5 22.5q-12 4 -28.5 7t-47.5 5.5t-81 4t-130 1.5t-128.5 -1.5t-76.5 -4t-42 -5.5t-24 -7q-21 -8 -46 -21t-47 -44.5t-38.5 -87 t-20.5 -148.5l-73 -8q1 34 2 73.5t0 90t-4 115t-9 149.5zM246 102q58 -3 127 -4t133 -1q48 0 108 1t120 4l2 469v306q-17 1 -40 2.5t-47 2t-45.5 1t-35.5 0.5q-29 0 -56 -1.5t-61 -4.5q-9 -99 -22.5 -198t-36.5 -196t-58.5 -192.5t-87.5 -188.5z" />
<glyph unicode="&#x435;" horiz-adv-x="999" d="M74 465q0 231 132 388t322 157q177 0 282 -118t120 -333h-488q-57 0 -105 -2t-89 -6v-37q0 -196 90.5 -303t255.5 -107q73 0 144 24.5t151 76.5l39 -64q-103 -84 -205.5 -127t-202.5 -43q-194 0 -320 138.5t-126 355.5zM254 633q198 0 311.5 7t179.5 24 q-30 123 -91 188.5t-146 65.5q-96 0 -164.5 -77t-89.5 -208z" />
<glyph unicode="&#x436;" horiz-adv-x="1572" d="M20 -6v50q28 0 57.5 13t65.5 41.5t81 75t104 113.5l217 249l-104 105q-74 76 -127 127.5t-93 83.5t-71 46t-61 14q-10 0 -15 -0.5t-9 -0.5v70q57 -3 103.5 -4.5t91.5 -1.5q34 0 77 1.5t106 4.5v-70h-23q-57 0 -67.5 -19t12 -53.5t71 -83.5t108.5 -109l160 -160v225 q0 121 -25 158q-13 19 -31 30.5t-38 11.5h-28v70q43 -3 74 -5t54.5 -3t41 -1.5t33.5 -0.5t34 0.5t41.5 1.5t55 3t74.5 5v-70h-28q-20 0 -38 -11.5t-31 -30.5q-25 -37 -25 -158v-225l160 160q60 60 108.5 109t71 83.5t12 53.5t-67.5 19h-23v70q63 -3 106 -4.5t77 -1.5 q45 0 91.5 1.5t103.5 4.5v-70q-4 0 -9 0.5t-15 0.5q-30 0 -61 -14t-71 -46t-93 -83.5t-127 -127.5l-104 -105l217 -249q58 -67 103.5 -113.5t81.5 -75t65.5 -41.5t57.5 -13v-50q-77 -17 -138.5 -10.5t-112 30.5t-93 63t-81.5 86l-259 314v-207q0 -52 1.5 -90t11 -62.5 t30 -36t58.5 -11.5h26v-70q-51 4 -101.5 7t-108.5 3t-107.5 -3t-100.5 -7v70h26q38 0 58.5 11.5t30 36t11 62.5t1.5 90v207l-259 -314q-39 -47 -81.5 -86t-93 -63t-112 -30.5t-138.5 10.5z" />
<glyph unicode="&#x437;" horiz-adv-x="907" d="M36 158l62 67q70 -69 145 -101t167 -32q52 0 93.5 14.5t71 40t45 61.5t15.5 80t-14 75.5t-34 53t-43 34.5t-42 19q-29 -7 -54.5 -11.5t-50.5 -7t-49.5 -3.5t-52.5 0v136q48 1 100.5 -4.5t118.5 -18.5q17 8 34.5 26t31.5 42t22.5 52t8.5 56q0 38 -12 72t-36.5 60 t-63.5 41.5t-93 15.5q-97 0 -159.5 -63.5t-74.5 -176.5l-76 12q6 44 14.5 113.5t8.5 146.5q32 9 70 18.5t79 17t82.5 12t81.5 4.5q109 0 177.5 -24t107.5 -59.5t53 -76t14 -72.5q0 -30 -7 -64t-27 -67.5t-57 -64.5t-98 -55q55 -13 96.5 -38t69 -59t41 -75t13.5 -86 q0 -72 -32 -127.5t-85.5 -93t-122.5 -57t-144 -19.5q-64 0 -121.5 13.5t-107 38t-91.5 58.5t-75 76z" />
<glyph unicode="&#x438;" horiz-adv-x="1253" d="M70 0v70h23q44 0 69 26.5t37.5 65t15.5 82t3 76.5v342q0 165 -26 208q-13 22 -36.5 31.5t-60.5 9.5h-23v70q87 -6 136 -8t79 -2q32 0 81.5 2t135.5 8v-70h-28q-20 0 -38 -11.5t-31 -30.5q-25 -37 -25 -158v-383q29 27 58.5 54.5t59.5 56.5l217 205l163 159q-2 42 -11 64 t-23.5 32t-33 11t-38.5 1h-15v70q86 -6 135.5 -8t81.5 -2q30 0 79 2t128 8v-70h-23q-43 0 -66.5 -19t-34 -52.5t-12.5 -79t-2 -98.5v-394q0 -41 2 -77t12.5 -63t34 -42.5t66.5 -15.5h23v-70q-79 6 -134 8t-85 2q-26 0 -50.5 -0.5t-51 -2t-57 -3.5t-67.5 -4v70h26 q57 0 87 60.5t30 178.5v369q-26 -24 -53 -49.5t-57 -54.5l-207 -198q-49 -46 -93 -88t-89 -86q0 -27 2 -51t11.5 -42t30 -28.5t57.5 -10.5h26v-70q-51 4 -103.5 7t-110.5 3q-51 0 -103.5 -2.5t-121.5 -7.5z" />
<glyph unicode="&#x439;" horiz-adv-x="1227" d="M52 0v70h23q44 0 69 26.5t37.5 65t15.5 82t3 76.5v342q0 165 -26 208q-13 22 -36.5 31.5t-60.5 9.5h-23v70q87 -6 136 -8t79 -2q32 0 81.5 2t135.5 8v-70h-28q-20 0 -38 -11.5t-31 -30.5q-25 -37 -25 -158v-383q29 27 58.5 54.5t59.5 56.5l217 205l163 159q-2 42 -11 64 t-23.5 32t-33 11t-38.5 1h-15v70q86 -6 135.5 -8t81.5 -2q30 0 79 2t128 8v-70h-23q-43 0 -66.5 -19t-34 -52.5t-12.5 -79t-2 -98.5v-394q0 -41 2 -77t12.5 -63t34 -42.5t66.5 -15.5h23v-70q-79 6 -134 8t-85 2q-26 0 -50.5 -0.5t-51 -2t-57 -3.5t-67.5 -4v70h26 q57 0 87 60.5t30 178.5v369q-26 -24 -53 -49.5t-57 -54.5l-207 -198q-49 -46 -93 -88t-89 -86q0 -27 2 -51t11.5 -42t30 -28.5t57.5 -10.5h26v-70q-51 4 -103.5 7t-110.5 3q-51 0 -103.5 -2.5t-121.5 -7.5zM349 1335q0 21 7 40.5t20.5 34.5t33 23.5t45.5 8.5 q30 0 46.5 -12.5t23 -30.5t6.5 -37.5t-3 -33.5q-8 -38 9 -54.5t60 -16.5q70 0 134.5 48.5t109.5 134.5l57 -28q-26 -66 -64 -112.5t-81.5 -76.5t-90 -44t-90.5 -14q-62 0 -105 15.5t-69 40t-37.5 55t-11.5 59.5z" />
<glyph unicode="&#x43a;" horiz-adv-x="1138" d="M70 0v70h23q44 0 69 26.5t37.5 65t15.5 82t3 76.5v342q0 165 -26 208q-13 22 -36.5 31.5t-60.5 9.5h-23v70q87 -6 136 -8t79 -2q32 0 81.5 2t135.5 8v-70h-28q-20 0 -38 -11.5t-31 -30.5q-25 -37 -25 -158v-226l177 161q73 66 125 116t73.5 83.5t8 50.5t-70.5 17h-14v68 q126 -6 192 -6q92 0 206 6v-67q-4 0 -9 0.5t-15 0.5q-32 0 -67 -14.5t-79.5 -47t-102 -83.5t-135.5 -123l-115 -107l241 -250q126 -134 202.5 -193t111.5 -59h7v-50q-81 -11 -140.5 -8.5t-110 22.5t-98 59t-103.5 102l-284 314v-207q0 -52 1.5 -90t11 -62.5t30 -36 t58.5 -11.5h26v-70q-51 4 -103.5 7t-110.5 3q-51 0 -103.5 -2.5t-121.5 -7.5z" />
<glyph unicode="&#x43b;" horiz-adv-x="1098" d="M29 95q0 21 5 40t15 33.5t26 23t39 8.5q21 0 33.5 -8t21.5 -18t17 -18t20 -8q16 0 30.5 14t28 46.5t27.5 85.5t29 132q7 36 13.5 76t12 81t10 80.5t6.5 73.5t4 65.5t-5.5 55.5t-28.5 38.5t-63 14.5h-23v70q49 -2 87.5 -3.5t77.5 -2.5t82.5 -2t101.5 -1q237 0 432 9v-70 h-23q-43 0 -66.5 -19t-34 -52.5t-12.5 -79t-2 -98.5v-394q0 -41 2 -77t12.5 -63t34 -42.5t66.5 -15.5h23v-70q-79 6 -134 8t-85 2q-16 0 -35 -0.5t-41 -1.5t-58.5 -3t-90.5 -5v70h26q57 0 86.5 60.5t29.5 178.5v564q-36 3 -65.5 4.5t-59.5 1.5q-31 0 -62 -1.5t-67 -4.5 q-11 -101 -22 -215.5t-33 -232.5q-20 -105 -44 -187.5t-56.5 -139.5t-73.5 -87t-95 -30q-53 0 -86 31t-33 83z" />
<glyph unicode="&#x43c;" horiz-adv-x="1470" d="M43 0v70h28q45 0 72 21t42 56.5t21.5 81t10.5 93.5l33 432q4 56 -4 87.5t-25.5 47t-41 19t-48.5 3.5h-16v70q7 -1 23.5 -2.5t38 -3t45.5 -3t47 -1.5q18 0 40.5 1t45 2.5t44 3t39.5 3.5v-6q0 -17 5 -37t11.5 -39.5t14.5 -37.5t14 -30l244 -522l193 418q15 33 32 67.5 t30.5 67t22.5 61t9 50.5v8q17 -2 37.5 -3.5l41 -3t40 -2.5t33.5 -1q18 0 41.5 1t47.5 2.5t46 3t38 3.5l4 -68h-18q-57 0 -83 -22t-33.5 -63t-2.5 -100.5t11 -135.5l20 -277q4 -51 10.5 -95.5t20 -77.5t36 -52.5t57.5 -19.5h28v-70q-27 2 -45 3.5t-38.5 3t-48.5 2.5t-75 3 q-58 0 -116 -4t-121 -8v70h22q25 0 45 7.5t34.5 25t21.5 47t5 73.5l-26 572l-275 -605q-6 -13 -12.5 -27.5t-13.5 -33t-13.5 -41.5t-11.5 -53h-64q-8 27 -13.5 44.5t-10 30.5t-9 23.5t-10.5 22.5l-282 620l-15 -227q-2 -23 -4 -62.5t-3.5 -82.5t-3 -84t-1.5 -68v-27 q0 -50 8.5 -80.5t24 -47t37.5 -22t49 -5.5h22v-70q-17 2 -70.5 7t-150.5 5q-19 0 -36 -1t-37 -2.5t-46 -4t-63 -4.5z" />
<glyph unicode="&#x43d;" horiz-adv-x="1235" d="M70 0v70h23q44 0 69 26.5t37.5 65t15.5 82t3 76.5v342q0 165 -26 208q-13 22 -36.5 31.5t-60.5 9.5h-23v70q87 -6 136 -8t79 -2q32 0 81.5 2t135.5 8v-70h-28q-20 0 -38 -11.5t-31 -30.5q-25 -37 -25 -158v-153q39 -1 77.5 -2.5t79.5 -1.5h156q46 0 86 1.5t82 2.5v153 q0 69 -9 108.5t-23.5 60t-34 26t-40.5 5.5h-15v70q86 -6 135.5 -8t81.5 -2q30 0 79 2t128 8v-70h-23q-43 0 -66.5 -19t-34 -52.5t-12.5 -79t-2 -98.5v-394q0 -41 2 -77t12.5 -63t34 -42.5t66.5 -15.5h23v-70q-79 6 -134 8t-85 2q-26 0 -50.5 -0.5t-51 -2t-57 -3.5t-67.5 -4 v70h26q57 0 87 60.5t30 178.5v145q-22 1 -41.5 1.5l-39 1t-40.5 1t-45 0.5h-149q-45 0 -84.5 -1t-81.5 -3v-184q0 -52 1.5 -90t11 -62.5t30 -36t58.5 -11.5h26v-70q-51 4 -103.5 7t-110.5 3q-51 0 -103.5 -2.5t-121.5 -7.5z" />
<glyph unicode="&#x43e;" horiz-adv-x="1128" d="M68 481q0 220 149.5 374.5t357.5 154.5q211 0 349.5 -141.5t138.5 -350.5q0 -230 -146 -387.5t-360 -157.5t-351.5 144t-137.5 364zM252 545q0 -211 90.5 -342t235.5 -131q140 0 223.5 104t83.5 283q0 196 -94.5 321t-241.5 125q-134 0 -215.5 -97.5t-81.5 -262.5z" />
<glyph unicode="&#x43f;" horiz-adv-x="1228" d="M70 0v70h23q44 0 69 26.5t37.5 65t15.5 82t3 76.5v342q0 165 -26 208q-13 22 -36.5 31.5t-60.5 9.5h-23v70q66 -2 130 -3.5t130.5 -2.5t137.5 -2t149 -1q79 0 149 0.5t134.5 1.5t127 3t128.5 4v-70h-23q-43 0 -66.5 -19t-34 -52.5t-12.5 -79t-2 -98.5v-394q0 -41 2 -77 t12.5 -63t34 -42.5t66.5 -15.5h23v-70q-79 6 -134 8t-85 2q-16 0 -35 -0.5t-41 -1.5t-58.5 -3t-90.5 -5v70h26q57 0 86.5 60.5t29.5 178.5v564q-67 3 -122 4.5t-112 1.5t-115 -1.5t-125 -4.5v-603q0 -52 1.5 -90t11 -62.5t30 -36t58.5 -11.5h26v-70q-46 3 -80 5t-57 3 t-42 1.5t-35 0.5q-15 0 -34.5 -0.5t-44.5 -1.5t-61 -3t-85 -5z" />
<glyph unicode="&#x440;" horiz-adv-x="1147" d="M27 -444q65 0 88 6.5t35 23.5q26 45 28 408v117l2 227v280v50q0 124 -14.5 155t-56.5 31q-10 0 -24 -2t-30 -6l-10 61q85 24 162.5 55.5t150.5 71.5l-8 -160q91 63 169.5 92t154.5 29q165 0 276 -131.5t111 -326.5q0 -254 -141.5 -397.5t-391.5 -143.5q-46 0 -93 9.5 t-93 27.5v-357q0 -118 173 -120h1v-72q-66 5 -127.5 7.5t-116.5 2.5q-33 0 -86 -2t-159 -8v72zM342 279q0 -19 1 -63.5t1 -70.5q60 -29 120 -45t114 -16q148 0 232.5 97.5t84.5 271.5q0 188 -83 300.5t-218 112.5q-58 0 -121.5 -19t-122.5 -54q-4 -146 -6 -276t-2 -238z" />
<glyph unicode="&#x441;" horiz-adv-x="915" d="M66 471q0 227 157 384t383 157q116 0 179 -32.5t63 -90.5q0 -42 -25.5 -72.5t-58.5 -30.5q-11 0 -92.5 50.5t-155.5 50.5q-130 0 -206.5 -93.5t-76.5 -254.5q0 -203 92.5 -316.5t256.5 -113.5q61 0 121.5 21t125.5 67l50 -76q-97 -74 -191 -112t-178 -38 q-196 0 -320 140.5t-124 359.5z" />
<glyph unicode="&#x442;" horiz-adv-x="1038" d="M38 684q8 32 14 64t11.5 68t10 79.5t8.5 99.5q45 -17 131.5 -19.5t222.5 -2.5h166q43 0 92 0.5t98 3t95 8.5t83 17q1 -58 4.5 -136.5t26.5 -181.5l-68 -13q-17 72 -37.5 113.5t-52 63t-76.5 27t-112 5.5h-51l-2 -286q-1 -112 -0.5 -194.5t4.5 -140.5t12.5 -95.5 t24.5 -58.5t40 -29t59 -8h26v-68q-35 2 -98.5 6t-150.5 4q-89 0 -148 -4t-101 -6v68h25q33 0 59.5 7t44.5 38.5t27.5 97t9.5 182.5v201l-2 286h-43q-60 0 -107.5 -5.5t-83.5 -26.5t-61 -62.5t-39 -114.5z" />
<glyph unicode="&#x443;" horiz-adv-x="995" d="M0 912v68q75 -5 120 -7t77 -2q30 0 76.5 2t129.5 8v-70h-26q-50 0 -70 -13.5t-20 -47.5q0 -26 88 -264q84 -226 139 -381q139 330 195.5 476t56.5 175t-22 42t-72 13h-15v70q45 -4 88.5 -6t83.5 -2q33 0 76 2t92 6v-70h-8q-33 0 -55.5 -14.5t-38.5 -46.5q-2 -5 -17 -39 q-106 -245 -227 -514q-60 -136 -153 -355q-200 -474 -308 -474q-40 0 -67 26t-27 66q0 55 77 69q31 5 44 11q56 22 161 254q29 65 46 102q-69 178 -170 457q-167 460 -238 460q-6 0 -9.5 -0.5t-6.5 -0.5z" />
<glyph unicode="&#x444;" horiz-adv-x="1514" d="M66 470q0 126 29 224t83.5 165.5t132.5 102.5t177 35q26 0 51.5 -4.5t48.5 -11.5t42.5 -15t33.5 -15q-1 91 -3 186.5t-4 179.5q0 84 -73 84q-8 0 -21 -3t-37 -5l-14 65q84 14 168 36t159 52q-3 -99 -4.5 -181t-3 -154t-2 -137.5t-0.5 -131.5v-21q31 23 63.5 37.5t63 23 t58.5 12t50 3.5q85 0 152.5 -38t114.5 -102.5t72 -150.5t25 -183q0 -126 -29 -224t-83.5 -165.5t-132.5 -102.5t-177 -35q-54 0 -101 15.5t-76 29.5v-365q0 -118 173 -120v-70q-70 4 -131 6t-112 2q-37 0 -101.5 -2t-173.5 -8v67h9q58 0 92 16t52 61.5t23 129t5 218.5v87 l-1 8q-31 -23 -63.5 -37.5t-63 -22.5t-58.5 -11.5t-49 -3.5q-85 0 -152.5 38t-114.5 102.5t-72 150.5t-25 183zM232 522q0 -101 22 -177.5t58.5 -128.5t83 -78t94.5 -26q38 0 83.5 7.5t88.5 36.5q1 85 3.5 172t2.5 186q0 80 -2 165.5t-3 153.5q-12 12 -31.5 25.5t-42.5 25 t-47 19t-46 7.5q-60 0 -109 -29.5t-83.5 -81.5t-53 -123t-18.5 -154zM826 505q0 -86 1.5 -172t1.5 -172q12 -12 31.5 -25.5t42.5 -25t47.5 -19.5t47.5 -8q60 0 109 29.5t83.5 81.5t53 123t18.5 154q0 101 -22 177.5t-58.5 128.5t-83 78t-94.5 26q-39 0 -85.5 -8.5 t-89.5 -37.5q-1 -83 -2 -165t-1 -165z" />
<glyph unicode="&#x445;" horiz-adv-x="1085" d="M18 0v69q4 0 9.5 -0.5t15.5 -0.5q94 0 338 310q55 71 86 109l-225 310q-52 70 -83 94t-65 24q-2 0 -7.5 -1t-8.5 -1v68q13 -1 38 -2q118 -6 163 -6q37 0 86.5 2t107.5 6v-68h-8q-34 0 -51 -11.5t-17 -35.5q0 -35 155 -240l14 -17q98 129 135.5 186t37.5 77q0 22 -14 30.5 t-59 10.5v68q47 -4 89 -6t76 -2q43 0 86 2t89 6l-1 -67q-2 0 -6 0.5t-10 0.5q-74 0 -270 -247q-65 -81 -103 -127l269 -359q54 -73 83.5 -92.5t67.5 -19.5h11v-70q-18 1 -49 2q-113 6 -154 6q-29 0 -120 -4q-51 -3 -78 -4l-1 70h12q38 0 55 10t17 33q0 24 -109 170 q-62 83 -100 135q-106 -137 -154.5 -210.5t-48.5 -98.5q0 -21 14 -30t46 -9h12v-70q-54 4 -102.5 6t-87.5 2q-32 0 -78.5 -2t-102.5 -6z" />
<glyph unicode="&#x446;" horiz-adv-x="1256" d="M70 70h23q44 0 69 26.5t37.5 65t15.5 82t3 76.5v342q0 165 -26 208q-13 22 -36.5 31.5t-60.5 9.5h-23v70q87 -6 136 -8t79 -2q32 0 81.5 2t135.5 8v-70h-28q-20 0 -38 -11.5t-31 -30.5q-6 -9 -11 -30t-8 -48t-4.5 -58t-1.5 -61v-101q0 -62 0.5 -120.5t1 -115.5t1 -113.5 t0.5 -114.5q30 -2 57.5 -2.5t55.5 -1.5t57 -1h63q50 0 110 1t123 4l2 464v140q0 69 -9 108.5t-24 60t-34 26t-40 5.5h-15v70q86 -6 135.5 -8t81.5 -2q30 0 79 2t128 8v-70h-23q-43 0 -66.5 -19t-34 -52.5t-12.5 -79t-2 -98.5v-239l3 -245q0 -28 6 -44.5t16 -25t24 -10.5 t29 0l91 8q-6 -85 -9 -147.5t-4 -110.5t-0.5 -85.5t2.5 -71.5l-73 -8q-4 93 -25.5 150.5t-51 90.5t-62 47.5t-58.5 20.5q-12 3 -28.5 6t-47.5 6t-81 4.5t-130 1.5q-150 0 -283 -3t-264 -6z" />
<glyph unicode="&#x447;" horiz-adv-x="1117" d="M24 912v70q87 -6 136 -8t79 -2q16 0 31.5 0.5t35.5 1t49 2.5t72 5v-70h-11q-27 0 -47.5 -6t-35 -24.5t-21.5 -53t-7 -92.5v-50q0 -47 8 -88t31 -71t64.5 -47.5t108.5 -17.5q31 0 57.5 2t53 6.5t54.5 12t63 18.5v211q0 69 -8.5 108.5t-23.5 60t-34.5 26t-40.5 5.5h-15v70 q86 -6 135.5 -8t81.5 -2q30 0 79 2t128 8v-70h-23q-43 0 -66.5 -19t-34 -52.5t-12.5 -79t-2 -98.5v-394q0 -41 2 -77t12.5 -63t34 -42.5t66.5 -15.5h23v-70q-79 6 -134 8t-85 2q-26 0 -50.5 -0.5t-51 -2t-57 -3.5t-67.5 -4v70h26q57 0 87 60.5t30 178.5v107 q-45 -14 -82.5 -23t-70 -14.5t-61 -7.5t-56.5 -2q-106 0 -172.5 29t-103 77.5t-49 111.5t-9.5 130l2 49q1 36 -1 63t-12.5 45.5t-30 28t-52.5 9.5h-23z" />
<glyph unicode="&#x448;" horiz-adv-x="1669" d="M70 70h23q44 0 69 19.5t37.5 53t15.5 79t3 98.5v342q0 165 -26 208q-13 22 -36.5 31.5t-60.5 9.5h-23v70q87 -6 136 -8t79 -2q32 0 80.5 2t134.5 8v-70h-28q-27 0 -44.5 -12.5t-28 -32.5t-15 -45.5t-6 -52t-1 -52t0.5 -44.5v-101q0 -62 0.5 -120.5t1 -115l1 -113 t0.5 -114.5q26 -1 46.5 -2t40 -2t39.5 -1.5t46 -0.5h46.5t52.5 1l54 2t51 3l2 463v140q0 69 -9 108.5t-24 60t-34 26t-40 5.5h-15v70q43 -3 73.5 -5t53.5 -3t40 -1.5t33 -0.5t33.5 0.5t40 1.5t53.5 3t74 5v-70h-28q-28 0 -45.5 -13.5t-28 -35t-15 -48t-5.5 -53t-0.5 -50.5 t0.5 -39v-101q0 -62 0.5 -120.5t1 -115l1 -113t0.5 -114.5q48 0 88 -3t86 -3q30 0 60.5 0.5t58.5 1.5t49.5 2t33.5 2l2 463v140q0 69 -9 108.5t-24 60t-34 26t-40 5.5h-15v70q86 -6 134.5 -8t80.5 -2q30 0 79 2t128 8v-70h-23q-43 0 -66.5 -19t-34 -52.5t-12.5 -79t-2 -98.5 v-394q0 -41 3.5 -77t15.5 -63t34.5 -42.5t61.5 -15.5h23v-70q-44 1 -102.5 2t-125 2t-137.5 2t-139.5 1.5t-131 1t-112.5 0.5t-115 -0.5t-137 -1t-147 -1t-145 -1.5t-131 -2t-105 -2z" />
<glyph unicode="&#x449;" horiz-adv-x="1700" d="M70 70h23q44 0 69 19.5t37.5 53t15.5 79t3 98.5v342q0 165 -26 208q-13 22 -36.5 31.5t-60.5 9.5h-23v70q87 -6 136 -8t79 -2q32 0 80.5 2t134.5 8v-70h-28q-20 0 -38 -11.5t-31 -30.5q-6 -9 -11 -30t-8 -48t-4.5 -58t-1.5 -61v-101q0 -62 0.5 -120.5t1 -115l1 -113 t0.5 -114.5q26 -1 46.5 -2t40 -2t39.5 -1.5t46 -0.5h46.5t52.5 1l54 2t51 3l2 463v140q0 69 -9 108.5t-24 60t-34 26t-40 5.5h-15v70q43 -3 73.5 -5t53.5 -3t40 -1.5t33 -0.5t33.5 0.5t40 1.5t53.5 3t74 5v-70h-28q-20 0 -38 -11.5t-31 -30.5q-6 -9 -11 -30t-8 -48t-4.5 -58 t-1.5 -61v-101q0 -62 0.5 -120.5t1 -115l1 -113t0.5 -114.5q48 0 88 -3t86 -3q30 0 60.5 0.5t58.5 1.5t49.5 2t33.5 2l2 463v140q0 69 -9 108.5t-24 60t-34 26t-40 5.5h-15v70q86 -6 134.5 -8t80.5 -2q30 0 79 2t128 8v-70h-23q-43 0 -66.5 -19t-34 -52.5t-12.5 -79 t-2 -98.5v-239l3 -245q0 -28 6 -44.5t16 -25t24 -10.5t29 0l91 8q-6 -85 -9 -147.5t-4 -110.5t-1 -85.5t2 -71.5l-73 -8q-3 62 -13.5 107t-27 77.5t-36.5 54t-40.5 35t-41 21.5t-37.5 14q-12 4 -55.5 7.5t-113 5.5t-161.5 3.5t-200 1.5q-50 0 -112.5 -0.5t-131 -1 t-139.5 -1.5t-137.5 -2t-125 -2t-102.5 -2z" />
<glyph unicode="&#x44a;" horiz-adv-x="1134" d="M41 699q8 32 14 61.5t10.5 63t8.5 74.5t8 97q22 -8 59 -13t85 -7.5t107 -3t127 -0.5q32 0 92.5 2t147.5 8v-70h-28q-45 0 -69 -18.5t-34 -47t-11 -64.5t-1 -70l-2 -117q79 18 158 18q78 0 147.5 -19t122 -56.5t83.5 -94.5t31 -133q0 -63 -26.5 -119.5t-75.5 -99t-118 -68 t-154 -25.5q-63 0 -125 6.5t-130 6.5q-51 0 -103.5 -2.5t-121.5 -7.5v70h23q44 0 69 26.5t37.5 65t15.5 82t3 76.5v560q-60 0 -105.5 -3.5t-79.5 -22t-59 -57.5t-44 -111zM556 296q0 -56 1.5 -107t3.5 -90q59 -18 123 -19t117 22t87.5 74t34.5 136q0 54 -20 95t-54.5 68.5 t-80 41t-95.5 13.5q-27 0 -55.5 -4t-56.5 -12q-2 -49 -3.5 -105.5t-1.5 -112.5z" />
<glyph unicode="&#x44b;" horiz-adv-x="1483" d="M70 0v70h23q44 0 69 26.5t37.5 65t15.5 82t3 76.5v342q0 85 -6 135t-20.5 75t-38 32t-58.5 7h-23v70q87 -6 136 -8t79 -2q32 0 92.5 2t147.5 8v-70h-28q-45 0 -69 -18.5t-34 -47t-11 -64.5t-1 -70l-2 -117q79 18 158 18q78 0 147.5 -19t122 -56.5t83.5 -94.5t31 -133 q0 -63 -26.5 -119.5t-75.5 -99t-118 -68t-154 -25.5q-35 0 -66.5 2t-62 4.5t-61.5 4.5t-65 2q-51 0 -103.5 -2.5t-121.5 -7.5zM383 296q0 -56 1.5 -107t3.5 -90q59 -18 123 -19t117 22t87.5 74t34.5 136q0 54 -20 95t-54.5 68.5t-80 41t-95.5 13.5q-27 0 -55.5 -4t-56.5 -12 q-2 -49 -3.5 -105.5t-1.5 -112.5zM968 0v70h26q57 0 87 60.5t30 178.5v402q0 69 -9 108.5t-23.5 60t-34 26t-40.5 5.5h-15v70q86 -6 135.5 -8t81.5 -2q30 0 79 2t128 8v-70h-23q-43 0 -66.5 -19t-34 -52.5t-12.5 -79t-2 -98.5v-394q0 -41 2 -77t12.5 -63t34 -42.5 t66.5 -15.5h23v-70q-79 6 -134 8t-85 2q-26 0 -50.5 -0.5t-51 -2t-57 -3.5t-67.5 -4z" />
<glyph unicode="&#x44c;" horiz-adv-x="943" d="M52 0v70h23q44 0 69 26.5t37.5 65t15.5 82t3 76.5v342q0 85 -6 135t-20.5 75t-38 32t-58.5 7h-23v70q87 -6 136 -8t79 -2q32 0 92.5 2t147.5 8v-70h-28q-45 0 -69 -18.5t-34 -47t-11 -64.5t-1 -70l-2 -117q79 18 158 18q78 0 147.5 -19t122 -56.5t83.5 -94.5t31 -133 q0 -63 -26.5 -119.5t-75.5 -99t-118 -68t-154 -25.5q-35 0 -66.5 2t-62 4.5t-61.5 4.5t-65 2q-51 0 -103.5 -2.5t-121.5 -7.5zM365 296q0 -56 1.5 -107t3.5 -90q59 -18 123 -19t117 22t87.5 74t34.5 136q0 54 -20 95t-54.5 68.5t-80 41t-95.5 13.5q-27 0 -55.5 -4t-56.5 -12 q-2 -49 -3.5 -105.5t-1.5 -112.5z" />
<glyph unicode="&#x44d;" horiz-adv-x="976" d="M49 141l48 73q31 -28 71 -51t80.5 -39t78 -25t64.5 -9q64 0 122.5 22.5t104 68t73.5 114.5t32 162h-63q-38 0 -83 -3t-92 -7.5t-92.5 -11t-83.5 -12.5l-6 139q57 -5 130 -9t156 -4h131q-8 84 -36 152t-68.5 116t-90.5 74t-103 26q-100 0 -168.5 -55.5t-91.5 -175.5 l-76 12q11 51 20.5 117t9.5 143q65 19 145.5 35.5t160.5 16.5q105 0 194.5 -38t154.5 -104.5t102 -156.5t37 -193q0 -129 -39 -230.5t-105 -171t-153 -106t-183 -36.5q-63 0 -119 13.5t-104 36t-87.5 53t-70.5 64.5z" />
<glyph unicode="&#x44e;" horiz-adv-x="1614" d="M70 0v70h23q44 0 69 26.5t37.5 65t15.5 82t3 76.5v342q0 165 -26 208q-13 22 -36.5 31.5t-60.5 9.5h-23v70q87 -6 136 -8t79 -2q32 0 81.5 2t135.5 8v-70h-28q-20 0 -38 -11.5t-31 -30.5q-25 -37 -25 -158v-163q19 -1 37 -2t38 -1h77h26t23 1q12 98 55 183t109 147.5 t150 98.5t177 36q102 0 189 -38t150.5 -104.5t99.5 -156.5t36 -193q0 -114 -38 -214t-104.5 -173.5t-156.5 -116t-194 -42.5q-101 0 -187 36.5t-149 101t-99.5 154t-40.5 194.5q-11 1 -21.5 1h-23.5h-73q-22 0 -41 -0.5t-39 -2.5v-187q0 -52 1.5 -90t11 -62.5t30 -36 t58.5 -11.5h26v-70q-51 4 -103.5 7t-110.5 3q-51 0 -103.5 -2.5t-121.5 -7.5zM764 545q0 -112 23.5 -200t65.5 -148.5t99 -92.5t125 -32q67 0 121.5 27.5t92.5 77.5t59 121.5t21 160.5q0 102 -24.5 184.5t-68 140.5t-102.5 89.5t-127 31.5q-64 0 -116.5 -25.5t-90 -72 t-58 -113.5t-20.5 -149z" />
<glyph unicode="&#x44f;" horiz-adv-x="1083" d="M30 0v54h8q20 0 38.5 7t41 26.5t52.5 55.5t72 94l133 182q-41 15 -75 35q-58 34 -92.5 87t-34.5 127q0 84 32.5 143t88 97t128.5 55.5t154 17.5t139.5 -5t90.5 -5q30 0 79 2t128 8v-70h-23q-43 0 -66.5 -19t-34 -52.5t-12.5 -79t-2 -98.5v-394q0 -41 2 -77t12.5 -63 t34 -42.5t66.5 -15.5h23v-70q-79 6 -134 8t-85 2q-26 0 -50.5 -0.5t-51 -2t-57 -3.5t-67.5 -4v70h26q58 0 86.5 60.5t30.5 178.5l-1 89q-59 -9 -118 -9q-26 -1 -51 0l-157 -240q-35 -54 -72 -89.5t-79 -54t-92 -19.5t-111 14zM348 676q0 -60 24 -99t61.5 -62t83.5 -32.5 t91 -9.5q34 0 59.5 3.5t43.5 5.5l-2 392q-24 8 -62 12t-68 4q-36 0 -76.5 -10.5t-75 -35.5t-57 -66t-22.5 -102z" />
<glyph unicode="&#x450;" horiz-adv-x="999" d="M74 465q0 231 132 388t322 157q177 0 282 -118t120 -333h-488q-57 0 -105 -2t-89 -6v-37q0 -196 90.5 -303t255.5 -107q73 0 144 24.5t151 76.5l39 -64q-103 -84 -205.5 -127t-202.5 -43q-194 0 -320 138.5t-126 355.5zM243 1460l147 90l265 -405l-76 -25zM254 633 q198 0 311.5 7t179.5 24q-30 123 -91 188.5t-146 65.5q-96 0 -164.5 -77t-89.5 -208z" />
<glyph unicode="&#x451;" horiz-adv-x="999" d="M74 465q0 231 132 388t322 157q177 0 282 -118t120 -333h-488q-57 0 -105 -2t-89 -6v-37q0 -196 90.5 -303t255.5 -107q73 0 144 24.5t151 76.5l39 -64q-103 -84 -205.5 -127t-202.5 -43q-194 0 -320 138.5t-126 355.5zM213 1321q0 20 9.5 36t38.5 37l70 54l67 -50 q26 -20 38.5 -39.5t12.5 -41.5t-10 -37.5t-37 -36.5l-71 -53l-66 51q-27 22 -39.5 40.5t-12.5 39.5zM254 633q198 0 311.5 7t179.5 24q-30 123 -91 188.5t-146 65.5q-96 0 -164.5 -77t-89.5 -208zM602 1321q0 20 9.5 36t38.5 37l70 54l67 -50q26 -20 38.5 -39.5t12.5 -41.5 t-10 -37.5t-37 -36.5l-71 -53l-66 51q-27 22 -39.5 40.5t-12.5 39.5z" />
<glyph unicode="&#x452;" horiz-adv-x="1103" d="M23 1132v90h177v93q0 86 -74 86q-4 0 -11 -1t-15.5 -2t-16.5 -2.5t-14 -2.5l-15 65q82 16 161 37.5t158 50.5q-2 -78 -3.5 -158.5t-3.5 -165.5h188q115 0 235 6l-24 -104q-64 5 -120 6.5t-113 1.5h-167q-3 -153 -3 -308q43 34 79.5 59.5t72 41.5t73 24t82.5 8 q65 0 127.5 -29t111.5 -90.5t79 -157t30 -229.5q0 -143 -31 -265.5t-97.5 -226t-171 -188.5t-251.5 -152l-33 57q45 26 93 58.5t93.5 75.5t86 99t71 129t48 165.5t17.5 208.5q0 108 -18 186.5t-50.5 129.5t-78 75.5t-100.5 24.5q-22 0 -44.5 -2t-49 -10t-59 -23.5 t-74.5 -43.5l-5 -341q0 -13 -0.5 -34t-1 -43t-0.5 -40v-25q0 -63 4.5 -102t16 -60.5t30 -28.5t46.5 -7q4 0 12.5 1t13.5 1v-70q-63 5 -118 7.5t-97 2.5q-39 0 -90 -2t-133 -7v69q6 0 13.5 -1t12.5 -1q46 0 71.5 24.5t37 62t13.5 81t2 81.5l4 815h-177z" />
<glyph unicode="&#x453;" horiz-adv-x="903" d="M70 0v70h23q44 0 69 26.5t37.5 65t15.5 82t3 76.5v342q0 165 -26 208q-13 22 -36.5 31.5t-60.5 9.5h-23v70q29 -2 65 -3.5t74.5 -2.5t76 -1t69.5 -0.5t55.5 -0.5h33.5q43 0 94 0.5t103 3t100.5 8.5t85.5 17q0 -29 1 -66.5t4.5 -81.5t10 -93t18.5 -100l-68 -13 q-17 72 -38.5 116t-55 68.5t-83 34.5t-124.5 13l-112 5v-615q0 -52 1.5 -90t11 -62.5t30 -36t58.5 -11.5h26v-70q-51 4 -103.5 7t-110.5 3q-51 0 -103.5 -2.5t-121.5 -7.5zM271 1147l260 403l149 -96l-334 -334z" />
<glyph unicode="&#x454;" horiz-adv-x="915" d="M66 471q0 112 42 211t115.5 172t171.5 115.5t211 42.5q117 0 179.5 -32.5t62.5 -90.5q0 -21 -7 -39.5t-18.5 -33t-27 -22.5t-31.5 -8q-5 0 -28.5 12t-64.5 38q-83 51 -155 51q-64 0 -116 -23.5t-88.5 -67.5t-57 -107t-21.5 -141h124q55 0 99.5 2t82 4.5t70.5 5.5t65 5 l-14 -135q-38 6 -83 11t-93 8.5t-98 5.5t-98 2h-51q18 -166 107 -257t238 -91q61 0 121 21t126 67l50 -76q-97 -75 -190.5 -112.5t-178.5 -37.5q-99 0 -180.5 37.5t-140 104t-91 158.5t-32.5 200z" />
<glyph unicode="&#x455;" horiz-adv-x="907" d="M105 295l75 18q16 -124 78 -185.5t172 -61.5q100 0 163.5 48.5t63.5 125.5q0 108 -212 172q-21 7 -31 10q-152 46 -213.5 113t-61.5 178q0 128 102 212.5t261 84.5q49 0 106.5 -10t130.5 -31q0 -61 6.5 -123t18.5 -125l-76 -12q-12 104 -66 155t-151 51q-84 0 -138 -45.5 t-54 -115.5q0 -111 236 -176q41 -11 63 -17q118 -33 172.5 -94t54.5 -160q0 -146 -114.5 -241t-293.5 -95q-65 0 -133 14t-139 42q1 10 1.5 21t0.5 34q0 46 -5.5 99.5t-16.5 113.5z" />
<glyph unicode="&#x456;" horiz-adv-x="608" d="M63 0v70h25q124 0 125 244v55l4 247v31t1 37t1 34v21q0 82 -16 107q-15 26 -56 26q-8 0 -23.5 -1.5t-33.5 -3.5l-10 63q155 30 315 92l-3 -108q-7 -202 -10 -343t-3 -223v-106q0 -117 22 -146q22 -30 86 -30q6 0 16 1t15 1v-68q-85 6 -137 8t-88 2q-16 0 -36.5 -0.5 t-45.5 -1.5t-61.5 -3t-86.5 -5zM185 1321q0 20 9.5 36t38.5 37l70 54l67 -50q26 -20 38.5 -39.5t12.5 -41.5t-10 -37.5t-37 -36.5l-71 -53l-66 51q-27 22 -39.5 40.5t-12.5 39.5z" />
<glyph unicode="&#x457;" horiz-adv-x="608" d="M49 1317q0 21 9.5 38.5t36.5 38.5l68 54l65 -50q25 -20 37 -40t12 -42t-9.5 -37.5t-35.5 -37.5l-69 -52l-64 50q-25 23 -37.5 40t-12.5 38zM63 0v70h25q124 0 125 244v55l4 247q0 27 1 68t1 55q0 81 -15.5 107t-56.5 26q-8 0 -23.5 -1.5t-33.5 -3.5l-10 63 q79 15 157.5 38t157.5 54q-1 -38 -3 -108q-13 -402 -13 -566v-106q0 -114 21.5 -143t86.5 -29h21h10v-70q-85 6 -137 8t-88 2q-32 0 -81.5 -2t-148.5 -8zM339 1317q0 21 9.5 38.5t36.5 38.5l68 54l65 -50q25 -20 37 -40t12 -42t-9.5 -37.5t-35.5 -37.5l-69 -52l-64 50 q-25 23 -37.5 40t-12.5 38z" />
<glyph unicode="&#x458;" horiz-adv-x="561" d="M-84 -535l4 80q151 13 215 116t64 343v723q0 95 -15 120t-55 25q-9 0 -21.5 -1.5t-29.5 -3.5l-12 63q86 16 162.5 39t146.5 53q-6 -154 -9.5 -312t-3.5 -339v-140q0 -251 -8 -349t-28 -150q-47 -123 -151 -195t-234 -72h-25zM141 1358q0 22 10.5 38.5t41.5 39.5l73 57 l72 -53q27 -21 40 -42t13 -44t-10 -39.5t-39 -38.5l-76 -57l-69 55q-30 23 -43 42.5t-13 41.5z" />
<glyph unicode="&#x459;" horiz-adv-x="1467" d="M29 95q0 21 5 40t15 33.5t26 23t39 8.5q21 0 33.5 -8t21.5 -18t17 -18t20 -8q16 0 30.5 14t28 46.5t27 85.5t29.5 132q7 36 13.5 75.5t12 80t10 80t6.5 75.5q2 34 4 65.5t-5.5 55.5t-28.5 38.5t-63 14.5h-23v70q49 -2 104 -3.5t113.5 -3t118.5 -2.5t118 -1q16 0 54 0.5 t85 1.5t98.5 3t94.5 5v-70h-28q-45 0 -69 -18.5t-34 -47t-11 -64.5t-1 -70l-2 -117q79 18 158 18q78 0 147.5 -19t122 -56.5t83.5 -94.5t31 -133q0 -63 -26.5 -119.5t-75.5 -99t-118 -68t-154 -25.5q-36 0 -67 2t-60.5 4t-59 4.5t-62.5 2.5q-16 0 -35 -0.5t-41 -1.5 t-58.5 -3t-90.5 -5v70h26q57 0 86.5 60.5t29.5 178.5v564q-36 3 -65.5 4.5t-59.5 1.5q-31 0 -62 -1.5t-67 -4.5q-11 -101 -23.5 -215.5t-35.5 -232.5q-20 -105 -44 -187.5t-55 -139.5t-71.5 -87t-92.5 -30q-53 0 -86 31t-33 83zM889 296q0 -56 1.5 -107t3.5 -90 q29 -9 59 -14t60 -5q47 0 91 12t77.5 39.5t54 71.5t20.5 109q0 54 -20 95t-54.5 68.5t-80 41t-95.5 13.5q-27 0 -55.5 -4t-56.5 -12q-2 -49 -3.5 -105.5t-1.5 -112.5z" />
<glyph unicode="&#x45a;" horiz-adv-x="1602" d="M70 0v70h23q44 0 69 26.5t37.5 65t15.5 82t3 76.5v342q0 165 -26 208q-13 22 -36.5 31.5t-60.5 9.5h-23v70q87 -6 136 -8t79 -2q32 0 81.5 2t135.5 8v-70h-28q-20 0 -38 -11.5t-31 -30.5q-25 -37 -25 -158v-154q39 0 76 -2q39 -1 81 -1h156q48 0 89 1q38 2 79 2v154 q0 69 -9 108.5t-23.5 60t-34 26t-40.5 5.5h-15v70q43 -3 75 -5t56.5 -3t43 -1.5t34.5 -0.5q32 0 82 2t136 8v-70h-28q-45 0 -69 -18.5t-34 -47t-11 -64.5t-1 -70l-2 -117q79 18 158 18q78 0 147.5 -19t122 -56.5t83.5 -94.5t31 -133q0 -63 -26.5 -119.5t-75.5 -99t-118 -68 t-154 -25.5q-60 0 -119.5 6t-125.5 7q-26 0 -50.5 -0.5t-51 -2t-57 -3.5t-67.5 -4v70h26q57 0 87 60.5t30 178.5v145q-20 1 -38 1q-20 1 -40 1.5t-41.5 1t-46.5 0.5h-149q-45 0 -86 -1q-39 -1 -80 -3v-184q0 -52 1.5 -90t11 -62.5t30 -36t58.5 -11.5h26v-70q-51 4 -103.5 7 t-110.5 3q-51 0 -103.5 -2.5t-121.5 -7.5zM1024 296q0 -56 1.5 -107t3.5 -90q29 -9 59.5 -14t60.5 -5q47 0 90.5 12t77.5 39.5t54 71.5t20 109q0 54 -20 95t-54.5 68.5t-80 41t-95.5 13.5q-27 0 -55.5 -4t-56.5 -12q-2 -49 -3.5 -105.5t-1.5 -112.5z" />
<glyph unicode="&#x45b;" horiz-adv-x="1200" d="M23 1132v90h176v93q0 86 -74 86q-4 0 -11 -1t-15.5 -2t-16.5 -2.5t-14 -2.5l-15 65q82 16 161 37.5t158 50.5q-2 -77 -3.5 -158t-3.5 -166h189q115 0 235 6l-24 -104q-64 5 -120 6.5t-113 1.5h-168q-3 -159 -3 -316q56 42 103.5 70t88.5 44.5t77 23t68 6.5 q155 0 236.5 -82.5t81.5 -249.5q-1 -61 -2 -117q-1 -48 -1 -100v-88q0 -59 0.5 -106t8.5 -80t28 -51t58 -18q3 0 11.5 1t13.5 1v-70q-47 3 -80 5t-57 3t-42 1.5t-34 0.5q-48 0 -103.5 -2.5t-115.5 -7.5l-1 70h15q63 0 96.5 58t34.5 176l2 185v41q0 93 -13 151.5t-39 92 t-66.5 45.5t-95.5 12q-26 0 -53.5 -3.5t-59.5 -13.5t-69.5 -29t-84.5 -49l-5 -328q0 -13 -0.5 -34t-1 -43t-0.5 -40v-25q0 -63 4.5 -102t16 -60.5t30 -28.5t46.5 -7q4 0 12.5 1t13.5 1v-70q-63 5 -118 7.5t-97 2.5q-39 0 -90 -2t-133 -7v69q6 0 13.5 -1t12.5 -1 q46 0 71.5 24.5t37 62t13.5 81t2 81.5l4 815h-176z" />
<glyph unicode="&#x45c;" horiz-adv-x="1138" d="M70 0v70h23q44 0 69 26.5t37.5 65t15.5 82t3 76.5v342q0 165 -26 208q-13 22 -36.5 31.5t-60.5 9.5h-23v70q87 -6 136 -8t79 -2q32 0 81.5 2t135.5 8v-70h-28q-20 0 -38 -11.5t-31 -30.5q-25 -37 -25 -158v-226l177 161q73 66 125 116t73.5 83.5t8 50.5t-70.5 17h-14v68 q126 -6 192 -6q92 0 206 6v-67q-4 0 -9 0.5t-15 0.5q-32 0 -67 -14.5t-79.5 -47t-102 -83.5t-135.5 -123l-115 -107l241 -250q126 -134 202.5 -193t111.5 -59h7v-50q-81 -11 -140.5 -8.5t-110 22.5t-98 59t-103.5 102l-284 314v-207q0 -52 1.5 -90t11 -62.5t30 -36 t58.5 -11.5h26v-70q-51 4 -103.5 7t-110.5 3q-51 0 -103.5 -2.5t-121.5 -7.5zM418 1147l260 403l149 -96l-334 -334z" />
<glyph unicode="&#x45d;" horiz-adv-x="1253" d="M70 0v70h23q44 0 69 26.5t37.5 65t15.5 82t3 76.5v342q0 165 -26 208q-13 22 -36.5 31.5t-60.5 9.5h-23v70q87 -6 136 -8t79 -2q32 0 81.5 2t135.5 8v-70h-28q-20 0 -38 -11.5t-31 -30.5q-25 -37 -25 -158v-383q29 27 58.5 54.5t59.5 56.5l217 205l163 159q-2 42 -11 64 t-23.5 32t-33 11t-38.5 1h-15v70q86 -6 135.5 -8t81.5 -2q30 0 79 2t128 8v-70h-23q-43 0 -66.5 -19t-34 -52.5t-12.5 -79t-2 -98.5v-394q0 -41 2 -77t12.5 -63t34 -42.5t66.5 -15.5h23v-70q-79 6 -134 8t-85 2q-26 0 -50.5 -0.5t-51 -2t-57 -3.5t-67.5 -4v70h26 q57 0 87 60.5t30 178.5v369q-26 -24 -53 -49.5t-57 -54.5l-207 -198q-49 -46 -93 -88t-89 -86q0 -27 2 -51t11.5 -42t30 -28.5t57.5 -10.5h26v-70q-51 4 -103.5 7t-110.5 3q-51 0 -103.5 -2.5t-121.5 -7.5zM332 1460l147 90l265 -405l-76 -25z" />
<glyph unicode="&#x45e;" horiz-adv-x="995" d="M0 912v68q75 -5 120 -7t77 -2q30 0 76.5 2t129.5 8v-70h-26q-50 0 -70 -13.5t-20 -47.5q0 -26 88 -264q84 -226 139 -381q139 330 195.5 476t56.5 175t-22 42t-72 13h-15v70q45 -4 88.5 -6t83.5 -2q33 0 76 2t92 6v-70h-8q-33 0 -55.5 -14.5t-38.5 -46.5q-2 -5 -17 -39 q-106 -245 -227 -514q-60 -136 -153 -355q-200 -474 -308 -474q-40 0 -67 26t-27 66q0 55 77 69q31 5 44 11q56 22 161 254q29 65 46 102q-69 178 -170 457q-167 460 -238 460q-6 0 -9.5 -0.5t-6.5 -0.5zM289 1335q0 21 7 40.5t20.5 34.5t33 23.5t45.5 8.5q30 0 46.5 -12.5 t23 -30.5t6.5 -37.5t-3 -33.5q-8 -38 9 -54.5t60 -16.5q70 0 134.5 48.5t109.5 134.5l57 -28q-26 -66 -64 -112.5t-81.5 -76.5t-90 -44t-90.5 -14q-62 0 -105 15.5t-69 40t-37.5 55t-11.5 59.5z" />
<glyph unicode="&#x45f;" horiz-adv-x="1234" d="M70 70h23q44 0 69 26.5t37.5 65t15.5 82t3 76.5v342q0 165 -26 208q-13 22 -36.5 31.5t-60.5 9.5h-23v70q87 -6 136 -8t79 -2q32 0 81.5 2t135.5 8v-70h-28q-20 0 -38 -11.5t-31 -30.5q-6 -9 -11 -30t-8 -48t-4.5 -58t-1.5 -61v-101q0 -62 0.5 -120.5t1 -115.5t1 -113.5 t0.5 -114.5q30 -2 57.5 -2.5t55.5 -1.5t57 -1h63q50 0 110 1t123 4l2 464v140q0 69 -9 108.5t-24 60t-34 26t-40 5.5h-15v70q86 -6 135.5 -8t81.5 -2q30 0 79 2t128 8v-70h-23q-43 0 -66.5 -19t-34 -52.5t-12.5 -79t-2 -98.5l-1 -342q0 -33 3 -76.5t15.5 -82t37.5 -65 t69 -26.5h23l-1 -69q-109 2 -218 4.5t-228 4.5q-15 -42 -26 -88.5t-18 -90.5t-10.5 -82.5t-3.5 -63.5h-78q0 25 -3.5 63.5t-11 82.5t-19 90.5t-26.5 88.5q-121 -1 -230.5 -4t-219.5 -5z" />
<glyph unicode="&#x460;" horiz-adv-x="2139" d="M30 1358v69q70 -4 131 -6t127 -2q57 0 120 2t141 6v-69h-17q-60 0 -92.5 -11.5t-47.5 -35.5t-17 -62t-1 -91q3 -140 27.5 -275t67.5 -253q28 -80 63 -150t73.5 -129.5t78.5 -106.5t79 -81q59 64 128.5 173.5t132.5 259.5q-34 113 -55.5 245t-30.5 296q-3 60 -10.5 102.5 t-21.5 68.5t-37 38t-59 12h-18v69q35 -2 65 -3.5t59 -2.5t58 -1.5t62 -0.5q57 0 116.5 2t137.5 6v-69h-17q-53 0 -83 -18t-43.5 -55.5t-15.5 -95.5t1 -138q5 -148 33.5 -280.5t74.5 -246.5t105 -207t124 -161q61 60 115 146.5t94.5 196.5t64 241t23.5 280l-1 47q0 55 -2 96 t-5.5 70.5t-9 48.5t-12.5 30q-28 46 -110 46h-27v69q67 -4 131 -6t127 -2q54 0 117 2t135 6v-69q-5 0 -14 1t-13 1q-38 0 -61.5 -10t-38 -35.5t-21.5 -68.5t-11 -109q-8 -149 -35.5 -282.5t-68 -250.5t-93 -216t-111 -180t-120.5 -143t-122 -103q-52 58 -98 115.5t-87 117.5 t-76 123.5t-64 134.5q-34 -64 -75 -130.5t-87 -130.5t-96 -123t-102 -107q-44 37 -96.5 88.5t-107 122.5t-107.5 163.5t-96.5 211t-75 264.5t-43.5 325q-3 45 -8.5 85.5t-20 70.5t-41 47.5t-71.5 17.5h-18z" />
<glyph unicode="&#x461;" horiz-adv-x="1621" d="M46 911v70q43 -3 74 -5t53 -3t38.5 -1.5t31.5 -0.5q32 0 80.5 2t134.5 8v-70h-28q-32 0 -49.5 -16.5t-25.5 -40.5t-9 -52t-1 -51q4 -87 28.5 -177.5t61.5 -172.5t81.5 -149t88.5 -106q27 34 51.5 68t47.5 71t44.5 78.5t43.5 91.5q-18 57 -32.5 120.5t-24.5 137.5 q-9 68 -20.5 107.5t-25 59.5t-30 25.5t-37.5 5.5h-15v70q43 -3 73.5 -5t53.5 -3t40 -1.5t33 -0.5t33.5 0.5t40 1.5t53.5 3t74 5v-70h-28q-32 0 -50.5 -14.5t-28 -37t-11 -51.5t0.5 -57q9 -112 37 -210t64.5 -177.5t77 -138t73.5 -92.5q32 43 64 95.5t58 121.5t43 157.5 t19 203.5q1 69 -8 108.5t-24 60t-34.5 26t-40.5 5.5h-19v70q86 -6 134.5 -8t80.5 -2q15 0 31 0.5t37 1.5t49 3t67 5v-70q-38 0 -58.5 -11.5t-31 -35.5t-15.5 -62t-12 -91q-15 -107 -49.5 -215.5t-85 -207t-114.5 -180.5t-137 -135q-32 32 -65.5 68.5t-66.5 79.5t-64 93.5 t-58 110.5q-26 -45 -57.5 -95t-67 -97t-74 -89t-78.5 -71q-54 40 -114 107t-114.5 161t-98 214t-63.5 266q-8 54 -15 90t-20 58.5t-34 32t-56 9.5h-5z" />
<glyph unicode="&#x462;" horiz-adv-x="1417" d="M0 892q19 88 29 171.5t10 164.5q30 -20 121 -27q39 -4 104 -6t156 -2q-3 146 -29 195q-29 51 -107 51q-3 0 -12 -1t-14 -1v69q72 -4 136 -6t118 -2q61 0 125 2t131 6v-69h-27q-82 0 -111 -44q-27 -40 -28 -200q133 0 219 1.5t127 5.5q45 4 75.5 11t47.5 17 q0 -5 -0.5 -13.5t-0.5 -18t-0.5 -18t-0.5 -14.5q0 -63 5.5 -129.5t16.5 -138.5l-63 -12q-12 113 -62 154q-51 42 -208 46h-156l-1 -306q13 1 37 3t52 3.5t57 3t53 1.5q154 0 262 -34.5t176 -89t99 -121.5t31 -132q0 -85 -35.5 -160.5t-106.5 -131.5t-178.5 -89t-251.5 -33 q-34 0 -62 1.5t-57 3.5t-62 3.5t-76 1.5q-75 0 -142.5 -1.5t-145.5 -6.5l1 69q6 0 13.5 -0.5t20.5 -0.5q77 0 106 50q28 49 28 214v44.5t-1 70.5q-1 43 -1 77.5v61.5v345v57t1 70v26h-79q-147 0 -199 -40q-51 -39 -76 -166zM601 342q0 -27 1 -57l3 -168q10 -4 31 -7.5 t44.5 -6.5t46 -4.5t37.5 -1.5q110 0 186.5 25t124 67t69 96.5t21.5 114.5q0 58 -18 102t-48 76.5t-70 53.5t-84 34t-89 18t-86 5q-44 0 -85.5 -4t-83.5 -10v-280v-53z" />
<glyph unicode="&#x463;" horiz-adv-x="1113" d="M38 684q8 32 14 64t11.5 68t10 79.5t8.5 99.5q45 -17 114.5 -19.5t173.5 -2.5v342q0 86 -74 86q-14 0 -27 -3t-26 -5l-15 65q167 28 316 88q-3 -94 -4.5 -214t-2.5 -270q-1 -19 -1 -42v-47q41 0 84.5 0.5t86 3.5t82.5 9t75 16v-58t1.5 -62.5t5 -74t12.5 -91.5l-64 -13 q-19 54 -36.5 88.5t-46 54t-72.5 27t-115 7.5h-13v-64l-2 -222q79 18 158 18q78 0 147.5 -19t122 -56.5t83.5 -94.5t31 -133q0 -63 -26.5 -119.5t-75.5 -99t-118 -68t-154 -25.5q-35 0 -66.5 2t-62 4.5t-61.5 4.5t-65 2q-51 0 -103.5 -2.5t-121.5 -7.5v70h23q44 0 69 26.5 t37.5 65t15.5 82t3 76.5v560q-53 0 -97 -5.5t-77.5 -26.5t-57.5 -63t-38 -114zM535 296q0 -57 1.5 -107.5t3.5 -89.5q59 -18 123 -19t117 22t87.5 73.5t34.5 136.5q0 54 -20 95t-54.5 68.5t-80 41t-95.5 13.5q-27 0 -55.5 -4t-56.5 -12q-2 -49 -3.5 -105t-1.5 -113z" />
<glyph unicode="&#x464;" horiz-adv-x="2007" d="M72 0v69q6 0 13.5 -0.5t20.5 -0.5q77 0 106 50q28 49 28 214v44.5t-1 70.5q-1 43 -1 77.5v61.5v266v57t1 70q1 39 1 65.5v40.5q0 171 -29 224q-29 51 -107 51q-3 0 -12 -1t-14 -1v69q72 -4 136 -6t118 -2q61 0 125 2t131 6v-69h-27q-82 0 -111 -44q-28 -43 -28 -231v-299 q84 -5 152.5 -5.5t125.5 -0.5q11 152 70 277t157 214.5t229.5 139t286.5 49.5q197 0 432 -76v-34q0 -70 5 -144.5t13 -159.5l-69 -12q-14 70 -48 126.5t-87 96.5t-124.5 61t-160.5 21q-114 0 -203.5 -37t-151.5 -108t-96 -175t-37 -239h100q16 0 48 0.5t74.5 1.5t91.5 2.5 t99.5 4t98 5.5t87.5 7l59 5q-2 -16 -3.5 -35.5t-2 -39t0 -39t1.5 -35.5q-52 3 -125.5 7t-150.5 8t-148 6.5t-118 2.5h-109q10 -134 50.5 -243.5t108 -187.5t159.5 -121t204 -43q150 0 254.5 72.5t175.5 210.5l64 -33q-32 -66 -56 -132.5t-44 -135.5q-105 -49 -210.5 -74 t-214.5 -25q-155 0 -283.5 51.5t-222 145t-147 224.5t-59.5 291q-42 0 -75.5 -0.5t-65 -1t-63.5 -2t-72 -3.5v-320q0 -191 29 -238q28 -46 112 -46q5 0 17 1t18 1v-70q-78 4 -145 6t-121 2q-46 0 -112.5 -2t-147.5 -6z" />
<glyph unicode="&#x465;" horiz-adv-x="1398" d="M70 0v70h23q44 0 69 26.5t37.5 65t15.5 82t3 76.5v342q0 165 -26 208q-13 22 -36.5 31.5t-60.5 9.5h-23v70q87 -6 136 -8t79 -2q32 0 81.5 2t135.5 8v-70h-28q-20 0 -38 -11.5t-31 -30.5q-25 -37 -25 -158v-163q19 -1 37 -2t38 -1h127q13 99 57.5 184.5t113 148t157 98.5 t187.5 36q112 0 172.5 -32.5t60.5 -90.5q0 -21 -6.5 -39.5t-18 -33t-26 -22.5t-30.5 -8q-5 0 -27.5 12t-61.5 38q-80 51 -150 51q-62 0 -110.5 -23.5t-82.5 -67.5t-52.5 -107t-19.5 -141h103q55 0 99.5 2t82 4.5t70.5 5.5t65 5l-14 -135q-38 6 -83 11t-93 8.5t-98 5.5t-98 2 h-30q17 -166 99.5 -257t225.5 -91q59 0 117 21t121 67l48 -76q-94 -75 -184 -112.5t-171 -37.5q-94 0 -172 36.5t-134.5 101.5t-88 154.5t-33.5 196.5h-117q-22 0 -41 -0.5t-39 -2.5v-187q0 -52 1.5 -90t11 -62.5t30 -36t58.5 -11.5h26v-70q-51 4 -103.5 7t-110.5 3 q-51 0 -103.5 -2.5t-121.5 -7.5z" />
<glyph unicode="&#x466;" horiz-adv-x="1591" d="M-31 0v69q36 1 62 8.5t47 22t38.5 36t35.5 50.5q18 28 42 75t53 108.5t62.5 135t71.5 156.5q79 174 162 364t162 402h172q68 -195 140.5 -376t141.5 -349q66 -163 116.5 -285.5t90.5 -207.5q40 -93 70 -117q28 -22 83 -22h20v-70q-78 4 -142 6t-109 2q-57 0 -123.5 -2 t-141.5 -6v70h19q49 0 76 10t37 29.5t5 49.5t-19 70q-27 76 -55 152.5t-57 153.5h-44.5t-58.5 1q-31 1 -60.5 1.5t-54.5 0.5v-154q0 -31 0.5 -73.5t2 -92.5t5.5 -105.5t12 -111.5q-29 2 -52.5 3.5t-46 1.5t-46 -1t-51.5 -4q7 77 11.5 129.5t6 92t2 73.5t0.5 74v168 q-54 -1 -110 -2.5t-101 -3.5q-17 -35 -34 -70.5t-32.5 -69t-28.5 -63.5t-22 -54q-16 -44 -25.5 -81.5t-3 -65t33 -43t82.5 -15.5h17v-70q-73 4 -131 6t-109 2q-40 0 -96 -2t-126 -6zM492 641q8 0 15.5 -0.5t18.5 -0.5q28 -1 61 -1.5t64 -1t55 -0.5h34h34.5t51 0.5t60.5 1 t65 1.5q12 1 21 1h17q-59 152 -118 302.5t-116 301.5l-256 -587z" />
<glyph unicode="&#x467;" horiz-adv-x="1116" d="M0 0v70h9q24 0 43.5 11t36.5 30.5t32.5 45t30.5 55.5l42 84q70 141 129 259t102 207.5t69 146t31 74.5h118q0 -10 15 -52t40 -103t57 -136t66.5 -153t68.5 -153t63 -135l16 -34q35 -74 64.5 -110.5t64.5 -36.5h18v-69q-75 5 -125 7t-82 2q-15 0 -30.5 -0.5t-36 -1.5 t-49 -3t-70.5 -5v70h6q51 0 70.5 13.5t19.5 47.5q0 10 -18.5 56.5t-55.5 134.5q-36 1 -76 1.5t-75 0.5h-1v-7v-70t1 -85t2 -87t4 -75q-41 3 -72 3.5t-72 -3.5q3 78 4.5 125.5t2.5 79t1 53.5v49v17h-18h-67.5t-65.5 -2q-6 -13 -10.5 -24t-8.5 -20q-19 -46 -36.5 -84 t-22 -65.5t11 -43t62.5 -15.5h27v-70q-23 2 -41 3.5t-35 2.5t-34 1.5t-38 0.5q-16 0 -38 -0.5t-47 -1.5t-51.5 -2.5t-51.5 -3.5zM353 407q21 -1 42.5 -1h43.5h153h57t60 1l-6 16q-46 108 -90.5 200.5t-73.5 165.5q-60 -122 -106.5 -217t-79.5 -165z" />
<glyph unicode="&#x468;" horiz-adv-x="2103" d="M72 0v69q6 0 13.5 -0.5t20.5 -0.5q77 0 106 50q28 49 28 214v44.5t-1 70.5q-1 43 -1 77.5v61.5v266v57t1 70q1 39 1 65.5v40.5q0 171 -29 224q-29 51 -107 51q-3 0 -12 -1t-14 -1v69q72 -4 136 -6t118 -2q61 0 125 2t131 6v-69h-27q-82 0 -111 -44q-28 -43 -28 -231v-441 q28 -2 68 -2.5t84 -1.5t90 -1h88h76h54q2 6 5 12l6 12q79 174 162 364t162 402h172q68 -195 140.5 -376t141.5 -349q66 -163 116.5 -285.5t90.5 -207.5q40 -93 70 -117q28 -22 83 -22h20v-70q-78 4 -142 6t-109 2q-57 0 -123.5 -2t-141.5 -6v70h19q49 0 76 10t37 29.5 t5 49.5t-19 70q-27 76 -55 152.5t-57 153.5q-27 0 -51.5 0.5t-50 1t-53.5 1.5t-63 1v-155q0 -31 0.5 -73.5t2 -92.5t5.5 -105.5t12 -111.5q-29 2 -52.5 3.5t-46 1.5t-46 -1t-51.5 -4q7 77 11.5 129.5t6 92t2 73.5t0.5 74v169h-208q-17 -36 -34.5 -72.5t-33.5 -70.5 t-29.5 -65t-22.5 -56q-16 -44 -25.5 -81.5t-3 -65t33 -43t82.5 -15.5h17v-70q-65 3 -119.5 4.5t-104.5 2.5t-100 1h-106h-101t-77.5 -0.5t-63.5 -0.5t-59 -1t-63.5 -2.5t-76.5 -3.5zM422 352q0 -72 3.5 -124.5t14 -86t29 -50t49.5 -16.5q44 0 77 26.5t69 84.5 q29 46 72.5 138t100.5 215h-2h-100t-110.5 -0.5t-108.5 -1.5t-94 -4v-181zM1002 637h250q38 0 69 0.5t59.5 1t57.5 1.5t63 1q-59 152 -118 302.5t-116 301.5l-256 -587z" />
<glyph unicode="&#x469;" horiz-adv-x="1576" d="M70 0v70h23q44 0 69 26.5t37.5 65t15.5 82t3 76.5v342q0 165 -26 208q-13 22 -36.5 31.5t-60.5 9.5h-23v70q87 -6 136 -8t79 -2q32 0 81.5 2t135.5 8v-70h-28q-20 0 -38 -11.5t-31 -30.5q-25 -37 -25 -158v-272q19 0 51.5 -0.5t66.5 -1t65 -1t48 -0.5h111q56 112 102 206 t80 164.5t54 116t25 60.5h118q0 -10 15 -52t40 -103t57 -136t66.5 -153t68.5 -153t63 -135l16 -34q35 -74 64.5 -110.5t64.5 -36.5h18v-69q-75 5 -125 7t-82 2q-15 0 -30.5 -0.5t-36 -1.5t-49 -3t-70.5 -5v70h6q51 0 70.5 13.5t19.5 47.5q0 11 -20.5 63t-62.5 149 q-34 2 -71.5 2h-70.5h-7v-28v-70t1 -85t2 -87t4 -75q-20 1 -36.5 2t-32 1t-32 -0.5t-36.5 -2.5q3 78 4.5 125.5t2.5 79t1 53.5v49v38h-141q-10 -20 -17.5 -36.5t-12.5 -30.5q-19 -46 -36.5 -84t-22 -65.5t11 -43t62.5 -15.5h27v-70q-48 4 -87.5 6t-76.5 3t-74.5 1h-82.5 h-114t-93.5 -1t-91 -3t-106.5 -6zM382 255q0 -44 1.5 -78t10 -57t26.5 -35t52 -12q22 0 41 10.5t36 29.5t32.5 44t30.5 55l42 84l24 49h-58h-50t-67 -0.5t-67.5 -1t-53.5 -1.5v-87zM827 436h225h50.5t54.5 1q-45 103 -87.5 192t-70.5 160q-54 -110 -97 -197.5t-75 -155.5z " />
<glyph unicode="&#x46a;" horiz-adv-x="2068" d="M24 -8v57q31 0 64 10.5t73.5 39.5t90 82t112.5 139l190 258q46 62 91 98.5t88 56t83 25t76 5.5h35l-360 454q-35 43 -59.5 71t-43.5 44.5t-35 23t-33 6.5q-5 0 -12.5 -1t-21.5 -3l-1 69q25 -1 72.5 -2t107.5 -2t128.5 -2t135 -1.5t126 -0.5h103.5h78.5t105.5 0.5 t123.5 0.5t132 1t131.5 2.5t122 3.5v-69q-2 1 -5 1.5t-9 0.5h-12q-29 0 -57.5 -14t-60 -42.5t-68 -71t-80.5 -99.5l-89 -114l-207 -256h37q30 0 70 -4t86 -22t95 -55t97 -104l184 -258q58 -81 106.5 -133t89 -82.5t75 -43t65.5 -12.5v-57q-21 -3 -35.5 -5.5t-28 -4t-29 -2 t-39.5 -0.5q-59 0 -105 12.5t-84 36.5t-71 59.5t-65 80.5l-279 395q-21 30 -39 52.5t-36.5 37.5t-40 22.5t-50.5 8.5h-20v-333q0 -191 29 -238q28 -46 112 -46q5 0 17 1t18 1v-70q-78 4 -144 6t-120 2t-120 -2t-144 -6v70q6 0 18 -1t17 -1q84 0 112 46q27 45 29 238l1 324 l-1 9h-17q-31 0 -53.5 -7.5t-41.5 -22.5t-37 -37.5t-40 -53.5l-279 -395q-32 -45 -64.5 -80.5t-70 -59.5t-83.5 -36.5t-104 -12.5q-24 0 -39.5 0.5t-29 2t-28 4t-35.5 5.5zM753.5 1317q-23.5 -26 20.5 -93l289 -429l280 374q44 58 63.5 92.5t11.5 52.5t-45 23.5t-107 5.5 h-400q-89 0 -112.5 -26z" />
<glyph unicode="&#x46b;" horiz-adv-x="1572" d="M20 -6v50q56 0 134 59t174 184l92 120q27 34 58.5 56.5t62.5 35.5t58.5 18t47.5 5h21l-72 88q-54 66 -93.5 114t-69.5 81.5t-52.5 54.5t-41.5 32.5t-36.5 15.5t-37.5 4q-10 0 -10.5 -0.5t-4.5 -0.5v70q74 -2 129 -3.5t112 -2t125.5 -0.5h169.5h143t128.5 0.5t124.5 2 t131 3.5v-70q-4 0 -9 0.5t-15 0.5q-30 0 -57.5 -16.5t-62 -52.5t-80.5 -93.5t-113 -139.5l-72 -88h27q19 0 46.5 -5t57.5 -17.5t61.5 -35t58.5 -57.5l95 -120q54 -68 96.5 -114.5t78 -75t66 -41t61.5 -12.5v-50q-77 -17 -137.5 -11.5t-109.5 28.5t-89 62t-76 90l-157 222 q-23 32 -47.5 57t-58.5 25h-9v-197q0 -52 1.5 -90t11 -62.5t30 -36t58.5 -11.5h26v-70q-51 4 -101.5 7t-108.5 3t-107.5 -3t-100.5 -7v70h26q38 0 58.5 11.5t30 36t11 62.5t1.5 90v197h-9q-17 0 -31.5 -7t-27 -18t-24 -26t-23.5 -31l-157 -222q-36 -51 -76 -90t-89 -62 t-109.5 -28.5t-137.5 11.5zM600 862.5q-1 -16.5 15.5 -46.5t52.5 -80l141 -199l139 177q45 58 66.5 93t21.5 54t-20 25.5t-58 7.5q-87 3 -173 3q-30 0 -59.5 -0.5t-59.5 -2.5q-32 -2 -48.5 -8.5t-17.5 -23z" />
<glyph unicode="&#x46c;" horiz-adv-x="2468" d="M72 0v69q6 0 13.5 -0.5t20.5 -0.5q77 0 106 50q28 49 28 214v44.5t-1 70.5q-1 43 -1 77.5v61.5v266v57t1 70q1 39 1 65.5v40.5q0 171 -29 224q-29 51 -107 51q-3 0 -12 -1t-14 -1v69q72 -4 136 -6t118 -2q61 0 125 2t131 6v-69h-27q-82 0 -111 -44q-28 -43 -28 -231v-316 q29 -2 72 -2.5t92.5 -1.5t101 -1h97.5h82.5h55.5h405l-361 455q-35 43 -59.5 71t-43.5 44.5t-35 23t-33 6.5q-5 0 -12.5 -1t-21.5 -3l-1 69q25 -1 72.5 -2t107.5 -2t128.5 -2t135 -1.5t126 -0.5h103.5h78.5t105.5 0.5t123.5 0.5t132 1t131.5 2.5t122 3.5v-69q-2 1 -5 1.5 t-9 0.5h-12q-29 0 -57.5 -14t-60 -42.5t-68 -71t-80.5 -99.5l-89 -114l-207 -256h37q30 0 70 -4t86 -22t95 -55t97 -104l184 -258q58 -81 106.5 -133t89 -82.5t75 -43t65.5 -12.5v-57q-21 -3 -35.5 -5.5t-28 -4t-29 -2t-39.5 -0.5q-59 0 -105 12.5t-84 36.5t-71 59.5 t-65 80.5l-279 395q-21 30 -39 52.5t-36.5 37.5t-40 22.5t-50.5 8.5h-20v-333q0 -191 29 -238q28 -46 112 -46q5 0 17 1t18 1v-70q-78 4 -144 6t-120 2t-120 -2t-144 -6v70q6 0 18 -1t17 -1q84 0 112 46q27 45 29 238l1 324l-1 9h-23q-30 -1 -51.5 -8.5t-40 -22.5t-36 -37.5 t-38.5 -52.5l-279 -395q-32 -45 -64.5 -80.5t-70 -59.5t-83.5 -36.5t-104 -12.5q-20 0 -49 4.5t-63 9.5t-71.5 9.5t-74.5 4.5q-23 0 -46 -0.5t-49.5 -1.5t-58.5 -2.5t-72 -3.5zM422 352q0 -63 1.5 -115.5t9 -90t24 -58t47.5 -20.5q18 0 46.5 20t63.5 54.5t73.5 80.5t76.5 97 l176 239q25 34 56.5 61.5t65.5 47.5l-82 -2q-70 -2 -150.5 -2.5t-157 -1t-143 -1t-107.5 -3.5v-306zM1153.5 1317q-23.5 -26 20.5 -93l289 -429l280 374q44 58 63.5 92.5t11.5 52.5t-45 23.5t-107 5.5h-400q-89 0 -112.5 -26z" />
<glyph unicode="&#x46d;" horiz-adv-x="1962" d="M70 0v70h23q44 0 69 26.5t37.5 65t15.5 82t3 76.5v342q0 165 -26 208q-13 22 -36.5 31.5t-60.5 9.5h-23v70q87 -6 136 -8t79 -2q32 0 81.5 2t135.5 8v-70h-28q-20 0 -38 -11.5t-31 -30.5q-25 -37 -25 -158v-182q21 -3 41 -4t45.5 -2t60 -1h84.5h420h4h21l-72 88 q-54 66 -93.5 114t-69.5 81.5t-52.5 54.5t-41.5 32.5t-36.5 15.5t-37.5 4q-10 0 -10.5 -0.5t-4.5 -0.5v70q74 -2 129 -3.5t112 -2t125.5 -0.5h169.5h143t128.5 0.5t124.5 2t131 3.5v-70q-4 0 -9 0.5t-15 0.5q-30 0 -57.5 -16.5t-62 -52.5t-80.5 -93.5t-113 -139.5l-72 -88 h27q19 0 46.5 -5t57.5 -17.5t61.5 -35t58.5 -57.5l95 -120q54 -68 96.5 -114.5t78 -75t66 -41t61.5 -12.5v-50q-77 -17 -137.5 -11.5t-109.5 28.5t-89 62t-76 90l-157 222q-23 32 -47.5 57t-58.5 25h-9v-197q0 -52 1.5 -90t11 -62.5t30 -36t58.5 -11.5h26v-70 q-51 4 -101.5 7t-108.5 3t-107.5 -3t-100.5 -7v70h26q38 0 58.5 11.5t30 36t11 62.5t1.5 90v197h-9q-17 0 -31.5 -7t-27 -18t-24 -26t-23.5 -31l-157 -222q-29 -40 -59.5 -73t-66 -57t-77 -37.5t-91.5 -14.5q-14 0 -47.5 4.5t-75 10t-83 10t-71.5 4.5q-18 0 -35.5 -0.5 t-38.5 -2t-47 -3.5t-60 -4zM382 242q0 -48 2.5 -82t11 -55.5t25 -32t45.5 -10.5q26 0 56 19t62.5 50.5t66.5 72t67 83.5l68 89q13 17 27 31t28 27l-221 -3q-18 0 -50 -1t-67 -1.5t-67.5 -1.5t-53.5 -2v-183zM990 862.5q-1 -16.5 15.5 -46.5t52.5 -80l141 -199l139 177 q45 58 66.5 93t21.5 54t-20 25.5t-58 7.5q-87 3 -173 3q-30 0 -59.5 -0.5t-59.5 -2.5q-32 -2 -48.5 -8.5t-17.5 -23z" />
<glyph unicode="&#x46e;" horiz-adv-x="1119" d="M55 -103q5 64 38.5 108t86.5 72t121.5 41.5t145.5 17.5q117 6 193 27.5t121 59t63 89t18 117.5q0 55 -16 101t-46 81.5t-72.5 59.5t-94.5 35q-15 -2 -43 -11t-63.5 -19.5t-75.5 -21.5t-78 -17l-25 163h79h80h73.5h60.5q27 19 54 44t49 57t36 71.5t14 86.5 q0 137 -67.5 207.5t-211.5 70.5q-75 0 -129.5 -19t-93.5 -56.5t-64 -92t-41 -124.5l-80 16q36 150 36 309q27 11 62.5 23.5t77 23.5t87.5 19.5t94 11.5l-237 279l61 28l244 -202l246 202l59 -30l-239 -280q102 -11 176 -44t122 -81t71 -107t23 -121q0 -59 -20 -110.5 t-53.5 -93.5t-78.5 -73.5t-94 -50.5q76 -16 135 -48.5t99.5 -77t61.5 -99t21 -115.5q0 -87 -26.5 -161t-91 -128t-172 -86.5t-269.5 -37.5q-107 -3 -172 -13t-101 -25t-49.5 -34.5t-17.5 -41.5q-6 -38 11 -67t51.5 -48t82.5 -28.5t103 -9.5q69 0 152.5 21t179.5 70l48 -63 q-37 -27 -62 -49.5t-44 -43t-35 -40.5t-35 -42q-53 -10 -114.5 -10t-123.5 11.5t-118.5 34.5t-99 59.5t-66 87.5t-17.5 117z" />
<glyph unicode="&#x46f;" horiz-adv-x="877" d="M55 -162q0 61 23 104t66.5 72t106.5 46.5t142 27.5q67 8 115.5 23t80 39t46.5 59t15 83q0 44 -18.5 75.5t-44.5 53t-54.5 33.5t-47.5 16q-29 -7 -51 -13t-43 -11.5t-43 -10.5t-52 -9l-10 135h211q17 8 34.5 26t31.5 42t22.5 52t8.5 56q0 38 -12 72t-36.5 60t-63.5 41.5 t-93 15.5q-97 0 -159.5 -63.5t-74.5 -176.5l-76 12q6 44 14.5 113.5t8.5 146.5q53 15 119 29.5t133 19.5l-176 207l42 41l191 -157l188 158l45 -44l-176 -204q92 -6 150 -31.5t91 -59.5t45.5 -71.5t12.5 -67.5t-7 -64t-27 -67.5t-57 -64.5t-98 -55q46 -12 86.5 -31.5t72 -48 t51 -68t23.5 -91.5q6 -70 -17.5 -127t-74 -98t-127.5 -64.5t-178 -26.5q-84 -3 -138 -14t-85.5 -29t-44 -42t-12.5 -52q0 -23 11.5 -44t35.5 -37t60.5 -25t86.5 -9q66 0 142 47q74 46 85 46q15 0 29 -7.5t24.5 -20.5t17 -30.5t6.5 -36.5q0 -53 -63 -82.5t-180 -29.5 q-87 0 -150 20t-104 53t-60.5 74.5t-19.5 84.5z" />
<glyph unicode="&#x470;" horiz-adv-x="1748" d="M30 1358v68q48 -3 93 -4t88 -1q46 0 85.5 1.5t81.5 4.5q-4 -55 -6 -96.5t-3 -84.5t-1 -96v-130q0 -62 1.5 -126t12 -124.5t34.5 -113.5t69.5 -92.5t116.5 -63.5t175 -25v502q0 81 -1 135t-3 89.5t-5 56t-8 35.5q-12 35 -43.5 50t-97.5 15h-18v69q70 -4 139 -6t135 -2 q57 0 125 2t146 6v-69h-17q-62 0 -94 -12t-46.5 -46t-16 -93.5t-1.5 -155.5v-576q104 1 175 25t116.5 63.5t69.5 92.5t34.5 113.5t12 124.5t1.5 126v130q0 53 -1 96t-3 84.5t-6 96.5q42 -3 81.5 -4.5t85.5 -1.5q43 0 88 1t93 4v-68q-48 0 -76.5 -9.5t-43.5 -39t-19.5 -85.5 t-4.5 -149q0 -68 -4 -143.5t-22 -149.5t-55.5 -142.5t-104.5 -122t-168.5 -88.5t-248.5 -41v-34q0 -61 1 -100.5t3.5 -66t7 -42t11.5 -28.5q13 -25 46.5 -36t94.5 -11h21v-70q-87 4 -159.5 6t-121.5 2q-58 0 -130.5 -2t-153.5 -6v70h20q50 0 80.5 6.5t47 22t23 41.5t9.5 65 q4 52 6 183q-147 6 -248.5 41t-168.5 88.5t-104.5 122t-55.5 142.5t-22 149.5t-4 143.5q0 93 -4.5 149t-19.5 85.5t-43.5 39t-76.5 9.5z" />
<glyph unicode="&#x471;" horiz-adv-x="1351" d="M59 940q72 12 148 29.5t160 41.5q-4 -119 -7 -204.5t-4.5 -150t-2 -113.5t-0.5 -94q0 -107 24 -180t64 -119t92.5 -66t109.5 -20h2q2 180 2.5 343.5t0.5 287.5v406q0 82 -0.5 136t-1 86.5t-1 57.5t-1.5 49t-2 60q43 11 81.5 25t80.5 31q-1 -38 -1.5 -74.5t-1 -77 t-1 -87.5t-0.5 -107v-505q-1 -124 -0.5 -287.5t2.5 -343.5q81 0 143 37.5t104 105t62.5 162t18.5 208.5q-2 84 -15 150t-32.5 114t-42.5 79t-43 45q24 20 48 29t54 9q40 0 74.5 -21t59.5 -66t39.5 -114.5t14.5 -166.5q0 -69 -11 -143t-34.5 -146t-61.5 -137.5t-91.5 -116 t-124.5 -82.5t-161 -36q2 -128 4.5 -252.5t7.5 -237.5q-23 2 -47 3t-44 1t-44 -1t-47 -3q5 113 7 237t4 252h-3q-100 0 -183 27t-142.5 82.5t-92.5 140.5t-33 200v73l3 112q0 12 0.5 31.5t1 39.5t0.5 37v23q0 43 -3.5 70.5t-11 43.5t-21 22t-32.5 6q-12 0 -28 -2t-33 -4z " />
<glyph unicode="&#x472;" horiz-adv-x="1642" d="M94 717q0 159 59 298.5t173 246.5q103 97 230 147.5t265 50.5q152 0 271.5 -43.5t216.5 -134.5q117 -110 178 -254.5t61 -308.5q0 -95 -23.5 -188t-67.5 -176.5t-108 -154.5t-145 -123t-178 -81t-207 -29q-161 0 -295 58.5t-237 175.5q-94 106 -143.5 237.5t-49.5 278.5z M315 779q56 20 109.5 30.5t110.5 12t119 -5t134 -21.5q101 -21 178 -32t138.5 -11.5t113 10.5t102.5 34q-15 122 -60 223.5t-113.5 174.5t-157 113.5t-190.5 40.5q-107 0 -195 -40.5t-151.5 -114.5t-99 -179t-38.5 -235zM318 686q10 -134 53.5 -245.5t113 -191.5t161 -124.5 t196.5 -44.5q109 0 198.5 43.5t153 122.5t98.5 190.5t35 247.5q0 5 -0.5 10.5t-0.5 10.5q-53 -28 -105 -48t-115 -28.5t-141 -3.5t-182 26q-71 15 -132 28t-117 20t-108.5 5t-107.5 -18z" />
<glyph unicode="&#x473;" horiz-adv-x="1128" d="M68 481q0 109 40.5 205.5t110 168.5t161.5 113.5t195 41.5q105 0 194.5 -38t154.5 -104.5t102 -156.5t37 -193q0 -114 -39 -213.5t-107 -173t-160.5 -116t-199.5 -42.5t-196.5 38.5t-154.5 106t-101.5 160.5t-36.5 203zM252 543q67 25 135.5 25t157.5 -20q63 -14 111 -22 t86.5 -9t71 5.5t65.5 21.5q-10 80 -38.5 146.5t-71.5 114t-99 74t-121 26.5q-66 0 -121 -25.5t-94 -72t-60.5 -113.5t-21.5 -149v-2zM255 467q9 -89 35.5 -162t68.5 -125t97.5 -80t121.5 -28q70 0 127 27.5t97 77.5t61.5 121.5t21.5 160.5q0 3 -0.5 6t-0.5 6 q-30 -18 -63.5 -31t-74 -18.5t-91 -2t-115.5 18.5q-44 10 -81 19t-71 14t-66.5 4.5t-66.5 -8.5z" />
<glyph unicode="&#x474;" horiz-adv-x="1493" d="M14 1364v63q75 -4 142 -6t118 -2q64 0 130.5 2t136.5 6l-1 -63q-42 -4 -69 -8.5t-42.5 -13t-21.5 -21t-6 -31.5q0 -28 10 -70.5t38 -117.5l305 -873q53 179 102 339t96 294.5t93.5 241.5t95 182t100.5 115t110 40q33 0 57 -9.5t39 -25t22.5 -36t7.5 -41.5q0 -22 -8 -43.5 t-23 -38t-37.5 -27t-51.5 -10.5q-12 0 -20.5 2.5t-17.5 5.5t-19.5 5.5t-25.5 2.5q-29 0 -62.5 -42.5t-69.5 -115.5t-74 -171.5t-76.5 -210.5t-76 -231.5t-73.5 -236.5q-20 -66 -36.5 -127.5t-21.5 -106.5h-148q0 12 -21 86.5t-68 212.5t-102.5 293t-121.5 330l-26 71 q-72 195 -137 292t-119 97q-10 0 -15.5 -0.5t-11.5 -1.5z" />
<glyph unicode="&#x475;" horiz-adv-x="1035" d="M0 911v69q75 -5 120 -7t77 -2q30 0 76.5 2t129.5 8v-70h-26q-51 0 -70.5 -13.5t-19.5 -47.5q0 -12 9 -41.5t24 -70.5t34.5 -91t40.5 -102.5t42 -105.5t39 -99.5t32 -84.5t20 -62q30 91 62 185.5t66.5 183.5t71.5 167.5t76.5 137.5t81.5 93t87 34q51 0 73 -27t22 -63 q0 -44 -26 -73t-67 -29q-17 0 -25.5 3t-20.5 3h-6.5t-7.5 -1q-21 -4 -47.5 -39.5t-56 -91.5t-59.5 -126.5t-58.5 -144.5t-53.5 -146t-43.5 -131t-29.5 -99t-11 -51v-3h-126q0 20 -14.5 64.5t-47.5 130t-87 221.5t-134 339l-13 34q-56 147 -126 147h-8z" />
<glyph unicode="&#x476;" horiz-adv-x="1493" d="M14 1364v63q75 -4 142 -6t118 -2q64 0 130.5 2t136.5 6l-1 -63q-42 -4 -69 -8.5t-42.5 -13t-21.5 -21t-6 -31.5q0 -28 10 -70.5t38 -117.5l305 -873q53 179 102 339t96 294.5t93.5 241.5t95 182t100.5 115t110 40q33 0 57 -9.5t39 -25t22.5 -36t7.5 -41.5q0 -22 -8 -43.5 t-23 -38t-37.5 -27t-51.5 -10.5q-12 0 -20.5 2.5t-17.5 5.5t-19.5 5.5t-25.5 2.5q-29 0 -62.5 -42.5t-69.5 -115.5t-74 -171.5t-76.5 -210.5t-76 -231.5t-73.5 -236.5q-20 -66 -36.5 -127.5t-21.5 -106.5h-148q0 12 -21 86.5t-68 212.5t-102.5 293t-121.5 330l-26 71 q-72 195 -137 292t-119 97q-10 0 -15.5 -0.5t-11.5 -1.5zM402 1753l147 90l256 -392l-76 -25zM727 1805l149 79l199 -433l-78 -22z" />
<glyph unicode="&#x477;" horiz-adv-x="1035" d="M0 911v69q75 -5 120 -7t77 -2q30 0 76.5 2t129.5 8v-70h-26q-51 0 -70.5 -13.5t-19.5 -47.5q0 -12 9 -41.5t24 -70.5t34.5 -91t40.5 -102.5t42 -105.5t39 -99.5t32 -84.5t20 -62q30 91 62 185.5t66.5 183.5t71.5 167.5t76.5 137.5t81.5 93t87 34q51 0 73 -27t22 -63 q0 -44 -26 -73t-67 -29q-17 0 -25.5 3t-20.5 3h-7q-3 0 -7 -1q-21 -4 -47.5 -39.5t-56 -91.5t-59.5 -126.5t-58.5 -144.5t-53.5 -146t-43.5 -131t-29.5 -99t-11 -51v-3h-126q0 20 -14.5 64.5t-47.5 130t-87 221.5t-134 339l-13 34q-56 147 -126 147h-8zM112 1366l147 90 l256 -392l-76 -25zM437 1418l149 79l199 -433l-78 -22z" />
<glyph unicode="&#x478;" horiz-adv-x="2595" d="M94 717q0 158 59.5 298.5t172.5 246.5q102 96 230 147t265 51q152 0 271.5 -43.5t216.5 -134.5q116 -110 177.5 -255t61.5 -308q0 -166 -65 -314t-185 -255q-96 -86 -223.5 -134.5t-255.5 -48.5q-160 0 -294.5 59t-237.5 175q-94 106 -143.5 238t-49.5 278zM315 760 q0 -298 150.5 -489t376.5 -191q218 0 351.5 164.5t133.5 439.5q0 291 -150 477.5t-378 186.5q-219 0 -351.5 -160t-132.5 -428zM1600 912v68q75 -5 120 -7t77 -2q30 0 76.5 2t129.5 8v-70h-26q-50 0 -70 -13.5t-20 -47.5q0 -26 88 -264q84 -226 139 -381q139 330 195.5 476 t56.5 175t-22 42t-72 13h-15v70q45 -4 88.5 -6t83.5 -2q33 0 76 2t92 6v-70h-8q-33 0 -55.5 -14.5t-38.5 -46.5q-2 -5 -17 -39q-106 -245 -227 -514q-60 -136 -153 -355q-200 -474 -308 -474q-40 0 -67 26t-27 66q0 55 77 69q31 5 44 11q56 22 161 254q29 65 46 102 q-69 178 -170 457q-167 460 -238 460q-6 0 -9.5 -0.5t-6.5 -0.5z" />
<glyph unicode="&#x479;" horiz-adv-x="2085" d="M68 481q0 220 149.5 374.5t357.5 154.5q211 0 349.5 -141.5t138.5 -350.5q0 -230 -146 -387.5t-360 -157.5t-351.5 144t-137.5 364zM252 545q0 -211 90.5 -342t235.5 -131q140 0 223.5 104t83.5 283q0 196 -94.5 321t-241.5 125q-134 0 -215.5 -97.5t-81.5 -262.5z M1090 912v68q75 -5 120 -7t77 -2q30 0 76.5 2t129.5 8v-70h-26q-50 0 -70 -13.5t-20 -47.5q0 -26 88 -264q84 -226 139 -381q139 330 195.5 476t56.5 175t-22 42t-72 13h-15v70q45 -4 88.5 -6t83.5 -2q33 0 76 2t92 6v-70h-8q-33 0 -55.5 -14.5t-38.5 -46.5q-2 -5 -17 -39 q-106 -245 -227 -514q-60 -136 -153 -355q-200 -474 -308 -474q-40 0 -67 26t-27 66q0 55 77 69q31 5 44 11q56 22 161 254q29 65 46 102q-69 178 -170 457q-167 460 -238 460q-6 0 -9.5 -0.5t-6.5 -0.5z" />
<glyph unicode="&#x47a;" horiz-adv-x="1692" d="M94 717q0 159 59 298.5t173 246.5q89 84 197 133.5t226 60.5l19 26q25 35 46 50.5t44 15.5t39 -11.5t37 -49.5l19 -31q123 -11 222.5 -53.5t183.5 -120.5q117 -110 178 -254.5t61 -308.5q0 -116 -32.5 -224.5t-93.5 -200.5t-149 -164t-199 -115q-84 -32 -171 -43l-23 -29 q-28 -35 -48 -49.5t-44 -14.5t-40 14t-36 45l-22 33q-135 13 -248.5 70t-204.5 160q-94 106 -143.5 237.5t-49.5 278.5zM315 762q0 -137 31.5 -254.5t88 -208.5t135 -151.5t171.5 -82.5l27 38q25 35 46 50.5t44 15.5t39 -11.5t37 -49.5l30 -49q94 15 170.5 65.5t130.5 131.5 t83 189t29 237q0 131 -30.5 244.5t-86 202t-132 148.5t-168.5 83l-30 -38q-28 -35 -48 -49.5t-44 -14.5t-40 14t-36 45l-35 52q-94 -14 -170 -63t-130 -127.5t-83 -184t-29 -232.5z" />
<glyph unicode="&#x47b;" horiz-adv-x="1172" d="M68 481q0 98 33 184.5t90 154.5t134.5 113t166.5 60l18 24q23 32 43.5 46.5t42.5 14.5q21 0 36.5 -11t35.5 -46l16 -25q92 -11 169.5 -51.5t134 -103.5t88 -145.5t31.5 -177.5q0 -102 -31.5 -191.5t-87.5 -159t-133 -115.5t-168 -61l-21 -27q-26 -32 -45 -45.5t-42 -13.5 t-38.5 13t-34.5 42l-19 28q-93 11 -170 52t-132.5 105.5t-86 149.5t-30.5 186zM252 547q0 -91 17 -168t47.5 -137t74 -101t97.5 -60l24 32q23 32 43.5 46.5t42.5 14.5q21 0 36.5 -11t35.5 -46l27 -42q108 26 170 125t62 257q0 84 -17.5 156.5t-49.5 129t-77 96t-99 57.5 l-22 -28q-26 -32 -45 -45.5t-42 -13.5t-38.5 13t-34.5 42l-27 39q-103 -24 -164 -116t-61 -240z" />
<glyph unicode="&#x47c;" horiz-adv-x="2168" d="M94 713q0 159 44 295t121.5 236t184.5 157t233 57q22 0 62 -5t84.5 -14t87.5 -21t70 -27q-4 -42 -5 -75t0 -64t4 -63t6 -74l-72 -19q-23 78 -58 125.5t-75.5 74t-83 35t-79.5 8.5q-65 0 -121.5 -39.5t-99 -113t-67 -178.5t-24.5 -236q0 -149 24.5 -275t71.5 -218 t115.5 -144t156.5 -52q64 0 121 31t100 84t68 124t25 151q0 59 -4 103t-19.5 72.5t-48 42.5t-89.5 14h-18v69q70 -4 139 -6t135 -2q57 0 125 2t146 6v-69h-17q-99 0 -130 -41q-20 -27 -27.5 -56.5t-7.5 -65.5q0 -82 26.5 -164t75 -147.5t116 -106.5t148.5 -41t141.5 48.5 t101 138.5t61 217t20.5 285q0 147 -30 254t-79 177.5t-111 104.5t-126 34q-32 0 -67.5 -9.5t-71 -36.5t-68 -75t-57.5 -125l-72 19q3 42 6 74t4 63t0 64t-5 75q27 15 74 27t98 21t98 14t75 5q117 0 216.5 -52.5t172 -150t113 -235t40.5 -307.5q0 -162 -43 -299t-118.5 -236 t-179.5 -155t-225 -56q-86 0 -156.5 27.5t-125 72t-92.5 99.5t-59 110q-21 -54 -58.5 -109.5t-92.5 -99.5t-126.5 -72t-161.5 -28q-121 0 -220.5 56.5t-170.5 156t-110 236t-39 297.5zM782 1793q12 48 38.5 84.5t61.5 61.5t75.5 37.5t79.5 12.5q52 0 96.5 -12t85.5 -30 t81.5 -38t85 -36.5t95.5 -26t113 -5.5v-68q-80 -6 -139 1t-104.5 20.5t-82 30.5t-71 32t-71 25.5t-82.5 10.5q-24 0 -44 -8.5t-36 -22.5t-27.5 -32t-19.5 -37h-135zM994 1776q66 21 116 20t84.5 -18.5t54 -49t23.5 -71.5q3 -24 -5.5 -59t-37.5 -68t-83 -56t-142 -22v65 q40 1 75 9t60 24.5t37 40t5 56.5q-10 17 -28.5 22.5t-40.5 3t-46.5 -8.5t-47.5 -12z" />
<glyph unicode="&#x47d;" horiz-adv-x="1459" d="M68 481q0 96 25 184t72 158.5t115.5 119t155.5 67.5l19 -68q-65 -30 -104.5 -73.5t-60.5 -98t-27.5 -118t-6.5 -133.5q0 -83 13.5 -163.5t39 -143.5t63 -101.5t84.5 -38.5q43 0 76 23.5t56.5 66t38 100t21 125t5 143t-9.5 152.5l186 34q-11 -76 -13.5 -153.5t4 -149.5 t22 -134t40.5 -108t60 -72.5t80 -26.5q48 0 83 32.5t58.5 86.5t35 124t11.5 146q0 95 -14.5 175t-40.5 142t-63.5 104t-83.5 61l21 67q87 -14 155 -63t114.5 -119t71 -155t24.5 -171q0 -101 -27 -196.5t-76.5 -169.5t-119.5 -118.5t-157 -44.5q-45 0 -89 15t-82.5 44.5 t-69 73.5t-48.5 102q-18 -56 -50.5 -99.5t-72.5 -73.5t-83.5 -46t-83.5 -16q-80 0 -147.5 38.5t-116.5 106t-76 160.5t-27 203zM382 1204q12 48 38.5 84.5t61.5 61.5t75.5 37.5t79.5 12.5q52 0 96.5 -12t85.5 -30t81.5 -38t85 -36.5t95.5 -26t113 -5.5v-68q-80 -6 -139 1 t-104.5 20.5t-82 30.5t-71 32t-71 25.5t-82.5 10.5q-24 0 -44 -8.5t-36 -22.5t-27.5 -32t-19.5 -37h-135zM481 1194q66 21 116 20t84.5 -18.5t54 -49t23.5 -71.5q3 -24 -5.5 -59t-37.5 -67.5t-83 -56t-142 -22.5v65q40 1 75 9t60 24.5t37 40.5t5 56q-10 17 -28.5 22.5 t-40.5 3t-46.5 -8.5t-47.5 -12z" />
<glyph unicode="&#x47e;" horiz-adv-x="2070" d="M-8 1358v69q70 -4 131 -6t127 -2q57 0 120 2t141 6v-69h-17q-60 0 -92.5 -11.5t-47.5 -35.5t-17 -62t-1 -91q3 -140 27.5 -275t67.5 -253q28 -80 63 -150t73.5 -129.5t78.5 -106.5t79 -81q59 64 128.5 173.5t132.5 259.5q-34 113 -55.5 245t-30.5 296q-3 60 -10.5 102.5 t-21.5 68.5t-37 38t-59 12h-18v69q35 -2 65 -3.5t59 -2.5t58 -1.5t62 -0.5q57 0 116.5 2t137.5 6v-69h-17q-53 0 -83 -18t-43.5 -55.5t-15.5 -95.5t1 -138q5 -148 33.5 -280.5t74.5 -246.5t105 -207t124 -161q61 60 115 146.5t94.5 196.5t64 241t23.5 280l-1 47q0 55 -2 96 t-5.5 70.5t-9 48.5t-12.5 30q-28 46 -110 46h-27v69q67 -4 131 -6t127 -2q54 0 117 2t135 6v-69q-5 0 -14 1t-13 1q-38 0 -61.5 -10t-38 -35.5t-21.5 -68.5t-11 -109q-8 -149 -35.5 -282.5t-68 -250.5t-93 -216t-111 -180t-120.5 -143t-122 -103q-52 58 -98 115.5t-87 117.5 t-76 123.5t-64 134.5q-34 -64 -75 -130.5t-87 -130.5t-96 -123t-102 -107q-44 37 -96.5 88.5t-107 122.5t-107.5 163.5t-96.5 211t-75 264.5t-43.5 325q-3 45 -8.5 85.5t-20 70.5t-41 47.5t-71.5 17.5h-18zM497 1626q8 32 14 64t11.5 68t10 79.5t8.5 99.5 q45 -17 131.5 -19.5t222.5 -2.5h166q43 0 92 0.5t98 3t95 8.5t83 17q1 -58 4.5 -136.5t26.5 -181.5l-68 -13q-17 72 -37.5 113.5t-51.5 63t-76.5 27t-112.5 5.5h-52q-1 -8 1 -72t12 -192q-28 3 -52.5 4.5t-47.5 1.5t-46.5 -1.5t-49.5 -4.5q7 98 8.5 169.5t2.5 94.5h-40 q-60 0 -107.5 -5.5t-83.5 -26.5t-61 -62.5t-39 -114.5z" />
<glyph unicode="&#x47f;" horiz-adv-x="1621" d="M46 911v70q43 -3 74 -5t53 -3t38.5 -1.5t31.5 -0.5q32 0 80.5 2t134.5 8v-70h-28q-32 0 -49.5 -16.5t-25.5 -40.5t-9 -52t-1 -51q4 -87 28.5 -177.5t61.5 -172.5t81.5 -149t88.5 -106q27 34 51.5 68t47.5 71t44.5 78.5t43.5 91.5q-18 57 -32.5 120.5t-24.5 137.5 q-9 68 -20.5 107.5t-25 59.5t-30 25.5t-37.5 5.5h-15v70q43 -3 73.5 -5t53.5 -3t40 -1.5t33 -0.5t33.5 0.5t40 1.5t53.5 3t74 5v-70h-28q-32 0 -50.5 -14.5t-28 -37t-11 -51.5t0.5 -57q9 -112 37 -210t64.5 -177.5t77 -138t73.5 -92.5q32 43 64 95.5t58 121.5t43 157.5 t19 203.5q1 69 -8 108.5t-24 60t-34.5 26t-40.5 5.5h-19v70q86 -6 134.5 -8t80.5 -2q15 0 31 0.5t37 1.5t49 3t67 5v-70q-38 0 -58.5 -11.5t-31 -35.5t-15.5 -62t-12 -91q-15 -107 -49.5 -215.5t-85 -207t-114.5 -180.5t-137 -135q-32 32 -65.5 68.5t-66.5 79.5t-64 93.5 t-58 110.5q-26 -45 -57.5 -95t-67 -97t-74 -89t-78.5 -71q-54 40 -114 107t-114.5 161t-98 214t-63.5 266q-8 54 -15 90t-20 58.5t-34 32t-56 9.5h-5zM365 1106q7 30 12 54.5t8.5 52t6.5 63t7 87.5q42 -16 122 -18t207 -2h145q40 0 85.5 0.5t91 3t88 8t77.5 15.5 q0 -27 -0.5 -54t1 -58t6.5 -68.5t16 -85.5l-63 -12q-16 55 -34 87.5t-46 49.5t-69.5 22t-103.5 5h-51q1 -30 3 -63l4 -63q3 -35 8 -70q-51 -4 -94 -5.5t-75 -6.5q3 33 5 69.5t4 67.5q2 36 3 71h-43q-56 0 -99.5 -5t-76.5 -22t-54.5 -49t-33.5 -86z" />
<glyph unicode="&#x480;" horiz-adv-x="1448" d="M84 713q0 165 57.5 302t161 235.5t246.5 153t313 54.5q103 0 215.5 -19t235.5 -57v-34q0 -70 5 -145t15 -159l-73 -12q-10 72 -45 128.5t-91.5 96t-133 60t-169.5 20.5q-124 0 -220.5 -38.5t-163 -113t-101.5 -183.5t-35 -250q0 -149 41 -272t115 -211t176.5 -136.5 t226.5 -48.5q65 0 118.5 11t99.5 30.5t85 47.5t75 63l54 -26q-7 -25 -10.5 -70t-5 -94.5t-2 -96.5t-0.5 -75v-34q0 -61 1 -100.5t3.5 -66t7 -42t11.5 -28.5q13 -25 46.5 -36t94.5 -11h21v-70q-87 4 -159.5 6t-121.5 2q-58 0 -130.5 -2t-153.5 -6v70h20q50 0 80.5 6.5t47 22 t23 41.5t9.5 65q6 61 6 223v89q-63 -16 -122 -26t-131 -10q-166 0 -302.5 54t-234.5 152t-152 235.5t-54 304.5z" />
<glyph unicode="&#x481;" horiz-adv-x="915" d="M66 471q0 112 42 211t115.5 172t171.5 115.5t211 42.5q117 0 179.5 -32.5t62.5 -90.5q0 -21 -7 -39.5t-18.5 -33t-27 -22.5t-31.5 -8q-5 0 -28.5 12t-64.5 38q-83 51 -155 51q-65 0 -117.5 -24.5t-89 -69.5t-56.5 -109.5t-20 -144.5q0 -101 23.5 -181t68.5 -135.5 t109.5 -84.5t147.5 -29q35 0 65.5 5t60 15.5t59 27.5t62.5 40l49 -36q-8 -35 -9 -91.5t-1 -141.5v-184q0 -65 4.5 -103.5t16 -59t30 -26.5t46.5 -6q15 0 23 0.5t17 1.5l1 -65q-96 0 -161.5 2t-99.5 2h-29t-52.5 -0.5t-60.5 -1.5t-54 -2v65h25q31 0 51.5 3t34 9.5t21.5 17.5 t14 28q7 20 12.5 123t7.5 295q-24 -13 -53 -23.5t-57 -17.5t-53 -11t-42 -4q-99 0 -180.5 37.5t-140 104t-91 158.5t-32.5 200z" />
<glyph unicode="&#x482;" horiz-adv-x="932" d="M0 227q14 26 22 53.5t19 56.5q63 -30 126 -54.5t127 -47.5l47 -17l164 453l-47 18q-64 23 -127.5 45t-131.5 37q15 29 24.5 56.5t16.5 59.5q26 -13 57.5 -27t65.5 -28.5t69 -28t68 -25.5l39 -14q12 33 25.5 71t27 77.5t26 80t21.5 77.5q24 -14 59 -27t64 -18 q-17 -35 -34.5 -75.5t-34.5 -80.5t-31.5 -77t-24.5 -64l48 -17q30 -11 59 -21.5t59 -20.5t61.5 -19.5t67.5 -18.5q-12 -27 -21.5 -52.5t-17.5 -58.5q-66 28 -126.5 53.5t-124.5 48.5l-38 14l-166 -454l48 -17q61 -23 124 -41t124 -41q-16 -28 -25 -51t-14 -54 q-63 23 -124 48.5t-124 48.5l-42 15q-12 -33 -24.5 -72t-26 -80.5t-26 -84.5t-24.5 -83q-26 11 -58.5 23.5t-61.5 23.5q36 90 68 166.5t55 141.5l-56 21q-62 23 -124.5 42t-126.5 39z" />
<glyph unicode="&#x483;" horiz-adv-x="0" d="M-932.5 1167.5q-1.5 21.5 2 44t15 44.5t34.5 40q42 13 98 16t113 2.5t109.5 -0.5t89.5 8q21 4 33 16t18 27t8 32.5t2 32.5h146q4 -18 5.5 -39.5t-2 -44t-15 -44.5t-34.5 -40q-42 -14 -98 -16.5t-113 -2t-109.5 0.5t-89.5 -8q-21 -5 -33 -16.5t-18 -26.5t-8 -32.5 t-2 -32.5h-146q-4 18 -5.5 39.5z" />
<glyph unicode="&#x484;" horiz-adv-x="0" d="M-832 1171q35 128 104 193t170 65q100 0 169.5 -65.5t104.5 -192.5l-63 -21q-29 77 -79 111.5t-132 34.5q-81 0 -132 -35t-79 -111z" />
<glyph unicode="&#x485;" horiz-adv-x="0" d="M-788 1318q-1 25 1 44q6 45 30.5 80.5t65.5 55.5t96.5 21.5t121.5 -20.5l-28 -142q-26 6 -53.5 13t-53 9.5t-46.5 -3.5t-32 -25q-11 -36 0 -64t38.5 -47t69 -29t93.5 -11v-77q-73 0 -124 12.5t-85.5 33t-54 46t-29 52t-10.5 51.5z" />
<glyph unicode="&#x486;" horiz-adv-x="0" d="M-701 1494q73 24 128.5 23t94 -20.5t60 -54.5t26.5 -80q3 -26 -6.5 -65t-41.5 -75.5t-92 -62.5t-158 -25v73q44 1 83 10t67 27t41 44.5t6 62.5q-11 19 -31.5 25t-45 3.5t-52 -9.5t-52.5 -13z" />
<glyph unicode="&#x487;" horiz-adv-x="0" d="M-950 1214q12 48 38.5 84.5t61.5 61.5t75.5 37.5t79.5 12.5q52 0 96.5 -12t85.5 -30t81.5 -38t85 -36.5t95.5 -26t113 -5.5v-68q-80 -6 -139 1t-104.5 20.5t-82 30.5t-71 32t-71 25.5t-82.5 10.5q-24 0 -44 -8.5t-36 -22.5t-27.5 -32t-19.5 -37h-135z" />
<glyph unicode="&#x488;" horiz-adv-x="0" d="M-1540 565l62 15q22 -85 61 -119t91 -25q16 9 21 26.5t3 39t-8 45t-11 44.5l127 25q31 -67 30 -115t-22.5 -79.5t-57 -48.5t-73.5 -22q-23 -3 -54 3t-62.5 28.5t-60 66t-46.5 116.5zM-1315 -154l34 55q75 -45 126.5 -41.5t83.5 47.5q4 18 -4.5 33.5t-25 29t-37 26 t-39.5 23.5l71 107q70 -25 103 -59.5t40.5 -72t-6 -74.5t-37.5 -67q-15 -19 -41 -37t-64 -24t-89 4.5t-115 49.5zM-1244.5 1030q-6.5 38 4 89t49.5 115l55 -34q-44 -75 -41 -126.5t47 -83.5q18 -5 33.5 4t29 25.5t26 37t23.5 39.5l107 -71q-25 -70 -59.5 -103t-72 -40.5 t-74.5 6t-67 36.5q-18 15 -36 41.5t-24.5 64.5zM-697 -157q67 31 115 30t79.5 -22.5t48 -57t21.5 -73.5q3 -23 -2.5 -54t-28 -62.5t-66 -60t-116.5 -46.5l-15 62q84 22 117.5 61t26.5 91q-9 16 -26.5 21t-39 3t-45 -8t-44.5 -11zM-685 1236q-3 23 2.5 54t28 62.5t66 60 t116.5 46.5l15 -63q-84 -22 -118 -60.5t-26 -90.5q9 -16 26.5 -21t39 -3t45 8t44.5 11l25 -127q-67 -32 -115 -30.5t-79.5 23t-48.5 57t-21 73.5zM-207 -70q25 70 59.5 103.5t72 40.5t74.5 -6.5t67 -36.5q18 -15 36 -41t24.5 -64t-4 -89t-49.5 -115l-55 34q44 75 40.5 126.5 t-46.5 83.5q-18 4 -33.5 -4.5t-29 -25t-26 -37t-23.5 -39.5zM-155.5 961.5q-7.5 37.5 6 74.5t36.5 67q15 18 41.5 36t64.5 24.5t89 -4.5t115 -50l-34 -54q-75 44 -126.5 40.5t-83.5 -46.5q-5 -18 4 -33.5t25.5 -29.5t37 -26t39.5 -24l-71 -106q-70 25 -103 59.5t-40.5 72z M45.5 455q1.5 48 23 79.5t57 48t73.5 21.5q23 3 54 -2.5t62.5 -28t60 -66t46.5 -116.5l-62 -15q-22 85 -61 118t-91 25q-16 -9 -21 -26.5t-3 -38.5t8 -44.5t11 -44.5l-127 -25q-32 67 -30.5 115z" />
<glyph unicode="&#x489;" horiz-adv-x="0" d="M-1632 432q16 57 39 103t53 78.5t67.5 50.5t82.5 18q44 0 81.5 -18t68 -51t54 -79t38.5 -102l-55 -19q-26 69 -70 99t-117 30q-72 0 -117 -31t-69 -98zM-1432 903q16 57 39 103t53 78.5t67.5 50.5t82.5 18q39 0 74.5 -16t65 -44t51.5 -65.5t33 -80.5l-51 -19 q-12 15 -24 30.5t-30.5 27.5t-47 19.5t-71.5 7.5q-72 0 -117 -30.5t-69 -98.5zM-1425 -77q16 57 39 103t53 78.5t67.5 50.5t82.5 18q44 0 81.5 -18t68 -51t54 -79t38.5 -102l-55 -19q-26 69 -70 99t-117 30q-72 0 -116.5 -31t-69.5 -98zM-813 -352q15 57 38 103t53.5 78.5 t68 50.5t82.5 18q44 0 81.5 -18t68 -51t53.5 -79t39 -102l-56 -18q-26 68 -70 98.5t-116 30.5t-117 -31t-70 -98zM-813 1125q15 57 38 103t53.5 78.5t68 50.5t82.5 18q44 0 81.5 -18t68 -51t53.5 -79t39 -102l-56 -18q-26 69 -70 99t-116 30t-117 -31t-70 -98zM-201 -77 q15 56 38.5 102t54 79t68 51t81.5 18q45 0 82.5 -18t67.5 -50.5t53 -78.5t39 -103l-56 -19q-25 67 -69.5 98t-116.5 31q-73 0 -117 -30t-70 -99zM-176 947q11 43 33 80.5t51.5 65.5t65 44t74.5 16q45 0 82.5 -18t67.5 -50.5t53 -78.5t39 -103l-56 -19q-24 68 -69 98.5 t-117 30.5q-44 0 -72 -7.5t-46.5 -19.5t-30.5 -27.5t-24 -30.5zM6 432q15 56 38.5 102t54 79t68 51t81.5 18q45 0 82.5 -18t67.5 -50.5t53 -78.5t39 -103l-56 -19q-24 67 -69 98t-117 31q-73 0 -117 -30t-70 -99z" />
<glyph unicode="&#x48a;" horiz-adv-x="1649" d="M72 0v69q6 0 13.5 -0.5t20.5 -0.5q77 0 106 50q28 49 28 214v44.5t-1 70.5q-1 43 -1 77.5v61.5v266v57t1 70q1 39 1 65.5v40.5q0 172 -29 224q-29 51 -107 51q-3 0 -12 -1t-14 -1v69q72 -4 136 -6t118 -2q61 0 125 2t131 6v-69h-27q-82 0 -111 -44q-28 -43 -28 -231v-669 q202 191 401 385.5t395 392.5q-2 73 -30 120q-28 46 -110 46h-27v69q67 -4 131 -6t127 -2q54 0 117 2t135 6v-69q-5 0 -14 1t-13 1q-77 0 -105 -49q-28 -47 -28 -207v-43.5t1 -70.5t1 -76.5v-61.5v-266q0 -32 -0.5 -75t-0.5 -98q0 -33 0.5 -60t0.5 -40q0 -62 2 -101t9.5 -61 t22 -30t39.5 -8q3 0 7.5 -0.5t17.5 -0.5t37 1t65 5l9 -43q-88 -85 -174 -192.5t-172 -239.5l-69 33q54 88 85 153t27 103q-3 31 -20.5 45.5t-50.5 19.5t-81.5 4t-113.5 -1v70q6 0 18 -1t17 -1q81 0 110 45q29 46 29 217v121l1 580q-202 -191 -401 -385t-395 -392 q0 -80 29 -133t112 -53q5 0 17 1t18 1v-70q-78 4 -145 6t-121 2q-46 0 -112.5 -2t-147.5 -6zM558 1722q0 30 9.5 52t25 36.5t35 22t39.5 7.5q38 1 65.5 -22t27.5 -71q0 -7 -4.5 -23.5t-3.5 -33t11.5 -29.5t39.5 -13q74 0 140.5 50.5t114.5 140.5l59 -29 q-27 -69 -66.5 -117.5t-85 -80t-94 -46t-94.5 -14.5q-60 0 -101.5 17t-67.5 42.5t-38 55t-12 55.5z" />
<glyph unicode="&#x48b;" horiz-adv-x="1227" d="M52 0v70h23q44 0 69 26.5t37.5 65t15.5 82t3 76.5v342q0 165 -26 208q-13 22 -36.5 31.5t-60.5 9.5h-23v70q87 -6 136 -8t79 -2q32 0 81.5 2t135.5 8v-70h-28q-20 0 -38 -11.5t-31 -30.5q-25 -37 -25 -158v-383q29 27 58.5 54.5t59.5 56.5l217 205l163 159q-2 42 -11 64 t-23.5 32t-33 11t-38.5 1h-15v70q86 -6 135.5 -8t81.5 -2q30 0 79 2t128 8v-70h-23q-43 0 -66.5 -19t-34 -52.5t-12.5 -79t-2 -98.5v-239l3 -245q0 -27 4.5 -47.5t16 -35t31.5 -22t51 -7.5q37 0 94 12l11 -50q-33 -32 -69 -73.5t-72 -87t-70 -93t-61 -90.5l-63 32 q49 79 71 131t22 87q0 43 -34 59.5t-99 16.5q-30 0 -65.5 -2.5t-76.5 -7.5h-1v70h26q57 0 87 60.5t30 178.5v369q-26 -24 -53 -49.5t-57 -54.5l-207 -198q-49 -46 -93 -88t-89 -86q0 -27 2 -51t11.5 -42t30 -28.5t57.5 -10.5h26v-70q-51 4 -103.5 7t-110.5 3 q-51 0 -103.5 -2.5t-121.5 -7.5zM349 1335q0 21 7 40.5t20.5 34.5t33 23.5t45.5 8.5q30 0 46.5 -12.5t23 -30.5t6.5 -37.5t-3 -33.5q-8 -38 9 -54.5t60 -16.5q70 0 134.5 48.5t109.5 134.5l57 -28q-26 -66 -64 -112.5t-81.5 -76.5t-90 -44t-90.5 -14q-62 0 -105 15.5t-69 40 t-37.5 55t-11.5 59.5z" />
<glyph unicode="&#x48c;" horiz-adv-x="1247" d="M10 1327v102q21 0 37.5 -0.5t34.5 -0.5t40 -0.5t53 -0.5h75q-2 164 -29 214q-29 51 -107 51q-3 0 -12 -1t-14 -1v69q72 -4 136 -6t118 -2q61 0 125 2t131 6v-69h-27q-82 0 -111 -44q-28 -41 -28 -219h247q63 0 108 1t87 1v-102q-66 1 -123.5 1.5t-108.5 0.5h-210l-1 -452 q13 1 37 3t52 3.5t57 2.5t53 1q148 0 255.5 -35.5t177 -94t102.5 -135.5t33 -159q0 -103 -35.5 -188.5t-106.5 -147t-178.5 -95.5t-251.5 -34q-22 0 -36.5 0.5t-26.5 2t-25.5 2.5t-34.5 2.5t-53 2t-81 0.5q-74 0 -142.5 -1.5t-145.5 -6.5l1 69q6 0 13.5 -0.5t20.5 -0.5 q77 0 106 50q28 49 28 214v44.5t-1 70.5q-1 43 -1 77.5v61.5v538v36v51t0.5 54t0.5 46v18h-37h-48.5t-45.5 -0.5t-49 -1t-59 -0.5zM431 387q0 -33 1 -68l3 -198q11 -5 31.5 -9t44 -7.5t46 -5.5t37.5 -2q102 0 177.5 25.5t125 72.5t74 113.5t24.5 148.5q0 75 -21 128.5 t-55 90.5t-76.5 59t-86.5 34t-85 16t-71 4q-87 0 -169 -14v-324v-64z" />
<glyph unicode="&#x48d;" horiz-adv-x="943" d="M21 899v82h180l1 162v172q0 86 -74 86q-15 0 -46 -6q-10 -2 -11 -2l-15 65q82 16 161 37.5t158 50.5q-3 -137 -5.5 -277.5t-4.5 -287.5h177q115 0 235 6l-24 -96q-64 5 -120 6.5t-113 1.5h-156v-55l-2 -250q40 9 80.5 13.5t79.5 4.5q78 0 147.5 -19t122 -56.5t83.5 -94.5 t31 -133q0 -63 -26.5 -119.5t-75.5 -99t-118 -68t-154 -25.5q-35 0 -66.5 2t-62 4.5t-61.5 4.5t-65 2q-51 0 -103.5 -2.5t-121.5 -7.5v70h23q44 0 69 26.5t37.5 65t15.5 82t3 76.5l1 579h-180zM365 296q0 -56 1.5 -107t3.5 -90q59 -18 123 -19t117 22t87.5 74t34.5 136 q0 54 -20 95t-54.5 68.5t-80 41t-95.5 13.5q-27 0 -55.5 -4t-56.5 -12q-2 -49 -3.5 -105.5t-1.5 -112.5z" />
<glyph unicode="&#x48e;" horiz-adv-x="1206" d="M76 0v65q8 -1 15.5 -1.5t23.5 -0.5q79 0 108 54q29 56 29 243v39.5t-1 63.5t-1 68v53v626q0 87 -31 118q-32 32 -113 32h-8v70q69 -5 136 -7t133 -2q37 0 81 1t95 3q52 2 85 3.5t48 1.5q220 0 350 -109q131 -110 131 -287q0 -211 -144 -329q-64 -52 -148 -80l14 -19 q36 -51 63 -87.5t50 -71.5l-89 -58q-37 55 -66.5 102.5t-58.5 89.5l-15 19q-72 -12 -155 -12q-55 0 -176 12v-301q0 -154 31 -194q31 -39 127 -39q10 0 18 0.5t16 -0.5l1 -66q-73 4 -147 6t-146 2q-35 0 -102 -2t-154 -6zM432 692q42 -6 76 -9t67 -3q35 0 66.5 3t60.5 8 l-26 36q-36 51 -64.5 87t-51.5 71l91 59q37 -54 67 -102t59 -90l21 -29q160 77 160 285q0 145 -96 231q-97 86 -260 86q-45 0 -85.5 -3.5t-79.5 -10.5q-2 -68 -2.5 -136t-1.5 -137t-1 -155v-191z" />
<glyph unicode="&#x48f;" horiz-adv-x="1147" d="M27 -444q67 0 88 7q23 6 35 23q27 47 28 408v117l2 227v330q0 123 -15 155q-13 31 -56 31q-20 0 -54 -8l-10 61q167 47 313 127l-8 -160q91 63 169.5 92t154.5 29q165 0 276 -132q111 -131 111 -326q0 -255 -142 -398q-54 -54 -122 -88l34 -47q33 -50 60.5 -86.5 t49.5 -68.5l-91 -52q-33 51 -60.5 97.5t-53.5 86.5l-27 37q-81 -22 -181 -22q-92 0 -186 37v-357q0 -118 173 -120h1v-72q-66 5 -127.5 7.5t-116.5 2.5q-17 0 -38.5 -0.5t-47.5 -1.5t-65.5 -3t-93.5 -5v72zM342 253.5q0 -15.5 1 -38.5q1 -22 1 -39.5v-30.5q60 -29 120 -45 t114 -16q41 0 75 7l-28 39q-32 49 -59.5 82.5t-49.5 65.5l92 61q33 -51 59.5 -98.5t53.5 -87.5l21 -29q39 23 68 57q85 97 85 272q0 187 -83 300t-218 113q-58 0 -121 -19t-123 -54q-4 -147 -6 -276t-2 -238v-25.5z" />
</font>
</defs>
</svg>
